<?xml version="1.0" encoding="utf-8"?>
<!-- Generator: Adobe Illustrator 28.2.0, SVG Export Plug-In . SVG Version: 6.00 Build 0)  -->
<svg version="1.1" id="Certificate" xmlns="http://www.w3.org/2000/svg" xmlns:xlink="http://www.w3.org/1999/xlink" x="0px"
	 y="0px" viewBox="0 0 697.9 171.1" style="enable-background:new 0 0 697.9 171.1;" xml:space="preserve">
<style type="text/css">
	.st0{fill:#C3AA8B;}
	.st1{fill:#242A48;}
</style>
<g>
	<path class="st0" d="M131.2,85.4c0.9,0,1.5-0.6,1.5-1.5V46.8c0-5.3-4.3-9.6-9.6-9.6H59.1c-5.3,0-9.6,4.3-9.6,9.6v8.1
		c0,0.9,0.6,1.5,1.5,1.5h14.4v66.4c0,3.3,2.7,6.1,6.1,6.1H111v3.5c0,1.4,1.2,2.6,2.6,2.6h30.5c1.4,0,2.6-1.2,2.6-2.6v-6.8
		c0-5.9-4.7-10.8-10.5-11.2c-1.2-0.8-2-1.5-2.6-2.4c2.4-1.8,3.9-4.6,3.9-7.6V103c1.5-2.7,2.1-5,2.6-7c1.2-5.3-7-10.5-10.6-5.3
		c-4.7-0.8-10.3,0.8-11.1,4.9c-0.8,3.8,0.5,6.4,1.2,7.4c0.2,0.3-0.8,5.8,4.4,9c-0.6,0.8-1.4,1.5-2.4,2.1
		c-5.8,0.3-10.5,5.3-10.5,11.2v0.5H71.7c-1.7,0-3-1.4-3-3c-0.2-0.3,0-76.3-0.3-77.8c-0.3-1.7-1.1-3.2-2.3-4.6c0,0,0-0.2-0.2-0.2
		h57.3c3.6,0,6.5,2.9,6.5,6.5v37.1C129.7,84.7,130.5,85.4,131.2,85.4z M129,120.2l-4.4-4.4c1.1-0.8,1.8-1.8,2.4-2.7
		c0.6,0.2,1.2,0.2,1.7,0.2c0.8,0,1.5-0.2,2.3-0.3c0.6,1.1,1.4,2.1,2.4,2.9C133.4,115.8,129,120.2,129,120.2z M136.3,117.2
		c4.1,0.5,7.4,3.9,7.4,8.2v6.4h-13.2v-8.7C130.5,123.1,136.3,117.2,136.3,117.2z M121.4,98.9c-0.2-0.8-0.2-1.7,0.2-2.7
		c0.3-1.4,3.5-3.5,8.7-2.3c0.8,0.2,1.5-0.2,1.8-0.9c1.4-3.3,5.9,0,5.5,2.4c-0.3,1.4-0.6,2.7-1.4,4.3c-0.5-0.6-1.1-2.3-2.9-2.3H124
		C122,97.3,121.5,98.8,121.4,98.9z M122.7,104.3v-1.4l1.4-2.6h8.7l1.8,2.7v1.2c0,3.3-2.7,5.9-5.9,5.9S122.7,107.6,122.7,104.3z
		 M114.2,125.4c0-4.3,3.2-7.7,7.4-8.2l5.9,5.9v8.7h-13.2C114.2,129,114.2,125.1,114.2,125.4z M65.5,53.2H52.5v-6.4
		c0-3.6,2.9-6.5,6.5-6.5c3,0,5.8,2.1,6.4,5.2C65.6,46.4,65.5,48,65.5,53.2z"/>
	<path class="st0" d="M115.6,54.4c0.9,0,1.5-0.6,1.5-1.5c0-0.9-0.6-1.5-1.5-1.5h-33c-0.9,0-1.5,0.6-1.5,1.5c0,0.9,0.6,1.5,1.5,1.5
		H115.6z M124.7,63.5c0-0.9-0.6-1.5-1.5-1.5H75c-0.9,0-1.5,0.6-1.5,1.5s0.6,1.5,1.5,1.5h48.3C124.1,65.1,124.7,64.3,124.7,63.5z
		 M105.4,90.4c1.4-1.4,1.2-3.3,0-4.6c-3-3-3-2.9-3-3v-4.1c0-1.8-1.5-3.3-3.2-3.3h-4.1c-0.2,0,0,0-3-3c-1.2-1.2-3.3-1.2-4.6,0
		c-3,3-2.9,3-3,3h-4.1c-1.8,0-3.2,1.5-3.2,3.3c0,3.9,0.2,4.1,0,4.3l-2.9,2.9c-1.2,1.2-1.2,3.3,0,4.6c3,3,3,2.9,3,3v4.1
		c0,0.9,0.3,1.7,0.9,2.3c1.2,1.2,2.6,0.9,2.9,0.9l-4.7,8.8c-0.6,1.2,0.5,2.4,1.7,2.1l4.4-1.1l1.2,5.5c0.3,1.4,2.1,1.7,2.7,0.5
		l3.5-6.2l2.1,8.2c0.3,1.4,2.3,1.5,2.9,0.3l2.3-4.9l3.9,2.4c1.2,0.6,2.6-0.5,2.3-1.7l-2.6-9.9c-0.2-0.8-1.1-1.2-1.8-1.1
		c-0.8,0.2-1.4,1.1-1.1,1.8l1.7,6.4c-2-0.9-2.4-1.8-3.5-1.4c-0.5,0.2-0.8,0.5-0.9,0.8L94,114c-0.3-0.9-2.6-9.9-2.6-9.6
		c0.3-0.2,0.5-0.3,0.6-0.5c3-3,2.9-3,3-3h4.1c1.8,0,3.3-1.5,3.2-3.3v-4.1C102.5,93.3,102.5,93.5,105.4,90.4z M85.7,111.7
		c-0.6-2.6-0.5-3.5-1.4-3.9c-0.9-0.6-1.5,0-3.8,0.5l3.9-7.3c0.2,0,0-0.2,3,3c0.3,0.3,0.5,0.5,0.8,0.6l0.5,1.8
		C88.7,106.4,85.7,111.7,85.7,111.7z M100.4,91.2c-0.6,0.6-0.9,1.5-0.9,2.3c0,3.9,0.2,4.3-0.2,4.3c-3,0.2-4.9-0.6-6.4,0.9l-2.9,2.9
		c-0.2,0-0.3-0.2-0.5-0.2l-2.7-2.7c-1.1-1.1-2.1-0.9-2.3-0.9h-4.1c-0.2,0-0.2-0.2-0.2-0.2v-4.1c0-0.9-0.3-1.7-0.9-2.3
		c-2.9-3-3-2.9-3-3s0,0,3-3c0.6-0.6,0.9-1.5,0.9-2.3c0-3.9-0.2-4.4,0.2-4.4h4.1c0.9,0,1.7-0.3,2.3-0.9c3-2.9,2.9-3.2,3.2-2.9
		l2.9,2.9c0.9,0.9,2,0.9,2.1,0.9h4.1c0.3,0,0.2,0.3,0.2,4.3c0,0.9,0.3,1.7,0.9,2.3c2.9,2.9,3.2,2.9,2.9,3.2
		C103.1,88.2,100.4,91.2,100.4,91.2z"/>
	<path class="st0" d="M89.8,80.7c-4.1,0-7.3,3.3-7.3,7.3c0,4.1,3.3,7.3,7.3,7.3c4.1,0,7.3-3.3,7.3-7.3
		C97.1,84.1,93.9,80.7,89.8,80.7z M89.8,92.4c-2.4,0-4.3-2-4.3-4.3c0-2.4,2-4.3,4.3-4.3c2.4,0,4.3,2,4.3,4.3
		C94,90.4,92.2,92.4,89.8,92.4z M133.4,127.2h7.3c0.9,0,1.5-0.6,1.5-1.5s-0.6-1.5-1.5-1.5h-7.3c-0.9,0-1.5,0.6-1.5,1.5
		S132.6,127.2,133.4,127.2z"/>
</g>
<g>
	<path class="st0" d="M169.5,99.8c2.6,0.7,5.5,1.3,8.6,1.7c3.2,0.4,6.2,0.6,9.3,0.6c1.5,0,3,0,4.3-0.1c1.4-0.1,3.1-0.2,5.2-0.5v-14
		l-8.4-0.7c-3.9-0.3-7.2-0.8-9.7-1.4c-2.6-0.7-4.6-1.6-6.1-2.8c-1.5-1.2-2.6-2.8-3.2-4.8c-0.6-2-0.9-4.4-0.9-7.3
		c0-4.5,0.6-8.1,1.8-10.8c1.2-2.7,3.2-4.6,5.9-5.7c2.7-1.2,6.3-1.8,10.8-1.8c3.3,0,6.4,0.2,9.5,0.5c3.1,0.3,6.2,0.8,9.4,1.5
		l-1.4,8.8c-2.8-0.5-5.4-0.9-7.9-1.1c-2.5-0.2-5.2-0.3-8.2-0.3c-1.7,0-3.2,0-4.2,0.1c-1.1,0.1-2.3,0.2-3.5,0.4v14.2l9.2,0.6
		c4.8,0.4,8.5,1.1,11.3,2.3c2.8,1.2,4.8,3,6,5.4c1.2,2.4,1.8,5.6,1.8,9.6c0,4.2-0.7,7.6-2.1,10.2c-1.4,2.6-3.7,4.4-6.9,5.5
		s-7.4,1.7-12.6,1.7c-3.4,0-6.7-0.2-9.9-0.6c-3.2-0.4-6.4-1-9.6-1.9L169.5,99.8z"/>
	<path class="st0" d="M219.5,125.7V64.8h5.2l5.9,9.8v50.1L219.5,125.7z M242.4,111.3c-3.7,0-6.8-0.4-9.3-1.1c-2.4-0.7-4.3-2-5.7-3.7
		c-1.4-1.7-2.3-4.2-2.9-7.3c-0.6-3.1-0.9-7.1-0.9-11.9c0-4.8,0.3-8.7,0.9-11.8c0.6-3,1.5-5.4,2.9-7.1s3.3-2.9,5.7-3.6
		c2.4-0.7,5.5-1,9.3-1c3.3,0,6.1,0.4,8.3,1.1c2.2,0.8,3.9,2,5.2,3.8c1.3,1.8,2.2,4.2,2.7,7.2c0.5,3,0.8,6.8,0.8,11.5
		c0,4.6-0.3,8.5-0.8,11.6c-0.5,3.1-1.5,5.5-2.8,7.3c-1.3,1.8-3,3.1-5.2,3.8C248.4,111,245.6,111.3,242.4,111.3z M230.6,102.5h12.9
		c1.6,0,2.6-0.1,3.2-0.5c0.6-0.3,0.9-0.9,0.9-1.8V72.6h-13c-1.5,0-2.5,0.2-3.1,0.5c-0.6,0.3-0.9,0.8-0.9,1.5V102.5z"/>
	<path class="st0" d="M287.9,111c-3.6,0-6.6-0.4-9-1.2c-2.5-0.8-4.4-2.1-5.9-3.8c-1.4-1.8-2.5-4.2-3.1-7.2c-0.6-3-0.9-6.8-0.9-11.3
		c0-5.8,0.6-10.5,1.9-14c1.3-3.5,3.4-5.9,6.4-7.4c3-1.5,7-2.2,12-2.2c4.9,0,8.7,0.4,11.4,1.2c2.7,0.8,4.6,2.2,5.7,4.2
		c1.1,2,1.7,4.8,1.7,8.4c0,3.1-0.4,5.6-1.1,7.5s-2,3.4-4,4.4c-1.9,1-4.7,1.7-8.2,2.1c-3.6,0.4-8.2,0.6-14,0.6H278v-6.6h12.7
		c2.8,0,4.8-0.3,5.8-1c1-0.7,1.5-2,1.5-3.9v-8.2h-10c-2.8,0-4.7,0.3-5.7,1c-1,0.7-1.5,2-1.5,3.9v24.2c1.2,0.3,2.5,0.5,3.9,0.7
		c1.4,0.2,3.1,0.2,5.1,0.2c2.5,0,4.9-0.2,7.3-0.5c2.4-0.4,5.2-0.9,8.4-1.7l1.4,8c-2.5,0.9-5.3,1.6-8.6,2.1
		C294.9,110.7,291.5,111,287.9,111z"/>
	<path class="st0" d="M335.7,111c-3.3,0-6.1-0.4-8.3-1.1c-2.2-0.8-4-2-5.3-3.8c-1.3-1.8-2.2-4.2-2.8-7.2c-0.6-3-0.9-6.9-0.9-11.4
		c0-4.6,0.3-8.4,0.9-11.4c0.6-3,1.5-5.5,2.8-7.2c1.3-1.8,3.1-3,5.3-3.8c2.2-0.8,5-1.1,8.3-1.1c1.7,0,3.4,0.1,5.3,0.2
		c1.8,0.1,3.6,0.3,5.3,0.6c1.7,0.3,3.1,0.6,4.2,0.9l-1.2,8.1c-2-0.5-3.9-0.8-5.8-1c-1.9-0.2-3.9-0.3-5.9-0.3c-2.8,0-4.7,0.5-5.8,1.6
		c-1.1,1.1-1.6,3-1.6,5.8v21.9c1.9,0.6,4.6,0.9,8.1,0.9c2,0,3.9-0.2,5.7-0.5c1.8-0.4,4-0.9,6.4-1.7l1.1,8c-2.2,0.9-4.6,1.6-7.4,2.1
		C341.4,110.7,338.6,111,335.7,111z"/>
	<path class="st0" d="M367.4,57.9c-2.5,0-4.2-0.4-5.2-1.3c-0.9-0.9-1.4-2.5-1.4-5c0-2.5,0.5-4.2,1.4-5.2c0.9-0.9,2.6-1.4,5.2-1.4
		c2.5,0,4.2,0.5,5.1,1.4c0.9,0.9,1.4,2.6,1.4,5.2c0,2.5-0.4,4.1-1.3,5C371.7,57.4,370,57.9,367.4,57.9z M361.8,65.8l11.1-1.5V110
		h-11.1V65.8z"/>
	<path class="st0" d="M398.9,111c-5.1,0-8.7-1.1-10.9-3.3c-2.2-2.2-3.3-5.7-3.3-10.7c0-3.1,0.3-5.6,1-7.5c0.7-1.9,1.9-3.4,3.7-4.4
		c1.8-1,4.4-1.7,7.8-2.1c3.4-0.4,7.8-0.6,13.2-0.6h4.4v6.6h-12.8c-2.7,0-4.6,0.3-5.6,1c-1,0.7-1.5,2-1.5,3.9v8.8h10.2
		c2.7,0,4.6-0.3,5.6-1c1-0.7,1.5-2,1.5-3.9V73.2c-1.9-0.6-4.6-0.9-8-0.9c-2.5,0-5,0.2-7.7,0.5c-2.7,0.4-5.4,0.9-8.2,1.7l-1.4-8
		c1.7-0.6,3.6-1.1,5.6-1.5c2.1-0.4,4.3-0.7,6.6-0.9c2.3-0.2,4.5-0.3,6.7-0.3c4.3,0,7.7,0.4,10.3,1.3c2.6,0.9,4.5,2.3,5.6,4.2
		c1.1,2,1.7,4.6,1.7,7.8V110h-5.3l-2.9-4.5c-2.2,1.9-4.6,3.3-7.2,4.2C405.1,110.5,402.1,111,398.9,111z"/>
	<path class="st0" d="M448,101.9c0.6,0.1,1.3,0.2,2,0.3c0.8,0.1,1.5,0.2,2.2,0.2l-0.6,7.5c-1.3,0.4-2.5,0.6-3.7,0.8
		c-1.1,0.2-2.2,0.3-3.2,0.3c-2.7,0-4.6-0.6-5.9-1.9c-1.3-1.2-1.9-3.1-1.9-5.6V51.3l11.1-1.4V101.9z"/>
	<path class="st0" d="M468.2,57.9c-2.5,0-4.2-0.4-5.2-1.3c-0.9-0.9-1.4-2.5-1.4-5c0-2.5,0.5-4.2,1.4-5.2c0.9-0.9,2.6-1.4,5.2-1.4
		c2.5,0,4.2,0.5,5.1,1.4c0.9,0.9,1.4,2.6,1.4,5.2c0,2.5-0.4,4.1-1.3,5C472.4,57.4,470.7,57.9,468.2,57.9z M462.6,65.8l11.1-1.5V110
		h-11.1V65.8z"/>
	<path class="st0" d="M507.4,73.4l-0.4-0.5h-20l-0.8-8h35.1V71l-23,30.5l0.3,0.5H521v8h-36.5v-6.1L507.4,73.4z"/>
	<path class="st0" d="M548.7,111c-3.6,0-6.6-0.4-9-1.2c-2.5-0.8-4.4-2.1-5.9-3.8c-1.4-1.8-2.5-4.2-3.1-7.2c-0.6-3-0.9-6.8-0.9-11.3
		c0-5.8,0.6-10.5,1.9-14c1.3-3.5,3.4-5.9,6.4-7.4c3-1.5,7-2.2,12-2.2c4.9,0,8.7,0.4,11.4,1.2c2.7,0.8,4.6,2.2,5.7,4.2
		c1.1,2,1.7,4.8,1.7,8.4c0,3.1-0.4,5.6-1.1,7.5s-2,3.4-4,4.4c-1.9,1-4.7,1.7-8.2,2.1c-3.6,0.4-8.2,0.6-14,0.6h-2.7v-6.6h12.7
		c2.8,0,4.8-0.3,5.8-1c1-0.7,1.5-2,1.5-3.9v-8.2h-10c-2.8,0-4.7,0.3-5.7,1c-1,0.7-1.5,2-1.5,3.9v24.2c1.2,0.3,2.5,0.5,3.9,0.7
		c1.4,0.2,3.1,0.2,5.1,0.2c2.5,0,4.9-0.2,7.3-0.5c2.4-0.4,5.2-0.9,8.4-1.7l1.4,8c-2.5,0.9-5.3,1.6-8.6,2.1
		C555.7,110.7,552.2,111,548.7,111z"/>
	<path class="st0" d="M596.2,63.8c3.8,0,6.9,0.3,9.3,1c2.4,0.7,4.3,1.9,5.6,3.7s2.3,4.1,2.9,7.2c0.6,3,0.9,6.9,0.9,11.7
		c0,4.8-0.3,8.8-0.9,11.9c-0.6,3.1-1.5,5.6-2.9,7.3c-1.4,1.7-3.2,3-5.6,3.7c-2.4,0.7-5.5,1-9.3,1c-3.3,0-6.1-0.4-8.3-1.2
		c-2.2-0.8-3.9-2.1-5.2-3.8c-1.3-1.8-2.2-4.2-2.7-7.3c-0.5-3.1-0.8-7-0.8-11.6c0-4.6,0.3-8.4,0.8-11.4c0.5-3,1.5-5.5,2.8-7.2
		c1.3-1.8,3-3,5.2-3.8C590.2,64.2,593,63.8,596.2,63.8z M608,72.6H595c-1.6,0-2.6,0.2-3.2,0.5c-0.6,0.3-0.9,0.9-0.9,1.9v27.6h13
		c1.6,0,2.6-0.1,3.2-0.5c0.5-0.3,0.8-0.9,0.8-1.8V72.6z M619.1,49.1V110h-5.2l-5.9-9.8V50.2L619.1,49.1z"/>
</g>
</svg>
