<?xml version="1.0" encoding="utf-8"?>
<!-- Generator: Adobe Illustrator 28.2.0, SVG Export Plug-In . SVG Version: 6.00 Build 0)  -->
<svg version="1.1" id="innovative-idea" xmlns="http://www.w3.org/2000/svg" xmlns:xlink="http://www.w3.org/1999/xlink" x="0px"
	 y="0px" viewBox="0 0 697.9 171.1" style="enable-background:new 0 0 697.9 171.1;" xml:space="preserve">
<style type="text/css">
	.st0{fill:#242A48;}
	.st1{fill:#C3AA8B;}
</style>
<g>
	<g>
		<path class="st1" d="M44.8,139.1c-2.2,0-4.1,1.8-4.1,4.1v2.4c0,0.6,0.5,1.1,1.1,1.1h96.8c0.6,0,1.1-0.5,1.1-1.1v-2.4
			c0-2.2-1.8-4.1-4.1-4.1H91.4v-0.2c16-7,36.8-5.6,40.8-5.2c0.1,1,0.2,2,0.3,3c0.1,0.6,0.7,1,1.3,0.9c0.6-0.1,1-0.7,0.9-1.3
			c-0.7-4-0.2-8.4-0.2-8.5c0.1-0.6-0.4-1.2-1-1.3c-2.2-0.3-4.3-0.5-6.3-0.6c5.8-6.6,5-16.7,5-17.2c-0.1-0.6-0.6-1.1-1.2-1
			c-0.3,0-0.5,0.1-0.7,0.3c-0.1,0.1-6.1,5.8-22.1,9.3c-8.9,2-13.6,6.7-16,10.3c-1,1.6-1.9,3.3-2.5,5c-8.6-11.4-19.7-15.2-27.7-16.3
			c-9.1-1.3-16.1,0.5-16.4,0.6c-0.6,0.2-1,0.8-0.8,1.4c0.1,0.3,0.3,0.6,0.5,0.7c1.8,1,3.4,2.5,4.6,4.2c0.4,0.5,1.1,0.7,1.6,0.3
			c0.5-0.4,0.7-1.1,0.3-1.6c0,0,0,0,0,0c-0.8-1.2-1.9-2.3-3-3.3c4.3-0.6,8.7-0.6,13,0c9.6,1.4,17.5,5.6,23.7,12.5
			c-6.6-3.2-19.2-7.2-38.7-4.6c-0.6,0.1-1,0.6-1,1.3c0,0.1,0.7,6.9-1,11.3L44.8,139.1z M137.5,143.2v1.2H43v-1.2
			c0-1,0.8-1.8,1.8-1.8h90.9C136.7,141.4,137.5,142.2,137.5,143.2z M132.2,131.4c-4.7-0.4-24.6-1.6-40.8,5.1v-0.6
			c2.4-1.8,15.6-10.3,40.9-7.2C132.2,129.3,132.2,130.3,132.2,131.4z M108.8,119.5c11.7-2.6,18.3-6.4,21.2-8.4
			c-0.1,3.6-1,10.6-5.8,14.6c-17-0.5-27.4,4.1-32,6.9C93.8,128.7,97.9,122,108.8,119.5L108.8,119.5z M89.1,135.9v0.6
			c-16.2-6.7-36-5.5-40.8-5.1c0-1.1,0-2.1-0.1-2.8C73.4,125.6,86.7,134.1,89.1,135.9z M48.3,133.7c4-0.3,24.8-1.7,40.8,5.2v0.2H47.4
			C47.9,137.3,48.2,135.5,48.3,133.7z"/>
		<path class="st1" d="M54.8,74.3c0,16.4,11.7,30.4,27.9,33.3l3.7,12.9c0.1,0.5,0.6,0.8,1.1,0.8h0c0.5,0,0.9-0.3,1.1-0.8l4.2-12.7
			c18.6-2.3,31.8-19.2,29.5-37.8c-2.3-18.6-19.2-31.8-37.8-29.5C67.6,42.8,54.8,57.2,54.8,74.3z M120.3,74.3
			c0.1,16.2-12.3,29.9-28.4,31.4c-0.4,0-0.8,0.3-1,0.8l-3.3,9.9l-2.9-10.1c-0.1-0.4-0.5-0.7-0.9-0.8c-17.2-2.7-29-18.9-26.3-36.2
			c2.7-17.2,18.9-29,36.2-26.3C109,45.6,120.3,58.8,120.3,74.3L120.3,74.3z"/>
		<path class="st1" d="M88.3,57.9c-7.6,0-13.8,6.2-13.8,13.8c0,3.3,1.2,6.6,3.4,9.1c1.2,1.4,2,3,2.4,4.7l0.5,2.1l0.3,4.3v0l0.1,1.8
			c0.1,2.2,1.7,4,3.8,4.5c2.1,0.5,4.3,0.5,6.4,0c2.1-0.5,3.7-2.3,3.8-4.5l0.4-6.1l0.5-2.1c0.4-1.8,1.3-3.4,2.4-4.8
			c5-5.8,4.3-14.4-1.4-19.4c-2.5-2.1-5.6-3.3-8.8-3.4C88.4,57.9,88.4,57.9,88.3,57.9z M93.3,90.9c-4.2,1.3-8.3,0.5-9.9,0.1l-0.1-2.1
			c3.4,0.6,6.8,0.6,10.2,0L93.3,90.9z M91,96c-1.8,0.4-3.7,0.4-5.5,0c-1.1-0.3-2-1.3-2.1-2.4l0-0.2c1.6,0.4,3.2,0.5,4.9,0.5
			c1.6,0,3.2-0.2,4.8-0.6l0,0.3C93,94.7,92.2,95.7,91,96z M99.8,71.6c0,2.8-1,5.4-2.8,7.5c-1.4,1.7-2.4,3.6-2.9,5.8l-0.4,1.5
			c-3.6,0.8-7.3,0.8-10.8,0l-0.4-1.5c-0.5-2.1-1.5-4.1-2.9-5.7c-4.2-4.8-3.7-12,1.1-16.2c2.1-1.8,4.8-2.9,7.6-2.9h0.1
			C94.7,60.2,99.8,65.4,99.8,71.6L99.8,71.6z"/>
		<path class="st1" d="M87.9,74.6l-0.6-2.5c-0.3-1.3-1.7-2.2-3-1.8c-0.8,0.2-1.4,0.7-1.7,1.4l-0.3,0.8c-0.1,0.2-0.3,0.4-0.6,0.4
			h-1.2c-0.6,0-1.1,0.5-1.1,1.1c0,0.6,0.5,1.1,1.1,1.1h1.2c1.2,0,2.2-0.7,2.7-1.8l0.3-0.8c0-0.1,0.1-0.2,0.2-0.1
			c0.1,0,0.2,0.1,0.2,0.2l0.6,2.5c0.3,1.2,1.4,2.1,2.6,2.2c0,0,0.1,0,0.1,0c1.2,0,2.3-0.8,2.7-1.9l1-2.8c0,0,0,0,0,0l0.1,0.2
			c0.5,1.4,1.9,2.3,3.4,2.3h0.2c0.6,0,1.1-0.5,1.1-1.1s-0.5-1.1-1.1-1.1h-0.2c-0.6,0-1.1-0.4-1.3-0.9l-0.1-0.2
			c-0.5-1.2-1.8-1.8-3-1.3c-0.6,0.2-1.1,0.8-1.3,1.4l-1,2.8c-0.1,0.3-0.4,0.4-0.7,0.3C88.1,75,87.9,74.8,87.9,74.6L87.9,74.6z
			 M69.5,73.4h-3c-0.6,0-1.1,0.5-1.1,1.1c0,0.6,0.5,1.1,1.1,1.1h3c0.6,0,1.1-0.5,1.1-1.1C70.6,73.9,70.1,73.4,69.5,73.4z M87.2,49.8
			v3c0,0.6,0.5,1.1,1.1,1.1c0.6,0,1.1-0.5,1.1-1.1v-3c0-0.6-0.5-1.1-1.1-1.1C87.7,48.7,87.2,49.2,87.2,49.8z M106.8,75.7h3
			c0.6,0,1.1-0.5,1.1-1.1c0-0.6-0.5-1.1-1.1-1.1h-3c-0.6,0-1.1,0.5-1.1,1.1C105.7,75.2,106.2,75.7,106.8,75.7z M71.5,57.6
			c-0.4-0.4-1.2-0.4-1.6,0c-0.4,0.4-0.4,1.1,0,1.6l2.1,2.1c0.4,0.4,1.2,0.4,1.6,0c0.4-0.4,0.4-1.2,0-1.6L71.5,57.6z M101.5,59.5
			c0.3,0,0.6-0.1,0.8-0.3l2.1-2.1c0.4-0.4,0.4-1.2,0-1.6c-0.4-0.4-1.1-0.4-1.6,0l-2.1,2.1c-0.4,0.4-0.4,1.2,0,1.6
			C101,59.4,101.2,59.5,101.5,59.5z"/>
	</g>
	<g>
		<path class="st1" d="M170.1,66.3h13v65.9h-13V66.3z"/>
		<path class="st1" d="M200.1,132.2V79.5h6.1l3.5,5.3c2.7-2.2,5.7-3.8,9-4.9c3.2-1.1,6.9-1.6,11-1.6c4.9,0,8.7,0.8,11.3,2.5
			c2.6,1.7,3.9,4.1,3.9,7.2v44.2h-13V89h-11c-3,0-5,0.4-6.1,1.1c-1.1,0.7-1.7,2.2-1.7,4.3v37.9H200.1z"/>
		<path class="st1" d="M261.3,132.2V79.5h6.1l3.5,5.3c2.7-2.2,5.7-3.8,9-4.9c3.2-1.1,6.9-1.6,11-1.6c4.9,0,8.7,0.8,11.3,2.5
			c2.6,1.7,3.9,4.1,3.9,7.2v44.2h-13V89h-11c-3,0-5,0.4-6.1,1.1c-1.1,0.7-1.7,2.2-1.7,4.3v37.9H261.3z"/>
		<path class="st1" d="M343.5,133.4c-4.6,0-8.5-0.4-11.6-1.3c-3.1-0.9-5.6-2.4-7.4-4.4c-1.8-2.1-3.1-4.9-3.9-8.4
			c-0.8-3.5-1.2-8-1.2-13.3c0-5.3,0.4-9.8,1.2-13.3c0.8-3.5,2.1-6.4,3.9-8.4c1.8-2.1,4.3-3.5,7.4-4.4c3.1-0.9,7-1.3,11.6-1.3
			c4.7,0,8.6,0.4,11.7,1.3c3.1,0.9,5.5,2.4,7.3,4.4c1.8,2.1,3.1,4.9,3.8,8.4c0.8,3.5,1.2,8,1.2,13.4c0,5.3-0.4,9.8-1.2,13.3
			c-0.8,3.6-2.1,6.4-3.8,8.4c-1.8,2.1-4.3,3.6-7.4,4.4S348.2,133.4,343.5,133.4z M333.2,123.2h15.9c1.9,0,3.2-0.2,3.8-0.6
			c0.7-0.4,1-1.1,1-2.2V88.6h-15.9c-1.9,0-3.2,0.2-3.8,0.6c-0.7,0.4-1,1.1-1,2.2V123.2z"/>
		<path class="st1" d="M373.7,79.5h12.8l11.4,41.5h1.1l11.3-41.5h12.8l-14.8,52.7h-19.7L373.7,79.5z"/>
		<path class="st1" d="M445.2,133.4c-5.9,0-10.2-1.3-12.8-3.8c-2.6-2.5-3.9-6.7-3.9-12.4c0-3.6,0.4-6.5,1.2-8.7
			c0.8-2.2,2.2-3.9,4.3-5.1c2.1-1.2,5.1-2,9.1-2.5c3.9-0.5,9.1-0.7,15.4-0.7h5.2v7.7h-15c-3.2,0-5.3,0.4-6.5,1.2
			c-1.2,0.8-1.8,2.3-1.8,4.6v10.2h11.9c3.2,0,5.3-0.4,6.5-1.2c1.2-0.8,1.7-2.3,1.7-4.5V89.3c-2.2-0.7-5.4-1.1-9.4-1.1
			c-2.9,0-5.9,0.2-9,0.6c-3.1,0.4-6.3,1.1-9.5,2l-1.7-9.3c2-0.7,4.2-1.3,6.6-1.8c2.4-0.5,5-0.9,7.6-1.1c2.7-0.2,5.3-0.4,7.8-0.4
			c5,0,9,0.5,12,1.5c3,1,5.2,2.7,6.5,5c1.3,2.3,2,5.3,2,9.1v38.3h-6.2l-3.4-5.3c-2.5,2.2-5.3,3.8-8.4,4.9
			C452.4,132.9,449,133.4,445.2,133.4z"/>
		<path class="st1" d="M486,88.3v-8.8h28.8v8.8H486z M502,133.4c-3.1,0-5.4-0.7-6.9-2.2c-1.5-1.4-2.2-3.6-2.2-6.6V68.9l12.9-3.3
			v57.2c1.1,0.1,2.1,0.3,3.2,0.4c1.1,0.1,2.4,0.2,4.1,0.3l-0.7,8.8c-2.3,0.4-4.2,0.7-5.9,0.9C504.8,133.3,503.3,133.4,502,133.4z"/>
		<path class="st1" d="M534.1,71.4c-3,0-5-0.5-6-1.5c-1.1-1-1.6-3-1.6-5.9c0-3,0.5-5,1.6-6s3.1-1.6,6-1.6c2.9,0,4.8,0.5,5.9,1.6
			s1.6,3.1,1.6,6c0,2.9-0.5,4.8-1.5,5.9C539,70.9,537,71.4,534.1,71.4z M527.5,80.7l13-1.8v53.4h-13V80.7z"/>
		<path class="st1" d="M549.6,79.5h12.8l11.4,41.5h1.1l11.3-41.5h12.8l-14.8,52.7h-19.7L549.6,79.5z"/>
		<path class="st1" d="M627.1,133.4c-4.1,0-7.7-0.5-10.5-1.4c-2.9-0.9-5.2-2.4-6.9-4.5c-1.7-2.1-2.9-4.9-3.6-8.4
			c-0.7-3.5-1.1-8-1.1-13.2c0-6.8,0.7-12.2,2.2-16.3c1.5-4,4-6.9,7.4-8.6c3.5-1.7,8.1-2.6,14-2.6c5.7,0,10.1,0.5,13.3,1.4
			s5.4,2.6,6.7,5c1.3,2.4,2,5.6,2,9.9c0,3.6-0.4,6.5-1.3,8.7c-0.8,2.2-2.4,3.9-4.6,5.1c-2.3,1.2-5.4,2-9.6,2.5
			c-4.1,0.5-9.6,0.7-16.3,0.7h-3.2v-7.7h14.8c3.3,0,5.6-0.4,6.7-1.2c1.2-0.8,1.8-2.3,1.8-4.6v-9.6h-11.7c-3.2,0-5.4,0.4-6.6,1.2
			c-1.2,0.8-1.8,2.3-1.8,4.5v28.3c1.4,0.4,2.9,0.6,4.5,0.8c1.6,0.2,3.6,0.3,5.9,0.3c2.9,0,5.7-0.2,8.5-0.6c2.8-0.4,6.1-1.1,9.8-2
			l1.7,9.3c-2.9,1.1-6.2,1.9-10.1,2.4C635.2,133.1,631.2,133.4,627.1,133.4z"/>
	</g>
</g>
</svg>
