<?xml version="1.0" encoding="utf-8"?>
<!-- Generator: Adobe Illustrator 28.2.0, SVG Export Plug-In . SVG Version: 6.00 Build 0)  -->
<svg version="1.1" id="Layer_1" xmlns="http://www.w3.org/2000/svg" xmlns:xlink="http://www.w3.org/1999/xlink" x="0px" y="0px"
	 viewBox="0 0 1920 1080" style="enable-background:new 0 0 1920 1080;" xml:space="preserve">
<style type="text/css">
	.st0{fill:url(#SVGID_1_);}
	.st1{fill:url(#SVGID_00000167390003090319436960000017447694996819787942_);}
	.st2{fill:url(#SVGID_00000149348495006577435510000001178512138133228672_);}
	.st3{fill:url(#SVGID_00000006679339099536857340000005250372612239804060_);}
	.st4{fill:url(#SVGID_00000171692688119914630740000006849581761852701065_);}
	.st5{fill:url(#SVGID_00000118355449731010070080000015701858360592317615_);}
	.st6{fill:url(#SVGID_00000127731698579722763820000007156603073974217345_);}
	.st7{fill:url(#SVGID_00000157281918457771363530000013457790950797949108_);}
	.st8{fill:url(#SVGID_00000125600996719453012100000011429098938524688796_);}
	.st9{fill:url(#SVGID_00000095339625672403772530000016036110852766821790_);}
	.st10{fill:url(#SVGID_00000090286702429000309550000013071336327797333180_);}
	.st11{fill:url(#SVGID_00000116928892571271456010000009731697415747595195_);}
	.st12{fill:url(#SVGID_00000108278160803069733080000000345671907765653685_);}
	.st13{fill:url(#SVGID_00000020386484129770058000000000510123381777712563_);}
	.st14{fill:url(#SVGID_00000096033620226822802040000010441185242155249829_);}
	.st15{fill:url(#SVGID_00000159467809871090524080000000630968511016262316_);}
	.st16{fill:#FFFFFF;}
	.st17{fill:url(#SVGID_00000176024358666755637560000005773190446372361905_);}
	.st18{fill:url(#SVGID_00000124850994632522060360000012495774464121522364_);}
	.st19{fill:url(#SVGID_00000101784600054034983690000012176704850529342630_);}
	.st20{fill:url(#SVGID_00000134928908893835482760000015647508058477969075_);}
	.st21{fill:url(#SVGID_00000147903033188650549890000007105356341710474896_);}
	.st22{fill:url(#SVGID_00000065052591965489472520000013788771838721520266_);}
	.st23{fill:url(#SVGID_00000067933761684733804220000012681051581721164724_);}
	.st24{fill:url(#SVGID_00000104669195984165452960000004072623687252331932_);}
	.st25{fill:url(#SVGID_00000167383365822511032680000004964054917723909048_);}
	.st26{fill:url(#SVGID_00000021110565872068378650000003416358319715036070_);}
	.st27{fill:url(#SVGID_00000072250572837440543710000015021462554321369493_);}
	.st28{fill:url(#SVGID_00000098915457735772917940000006894548979397214892_);}
	.st29{fill:url(#SVGID_00000046298878408840970860000015424921385413083030_);}
	.st30{fill:url(#SVGID_00000112592977598137962960000004919688496450943875_);}
	.st31{fill:url(#SVGID_00000116943782193446000210000001272536921056482702_);}
	.st32{fill:url(#SVGID_00000178910321923963470470000014849488624448187035_);}
</style>
<g>
	<g>
		<g>
			<linearGradient id="SVGID_1_" gradientUnits="userSpaceOnUse" x1="1509.141" y1="519.84" x2="1596.4745" y2="519.84">
				<stop  offset="0" style="stop-color:#785E45"/>
				<stop  offset="1" style="stop-color:#E7CFAC"/>
			</linearGradient>
			<path class="st0" d="M1509.14,662.35c6.22,1.14,12.05,2.43,18.15,1.2c10.63-2.14,17.58-8.47,21.9-18.16
				c2.74-6.14,2.94-12.67,2.94-19.18c0.05-85.23,0.03-170.45,0.03-255.68c0-0.93,0-1.86,0-2.8c0.01-4.83,0.1-4.93,4.81-4.94
				c7.35-0.01,14.7,0,22.06,0c4.76,0,9.53,0.07,14.29-0.02c2.24-0.04,3.3,0.77,3.13,3.08c-0.08,1.13-0.01,2.28-0.01,3.42
				c0,79.22,0.01,158.44-0.02,237.66c0,5.9,0.16,11.84-0.44,17.69c-1.32,12.97-4.28,25.55-12.92,35.84
				c-5.52,6.57-12.47,11.18-20.95,13.59c-11.07,3.14-22.2,3.67-33.45,1.74c-6.62-1.14-12.65-3.72-17.34-8.8
				C1510.17,665.74,1509.38,664.33,1509.14,662.35z"/>
			
				<linearGradient id="SVGID_00000154396555456074658640000006968656110533853850_" gradientUnits="userSpaceOnUse" x1="1422.4464" y1="540" x2="1596.4751" y2="540">
				<stop  offset="0" style="stop-color:#785E45"/>
				<stop  offset="1" style="stop-color:#E7CFAC"/>
			</linearGradient>
			<path style="fill:url(#SVGID_00000154396555456074658640000006968656110533853850_);" d="M1596.48,655.35
				c-0.33,3.53-0.7,6.88-1.09,10.06c-4.81,39.1-13.48,52.29-13.63,52.51c0,0,0,0,0,0c-0.68,0.53-1.41,1-2.18,1.46
				c-6.48,3.82-13.66,5.96-21.08,6.74c-14.21,1.48-27.98-0.83-41.45-5.54c-9.35-3.27-18.3-7.56-27.69-10.67
				c-7-2.32-14.25-3.37-21.66-3.31c-8.56,0.07-16.92,1.01-24.79,4.7c-3.11,1.46-6.05,3.13-8.53,5.53c-1.01,0.97-2.25,1.59-3.26,0.57
				c-1.06-1.07,0.44-1.82,1.04-2.49c8.19-9.33,15.89-19.04,22.76-29.39c0.93-1.39,1.85-2.8,2.76-4.2l0.02-0.03l12.44-20.73
				l0.58-0.97l0.01-0.01l1.1-1.83c2.24-4.32,4.47-8.64,6.76-12.93c5.49-10.28,9.73-21.13,14.45-31.77
				c2.68-6.03,4.64-12.35,7.05-18.48c2.83-7.2,5.54-14.46,7.65-21.88c2.5-8.83,5.66-17.45,7.64-26.45
				c1.85-8.46,4.19-16.82,6.07-25.28c1.1-4.96,1.74-9.98,2.71-14.95c1.21-6.18,2.35-12.38,3.29-18.61
				c1.59-10.54,2.25-21.18,3.24-31.79c2.11-22.8,1.61-45.25-7.48-66.76c-2.42-5.73-5.38-11.16-9.59-15.7c0,0-0.02-0.03-0.07-0.08
				c-0.01-0.01-0.02-0.03-0.04-0.04c-0.85-0.88-6.76-6.6-16.65-6.72h-0.05c-1.71,0-3.43,0.15-5.16,0.5
				c-10.63,2.14-18.73,7.73-23.05,17.41c-2.73,6.14-4.25,13.42-4.26,19.92c-0.05,85.23-1.85,170.48-1.85,255.71
				c0,0.93,0,1.86,0,2.79c-0.01,4.83-0.1,4.93-4.81,4.94c-7.35,0.01-10.43-0.03-17.78-0.03c-4.76,0-9.53-0.07-14.29,0.03
				c-2.23,0.04-3.3-0.78-3.13-3.08c0.08-1.13,0.01-2.28,0.01-3.42c0-79.22-0.01-158.44,0.02-237.66c0-5.9-0.15-11.84,0.44-17.7
				c1.32-12.97,4.27-25.55,12.92-35.84c5.52-6.57,12.47-11.18,20.95-13.59c7.7-2.19,15.43-3.11,23.22-2.81
				c3.05,0.11,6.1,0.41,9.16,0.9c0.01,0,0.01,0,0.02,0c0.02,0,0.03,0.01,0.04,0.01c3.05,0.59,6.65,1.55,10.46,3.12
				c0.01,0,0.01,0.01,0.02,0.01c2.27,0.93,4.62,2.08,6.97,3.5c3.56,2.15,7.14,4.91,10.47,8.45c0.09,0.14,0.22,0.28,0.37,0.4
				c1.34,1.46,2.64,3.05,3.88,4.78c0.01,0.01,0.01,0.02,0.02,0.03c0.09,0.13,0.18,0.26,0.28,0.39c0.11,0.15,0.22,0.31,0.33,0.47
				c0.03,0.05,0.06,0.09,0.09,0.14h0c2.86,4.21,5.15,8.75,6.83,13.56c4.21,12.06,6.23,24.62,6.73,37.38
				c0.59,15.35-0.72,30.63-1.97,45.89c-0.67,8.24-1.71,16.46-3.06,24.62c-1.54,9.27-3.26,18.51-5.35,27.68
				c-1.65,7.25-3.47,14.46-5.34,21.65c-2.26,8.68-5.01,17.23-7.6,25.82c-2.41,8-4.57,16.09-7.41,23.93
				c-3.16,8.71-6.09,17.5-9.81,26.03c-3.84,8.79-7.92,17.45-12.39,25.93c-1.59,3-3.24,5.97-4.88,8.95l-14.78,24.22
				c-4.62,7.12-9.36,14.17-14.03,21.26c-0.44,0.66-1.27,1.3-0.54,2.17c0.52,0.62,1.36,0.5,2.05,0.33
				c20.33-5.16,41.24-2.33,61.78-4.44c11.61-1.19,23.15-2.65,34.52-5.67c9.75-2.59,19.03-6.06,27.77-11.03
				c1.65-0.94,3.24-1.94,4.78-3c0.47-0.32,0.94-0.65,1.4-0.99c0,0,0,0,0.01,0c0.73-0.45,1.45-1.01,2.16-1.65
				C1590.51,671.46,1596.48,655.35,1596.48,655.35z"/>
			
				<linearGradient id="SVGID_00000105405422098491101050000000559032076934430112_" gradientUnits="userSpaceOnUse" x1="1580.8137" y1="679.1005" x2="1582.9738" y2="679.1005">
				<stop  offset="0" style="stop-color:#785E45"/>
				<stop  offset="1" style="stop-color:#E7CFAC"/>
			</linearGradient>
			<path style="fill:url(#SVGID_00000105405422098491101050000000559032076934430112_);" d="M1582.97,678.28
				c-0.71,0.64-1.43,1.2-2.16,1.65C1581.55,679.39,1582.27,678.84,1582.97,678.28z"/>
			
				<linearGradient id="SVGID_00000062179607102649056970000016136125334994031790_" gradientUnits="userSpaceOnUse" x1="1489.2324" y1="355.96" x2="1499.6969" y2="355.96">
				<stop  offset="0" style="stop-color:#785E45"/>
				<stop  offset="1" style="stop-color:#E7CFAC"/>
			</linearGradient>
			<path style="fill:url(#SVGID_00000062179607102649056970000016136125334994031790_);" d="M1499.7,357.52
				c-3.81-1.57-7.41-2.53-10.46-3.12c0.34,0.05,0.68,0.11,1.02,0.17C1493.58,355.14,1496.76,356.08,1499.7,357.52z"/>
			
				<linearGradient id="SVGID_00000112620983594974993750000015503649408094627210_" gradientUnits="userSpaceOnUse" x1="1480.016" y1="353.9402" x2="1489.1743" y2="353.9402">
				<stop  offset="0" style="stop-color:#785E45"/>
				<stop  offset="1" style="stop-color:#E7CFAC"/>
			</linearGradient>
			<path style="fill:url(#SVGID_00000112620983594974993750000015503649408094627210_);" d="M1489.17,354.39
				c-3.06-0.49-6.11-0.78-9.16-0.9C1480.02,353.5,1483.71,353.35,1489.17,354.39z"/>
			
				<linearGradient id="SVGID_00000013155080493171602870000008523077633111657097_" gradientUnits="userSpaceOnUse" x1="1517.1472" y1="369.6711" x2="1517.5186" y2="369.6711">
				<stop  offset="0" style="stop-color:#785E45"/>
				<stop  offset="1" style="stop-color:#E7CFAC"/>
			</linearGradient>
			<path style="fill:url(#SVGID_00000013155080493171602870000008523077633111657097_);" d="M1517.52,369.87
				c-0.15-0.12-0.29-0.25-0.37-0.4C1517.27,369.6,1517.39,369.74,1517.52,369.87z"/>
			
				<linearGradient id="SVGID_00000134965398847930837890000001077606879329659265_" gradientUnits="userSpaceOnUse" x1="1522.0182" y1="375.593" x2="1522.1141" y2="375.593">
				<stop  offset="0" style="stop-color:#785E45"/>
				<stop  offset="1" style="stop-color:#E7CFAC"/>
			</linearGradient>
			<path style="fill:url(#SVGID_00000134965398847930837890000001077606879329659265_);" d="M1522.11,375.66L1522.11,375.66
				c-0.03-0.05-0.06-0.09-0.1-0.14C1522.05,375.57,1522.08,375.62,1522.11,375.66z"/>
			
				<linearGradient id="SVGID_00000137106015379857957240000014005611177590923166_" gradientUnits="userSpaceOnUse" x1="1579.4039" y1="680.4243" x2="1580.8086" y2="680.4243">
				<stop  offset="0" style="stop-color:#785E45"/>
				<stop  offset="1" style="stop-color:#E7CFAC"/>
			</linearGradient>
			<path style="fill:url(#SVGID_00000137106015379857957240000014005611177590923166_);" d="M1580.81,679.93
				c-0.46,0.34-0.93,0.67-1.4,0.99C1579.83,680.57,1580.3,680.24,1580.81,679.93z"/>
		</g>
		<g>
			
				<linearGradient id="SVGID_00000011012462207167684430000017260736911107477168_" gradientUnits="userSpaceOnUse" x1="1509.4608" y1="726.5574" x2="1509.4608" y2="353.4426">
				<stop  offset="0" style="stop-color:#785E45"/>
				<stop  offset="1" style="stop-color:#E7CFAC"/>
			</linearGradient>
			<path style="fill:url(#SVGID_00000011012462207167684430000017260736911107477168_);" d="M1509.14,662.35
				c6.22,1.14,12.05,2.43,18.15,1.2c10.63-2.14,17.58-8.47,21.9-18.16c2.74-6.14,2.94-12.67,2.94-19.18
				c0.05-85.23,0.03-170.45,0.03-255.68c0-0.93,0-1.86,0-2.8c0.01-4.83,0.1-4.93,4.81-4.94c7.35-0.01,14.7,0,22.06,0
				c4.76,0,9.53,0.07,14.29-0.02c2.24-0.04,3.3,0.77,3.13,3.08c-0.08,1.13-0.01,2.28-0.01,3.42c0,79.22,0.01,158.44-0.02,237.66
				c0,5.9,0.16,11.84-0.44,17.69c-1.32,12.97-4.28,25.55-12.92,35.84c-5.52,6.57-12.47,11.18-20.95,13.59
				c-11.07,3.14-22.2,3.67-33.45,1.74c-6.62-1.14-12.65-3.72-17.34-8.8C1510.17,665.74,1509.38,664.33,1509.14,662.35z"/>
			
				<linearGradient id="SVGID_00000029744245908057750740000010133929495814293425_" gradientUnits="userSpaceOnUse" x1="1509.4608" y1="726.5574" x2="1509.4608" y2="353.4426">
				<stop  offset="0" style="stop-color:#785E45"/>
				<stop  offset="1" style="stop-color:#E7CFAC"/>
			</linearGradient>
			<path style="fill:url(#SVGID_00000029744245908057750740000010133929495814293425_);" d="M1596.48,655.35
				c-0.33,3.53-0.7,6.88-1.09,10.06c-4.81,39.1-13.48,52.29-13.63,52.51c0,0,0,0,0,0c-0.68,0.53-1.41,1-2.18,1.46
				c-6.48,3.82-13.66,5.96-21.08,6.74c-14.21,1.48-27.98-0.83-41.45-5.54c-9.35-3.27-18.3-7.56-27.69-10.67
				c-7-2.32-14.25-3.37-21.66-3.31c-8.56,0.07-16.92,1.01-24.79,4.7c-3.11,1.46-6.05,3.13-8.53,5.53c-1.01,0.97-2.25,1.59-3.26,0.57
				c-1.06-1.07,0.44-1.82,1.04-2.49c8.19-9.33,15.89-19.04,22.76-29.39c0.93-1.39,1.85-2.8,2.76-4.2l0.02-0.03l12.44-20.73
				l0.58-0.97l0.01-0.01l1.1-1.83c2.24-4.32,4.47-8.64,6.76-12.93c5.49-10.28,9.73-21.13,14.45-31.77
				c2.68-6.03,4.64-12.35,7.05-18.48c2.83-7.2,5.54-14.46,7.65-21.88c2.5-8.83,5.66-17.45,7.64-26.45
				c1.85-8.46,4.19-16.82,6.07-25.28c1.1-4.96,1.74-9.98,2.71-14.95c1.21-6.18,2.35-12.38,3.29-18.61
				c1.59-10.54,2.25-21.18,3.24-31.79c2.11-22.8,1.61-45.25-7.48-66.76c-2.42-5.73-5.38-11.16-9.59-15.7c0,0-0.02-0.03-0.07-0.08
				c-0.01-0.01-0.02-0.03-0.04-0.04c-0.85-0.88-6.76-6.6-16.65-6.72h-0.05c-1.71,0-3.43,0.15-5.16,0.5
				c-10.63,2.14-18.73,7.73-23.05,17.41c-2.73,6.14-4.25,13.42-4.26,19.92c-0.05,85.23-1.85,170.48-1.85,255.71
				c0,0.93,0,1.86,0,2.79c-0.01,4.83-0.1,4.93-4.81,4.94c-7.35,0.01-10.43-0.03-17.78-0.03c-4.76,0-9.53-0.07-14.29,0.03
				c-2.23,0.04-3.3-0.78-3.13-3.08c0.08-1.13,0.01-2.28,0.01-3.42c0-79.22-0.01-158.44,0.02-237.66c0-5.9-0.15-11.84,0.44-17.7
				c1.32-12.97,4.27-25.55,12.92-35.84c5.52-6.57,12.47-11.18,20.95-13.59c7.7-2.19,15.43-3.11,23.22-2.81
				c3.05,0.11,6.1,0.41,9.16,0.9c0.01,0,0.01,0,0.02,0c0.02,0,0.03,0.01,0.04,0.01c3.05,0.59,6.65,1.55,10.46,3.12
				c0.01,0,0.01,0.01,0.02,0.01c2.27,0.93,4.62,2.08,6.97,3.5c3.56,2.15,7.14,4.91,10.47,8.45c0.09,0.14,0.22,0.28,0.37,0.4
				c1.34,1.46,2.64,3.05,3.88,4.78c0.01,0.01,0.01,0.02,0.02,0.03c0.09,0.13,0.18,0.26,0.28,0.39c0.11,0.15,0.22,0.31,0.33,0.47
				c0.03,0.05,0.06,0.09,0.09,0.14h0c2.86,4.21,5.15,8.75,6.83,13.56c4.21,12.06,6.23,24.62,6.73,37.38
				c0.59,15.35-0.72,30.63-1.97,45.89c-0.67,8.24-1.71,16.46-3.06,24.62c-1.54,9.27-3.26,18.51-5.35,27.68
				c-1.65,7.25-3.47,14.46-5.34,21.65c-2.26,8.68-5.01,17.23-7.6,25.82c-2.41,8-4.57,16.09-7.41,23.93
				c-3.16,8.71-6.09,17.5-9.81,26.03c-3.84,8.79-7.92,17.45-12.39,25.93c-1.59,3-3.24,5.97-4.88,8.95l-14.78,24.22
				c-4.62,7.12-9.36,14.17-14.03,21.26c-0.44,0.66-1.27,1.3-0.54,2.17c0.52,0.62,1.36,0.5,2.05,0.33
				c20.33-5.16,41.24-2.33,61.78-4.44c11.61-1.19,23.15-2.65,34.52-5.67c9.75-2.59,19.03-6.06,27.77-11.03
				c1.65-0.94,3.24-1.94,4.78-3c0.47-0.32,0.94-0.65,1.4-0.99c0,0,0,0,0.01,0c0.73-0.45,1.45-1.01,2.16-1.65
				C1590.51,671.46,1596.48,655.35,1596.48,655.35z"/>
			
				<linearGradient id="SVGID_00000020397140865443264240000004691291404124607372_" gradientUnits="userSpaceOnUse" x1="1509.4608" y1="726.5574" x2="1509.4608" y2="353.4426">
				<stop  offset="0" style="stop-color:#785E45"/>
				<stop  offset="1" style="stop-color:#E7CFAC"/>
			</linearGradient>
			<path style="fill:url(#SVGID_00000020397140865443264240000004691291404124607372_);" d="M1582.97,678.28
				c-0.71,0.64-1.43,1.2-2.16,1.65C1581.55,679.39,1582.27,678.84,1582.97,678.28z"/>
			
				<linearGradient id="SVGID_00000133512900768408606530000002625595484330095498_" gradientUnits="userSpaceOnUse" x1="1509.4608" y1="726.5574" x2="1509.4608" y2="353.4426">
				<stop  offset="0" style="stop-color:#785E45"/>
				<stop  offset="1" style="stop-color:#E7CFAC"/>
			</linearGradient>
			<path style="fill:url(#SVGID_00000133512900768408606530000002625595484330095498_);" d="M1499.7,357.52
				c-3.81-1.57-7.41-2.53-10.46-3.12c0.34,0.05,0.68,0.11,1.02,0.17C1493.58,355.14,1496.76,356.08,1499.7,357.52z"/>
			
				<linearGradient id="SVGID_00000046341625029963590890000012857219630677951120_" gradientUnits="userSpaceOnUse" x1="1509.4608" y1="726.5574" x2="1509.4608" y2="353.4426">
				<stop  offset="0" style="stop-color:#785E45"/>
				<stop  offset="1" style="stop-color:#E7CFAC"/>
			</linearGradient>
			<path style="fill:url(#SVGID_00000046341625029963590890000012857219630677951120_);" d="M1489.17,354.39
				c-3.06-0.49-6.11-0.78-9.16-0.9C1480.02,353.5,1483.71,353.35,1489.17,354.39z"/>
			
				<linearGradient id="SVGID_00000126297904467729661680000003651773889683105966_" gradientUnits="userSpaceOnUse" x1="1509.4608" y1="726.5574" x2="1509.4608" y2="353.4426">
				<stop  offset="0" style="stop-color:#785E45"/>
				<stop  offset="1" style="stop-color:#E7CFAC"/>
			</linearGradient>
			<path style="fill:url(#SVGID_00000126297904467729661680000003651773889683105966_);" d="M1517.52,369.87
				c-0.15-0.12-0.29-0.25-0.37-0.4C1517.27,369.6,1517.39,369.74,1517.52,369.87z"/>
			
				<linearGradient id="SVGID_00000182507257920226997190000010602217308853108918_" gradientUnits="userSpaceOnUse" x1="1509.4608" y1="726.5574" x2="1509.4608" y2="353.4426">
				<stop  offset="0" style="stop-color:#785E45"/>
				<stop  offset="1" style="stop-color:#E7CFAC"/>
			</linearGradient>
			<path style="fill:url(#SVGID_00000182507257920226997190000010602217308853108918_);" d="M1522.11,375.66L1522.11,375.66
				c-0.03-0.05-0.06-0.09-0.1-0.14C1522.05,375.57,1522.08,375.62,1522.11,375.66z"/>
			
				<linearGradient id="SVGID_00000159437039874739605090000007086196743647986061_" gradientUnits="userSpaceOnUse" x1="1509.4608" y1="726.5574" x2="1509.4608" y2="353.4426">
				<stop  offset="0" style="stop-color:#785E45"/>
				<stop  offset="1" style="stop-color:#E7CFAC"/>
			</linearGradient>
			<path style="fill:url(#SVGID_00000159437039874739605090000007086196743647986061_);" d="M1580.81,679.93
				c-0.46,0.34-0.93,0.67-1.4,0.99C1579.83,680.57,1580.3,680.24,1580.81,679.93z"/>
		</g>
	</g>
	<g>
		<path class="st16" d="M347.88,464.5c1.88,0,3.49-0.69,4.84-2.06c1.35-1.37,2.02-3,2.02-4.88c0-1.88-0.67-3.48-2.02-4.8
			c-1.34-1.32-2.96-1.98-4.84-1.98c-1.88,0-3.5,0.66-4.84,1.98c-1.34,1.32-2.01,2.92-2.01,4.8c0,1.88,0.67,3.51,2.01,4.88
			C344.38,463.81,345.99,464.5,347.88,464.5z"/>
		<path class="st16" d="M332.96,518.48c3.93,3.04,9.62,4.56,17.09,4.56c6.82,0,12.13-1.49,15.92-4.47c3.79-2.98,6.32-6.22,7.58-9.72
			c1.26-3.49,1.89-6.37,1.89-8.63v-35.39l-12.17-0.08v35.15c0,2.31-0.21,4.54-0.61,6.69c-0.4,2.15-1.6,4.23-3.59,6.25
			c-1.99,2.02-5.08,3.02-9.27,3.02c-5.91,0-9.69-1.72-11.33-5.16c-1.64-3.44-2.46-7.04-2.46-10.8v-8.71l-12.5,4.03v4.68
			c0,2.42,0.59,5.36,1.77,8.83C326.48,512.19,329.04,515.44,332.96,518.48z"/>
		<path class="st16" d="M413.74,517.59c-1.34,1.32-2.01,2.92-2.01,4.8c0,1.88,0.67,3.51,2.01,4.88c1.35,1.37,2.96,2.06,4.84,2.06
			c1.88,0,3.49-0.69,4.84-2.06c1.34-1.37,2.02-3,2.02-4.88c0-1.88-0.68-3.48-2.02-4.8c-1.34-1.32-2.96-1.97-4.84-1.97
			C416.7,515.62,415.09,516.28,413.74,517.59z"/>
		<path class="st16" d="M405.44,510.7h2.42c8.01,0,14.05-1.95,18.14-5.85c4.08-3.9,6.13-9.66,6.13-17.29V464.5l-12.17,0.24v22.82
			c0,5.43-1.09,9.45-3.27,12.05c-2.18,2.61-5.58,3.91-10.2,3.91h-1.05h-0.88h-8.87v-54.1h-12.18v61.27h21.05H405.44z"/>
		<path class="st16" d="M464.62,508.76v-0.08c3.33,1.34,7.36,2.02,12.09,2.02h2.18h1.04h33.46h10.97h15.48v-23.78
			c0-5.37-1.18-9.96-3.55-13.75c-2.37-3.79-5.46-6.64-9.27-8.55c-3.82-1.91-7.87-2.86-12.18-2.86c-4.35,0-8.45,0.95-12.29,2.86
			c-3.85,1.91-6.96,4.77-9.35,8.59c-2.39,3.82-3.59,8.39-3.59,13.71v6.85l13.7,9.75h-23.38h-1.04h-0.81c-4.62,0-8.02-1.3-10.2-3.91
			c-2.18-2.61-3.26-6.62-3.26-12.05v-22.82h-12.18v44.02c0,5.81-1.09,10.1-3.27,12.9c-2.18,2.8-5.58,4.19-10.2,4.19v6.05
			c8.82,0,15.29-1.87,19.43-5.6C462.55,522.56,464.62,516.72,464.62,508.76z M502.11,491.51v-4.6c0-3.82,0.59-7.08,1.77-9.8
			c1.18-2.71,2.74-4.76,4.68-6.13c1.93-1.37,4.01-2.06,6.21-2.06c2.15,0,4.19,0.68,6.13,2.06c1.94,1.37,3.49,3.41,4.68,6.13
			c1.18,2.71,1.77,5.98,1.77,9.8v16.61h-9.11L502.11,491.51z"/>
		<path class="st16" d="M522.35,455.87c1.88,0,3.49-0.69,4.84-2.06c1.34-1.37,2.01-3,2.01-4.88c0-1.88-0.67-3.48-2.01-4.8
			c-1.35-1.32-2.96-1.97-4.84-1.97c-1.88,0-3.49,0.66-4.84,1.97c-1.35,1.32-2.02,2.92-2.02,4.8c0,1.88,0.67,3.51,2.02,4.88
			C518.85,455.19,520.47,455.87,522.35,455.87z"/>
		<path class="st16" d="M506.54,455.87c1.88,0,3.49-0.69,4.84-2.06c1.34-1.37,2.01-3,2.01-4.88c0-1.88-0.67-3.48-2.01-4.8
			c-1.35-1.32-2.96-1.97-4.84-1.97c-1.88,0-3.49,0.66-4.84,1.97c-1.35,1.32-2.02,2.92-2.02,4.8c0,1.88,0.67,3.51,2.02,4.88
			C503.05,455.19,504.67,455.87,506.54,455.87z"/>
		<path class="st16" d="M779.79,500.54l13.71,10.16H818v-23.78c0-4.73-1.14-8.76-3.42-12.09c-2.29-3.33-5.27-5.85-8.95-7.54
			c-3.68-1.69-7.62-2.54-11.81-2.54c-4.14,0-8.06,0.83-11.77,2.5c-3.71,1.67-6.74,4.13-9.07,7.38c-2.34,3.25-3.54,7.19-3.59,11.81
			c0,5.8-1.09,10.11-3.26,12.9c-2.18,2.79-5.58,4.19-10.2,4.19h-4.35h-1.13h-3.79c-3.44,0-6.02-0.95-7.74-2.86
			c-1.72-1.91-2.55-4.04-2.5-6.41c0.05-2.36,0.08-3.65,0.08-3.87v-5.32c0-2.74-0.83-5.99-2.5-9.76s-5.48-6.85-11.45-9.27
			c-0.75-0.32-1.85-0.63-3.3-0.93c-1.45-0.29-3.07-0.44-4.84-0.44c-6.45,0-12.52,2.07-18.22,6.21l4.27,7.18
			c1.99-1.72,4.03-3.02,6.13-3.91c2.1-0.89,4.11-1.33,6.04-1.33c3.28,0,5.99,1.12,8.14,3.35c2.15,2.23,3.23,5.28,3.23,9.15v5.08
			c0,2.96,0.19,5.39,0.57,7.3c0.37,1.91,1.32,3.86,2.82,5.84h-36.52h-1.05h-7.26v-16.61c0-4.73-1.14-8.76-3.43-12.09
			c-2.29-3.33-5.27-5.85-8.95-7.54c-3.68-1.69-7.62-2.54-11.81-2.54c-4.14,0-8.06,0.83-11.77,2.5c-3.71,1.67-6.73,4.13-9.07,7.38
			c-2.34,3.25-3.54,7.19-3.59,11.81c0,5.8-1.09,10.11-3.26,12.9c-2.18,2.79-5.58,4.19-10.2,4.19h-4.68h-0.65h-7.58v-18.46
			c0-2.74-0.83-5.99-2.5-9.76c-1.67-3.76-5.48-6.85-11.45-9.27c-0.75-0.32-1.85-0.63-3.3-0.93c-1.45-0.29-3.07-0.44-4.84-0.44
			c-6.45,0-12.52,2.07-18.22,6.21l4.27,7.18c1.99-1.72,4.03-3.02,6.13-3.91c2.1-0.89,4.11-1.33,6.05-1.33
			c3.28,0,5.99,1.12,8.14,3.35c2.15,2.23,3.23,5.28,3.23,9.15v18.22h-27.81v7.18h47.89h0.65h5.16c5.43-0.05,10.2-1.01,14.31-2.86
			c4.11-1.85,7.14-4.29,9.07-7.3l13.71,10.16h18.38h6.13h7.26h1.05h49.1h6.69h3.79h1.13h5c5.43-0.05,10.18-1.01,14.27-2.86
			C774.92,505.98,777.91,503.55,779.79,500.54z M781.88,486.91c0-3.17,0.55-5.89,1.65-8.14c1.1-2.26,2.57-3.95,4.4-5.08
			c1.82-1.13,3.76-1.69,5.8-1.69s3.96,0.56,5.76,1.69c1.8,1.13,3.25,2.82,4.36,5.08c1.1,2.26,1.65,4.97,1.65,8.14v16.61h-9.6
			l-14.03-10.48V486.91z M670.05,503.52h-9.59l-14.03-10.48v-6.13c0-3.17,0.55-5.89,1.65-8.14c1.1-2.26,2.57-3.95,4.4-5.08
			c1.82-1.13,3.76-1.69,5.8-1.69c2.04,0,3.96,0.56,5.76,1.69c1.8,1.13,3.25,2.82,4.35,5.08c1.1,2.26,1.65,4.97,1.65,8.14V503.52z"/>
		<path class="st16" d="M869.77,464.5c1.88,0,3.49-0.69,4.84-2.06c1.34-1.37,2.01-3,2.01-4.88c0-1.88-0.67-3.48-2.01-4.8
			c-1.35-1.32-2.96-1.98-4.84-1.98s-3.49,0.66-4.84,1.98c-1.35,1.32-2.02,2.92-2.02,4.8c0,1.88,0.67,3.51,2.02,4.88
			C866.27,463.81,867.88,464.5,869.77,464.5z"/>
		<path class="st16" d="M854.85,518.48c3.92,3.04,9.62,4.56,17.09,4.56c6.83,0,12.13-1.49,15.92-4.47c3.79-2.98,6.32-6.22,7.58-9.72
			c1.26-3.49,1.89-6.37,1.89-8.63v-35.39l-12.17-0.08v35.15c0,2.31-0.2,4.54-0.6,6.69c-0.4,2.15-1.6,4.23-3.59,6.25
			c-1.99,2.02-5.08,3.02-9.27,3.02c-5.91,0-9.69-1.72-11.33-5.16c-1.64-3.44-2.46-7.04-2.46-10.8v-8.71l-12.5,4.03v4.68
			c0,2.42,0.59,5.36,1.77,8.83C848.37,512.19,850.93,515.44,854.85,518.48z"/>
		<path class="st16" d="M1098.22,503.52c-2.69,0-4.69-0.95-6.01-2.86c-1.32-1.91-1.93-4.03-1.85-6.37c0.08-2.34,0.12-3.64,0.12-3.91
			v-5.32c0-2.74-0.83-5.99-2.5-9.76c-1.67-3.76-5.49-6.85-11.45-9.27c-0.75-0.32-1.85-0.63-3.3-0.93c-1.45-0.29-3.07-0.44-4.84-0.44
			c-6.45,0-12.52,2.07-18.22,6.21l4.27,7.1c1.99-1.67,4.03-2.93,6.13-3.79c2.1-0.86,4.11-1.29,6.05-1.29c3.33,0,6.06,1.12,8.18,3.35
			c2.12,2.23,3.19,5.25,3.19,9.07v5.08c0,2.96,0.18,5.38,0.56,7.26c0.38,1.88,1.32,3.84,2.82,5.89h-35.55h-1.05h-7.58v-24.59
			c0-5.21-1.22-9.7-3.67-13.47c-2.45-3.76-5.63-6.6-9.55-8.51c-3.93-1.91-8.06-2.86-12.42-2.86c-4.3,0-8.32,0.91-12.05,2.74
			c-3.74,1.83-6.68,4.49-8.83,7.98c-3.92,0.32-7.58,1.48-10.96,3.47c-3.38,1.99-6.1,4.81-8.14,8.46c-2.04,3.66-3.06,7.98-3.06,12.98
			v13.79h-4.63h-3.11h-33.42h-9.76v-54.1H905.4v61.27h21.93h33.42h3.11h40.19c0.43,2.2,1.49,4.25,3.18,6.13
			c1.69,1.88,3.74,3.36,6.13,4.43c2.39,1.07,4.77,1.61,7.13,1.61h0.08c2.47-0.05,4.89-0.54,7.26-1.45c2.37-0.92,4.4-2.29,6.09-4.11
			c1.69-1.83,2.73-4.03,3.1-6.61h7.74h1.05h52.4V503.52z M1003.81,503.52h-22.82v-18.14c0-3.33,0.63-6.14,1.89-8.43
			c1.26-2.28,2.91-3.94,4.96-4.96c-0.38,1.67-0.57,3.52-0.57,5.56v2.1h10v-2.1c0-1.83,0.16-3.49,0.48-5
			c1.83,1.13,3.29,2.78,4.4,4.96c1.1,2.18,1.65,4.8,1.65,7.86V503.52z M1024.69,512.31c0,0.86-0.35,1.79-1.05,2.78
			c-0.7,0.99-1.72,1.49-3.07,1.49c-1.56,0-2.66-0.48-3.3-1.45c-0.65-0.97-0.96-1.91-0.96-2.82v-22.58c0-6.07-1.46-11.13-4.36-15.16
			c-2.9-4.03-6.63-6.82-11.21-8.38c1.29-1.67,2.84-2.94,4.64-3.83c1.8-0.89,3.67-1.33,5.6-1.33c2.37,0,4.59,0.63,6.69,1.89
			c2.1,1.26,3.79,3.14,5.08,5.64c1.29,2.5,1.93,5.5,1.93,8.99V512.31z"/>
		<path class="st16" d="M1087.66,527.43c1.34-1.37,2.01-3,2.01-4.88c0-1.88-0.67-3.48-2.01-4.8c-1.35-1.32-2.96-1.98-4.84-1.98
			c-1.88,0-3.49,0.66-4.84,1.98c-1.35,1.32-2.02,2.91-2.02,4.8c0,1.88,0.67,3.51,2.02,4.88c1.34,1.37,2.96,2.06,4.84,2.06
			C1084.7,529.48,1086.31,528.8,1087.66,527.43z"/>
		<path class="st16" d="M1320.42,443.62c1.88,0,3.5-0.69,4.84-2.06c1.34-1.37,2.02-3,2.02-4.88c0-1.88-0.68-3.48-2.02-4.8
			c-1.34-1.32-2.96-1.98-4.84-1.98c-1.88,0-3.49,0.66-4.84,1.98c-1.34,1.32-2.01,2.91-2.01,4.8c0,1.88,0.67,3.51,2.01,4.88
			C1316.93,442.94,1318.54,443.62,1320.42,443.62z"/>
		<path class="st16" d="M1311.1,460.27c1.88,0,3.49-0.69,4.84-2.06c1.35-1.37,2.02-3,2.02-4.88c0-1.88-0.67-3.48-2.02-4.8
			c-1.34-1.32-2.95-1.98-4.84-1.98c-1.88,0-3.49,0.66-4.84,1.98c-1.35,1.32-2.02,2.91-2.02,4.8c0,1.88,0.67,3.51,2.02,4.88
			C1307.61,459.58,1309.22,460.27,1311.1,460.27z"/>
		<path class="st16" d="M1323.28,453.33c0,1.88,0.68,3.51,2.02,4.88c1.34,1.37,2.96,2.06,4.84,2.06c1.88,0,3.5-0.69,4.84-2.06
			c1.34-1.37,2.01-3,2.01-4.88c0-1.88-0.67-3.48-2.01-4.8c-1.34-1.32-2.96-1.98-4.84-1.98c-1.88,0-3.49,0.66-4.84,1.98
			C1323.95,449.85,1323.28,451.45,1323.28,453.33z"/>
		<path class="st16" d="M1131.47,453.41c1.88,0,3.49-0.69,4.84-2.06c1.34-1.37,2.01-3,2.01-4.88c0-1.88-0.67-3.48-2.01-4.8
			c-1.35-1.32-2.96-1.98-4.84-1.98c-1.88,0-3.49,0.66-4.84,1.98c-1.35,1.32-2.02,2.91-2.02,4.8c0,1.88,0.67,3.51,2.02,4.88
			C1127.98,452.73,1129.59,453.41,1131.47,453.41z"/>
		<path class="st16" d="M1147.25,453.41c1.88,0,3.49-0.69,4.84-2.06c1.34-1.37,2.01-3,2.01-4.88c0-1.88-0.67-3.48-2.01-4.8
			c-1.35-1.32-2.96-1.98-4.84-1.98c-1.88,0-3.49,0.66-4.84,1.98c-1.35,1.32-2.02,2.91-2.02,4.8c0,1.88,0.67,3.51,2.02,4.88
			C1143.75,452.73,1145.37,453.41,1147.25,453.41z"/>
		<path class="st16" d="M1250.37,510.96v-8.43h-0.06v-1.85c0-12.44-2.6-21.05-7.8-25.82c-2.45-2.24-6.26-3.76-11.37-4.56
			c-2.89-0.47-6.3-0.7-10.23-0.7c-0.84,0-1.71,0.03-2.6,0.06l18.77-12.13c1.46-1.13,2.2-2.52,2.2-4.23v-9.7l-35.11,22.99v12.64
			c1.73,0.27,3.67,0.43,5.83,0.47l2.89-0.05l2.89-0.12c1.77-0.08,3.4-0.12,4.91-0.12c2.3,0,4.35,0.08,6.11,0.23
			c4.16,0.31,6.85,1.02,8.09,2.13c1.38,1.31,2.48,3.37,3.28,6.18c0.97,3.23,1.45,7.36,1.45,12.36c0,0.7-0.03,1.42-0.06,2.2h-43.85
			h-3.97h-31.07h-1.5h-4.92v-44.7l-10.1,3.52v3.48c-9.32,0.53-16.61,3.09-21.89,7.68c-4.94,4.27-7.39,9.66-7.39,16.17
			c0,6.5,2.92,11.83,8.78,15.99c3.35,2.39,7.28,3.94,11.78,4.68c1.81,0.31,3.72,0.47,5.72,0.47c1.28,0,2.6-0.08,3.99-0.23
			c0.65,0.72,1.51,1.18,2.6,1.32v0.06h11.43h1.5h31.07h3.97H1250.37z M1144.17,500.39c-1.05,0.12-2.04,0.18-3.01,0.18
			c-2.07,0-4.02-0.23-5.83-0.7c-2-0.53-3.77-1.36-5.31-2.48c-3.27-2.31-4.91-5.21-4.91-8.71c0-3.85,1.41-7.01,4.23-9.48
			c3.39-2.92,8.33-4.62,14.84-5.08V500.39z"/>
		<path class="st16" d="M1345.49,490.32v-27.87l-10.16,3.53v34.88c0,1.09-0.6,1.62-1.79,1.62c-2.51,0-4.76-0.67-6.76-2.02l-0.52-0.4
			v-31.31l-10.16,3.53v27.37c0,0.78-0.31,1.45-0.93,2.03c-0.57,0.57-1.29,0.87-2.13,0.87h-7.39v-12.26h-0.03v-15.63l-10.13,3.45
			l0.05,24.43h-13.39h-4.16h-0.29v-32.93l-10.16,3.46v42.57c0,1.03-0.12,1.98-0.35,2.83c-0.58,2.34-1.68,4.07-3.3,5.2
			c-1.19,0.76-2.5,1.15-3.93,1.15c-0.22,0-0.48-0.01-0.75-0.05c-2.46-0.23-4.19-1.36-5.2-3.35l-7.91,6c0.47,0.66,0.98,1.25,1.56,1.8
			c2.77,2.77,6.26,4.34,10.45,4.73l1.85,0.12c3.66,0,6.97-0.98,9.94-2.95c3.69-2.47,6.1-6.02,7.21-10.68
			c0.39-1.51,0.58-3.1,0.58-4.8v-4.68h0.29h4.16h31.3c3.51,0,6.52-1.14,9.01-3.41l0.75,0.47c2.92,1.93,6.18,2.88,9.76,2.88h2.55
			c2.77,0,5.12-0.88,7.05-2.65c1.96-1.77,2.95-3.9,2.95-6.41v-11.52H1345.49z"/>
		<path class="st16" d="M482.3,596.72l-7.58,2.63v27.22h-14.51h-2.42h-3.49v-18.91l0.99-0.39l-0.04-9.73
			c-0.06-0.55-0.37-0.82-0.95-0.82l-7.58,2.63v27.22h-40.01h-1.36h-15.14h-1.9h-14.6h-1.9h-13.91h-2.58h-2.2v-22.4l0.99-0.39
			l-0.04-9.73c-0.03-0.55-0.35-0.82-0.95-0.82l-7.54,2.63v2.58c-6.95,0.4-12.39,2.31-16.32,5.73c-3.67,3.19-5.51,7.21-5.51,12.06
			c0,4.85,2.18,8.83,6.55,11.93c2.5,1.78,5.43,2.94,8.79,3.49c1.35,0.23,2.77,0.35,4.27,0.35c0.94,0,1.93-0.06,2.97-0.17
			c0.49,0.55,1.14,0.88,1.94,0.99v0.04h7.07h2.58h13.91h1.9h14.6h1.9h15.14h1.36h51.08h2.42h22.09v-25.2l0.99-0.39l-0.04-9.73
			C483.19,596.99,482.88,596.72,482.3,596.72z M345.59,624.97c-0.77,0.09-1.52,0.13-2.24,0.13c-1.55,0-3-0.17-4.35-0.52
			c-1.49-0.4-2.81-1.02-3.96-1.85c-2.45-1.72-3.66-3.89-3.66-6.5c0-2.87,1.04-5.23,3.14-7.06c2.53-2.18,6.22-3.44,11.07-3.79V624.97
			z"/>
		<path class="st16" d="M540.32,596.72l-7.58,2.63v27.22h-14.52h-2.11v-13.65l0.99-0.39l-0.05-9.74c-0.03-0.52-0.34-0.77-0.95-0.77
			l-6.46,2.2c-2.16-1.2-4.53-1.81-7.11-1.81c-3.99,0-7.39,1.38-10.21,4.14c-2.84,2.76-4.26,6.09-4.26,9.99
			c0,3.85,1.39,7.14,4.18,9.86c2.76,2.76,6.09,4.16,9.99,4.22c0.26,0.03,0.53,0.06,0.82,0.09h1.12c1.32,0,2.77-0.09,4.35-0.26v5.9
			c0,0.78-0.07,1.48-0.22,2.11c-0.46,1.75-1.27,3.04-2.45,3.88c-0.92,0.57-1.91,0.86-2.97,0.86c-0.17,0-0.36-0.01-0.56-0.04
			c-1.84-0.17-3.13-1.01-3.88-2.5l-5.94,4.48c0.37,0.49,0.77,0.93,1.2,1.34c2.1,2.07,4.69,3.24,7.8,3.53l1.38,0.09
			c2.73,0,5.18-0.73,7.36-2.2c2.82-1.84,4.63-4.49,5.43-7.97c0.29-1.12,0.43-2.31,0.43-3.58v-3.49h2.11h22.1v-25.2l0.99-0.39
			l-0.04-9.73C541.21,596.99,540.89,596.72,540.32,596.72z M508.53,623.29c-0.72,0.09-1.42,0.16-2.11,0.21l-1.33,0.04h-2.54
			c-1.84,0-3.4-0.69-4.69-2.07c-1.29-1.38-1.94-3.03-1.94-4.95c0-1.92,0.65-3.58,1.94-4.95c1.29-1.38,2.86-2.07,4.69-2.07
			c1.41,0,2.7,0.45,3.88,1.34c0.95,0.72,1.65,1.64,2.11,2.76V623.29z"/>
		<path class="st16" d="M617.97,573.67l-7.58,2.59v50.31h-9.47h-2.37h-0.3v-16.58l0.99-0.39l-0.04-9.73
			c-0.03-0.52-0.34-0.78-0.95-0.78l-3.88,1.34c-2.76-2.5-6.02-3.75-9.78-3.75c-3.99,0-7.39,1.38-10.21,4.14
			c-2.78,2.76-4.18,6.09-4.18,9.99c0,3.85,1.36,7.14,4.09,9.86c2.76,2.76,6.09,4.16,9.99,4.22c0.26,0.03,0.53,0.04,0.82,0.04
			c0.34,0.03,0.72,0.04,1.12,0.04c1.35,0,2.83-0.09,4.44-0.26v1.85h-26.15v-0.04h-7.58v-41.95l2.07,1.08l-1.08-11.2
			c-0.06-0.55-0.39-0.82-0.99-0.82l-7.54,2.63v56.59h12.75h2.37h34.03h2.37h17.05v-48.28l2.03,1.12l-1.08-11.24
			C618.89,573.93,618.58,573.67,617.97,573.67z M590.67,617.52c-0.78,0.12-1.49,0.2-2.16,0.26l-1.38,0.04
			c-0.78,0-1.62-0.01-2.54-0.04c-1.84,0-3.41-0.67-4.7-2.02c-1.29-1.38-1.94-3.03-1.94-4.95c0-1.95,0.65-3.6,1.94-4.95
			c1.29-1.38,2.86-2.07,4.7-2.07c1.32,0,2.54,0.39,3.66,1.16c1.09,0.77,1.9,1.78,2.42,3.01V617.52z"/>
		<path class="st16" d="M633.26,573.63l-7.58,2.58v56.21c0,0.14,0.05,0.24,0.17,0.3c0.06,0.06,0.14,0.09,0.26,0.09h0.09l1.16-0.39
			c1.78-0.55,3.2-1.51,4.27-2.89c1.09-1.35,1.64-2.87,1.64-4.57v-40.44l2.03,1.12l-1.08-11.24
			C634.15,573.89,633.84,573.63,633.26,573.63z"/>
		<path class="st16" d="M714.84,596.72l-7.58,2.63v27.22h-43.89c-0.66-1.75-0.99-3.39-0.99-4.91c0-2.18,0.7-4.12,2.11-5.81
			c0.86-1.06,1.95-1.95,3.28-2.67c1.06-0.57,2.12-0.99,3.19-1.25l-2.58-7.67c-2.78,0.66-5.3,1.84-7.54,3.53
			c-2.24,1.64-3.88,3.52-4.91,5.64c-1.32,2.61-1.98,5.33-1.98,8.14c0,0.72,0.05,1.45,0.13,2.2c0.2,1.38,0.53,2.74,0.99,4.09
			c0.37,1.06,0.82,2.08,1.34,3.06c0.69,1.26,1.81,1.91,3.36,1.94h55.08v-25.2l0.99-0.39l-0.04-9.73
			C715.76,596.99,715.44,596.72,714.84,596.72z"/>
		<path class="st16" d="M729.14,584.53l2.02,1.12l-1.07-11.24c-0.06-0.52-0.37-0.77-0.95-0.77l-7.58,2.58v56.21
			c0,0.14,0.06,0.24,0.18,0.3c0.05,0.06,0.14,0.09,0.26,0.09h0.09l1.16-0.39c1.78-0.55,3.2-1.51,4.27-2.89
			c1.09-1.35,1.64-2.87,1.64-4.57V584.53z"/>
		<path class="st16" d="M751.71,602.01l-7.58,2.59v31.74c0,0.78-0.08,1.48-0.22,2.11c-0.46,1.75-1.27,3.04-2.45,3.88
			c-0.92,0.57-1.91,0.86-2.97,0.86c-0.17,0-0.36-0.01-0.56-0.04c-1.84-0.17-3.13-1.01-3.88-2.5l-5.86,4.48
			c0.34,0.49,0.72,0.93,1.12,1.34c2.1,2.07,4.69,3.24,7.8,3.53l1.38,0.09c2.73,0,5.2-0.73,7.41-2.2c2.78-1.84,4.58-4.49,5.38-7.97
			c0.29-1.12,0.43-2.31,0.43-3.58v-23.43l0.99-0.39l-0.04-9.74C752.63,602.27,752.31,602.01,751.71,602.01z"/>
		<path class="st16" d="M941.3,599.3v26.02c0,0.8-0.44,1.2-1.33,1.2c-1.87,0-3.55-0.5-5.04-1.51l-0.43-0.3v-12.41l0.99-0.39
			l-0.04-9.73c-0.03-0.55-0.34-0.82-0.95-0.82l-7.58,2.63v20.42c0,0.57-0.21,1.08-0.65,1.51c-0.43,0.43-0.96,0.65-1.59,0.65h-5.52
			v-9.86l0.99-0.43l-0.05-9.73c-0.03-0.52-0.34-0.77-0.95-0.77l-7.58,2.58l0.04,18.22h-10.64h-2.5h-1.03v-18.91l0.99-0.39
			l-0.04-9.73c-0.06-0.55-0.38-0.82-0.95-0.82l-7.58,2.63v27.22h-13.82h-3.1h-0.04l0.04-18.95l0.95-0.39v-9.73
			c-0.09-0.55-0.4-0.82-0.95-0.82l-7.58,2.63v26.02c0,0.8-0.44,1.2-1.33,1.2c-1.87,0-3.55-0.5-5.04-1.51l-0.43-0.3v-12.41l0.99-0.39
			l-0.04-9.73c-0.03-0.55-0.35-0.82-0.95-0.82l-7.58,2.63v20.42c0,0.57-0.21,1.08-0.65,1.51c-0.46,0.43-1.01,0.65-1.64,0.65h-5.47
			v-9.86l0.99-0.43l-0.04-9.73c-0.03-0.52-0.35-0.77-0.95-0.77l-7.58,2.58l0.04,18.22h-10.77h-2.37h-14.13h-1.9h-14.6h-1.9h-14.13
			v-0.04h-7.58v-41.95l2.07,1.08l-1.08-11.2c-0.05-0.55-0.39-0.82-0.99-0.82l-7.54,2.63v56.59h12.75h2.37h14.13h1.9h14.6h1.9h14.13
			h2.37h24.12c2.58,0,4.81-0.85,6.68-2.54l0.56,0.34c2.19,1.44,4.63,2.15,7.32,2.15h1.9c0.31,0,2.87-0.02,7.45-0.06v0.1h25.54h2.5
			h23.99c2.58,0,4.81-0.85,6.67-2.54l0.6,0.34c2.16,1.44,4.58,2.15,7.28,2.15h1.89c2.04,0,3.8-0.66,5.26-1.98
			c1.47-1.32,2.2-2.91,2.2-4.78v-18.43l0.95-0.39v-9.73c-0.08-0.55-0.4-0.82-0.95-0.82L941.3,599.3z"/>
		<path class="st16" d="M985.88,619.54c-1.69-2.93-3.35-5.82-4.95-8.66c3.13-7.5,5.01-16.27,5.64-26.32l2.03,1.08l-1.08-11.2
			c-0.03-0.55-0.34-0.82-0.95-0.82l-7.58,2.63v7.54c-0.37,6.78-1.36,12.94-2.97,18.48c-4.59-7.95-8.47-14.63-11.63-20.03
			c-0.98-1.66-2.47-2.77-4.48-3.32c-0.78-0.2-1.54-0.3-2.29-0.3c-1.2,0-2.37,0.27-3.49,0.82c4.19,7.04,10.33,17.63,18.4,31.79
			c-1.21,2.5-2.59,4.74-4.14,6.72c-1.21,1.58-2.49,2.97-3.83,4.18c-1.04,0.92-2.07,1.7-3.1,2.33c-0.89,0.55-1.72,0.95-2.5,1.2
			c-0.29,0.12-0.54,0.19-0.78,0.22c-0.17,0.06-0.33,0.08-0.47,0.08l-0.17-0.04c-0.52,0-0.78,0.23-0.78,0.69v6.25h27.52
			c2.13,0,3.72-0.79,4.78-2.37c0.57-0.86,0.86-1.74,0.86-2.63c0-0.74-0.22-1.51-0.65-2.28
			C988.19,623.68,987.06,621.67,985.88,619.54z M971.06,625.92c2.1-2.07,4.01-4.46,5.73-7.19c1.46,2.53,2.84,4.92,4.14,7.19H971.06z
			"/>
		<path class="st16" d="M1003.19,573.63l-7.58,2.58v56.21c0,0.14,0.06,0.24,0.17,0.3c0.06,0.06,0.14,0.09,0.26,0.09h0.08l1.17-0.39
			c1.78-0.55,3.2-1.51,4.26-2.89c1.09-1.35,1.64-2.87,1.64-4.57v-40.44l2.03,1.12l-1.08-11.24
			C1004.08,573.89,1003.77,573.63,1003.19,573.63z"/>
		<path class="st16" d="M1038.47,602.01l-6.5,2.2c-2.12-1.2-4.48-1.81-7.06-1.81c-3.99,0-7.39,1.38-10.21,4.14
			c-2.84,2.76-4.26,6.09-4.26,9.99c0,3.85,1.39,7.14,4.18,9.86c2.76,2.76,6.09,4.16,9.99,4.22c0.26,0.03,0.53,0.06,0.82,0.09h1.12
			c1.32,0,2.77-0.09,4.35-0.26v5.9c0,0.78-0.07,1.48-0.21,2.11c-0.46,1.75-1.27,3.04-2.45,3.88c-0.92,0.57-1.91,0.86-2.97,0.86
			c-0.17,0-0.36-0.01-0.56-0.04c-1.84-0.17-3.13-1.01-3.88-2.5l-5.94,4.48c0.37,0.49,0.78,0.93,1.21,1.34
			c2.1,2.07,4.69,3.24,7.8,3.53l1.38,0.09c2.73,0,5.18-0.73,7.36-2.2c2.81-1.84,4.62-4.49,5.43-7.97c0.29-1.12,0.43-2.31,0.43-3.58
			v-23.43l0.99-0.39l-0.04-9.74C1039.39,602.27,1039.07,602.01,1038.47,602.01z M1030.89,623.29c-0.72,0.09-1.42,0.16-2.11,0.21
			l-1.33,0.04h-2.54c-1.84,0-3.4-0.69-4.69-2.07c-1.3-1.38-1.94-3.03-1.94-4.95c0-1.92,0.64-3.58,1.94-4.95
			c1.29-1.38,2.86-2.07,4.69-2.07c1.41,0,2.7,0.45,3.88,1.34c0.95,0.72,1.65,1.64,2.11,2.76V623.29z"/>
		<path class="st16" d="M1074.74,597.54l0.43-0.73l-6.11-2.88l-3.62,5.9l2.88,1.42c-3.76,3.16-6.49,6.45-8.18,9.86
			c-1.23,2.53-1.85,5-1.85,7.41c0,1.52,0.24,3.02,0.73,4.48c0.89,2.73,2.51,4.98,4.87,6.76c2.35,1.78,5,2.79,7.92,3.01
			c0.52,0.06,1.02,0.09,1.51,0.09c4.07,0,7.64-1.22,10.68-3.66c3.85-3.1,5.77-7.2,5.77-12.32c0-4.71-2.29-9.2-6.89-13.48
			C1080.63,601.35,1077.92,599.4,1074.74,597.54z M1079.3,624.67c-1.75,1.38-3.75,2.07-5.98,2.07c-0.29,0-0.58-0.01-0.86-0.04
			c-1.52-0.11-2.9-0.67-4.14-1.68c-1.23-1.01-2.11-2.25-2.63-3.75c-0.29-0.86-0.43-1.75-0.43-2.67c0-1.61,0.43-3.29,1.29-5.04
			c1.46-2.99,4.02-5.9,7.67-8.74c1.35,0.92,2.55,1.87,3.62,2.84c3.33,3.07,5,6.14,5,9.22
			C1082.83,620.17,1081.66,622.77,1079.3,624.67z"/>
		<path class="st16" d="M1183.27,609.9c-1.01-1.61-2.26-2.91-3.75-3.92c-1.98-1.29-4.02-2.07-6.11-2.33
			c-0.52-0.06-1.05-0.08-1.59-0.08c-1.04,0-2.07,0.13-3.1,0.39c-3.76,1.01-7.19,3.69-10.29,8.06c-0.89,1.23-1.72,2.56-2.5,3.96
			c-0.23,0.46-0.44,0.9-0.65,1.33c-0.06,0.11-0.12,0.24-0.17,0.39l-0.05,0.08l-0.04,0.04c-1.06,2.35-2.18,4.31-3.36,5.86
			c-0.43,0.6-0.88,1.12-1.33,1.55c-0.32,0.34-0.65,0.65-0.99,0.91c-0.34,0.29-0.76,0.43-1.25,0.43h-2.63h-1.9h-14.6h-1.9h-14.13
			v-0.04h-7.58v-41.95l2.06,1.08l-1.07-11.2c-0.06-0.55-0.39-0.82-0.99-0.82l-7.54,2.63v56.59h12.75h2.37h14.13h1.9h14.6h1.9h3.45
			c0.31,0,0.62-0.01,0.91-0.04c0.43-0.06,0.83-0.13,1.2-0.21c1.01-0.32,1.97-0.82,2.89-1.51c1.69-1.26,3.3-3.13,4.82-5.6
			c2.06,1.95,4.78,3.81,8.14,5.56c1.95,0.98,3.96,1.85,6.03,2.63c2.24,0.83,3.83,1.25,4.78,1.25c2.47,0,4.42-0.95,5.86-2.84
			c0.86-1.12,1.49-2.57,1.9-4.35c0.49-2.07,0.73-4.15,0.73-6.24c0-1.69-0.16-3.4-0.47-5.13
			C1185.2,613.83,1184.39,611.68,1183.27,609.9z M1178.32,626.31c-0.12,0.49-0.24,0.9-0.39,1.25c-0.11,0.26-0.21,0.46-0.3,0.6
			c-0.37-0.08-0.81-0.21-1.29-0.39c-0.6-0.2-1.21-0.43-1.81-0.69c-1.61-0.63-3.15-1.34-4.6-2.11c-3.68-1.98-6.17-3.96-7.5-5.94
			c0.44-0.8,0.91-1.61,1.43-2.41c0.63-0.98,1.29-1.85,1.98-2.63c1.69-2.01,3.33-3.21,4.91-3.62c0.4-0.11,0.8-0.17,1.2-0.17
			c0.2,0,0.4,0.02,0.6,0.04c0.83,0.11,1.72,0.49,2.67,1.12c1.64,1.06,2.74,3.17,3.32,6.33c0.23,1.32,0.35,2.61,0.35,3.87
			C1178.88,623.18,1178.69,624.76,1178.32,626.31z"/>
		<path class="st16" d="M1343.24,573.67l-7.58,2.59v50.31h-9h-2.84h-1.08v-41.99l2.03,1.12l-1.07-11.24
			c-0.03-0.52-0.35-0.78-0.95-0.78l-7.58,2.59v50.31h-9.47h-2.37h-0.26c0.32-1.64,0.47-3.29,0.47-4.95c0-1.75-0.17-3.5-0.52-5.25
			c-0.95-4.83-3-8.28-6.16-10.38c-1.98-1.29-4.01-2.07-6.07-2.33c-0.52-0.06-1.05-0.08-1.59-0.08c-1.04,0-2.07,0.13-3.1,0.39
			c-3.76,1.01-7.19,3.69-10.29,8.06c-0.92,1.23-1.75,2.56-2.5,3.96c-0.23,0.46-0.46,0.9-0.69,1.33c-0.06,0.11-0.1,0.24-0.13,0.39
			l-0.04,0.08l-0.05,0.04c-1.09,2.35-2.21,4.31-3.36,5.86c-0.46,0.6-0.91,1.12-1.34,1.55c-0.31,0.34-0.65,0.65-0.99,0.91
			c-0.34,0.29-0.78,0.43-1.29,0.43h-1.9h-1.77c-1.64,0-2.93-0.73-3.88-2.2c-0.83-1.26-1.88-3.83-3.15-7.71l-0.47-1.46l-0.52-1.51
			c-0.43-1.15-0.83-2.17-1.21-3.06c-0.98-2.3-2.07-4.24-3.27-5.82c-3.5-4.42-8.44-6.63-14.82-6.63h-0.04
			c-5.28,0-9.88,2.06-13.78,6.16c-1.26,1.32-2.37,2.78-3.32,4.39c-0.32,0.52-0.6,1.02-0.86,1.51c-0.08,0.14-0.17,0.3-0.26,0.47
			l-0.09,0.13v0.09l7.97,2.88l0.05-0.04v-0.09c0.05-0.06,0.1-0.14,0.13-0.26c0.17-0.29,0.36-0.57,0.56-0.86
			c0.55-1.01,1.19-1.91,1.94-2.71c2.3-2.59,4.85-3.88,7.67-3.88c3.47,0,6.09,1.13,7.84,3.4c0.86,1.09,1.68,2.54,2.45,4.35
			c0.26,0.75,0.57,1.59,0.95,2.54l0.82,2.58l0.69,1.98l0.65,1.98c0.54,1.44,1.1,2.69,1.68,3.75h-39.54v-0.04h-7.58v-41.95l2.06,1.08
			l-1.07-11.2c-0.06-0.55-0.39-0.82-0.99-0.82l-7.54,2.63v56.59h12.28h2.84h51h2.58h2.76c0.32,0,0.62-0.01,0.91-0.04
			c0.4-0.06,0.79-0.13,1.16-0.21c1.01-0.32,1.97-0.82,2.89-1.51c1.72-1.26,3.35-3.13,4.87-5.6c2.04,1.95,4.75,3.81,8.14,5.56
			c1.95,0.98,3.95,1.85,5.98,2.63c2.27,0.83,3.88,1.25,4.82,1.25c2.1,0,3.82-0.69,5.17-2.07h3.1h2.37h18.13h2.84h16.58v-48.28
			l2.03,1.12l-1.08-11.24C1344.16,573.93,1343.84,573.67,1343.24,573.67z M1295.69,626.31c-0.11,0.49-0.26,0.9-0.43,1.25
			c-0.08,0.26-0.18,0.46-0.3,0.6c-0.37-0.08-0.79-0.21-1.25-0.39c-0.6-0.2-1.21-0.43-1.81-0.69c-1.61-0.63-3.16-1.34-4.65-2.11
			c-3.65-1.98-6.15-3.96-7.5-5.94c0.46-0.8,0.94-1.61,1.42-2.41c0.63-0.98,1.31-1.85,2.03-2.63c1.69-2.01,3.33-3.21,4.91-3.62
			c0.4-0.11,0.8-0.17,1.2-0.17c0.2,0,0.4,0.02,0.6,0.04c0.81,0.11,1.68,0.49,2.63,1.12c1.67,1.06,2.77,3.17,3.32,6.33
			c0.26,1.35,0.39,2.67,0.39,3.96C1296.25,623.23,1296.06,624.78,1295.69,626.31z"/>
		<path class="st16" d="M1062.37,584.42c0,2.36,1.91,4.27,4.27,4.27c2.36,0,4.27-1.91,4.27-4.27s-1.91-4.27-4.27-4.27
			C1064.28,580.15,1062.37,582.06,1062.37,584.42z"/>
		<path class="st16" d="M1073.31,584.42c0,2.36,1.91,4.27,4.27,4.27s4.27-1.91,4.27-4.27s-1.91-4.27-4.27-4.27
			S1073.31,582.06,1073.31,584.42z"/>
		<path class="st16" d="M848.7,590.97c2.36,0,4.27-1.91,4.27-4.27s-1.91-4.27-4.27-4.27s-4.27,1.91-4.27,4.27
			S846.34,590.97,848.7,590.97z"/>
		<path class="st16" d="M859.64,590.97c2.36,0,4.27-1.91,4.27-4.27s-1.91-4.27-4.27-4.27s-4.27,1.91-4.27,4.27
			S857.28,590.97,859.64,590.97z"/>
		<path class="st16" d="M885.42,587c0,2.36,1.91,4.27,4.27,4.27s4.27-1.91,4.27-4.27s-1.91-4.27-4.27-4.27S885.42,584.65,885.42,587
			z"/>
		<path class="st16" d="M900.63,591.27c2.36,0,4.27-1.91,4.27-4.27s-1.91-4.27-4.27-4.27s-4.27,1.91-4.27,4.27
			S898.28,591.27,900.63,591.27z"/>
		<path class="st16" d="M686.69,595.64c0-2.36-1.91-4.27-4.27-4.27s-4.27,1.91-4.27,4.27s1.91,4.27,4.27,4.27
			S686.69,597.99,686.69,595.64z"/>
		<path class="st16" d="M697.63,595.64c0-2.36-1.91-4.27-4.27-4.27s-4.27,1.91-4.27,4.27s1.91,4.27,4.27,4.27
			S697.63,597.99,697.63,595.64z"/>
		<path class="st16" d="M584.26,587.37c0-2.36-1.91-4.27-4.27-4.27s-4.27,1.91-4.27,4.27c0,2.36,1.91,4.27,4.27,4.27
			S584.26,589.73,584.26,587.37z"/>
		<path class="st16" d="M595.2,587.37c0-2.36-1.91-4.27-4.27-4.27s-4.27,1.91-4.27,4.27c0,2.36,1.91,4.27,4.27,4.27
			S595.2,589.73,595.2,587.37z"/>
		<path class="st16" d="M433.27,641.55c-2.36,0-4.27,1.91-4.27,4.27s1.91,4.27,4.27,4.27s4.27-1.91,4.27-4.27
			S435.63,641.55,433.27,641.55z"/>
		<path class="st16" d="M444.21,641.55c-2.36,0-4.27,1.91-4.27,4.27s1.91,4.27,4.27,4.27s4.27-1.91,4.27-4.27
			S446.57,641.55,444.21,641.55z"/>
		<path class="st16" d="M328.75,587.37c0,2.36,1.91,4.27,4.27,4.27s4.27-1.91,4.27-4.27c0-2.36-1.91-4.27-4.27-4.27
			S328.75,585.01,328.75,587.37z"/>
		<path class="st16" d="M339.69,587.37c0,2.36,1.91,4.27,4.27,4.27s4.27-1.91,4.27-4.27c0-2.36-1.91-4.27-4.27-4.27
			S339.69,585.01,339.69,587.37z"/>
		<path class="st16" d="M537.04,583.1c-2.36,0-4.27,1.91-4.27,4.27c0,2.36,1.91,4.27,4.27,4.27s4.27-1.91,4.27-4.27
			C541.31,585.01,539.4,583.1,537.04,583.1z"/>
		<path class="st16" d="M479.7,583.1c-2.36,0-4.27,1.91-4.27,4.27c0,2.36,1.91,4.27,4.27,4.27s4.27-1.91,4.27-4.27
			C483.97,585.01,482.06,583.1,479.7,583.1z"/>
		<circle class="st16" cx="854.28" cy="577.26" r="4.27"/>
	</g>
</g>
</svg>
