<?xml version="1.0" encoding="utf-8"?>
<!-- Generator: Adobe Illustrator 28.2.0, SVG Export Plug-In . SVG Version: 6.00 Build 0)  -->
<svg version="1.1" id="Layer_1" xmlns="http://www.w3.org/2000/svg" xmlns:xlink="http://www.w3.org/1999/xlink" x="0px" y="0px"
	 viewBox="0 0 1920 1080" style="enable-background:new 0 0 1920 1080;" xml:space="preserve">
<style type="text/css">
	.st0{fill:url(#SVGID_1_);}
	.st1{fill:url(#SVGID_00000069398546629391576450000003910126197274728618_);}
	.st2{fill:url(#SVGID_00000148647662113712269730000005196923382630194326_);}
	.st3{fill:url(#SVGID_00000160156380969619117600000000456025984825925036_);}
	.st4{fill:url(#SVGID_00000099634984108228813100000001765189445940483509_);}
	.st5{fill:url(#SVGID_00000154426231361788195000000017669011695730884024_);}
	.st6{fill:url(#SVGID_00000150804671931323114770000010584681575949452705_);}
	.st7{fill:url(#SVGID_00000180344703991314322210000013988754905266116282_);}
	.st8{fill:url(#SVGID_00000004510481992967371290000010711028340316329386_);}
	.st9{fill:url(#SVGID_00000045594295349019076770000011712912779589488271_);}
	.st10{fill:url(#SVGID_00000116922414201425043140000017740030987197050242_);}
	.st11{fill:url(#SVGID_00000006681590148786921430000014571309484406535613_);}
	.st12{fill:url(#SVGID_00000024699618352946288680000010892721368983981478_);}
	.st13{fill:url(#SVGID_00000005258868450167634670000005553943316308576667_);}
	.st14{fill:url(#SVGID_00000078007429198533463690000018359365959565104030_);}
	.st15{fill:url(#SVGID_00000036210606083414960350000004574333136576425362_);}
	.st16{fill:#FFFFFF;}
	.st17{fill:url(#SVGID_00000052807817451120980130000004123462549296050578_);}
	.st18{fill:url(#SVGID_00000180327226286276610610000012149051701719497883_);}
	.st19{fill:url(#SVGID_00000027602673223464567310000008370486764078557879_);}
	.st20{fill:url(#SVGID_00000027576385387857159270000006566258404532955812_);}
	.st21{fill:url(#SVGID_00000096054496812508890510000009277955754704835213_);}
	.st22{fill:url(#SVGID_00000011748254461125948800000005153203279600937365_);}
	.st23{fill:url(#SVGID_00000051348009085303180740000015611660053953904822_);}
	.st24{fill:url(#SVGID_00000057863523713969880270000000009805814345203362_);}
	.st25{fill:url(#SVGID_00000165920477592162064640000004009058847112898985_);}
	.st26{fill:url(#SVGID_00000054261781889537292320000002911196530310821775_);}
	.st27{fill:url(#SVGID_00000049188072223138198680000018322180279324996766_);}
	.st28{fill:url(#SVGID_00000141454148191936153220000007548875147916501123_);}
	.st29{fill:url(#SVGID_00000121238922710024017610000008358948841776987037_);}
	.st30{fill:url(#SVGID_00000176754204910094183650000004843391710813260192_);}
	.st31{fill:url(#SVGID_00000163035559427997991440000000315302330851704252_);}
	.st32{fill:url(#SVGID_00000007403162190076686260000013221007190027886469_);}
</style>
<g>
	<g>
		<g>
			
				<linearGradient id="SVGID_1_" gradientUnits="userSpaceOnUse" x1="746.9052" y1="1584.6812" x2="840.1527" y2="1584.6812" gradientTransform="matrix(1 0 0 1 -339.5396 -1066.2063)">
				<stop  offset="0" style="stop-color:#785E45"/>
				<stop  offset="1" style="stop-color:#E6CFAC"/>
			</linearGradient>
			<path class="st0" d="M407.37,670.63c6.65,1.22,12.87,2.59,19.38,1.28c11.35-2.28,18.77-9.04,23.38-19.38
				c2.92-6.56,3.14-13.53,3.14-20.48c0.05-91,0.04-182,0.04-273c0-1,0-1.99,0-2.99c0.01-5.15,0.11-5.27,5.14-5.27
				c7.85-0.01,15.7,0,23.55,0c5.09,0,10.17,0.07,15.26-0.03c2.39-0.04,3.52,0.83,3.34,3.29c-0.09,1.21-0.01,2.43-0.01,3.65
				c0,84.59,0.01,169.17-0.02,253.76c0,6.3,0.17,12.64-0.47,18.89c-1.41,13.85-4.57,27.28-13.8,38.26
				c-5.9,7.02-13.32,11.94-22.37,14.51c-11.82,3.35-23.71,3.92-35.72,1.86c-7.07-1.21-13.51-3.97-18.52-9.4
				C408.47,674.25,407.62,672.75,407.37,670.63z"/>
			
				<linearGradient id="SVGID_00000114048457897798802110000009387518840176566166_" gradientUnits="userSpaceOnUse" x1="654.3398" y1="1606.2063" x2="840.1533" y2="1606.2063" gradientTransform="matrix(1 0 0 1 -339.5396 -1066.2063)">
				<stop  offset="0" style="stop-color:#785E45"/>
				<stop  offset="1" style="stop-color:#E6CFAC"/>
			</linearGradient>
			<path style="fill:url(#SVGID_00000114048457897798802110000009387518840176566166_);" d="M500.61,663.16
				c-0.36,3.77-0.75,7.34-1.17,10.74c-5.13,41.75-14.39,55.83-14.55,56.07c0,0,0,0,0,0c-0.73,0.56-1.51,1.07-2.33,1.55
				c-6.92,4.08-14.58,6.37-22.5,7.19c-15.17,1.58-29.88-0.89-44.25-5.91c-9.98-3.49-19.54-8.07-29.56-11.4
				c-7.47-2.48-15.21-3.6-23.13-3.53c-9.14,0.08-18.07,1.08-26.47,5.01c-3.32,1.55-6.46,3.34-9.11,5.9c-1.07,1.04-2.4,1.7-3.48,0.61
				c-1.13-1.14,0.47-1.94,1.11-2.66c8.74-9.96,16.96-20.33,24.3-31.38c0.99-1.49,1.97-2.99,2.94-4.49l0.02-0.03l13.28-22.14
				l0.62-1.03l0.01-0.01l1.17-1.95c2.39-4.61,4.77-9.23,7.22-13.81c5.86-10.98,10.39-22.56,15.43-33.92
				c2.86-6.44,4.95-13.18,7.53-19.73c3.02-7.69,5.92-15.44,8.17-23.36c2.67-9.43,6.05-18.63,8.15-28.24
				c1.98-9.03,4.48-17.95,6.48-26.99c1.18-5.3,1.86-10.65,2.89-15.96c1.29-6.6,2.51-13.22,3.52-19.87
				c1.7-11.26,2.41-22.62,3.46-33.95c2.26-24.34,1.72-48.31-7.98-71.29c-2.58-6.12-5.75-11.91-10.24-16.76c0,0-0.02-0.03-0.08-0.08
				c-0.01-0.01-0.02-0.03-0.04-0.04c-0.91-0.94-7.21-7.05-17.77-7.18h-0.05c-1.83,0-3.66,0.16-5.51,0.53
				c-11.35,2.28-20,8.25-24.61,18.59c-2.92,6.56-4.54,14.33-4.55,21.27c-0.05,91-1.97,182.03-1.97,273.03c0,1,0,1.99,0,2.98
				c-0.01,5.16-0.11,5.27-5.14,5.27c-7.85,0.01-11.13-0.03-18.98-0.03c-5.09,0-10.18-0.07-15.26,0.03
				c-2.38,0.04-3.52-0.83-3.34-3.29c0.09-1.21,0.01-2.43,0.01-3.65c0-84.59-0.01-169.17,0.02-253.76c0-6.3-0.16-12.64,0.47-18.89
				c1.41-13.85,4.56-27.28,13.8-38.26c5.9-7.02,13.32-11.94,22.37-14.51c8.22-2.33,16.48-3.32,24.79-3.01
				c3.25,0.12,6.51,0.44,9.78,0.96c0.01,0,0.01,0,0.02,0c0.02,0,0.03,0.01,0.05,0.01c3.26,0.63,7.11,1.65,11.17,3.33
				c0.01,0,0.01,0.01,0.02,0.01c2.43,1,4.93,2.23,7.44,3.74c3.81,2.29,7.62,5.24,11.18,9.02c0.09,0.15,0.24,0.29,0.4,0.42
				c1.43,1.56,2.82,3.25,4.14,5.1c0.01,0.01,0.01,0.02,0.02,0.03c0.1,0.14,0.2,0.28,0.29,0.41c0.12,0.16,0.23,0.33,0.35,0.5
				c0.04,0.05,0.07,0.1,0.1,0.15h0c3.05,4.5,5.5,9.35,7.29,14.48c4.49,12.88,6.65,26.28,7.18,39.91c0.63,16.38-0.77,32.7-2.1,49
				c-0.72,8.79-1.82,17.58-3.27,26.28c-1.64,9.89-3.48,19.76-5.71,29.56c-1.76,7.74-3.7,15.44-5.7,23.11
				c-2.41,9.27-5.35,18.39-8.11,27.57c-2.57,8.54-4.88,17.18-7.91,25.55c-3.37,9.3-6.51,18.69-10.48,27.79
				c-4.1,9.39-8.45,18.63-13.23,27.68c-1.69,3.2-3.46,6.37-5.21,9.55l-15.78,25.86c-4.93,7.61-9.99,15.13-14.98,22.7
				c-0.47,0.71-1.36,1.38-0.58,2.32c0.55,0.66,1.45,0.54,2.19,0.35c21.71-5.51,44.03-2.48,65.97-4.74
				c12.4-1.27,24.72-2.83,36.86-6.06c10.41-2.77,20.32-6.47,29.65-11.78c1.76-1,3.46-2.07,5.1-3.2c0.51-0.35,1.01-0.7,1.5-1.06
				c0,0,0,0,0.01,0c0.78-0.49,1.55-1.08,2.31-1.76C494.25,680.37,500.61,663.16,500.61,663.16z"/>
			
				<linearGradient id="SVGID_00000031190528893755491980000002881876498229428117_" gradientUnits="userSpaceOnUse" x1="823.4313" y1="1754.7263" x2="825.7377" y2="1754.7263" gradientTransform="matrix(1 0 0 1 -339.5396 -1066.2063)">
				<stop  offset="0" style="stop-color:#785E45"/>
				<stop  offset="1" style="stop-color:#E6CFAC"/>
			</linearGradient>
			<path style="fill:url(#SVGID_00000031190528893755491980000002881876498229428117_);" d="M486.2,687.64
				c-0.76,0.68-1.53,1.28-2.31,1.76C484.67,688.83,485.44,688.24,486.2,687.64z"/>
			
				<linearGradient id="SVGID_00000003785059643642294770000005247980462732400303_" gradientUnits="userSpaceOnUse" x1="725.6485" y1="1409.7036" x2="736.8217" y2="1409.7036" gradientTransform="matrix(1 0 0 1 -339.5396 -1066.2063)">
				<stop  offset="0" style="stop-color:#785E45"/>
				<stop  offset="1" style="stop-color:#E6CFAC"/>
			</linearGradient>
			<path style="fill:url(#SVGID_00000003785059643642294770000005247980462732400303_);" d="M397.28,345.16
				c-4.07-1.68-7.91-2.7-11.17-3.33c0.36,0.05,0.73,0.12,1.09,0.18C390.75,342.62,394.15,343.63,397.28,345.16z"/>
			
				<linearGradient id="SVGID_00000025438910552458443380000017613725795918171790_" gradientUnits="userSpaceOnUse" x1="715.8079" y1="1407.5471" x2="725.5865" y2="1407.5471" gradientTransform="matrix(1 0 0 1 -339.5396 -1066.2063)">
				<stop  offset="0" style="stop-color:#785E45"/>
				<stop  offset="1" style="stop-color:#E6CFAC"/>
			</linearGradient>
			<path style="fill:url(#SVGID_00000025438910552458443380000017613725795918171790_);" d="M386.05,341.82
				c-3.27-0.52-6.53-0.84-9.78-0.96C376.27,340.87,380.22,340.71,386.05,341.82z"/>
			
				<linearGradient id="SVGID_00000041975877683769186790000003077757449505840826_" gradientUnits="userSpaceOnUse" x1="755.4536" y1="1424.3431" x2="755.8501" y2="1424.3431" gradientTransform="matrix(1 0 0 1 -339.5396 -1066.2063)">
				<stop  offset="0" style="stop-color:#785E45"/>
				<stop  offset="1" style="stop-color:#E6CFAC"/>
			</linearGradient>
			<path style="fill:url(#SVGID_00000041975877683769186790000003077757449505840826_);" d="M416.31,358.35
				c-0.16-0.13-0.3-0.27-0.4-0.42C416.05,358.07,416.18,358.21,416.31,358.35z"/>
			
				<linearGradient id="SVGID_00000057149605814595163180000004309992097278138770_" gradientUnits="userSpaceOnUse" x1="760.6544" y1="1430.6663" x2="760.7568" y2="1430.6663" gradientTransform="matrix(1 0 0 1 -339.5396 -1066.2063)">
				<stop  offset="0" style="stop-color:#785E45"/>
				<stop  offset="1" style="stop-color:#E6CFAC"/>
			</linearGradient>
			<path style="fill:url(#SVGID_00000057149605814595163180000004309992097278138770_);" d="M421.22,364.53L421.22,364.53
				c-0.04-0.05-0.07-0.1-0.1-0.15C421.15,364.43,421.18,364.49,421.22,364.53z"/>
			
				<linearGradient id="SVGID_00000178178396305786598470000011101354388151291066_" gradientUnits="userSpaceOnUse" x1="821.926" y1="1756.1398" x2="823.4259" y2="1756.1398" gradientTransform="matrix(1 0 0 1 -339.5396 -1066.2063)">
				<stop  offset="0" style="stop-color:#785E45"/>
				<stop  offset="1" style="stop-color:#E6CFAC"/>
			</linearGradient>
			<path style="fill:url(#SVGID_00000178178396305786598470000011101354388151291066_);" d="M483.89,689.4
				c-0.49,0.36-0.99,0.71-1.5,1.06C482.85,690.09,483.34,689.74,483.89,689.4z"/>
		</g>
		<g>
			
				<linearGradient id="SVGID_00000095300380575253133400000011041943887403863961_" gradientUnits="userSpaceOnUse" x1="747.2466" y1="1805.397" x2="747.2466" y2="1407.0157" gradientTransform="matrix(1 0 0 1 -339.5396 -1066.2063)">
				<stop  offset="0" style="stop-color:#785E45"/>
				<stop  offset="1" style="stop-color:#E6CFAC"/>
			</linearGradient>
			<path style="fill:url(#SVGID_00000095300380575253133400000011041943887403863961_);" d="M407.37,670.63
				c6.65,1.22,12.87,2.59,19.38,1.28c11.35-2.28,18.77-9.04,23.38-19.38c2.92-6.56,3.14-13.53,3.14-20.48c0.05-91,0.04-182,0.04-273
				c0-1,0-1.99,0-2.99c0.01-5.15,0.11-5.27,5.14-5.27c7.85-0.01,15.7,0,23.55,0c5.09,0,10.17,0.07,15.26-0.03
				c2.39-0.04,3.52,0.83,3.34,3.29c-0.09,1.21-0.01,2.43-0.01,3.65c0,84.59,0.01,169.17-0.02,253.76c0,6.3,0.17,12.64-0.47,18.89
				c-1.41,13.85-4.57,27.28-13.8,38.26c-5.9,7.02-13.32,11.94-22.37,14.51c-11.82,3.35-23.71,3.92-35.72,1.86
				c-7.07-1.21-13.51-3.97-18.52-9.4C408.47,674.25,407.62,672.75,407.37,670.63z"/>
			
				<linearGradient id="SVGID_00000063592673503457383280000014987111437582416563_" gradientUnits="userSpaceOnUse" x1="747.2466" y1="1805.397" x2="747.2466" y2="1407.0157" gradientTransform="matrix(1 0 0 1 -339.5396 -1066.2063)">
				<stop  offset="0" style="stop-color:#785E45"/>
				<stop  offset="1" style="stop-color:#E6CFAC"/>
			</linearGradient>
			<path style="fill:url(#SVGID_00000063592673503457383280000014987111437582416563_);" d="M500.61,663.16
				c-0.36,3.77-0.75,7.34-1.17,10.74c-5.13,41.75-14.39,55.83-14.55,56.07c0,0,0,0,0,0c-0.73,0.56-1.51,1.07-2.33,1.55
				c-6.92,4.08-14.58,6.37-22.5,7.19c-15.17,1.58-29.88-0.89-44.25-5.91c-9.98-3.49-19.54-8.07-29.56-11.4
				c-7.47-2.48-15.21-3.6-23.13-3.53c-9.14,0.08-18.07,1.08-26.47,5.01c-3.32,1.55-6.46,3.34-9.11,5.9c-1.07,1.04-2.4,1.7-3.48,0.61
				c-1.13-1.14,0.47-1.94,1.11-2.66c8.74-9.96,16.96-20.33,24.3-31.38c0.99-1.49,1.97-2.99,2.94-4.49l0.02-0.03l13.28-22.14
				l0.62-1.03l0.01-0.01l1.17-1.95c2.39-4.61,4.77-9.23,7.22-13.81c5.86-10.98,10.39-22.56,15.43-33.92
				c2.86-6.44,4.95-13.18,7.53-19.73c3.02-7.69,5.92-15.44,8.17-23.36c2.67-9.43,6.05-18.63,8.15-28.24
				c1.98-9.03,4.48-17.95,6.48-26.99c1.18-5.3,1.86-10.65,2.89-15.96c1.29-6.6,2.51-13.22,3.52-19.87
				c1.7-11.26,2.41-22.62,3.46-33.95c2.26-24.34,1.72-48.31-7.98-71.29c-2.58-6.12-5.75-11.91-10.24-16.76c0,0-0.02-0.03-0.08-0.08
				c-0.01-0.01-0.02-0.03-0.04-0.04c-0.91-0.94-7.21-7.05-17.77-7.18h-0.05c-1.83,0-3.66,0.16-5.51,0.53
				c-11.35,2.28-20,8.25-24.61,18.59c-2.92,6.56-4.54,14.33-4.55,21.27c-0.05,91-1.97,182.03-1.97,273.03c0,1,0,1.99,0,2.98
				c-0.01,5.16-0.11,5.27-5.14,5.27c-7.85,0.01-11.13-0.03-18.98-0.03c-5.09,0-10.18-0.07-15.26,0.03
				c-2.38,0.04-3.52-0.83-3.34-3.29c0.09-1.21,0.01-2.43,0.01-3.65c0-84.59-0.01-169.17,0.02-253.76c0-6.3-0.16-12.64,0.47-18.89
				c1.41-13.85,4.56-27.28,13.8-38.26c5.9-7.02,13.32-11.94,22.37-14.51c8.22-2.33,16.48-3.32,24.79-3.01
				c3.25,0.12,6.51,0.44,9.78,0.96c0.01,0,0.01,0,0.02,0c0.02,0,0.03,0.01,0.05,0.01c3.26,0.63,7.11,1.65,11.17,3.33
				c0.01,0,0.01,0.01,0.02,0.01c2.43,1,4.93,2.23,7.44,3.74c3.81,2.29,7.62,5.24,11.18,9.02c0.09,0.15,0.24,0.29,0.4,0.42
				c1.43,1.56,2.82,3.25,4.14,5.1c0.01,0.01,0.01,0.02,0.02,0.03c0.1,0.14,0.2,0.28,0.29,0.41c0.12,0.16,0.23,0.33,0.35,0.5
				c0.04,0.05,0.07,0.1,0.1,0.15h0c3.05,4.5,5.5,9.35,7.29,14.48c4.49,12.88,6.65,26.28,7.18,39.91c0.63,16.38-0.77,32.7-2.1,49
				c-0.72,8.79-1.82,17.58-3.27,26.28c-1.64,9.89-3.48,19.76-5.71,29.56c-1.76,7.74-3.7,15.44-5.7,23.11
				c-2.41,9.27-5.35,18.39-8.11,27.57c-2.57,8.54-4.88,17.18-7.91,25.55c-3.37,9.3-6.51,18.69-10.48,27.79
				c-4.1,9.39-8.45,18.63-13.23,27.68c-1.69,3.2-3.46,6.37-5.21,9.55l-15.78,25.86c-4.93,7.61-9.99,15.13-14.98,22.7
				c-0.47,0.71-1.36,1.38-0.58,2.32c0.55,0.66,1.45,0.54,2.19,0.35c21.71-5.51,44.03-2.48,65.97-4.74
				c12.4-1.27,24.72-2.83,36.86-6.06c10.41-2.77,20.32-6.47,29.65-11.78c1.76-1,3.46-2.07,5.1-3.2c0.51-0.35,1.01-0.7,1.5-1.06
				c0,0,0,0,0.01,0c0.78-0.49,1.55-1.08,2.31-1.76C494.25,680.37,500.61,663.16,500.61,663.16z"/>
			
				<linearGradient id="SVGID_00000124156312375250616620000016773157813255391882_" gradientUnits="userSpaceOnUse" x1="747.2466" y1="1805.397" x2="747.2466" y2="1407.0157" gradientTransform="matrix(1 0 0 1 -339.5396 -1066.2063)">
				<stop  offset="0" style="stop-color:#785E45"/>
				<stop  offset="1" style="stop-color:#E6CFAC"/>
			</linearGradient>
			<path style="fill:url(#SVGID_00000124156312375250616620000016773157813255391882_);" d="M486.2,687.64
				c-0.76,0.68-1.53,1.28-2.31,1.76C484.67,688.83,485.44,688.24,486.2,687.64z"/>
			
				<linearGradient id="SVGID_00000078766419300769706790000006127413880294311296_" gradientUnits="userSpaceOnUse" x1="747.2466" y1="1805.397" x2="747.2466" y2="1407.0157" gradientTransform="matrix(1 0 0 1 -339.5396 -1066.2063)">
				<stop  offset="0" style="stop-color:#785E45"/>
				<stop  offset="1" style="stop-color:#E6CFAC"/>
			</linearGradient>
			<path style="fill:url(#SVGID_00000078766419300769706790000006127413880294311296_);" d="M397.28,345.16
				c-4.07-1.68-7.91-2.7-11.17-3.33c0.36,0.05,0.73,0.12,1.09,0.18C390.75,342.62,394.15,343.63,397.28,345.16z"/>
			
				<linearGradient id="SVGID_00000026122224698191056700000015500030520340229004_" gradientUnits="userSpaceOnUse" x1="747.2466" y1="1805.397" x2="747.2466" y2="1407.0157" gradientTransform="matrix(1 0 0 1 -339.5396 -1066.2063)">
				<stop  offset="0" style="stop-color:#785E45"/>
				<stop  offset="1" style="stop-color:#E6CFAC"/>
			</linearGradient>
			<path style="fill:url(#SVGID_00000026122224698191056700000015500030520340229004_);" d="M386.05,341.82
				c-3.27-0.52-6.53-0.84-9.78-0.96C376.27,340.87,380.22,340.71,386.05,341.82z"/>
			
				<linearGradient id="SVGID_00000162333464676184407960000002164951646330782381_" gradientUnits="userSpaceOnUse" x1="747.2466" y1="1805.397" x2="747.2466" y2="1407.0157" gradientTransform="matrix(1 0 0 1 -339.5396 -1066.2063)">
				<stop  offset="0" style="stop-color:#785E45"/>
				<stop  offset="1" style="stop-color:#E6CFAC"/>
			</linearGradient>
			<path style="fill:url(#SVGID_00000162333464676184407960000002164951646330782381_);" d="M416.31,358.35
				c-0.16-0.13-0.3-0.27-0.4-0.42C416.05,358.07,416.18,358.21,416.31,358.35z"/>
			
				<linearGradient id="SVGID_00000106148321451072748180000006899332745537852095_" gradientUnits="userSpaceOnUse" x1="747.2466" y1="1805.397" x2="747.2466" y2="1407.0157" gradientTransform="matrix(1 0 0 1 -339.5396 -1066.2063)">
				<stop  offset="0" style="stop-color:#785E45"/>
				<stop  offset="1" style="stop-color:#E6CFAC"/>
			</linearGradient>
			<path style="fill:url(#SVGID_00000106148321451072748180000006899332745537852095_);" d="M421.22,364.53L421.22,364.53
				c-0.04-0.05-0.07-0.1-0.1-0.15C421.15,364.43,421.18,364.49,421.22,364.53z"/>
			
				<linearGradient id="SVGID_00000032606955863234328830000010693554598459035563_" gradientUnits="userSpaceOnUse" x1="747.2466" y1="1805.397" x2="747.2466" y2="1407.0157" gradientTransform="matrix(1 0 0 1 -339.5396 -1066.2063)">
				<stop  offset="0" style="stop-color:#785E45"/>
				<stop  offset="1" style="stop-color:#E6CFAC"/>
			</linearGradient>
			<path style="fill:url(#SVGID_00000032606955863234328830000010693554598459035563_);" d="M483.89,689.4
				c-0.49,0.36-0.99,0.71-1.5,1.06C482.85,690.09,483.34,689.74,483.89,689.4z"/>
		</g>
	</g>
	<g>
		<g>
			<path class="st16" d="M580.66,669.67h4.97v23.89h11.67v4.19h-16.64V669.67z"/>
			<path class="st16" d="M608.66,669.67h16.89v4.19h-11.92v7.19h10.1v4.19h-10.1v8.31h12.35v4.19l-17.32,0V669.67z"/>
			<path class="st16" d="M636.72,683.79c0-9.19,5.82-14.64,13.29-14.64c3.99,0,6.72,1.75,8.48,3.55l-2.66,3.21
				c-1.41-1.37-3.05-2.44-5.67-2.44c-4.97,0-8.32,3.86-8.32,10.17c0,6.41,2.97,10.29,8.6,10.29c1.56,0,3.11-0.45,4-1.24v-6.06h-5.3
				v-4.08h9.76v12.38c-1.88,1.89-5.11,3.33-8.96,3.33C642.37,698.26,636.72,693.09,636.72,683.79z"/>
			<path class="st16" d="M676.86,669.67h5.83l9.16,28.07h-5.28l-4.27-14.94c-0.89-2.97-1.72-6.18-2.54-9.26h-0.17
				c-0.77,3.11-1.59,6.29-2.49,9.26l-4.32,14.94h-5.08L676.86,669.67z M673.11,686.23h13.22v3.91h-13.22V686.23z"/>
			<path class="st16" d="M701.51,669.67h4.97v23.89h11.67v4.19h-16.64V669.67z"/>
			<path class="st16" d="M744.54,669.67h8.84c6.23,0,10.85,2.16,10.85,8.66c0,6.26-4.63,9.1-10.68,9.1h-4.03v10.32h-4.97V669.67z
				 M753.14,683.44c4.19,0,6.18-1.66,6.18-5.11c0-3.49-2.18-4.67-6.36-4.67h-3.46v9.78H753.14z"/>
			<path class="st16" d="M775.97,669.67h9.45c5.84,0,10.35,2.06,10.35,8.33c0,6.03-4.5,8.77-10.35,8.77h-4.48v10.97h-4.97V669.67z
				 M784.91,682.79c3.85,0,5.94-1.6,5.94-4.79c0-3.23-2.09-4.34-5.94-4.34h-3.97v9.14H784.91z M784.5,685.44l3.6-2.97l8.77,15.27
				h-5.59L784.5,685.44z"/>
			<path class="st16" d="M806.36,683.59c0-9.09,5.07-14.44,12.39-14.44s12.37,5.38,12.37,14.44c0,9.08-5.06,14.66-12.37,14.66
				S806.36,692.67,806.36,683.59z M826,683.59c0-6.3-2.85-10.12-7.26-10.12s-7.27,3.82-7.27,10.12c0,6.3,2.86,10.34,7.27,10.34
				C823.16,693.93,826,689.89,826,683.59z"/>
			<path class="st16" d="M843.22,669.67h16.96v4.19h-11.99v7.96h10.2v4.19h-10.2v11.73h-4.97V669.67z"/>
			<path class="st16" d="M871.56,669.67l16.89,0v4.19h-11.92v7.19h10.1v4.19l-10.1,0v8.31h12.35v4.19h-17.32V669.67z"/>
			<path class="st16" d="M899.18,694.14l2.9-3.42c2.02,1.92,4.71,3.21,7.32,3.21c3.16,0,4.9-1.43,4.9-3.63
				c0-2.31-1.81-3.05-4.36-4.13l-3.84-1.67c-2.76-1.15-5.67-3.34-5.67-7.44c0-4.48,3.95-7.92,9.42-7.92c3.28,0,6.45,1.35,8.66,3.58
				l-2.56,3.16c-1.78-1.52-3.69-2.41-6.09-2.41c-2.66,0-4.39,1.25-4.39,3.3c0,2.21,2.14,3.03,4.47,3.97l3.78,1.59
				c3.34,1.39,5.67,3.5,5.67,7.57c0,4.55-3.77,8.35-10.07,8.35C905.5,698.26,901.84,696.76,899.18,694.14z"/>
			<path class="st16" d="M928.34,694.14l2.9-3.42c2.02,1.92,4.71,3.21,7.32,3.21c3.16,0,4.9-1.43,4.9-3.63
				c0-2.31-1.81-3.05-4.36-4.13l-3.84-1.67c-2.76-1.15-5.67-3.34-5.67-7.44c0-4.48,3.95-7.92,9.42-7.92c3.28,0,6.45,1.35,8.66,3.58
				l-2.56,3.16c-1.78-1.52-3.69-2.41-6.09-2.41c-2.66,0-4.39,1.25-4.39,3.3c0,2.21,2.14,3.03,4.47,3.97l3.78,1.59
				c3.34,1.39,5.67,3.5,5.67,7.57c0,4.55-3.77,8.35-10.07,8.35C934.67,698.26,931,696.76,928.34,694.14z"/>
			<path class="st16" d="M960.11,669.67h4.97v28.07h-4.97L960.11,669.67z"/>
			<path class="st16" d="M977.19,683.59c0-9.09,5.07-14.44,12.39-14.44c7.32,0,12.37,5.38,12.37,14.44
				c0,9.08-5.06,14.66-12.37,14.66S977.19,692.68,977.19,683.59z M996.83,683.59c0-6.3-2.86-10.12-7.26-10.12
				c-4.42,0-7.26,3.82-7.26,10.12c0,6.3,2.85,10.34,7.26,10.34C993.98,693.93,996.83,689.89,996.83,683.59z"/>
			<path class="st16" d="M1014.05,669.67h5.11l8.72,15.78l2.9,5.99h0.17c-0.24-2.9-0.63-6.45-0.63-9.58v-12.19h4.73v28.07h-5.11
				l-8.72-15.8l-2.9-5.97h-0.17c0.24,2.97,0.63,6.36,0.63,9.48v12.29h-4.73V669.67z"/>
			<path class="st16" d="M1061.34,690.36c0-8.76,12.96-9.46,12.96-15.21c0-1.48-0.68-2.63-2.29-2.63c-1.76,0-2.99,1.46-2.99,3.6
				c0,4.85,5.91,11.37,11.48,15.09c2.27,1.53,4.48,2.61,6.31,3.01l-1.23,4.03c-2.53-0.58-5.32-1.9-8.05-3.85
				c-6.61-4.72-12.67-12.47-12.67-18.25c0-3.86,2.78-7,7.08-7c3.85,0,6.21,2.4,6.21,5.96c0,7.35-12.1,9.31-12.1,14.95
				c0,2.61,2.06,4.36,4.84,4.36c2.15,0,4.3-1.23,6.13-3.07c2.26-2.33,3.99-5.39,5-9.11h4.52c-1.24,4.21-3.21,8.06-6.11,11.38
				c-2.51,2.76-5.82,4.64-10.15,4.64C1064.7,698.26,1061.34,694.77,1061.34,690.36z"/>
			<path class="st16" d="M1112.61,669.67h4.97v23.89h11.67v4.19h-16.64V669.67z"/>
			<path class="st16" d="M1140.6,669.67h16.89v4.19h-11.92v7.19h10.1v4.19h-10.1v8.31h12.35v4.19h-17.32V669.67z"/>
			<path class="st16" d="M1168.67,683.8c0-9.19,5.82-14.64,13.29-14.64c3.99,0,6.72,1.75,8.48,3.55l-2.66,3.21
				c-1.41-1.37-3.05-2.44-5.67-2.44c-4.97,0-8.33,3.86-8.33,10.17c0,6.41,2.98,10.29,8.61,10.29c1.56,0,3.11-0.45,4-1.24v-6.06h-5.3
				v-4.08h9.76v12.38c-1.88,1.89-5.11,3.33-8.96,3.33C1174.31,698.26,1168.67,693.09,1168.67,683.8z"/>
			<path class="st16" d="M1208.8,669.67h5.83l9.16,28.07h-5.28l-4.27-14.94c-0.89-2.97-1.72-6.18-2.54-9.26h-0.17
				c-0.77,3.11-1.59,6.29-2.49,9.26l-4.32,14.94h-5.08L1208.8,669.67z M1205.05,686.23h13.22v3.91h-13.22V686.23z"/>
			<path class="st16" d="M1233.45,669.67h4.97l0,23.89h11.67v4.19h-16.64V669.67z"/>
			<path class="st16" d="M1275,683.8c0-9.19,5.76-14.64,12.86-14.64c3.52,0,6.31,1.68,8.09,3.55l-2.66,3.21
				c-1.45-1.44-3.13-2.44-5.33-2.44c-4.57,0-7.84,3.86-7.84,10.17c0,6.41,3.02,10.29,7.72,10.29c2.5,0,4.42-1.15,6-2.88l2.66,3.12
				c-2.28,2.64-5.2,4.09-8.84,4.09C1280.6,698.26,1275,693.09,1275,683.8z"/>
			<path class="st16" d="M1304.76,683.59c0-9.09,5.07-14.44,12.39-14.44s12.37,5.38,12.37,14.44c0,9.08-5.06,14.66-12.37,14.66
				S1304.76,692.68,1304.76,683.59z M1324.41,683.59c0-6.3-2.86-10.12-7.26-10.12c-4.42,0-7.26,3.82-7.26,10.12
				c0,6.3,2.85,10.34,7.26,10.34C1321.55,693.93,1324.41,689.9,1324.41,683.59z"/>
			<path class="st16" d="M1341.62,669.67h5.11l8.72,15.78l2.9,5.99h0.17c-0.24-2.9-0.63-6.45-0.63-9.58v-12.19h4.73v28.07l-5.11,0
				l-8.72-15.8l-2.9-5.97h-0.17c0.24,2.97,0.63,6.36,0.63,9.48v12.29h-4.73V669.67z"/>
			<path class="st16" d="M1374.31,694.14l2.9-3.42c2.02,1.92,4.71,3.21,7.32,3.21c3.16,0,4.9-1.43,4.9-3.63
				c0-2.31-1.81-3.05-4.36-4.13l-3.84-1.67c-2.76-1.15-5.67-3.34-5.67-7.44c0-4.48,3.95-7.92,9.42-7.92c3.28,0,6.45,1.35,8.66,3.58
				l-2.56,3.16c-1.78-1.52-3.68-2.41-6.09-2.41c-2.66,0-4.39,1.25-4.39,3.3c0,2.21,2.14,3.03,4.47,3.97l3.78,1.59
				c3.34,1.39,5.67,3.5,5.67,7.57c0,4.55-3.77,8.35-10.07,8.35C1380.63,698.26,1376.97,696.76,1374.31,694.14z"/>
			<path class="st16" d="M1405.95,685.43v-15.76h4.98v16.14c0,6.11,2.28,8.12,5.68,8.12c3.43,0,5.8-2.01,5.8-8.12v-16.14h4.8v15.76
				c0,9.22-4.09,12.83-10.6,12.83C1410.1,698.26,1405.95,694.65,1405.95,685.43z"/>
			<path class="st16" d="M1440.66,669.67h4.97v23.89h11.67v4.19h-16.64V669.67z"/>
			<path class="st16" d="M1469.16,673.86h-8.1v-4.19h21.19v4.19h-8.11v23.88h-4.98V673.86z"/>
			<path class="st16" d="M1497.17,669.67h5.83l9.16,28.07h-5.28l-4.27-14.94c-0.89-2.97-1.72-6.18-2.54-9.26h-0.17
				c-0.77,3.11-1.59,6.29-2.49,9.26l-4.32,14.94h-5.08L1497.17,669.67z M1493.42,686.23h13.22v3.91h-13.22V686.23z"/>
			<path class="st16" d="M1521.82,669.67h5.11l8.72,15.78l2.9,5.99h0.17c-0.24-2.9-0.63-6.45-0.63-9.58v-12.19h4.73v28.07h-5.11
				l-8.72-15.8l-2.9-5.97h-0.17c0.24,2.97,0.63,6.36,0.63,9.48v12.29h-4.73V669.67z"/>
			<path class="st16" d="M1554.95,683.8c0-9.19,5.76-14.64,12.86-14.64c3.52,0,6.31,1.68,8.09,3.55l-2.66,3.21
				c-1.45-1.44-3.13-2.44-5.33-2.44c-4.57,0-7.84,3.86-7.84,10.17c0,6.41,3.02,10.29,7.72,10.29c2.5,0,4.42-1.15,6-2.88l2.66,3.12
				c-2.28,2.64-5.2,4.09-8.84,4.09C1560.55,698.26,1554.95,693.09,1554.95,683.8z"/>
			<path class="st16" d="M1591.78,687.3l-8.45-17.63h5.32l3.05,7.18c0.83,2.08,1.61,4.03,2.5,6.17h0.17
				c0.88-2.14,1.77-4.09,2.58-6.17l3.06-7.18h5.18l-8.45,17.63v10.44h-4.97V687.3z"/>
		</g>
		<g>
			<path class="st16" d="M870.8,580.59c-0.77,3.86-3.16,14.74-4.32,18.22h-53.26v-3.24c9.88-0.69,10.88-1.47,10.88-11.35l0-44.3
				c0-9.8-0.77-10.5-10.34-11.11v-3.39h31.26v3.39c-9.11,0.62-10.19,1.23-10.19,11.11v43.92c0,6.17,0.54,8.34,2.7,9.49
				c2.24,1.23,6.17,1.47,10.73,1.47c6.1,0,10.19-0.7,12.81-3.63c2.16-2.16,4.32-5.87,6.25-11.27L870.8,580.59z"/>
			<path class="st16" d="M924.14,598.81v-3.24c7.18-1,8.18-2.01,6.64-6.56c-1.62-4.48-3.7-10.11-6.17-16.59h-24.78
				c-1.93,5.17-3.47,9.57-4.94,14.05c-2.47,6.87-1.54,8.18,7.18,9.11v3.24H876.6v-3.24c7.49-1.16,9.11-1.93,13.2-11.96l24.23-58.89
				l4.01-1c7.41,19.99,14.82,40.06,22.46,59.89c3.7,9.96,5.33,11.19,12.81,11.96v3.24H924.14z M912.79,539.22h-0.23
				c-3.7,9.34-7.33,18.99-10.8,28.09h21.15L912.79,539.22z"/>
			<path class="st16" d="M1057.05,528.8c-7.87,1.08-9.11,2.24-12.58,11.66c-2.7,7.18-9.65,28.02-19.3,59.58h-4.09
				c-6.48-17.98-14.28-39.59-20.22-55.42h-0.23c-6.41,19.22-12.89,37.43-18.91,55.42h-4.01c-6.17-20.38-12.74-40.14-19.14-59.81
				c-2.93-9.34-4.71-10.58-11.81-11.42v-3.39h29.25v3.39c-8.64,1-8.64,2.24-6.95,7.95c4.48,14.82,8.95,29.87,14.05,45.38h0.23
				c6.02-18.6,12.66-37.28,18.52-55.72h3.86c6.48,18.52,13.2,36.74,20.3,55.88h0.23c4.94-15.28,11.27-37.12,12.97-44.3
				c1.62-6.72,1.23-8.18-8.03-9.19v-3.39l25.86,0V528.8z"/>
			<path class="st16" d="M1145.59,542.93c-1-4.48-1.78-6.95-3.47-9.19c-2.01-3.16-4.48-4.17-13.04-4.17h-8.41
				c-3.63,0-3.94,0.31-3.94,3.7v26.4h11.58c10.57,0,11.19-1.08,12.66-8.41h3.4v22.23h-3.47c-1.39-7.87-2.01-9.11-12.58-9.11h-11.58
				v19.68c0,10.03,1,10.73,11.58,11.5v3.24h-32.49v-3.24c9.18-0.69,10.19-1.47,10.19-11.5v-44.07c0-9.96-1-10.57-9.88-11.19v-3.39
				h51.71c0.15,4.17,0.69,11.35,1.23,16.98L1145.59,542.93z"/>
			<path class="st16" d="M1158.34,598.81v-3.24c9.42-0.69,10.42-1.39,10.42-11.11v-44.53c0-9.8-1-10.5-10.42-11.11v-3.39h31.49v3.39
				c-9.34,0.62-10.34,1.31-10.34,11.11v44.53c0,9.73,1,10.42,10.34,11.11v3.24H1158.34z"/>
			<path class="st16" d="M1268.41,599.81c-1.39,0-2.7-0.08-4.09-0.23c-9.34-0.46-14.13-2.93-19.45-10.34
				c-3.94-5.48-7.72-12.35-11.19-17.75c-2.08-3.24-4.09-4.63-10.03-4.63h-3.24v17.6c0,9.49,1.08,10.34,10.34,11.11v3.24h-31.26
				v-3.24c9.34-0.77,10.42-1.62,10.42-11.11v-44.76c0-9.65-1-10.26-9.96-10.88v-3.39h29.56c8.72,0,14.36,1,18.75,3.94
				c4.71,2.93,7.64,7.95,7.64,14.82c0,9.8-6.33,15.67-14.59,19.14c2.01,3.7,6.71,11.11,10.19,16.28c4.17,5.94,6.64,9.11,9.34,11.89
				c2.93,3.32,5.48,4.55,8.1,5.17L1268.41,599.81z M1225.57,563.07c5.79,0,9.65-0.93,12.58-3.24c4.4-3.39,6.17-7.79,6.17-13.89
				c0-12.12-7.95-16.59-16.52-16.59c-3.47,0-5.33,0.46-6.17,1.08c-0.77,0.62-1.23,1.93-1.23,4.86v27.78H1225.57z"/>
			<path class="st16" d="M1338.27,598.81v-3.24c9.34-0.92,9.8-1.7,9.65-13.58l-0.39-45.3h-0.46l-28.25,61.43h-2.32l-26.01-59.89
				h-0.31l-1.7,31.72c-0.46,9.34-0.46,14.12-0.23,18.6c0.23,5.32,2.93,6.1,10.57,6.87v3.4h-27.09v-3.4c6.64-0.62,8.88-2.24,9.8-6.71
				c0.62-3.94,1.31-8.8,2.24-20.92l1.7-22.69c1-14.66,0.31-15.28-10.03-16.28v-3.39h19.68l26.17,55.49l26.55-55.49h20.22v3.39
				c-10.11,0.85-10.8,1.23-10.42,12.43l1.08,40.75c0.39,11.89,0.69,12.66,10.73,13.58v3.24H1338.27z"/>
		</g>
		<g>
			<g>
				<path class="st16" d="M611.53,384.16c0,0.45-0.08,0.66-0.24,0.66c-2.16,0-3.76,0.24-4.81,0.71c-1.03,0.45-1.71,1.26-2.05,2.37
					c-0.05,0.18-0.11,0.45-0.18,0.71v61.12c0,1.55,0.05,3.15-0.13,4.71c-0.13,1.47-0.37,2.92-0.79,4.31
					c-0.5,1.87-1.37,3.65-2.68,5.21c-1.5,1.76-3.37,3-5.68,3.63c-0.63,0.16-1.26,0.32-1.89,0.42c-0.63,0.11-1.29,0.21-1.92,0.24
					c-1.71,0.18-3.47,0.11-5.23-0.18c-1.79-0.32-3.39-1-4.68-2.34c-0.29-0.34-0.53-0.74-0.58-1.26c1.66,0.32,3.26,0.66,4.89,0.34
					c2.89-0.58,4.76-2.26,5.92-4.84c0.74-1.63,0.79-3.37,0.79-5.1c0.03-21.69,0.03-43.35,0.03-65.04v-1.29
					c-0.08-0.29-0.16-0.58-0.29-0.81c-0.45-1.08-1.29-1.81-2.47-2.23c-1.18-0.42-3.1-0.66-5.73-0.66c-0.13,0-0.21-0.21-0.21-0.66
					c0-0.5,0.08-0.71,0.21-0.71l6.36,0.11c0.82,0.03,1.58,0.08,2.31,0.11c2.29,0.08,4.18,0.13,5.65,0.13c1.66,0,3.65-0.05,5.94-0.16
					c0.6-0.03,1.18-0.05,1.81-0.08l5.42-0.11C611.45,383.45,611.53,383.66,611.53,384.16z"/>
			</g>
			<path class="st16" d="M619.84,456.84v-3.24c9.42-0.69,10.42-1.39,10.42-11.11v-44.53c0-9.8-1-10.5-10.42-11.11v-3.39l31.49,0
				v3.39c-9.34,0.62-10.34,1.31-10.34,11.11v44.53c0,9.73,1,10.42,10.34,11.11v3.24L619.84,456.84z"/>
			<path class="st16" d="M742.17,386.84c-9.57,0.77-10.5,1.31-10.5,10.88l0,44.92c0,9.57,1,10.19,10.5,10.96v3.24l-32.03,0v-3.24
				c9.96-0.77,10.88-1.39,10.88-10.96v-22.07l-39.59,0l0,22.07c0,9.49,0.93,10.19,10.5,10.96v3.24h-31.41v-3.24
				c9.26-0.77,10.11-1.39,10.11-10.96v-44.92c0-9.57-0.85-10.11-10.42-10.88v-3.39h31.1v3.39c-8.95,0.77-9.88,1.31-9.88,10.88v17.75
				h39.59v-17.75c0-9.49-0.93-10.11-10.11-10.88v-3.39l31.26,0V386.84z"/>
			<path class="st16" d="M791.94,456.84v-3.24c7.18-1,8.18-2.01,6.64-6.56c-1.62-4.48-3.7-10.11-6.17-16.59h-24.78
				c-1.93,5.17-3.47,9.57-4.94,14.05c-2.47,6.87-1.54,8.18,7.18,9.11v3.24h-25.47v-3.24c7.49-1.16,9.11-1.93,13.2-11.96l24.24-58.89
				l4.01-1c7.41,19.99,14.82,40.06,22.46,59.89c3.7,9.96,5.33,11.19,12.81,11.96v3.24L791.94,456.84z M780.59,397.26h-0.23
				c-3.7,9.34-7.33,18.99-10.8,28.09h21.15L780.59,397.26z"/>
			<path class="st16" d="M908,386.84c-6.41,0.31-9.18,1.62-9.72,6.79c-0.39,3.63-0.7,8.72-0.7,19.22V458h-3.7l-50.71-58.81h-0.15
				l-0.08,27.56c0,10.42,0.46,15.74,0.77,18.99c0.54,5.87,3.16,7.26,11.11,7.87v3.24h-27.63v-3.24c6.64-0.46,9.57-1.93,10.11-7.56
				c0.46-3.55,0.93-8.88,0.93-19.29v-24.24c0-8.26-0.39-8.88-2.47-11.58c-2.39-2.78-4.86-3.7-10.26-4.09v-3.39h17.75l49.17,55.72
				h0.31l0-26.32c0-10.5-0.46-15.59-0.77-18.83c-0.54-5.32-3.24-6.79-11.5-7.18v-3.39H908V386.84z"/>
			<path class="st16" d="M1011.02,456.84v-3.24c9.34-0.92,9.8-1.7,9.65-13.58l-0.39-45.3h-0.46l-28.25,61.43h-2.32l-26.01-59.89
				h-0.31l-1.7,31.72c-0.46,9.34-0.46,14.12-0.23,18.6c0.23,5.32,2.93,6.1,10.58,6.87v3.4h-27.09v-3.4c6.64-0.62,8.88-2.24,9.8-6.71
				c0.62-3.94,1.31-8.8,2.24-20.92l1.7-22.69c1-14.66,0.31-15.28-10.03-16.28l0-3.39h19.68l26.16,55.49l26.55-55.49h20.22v3.39
				c-10.11,0.85-10.81,1.23-10.42,12.43l1.08,40.75c0.39,11.89,0.69,12.66,10.73,13.58v3.24H1011.02z"/>
			<g>
				<path class="st16" d="M1196.9,453.64c-0.24,0.21-0.48,0.39-0.72,0.54c-0.15,0.12-0.33,0.24-0.48,0.33
					c-0.51,0.36-1.05,0.69-1.59,1.02c-2.91,1.65-5.97,2.79-9.21,3.66c-2.25,0.6-4.5,0.99-6.78,1.32h-0.09
					c-3.48,0.27-4.11,0.24-7.2,0.06c5.64-1.8,10.65-4.59,15.05-8.34c4.41-3.75,7.86-8.22,10.35-13.4
					c2.49-5.19,3.72-10.71,3.72-16.58c0-6.69-1.56-13.01-4.71-18.95c-3.12-5.97-7.65-10.77-13.52-14.39
					c-5.88-3.63-12.68-5.46-20.42-5.46c-6.96,0-13.73,1.53-20.39,4.53c-6.66,3.03-12.09,7.53-16.34,13.52
					c-4.23,6-6.36,13.22-6.36,21.62c0,6.51,1.35,12.62,4.05,18.29c2.7,5.67,6.51,10.38,11.49,14.06c4.68,3.48,10.02,5.73,16.07,6.75
					c-0.99,1.23-2.01,2.43-3.03,3.6c-0.21,0.21-0.69,0.45-0.36,0.81c0.36,0.33,0.75,0.15,1.11-0.18c0.81-0.81,1.8-1.35,2.82-1.83
					c2.61-1.23,5.4-1.56,8.25-1.56c2.46-0.03,4.86,0.33,7.2,1.08c3.12,1.05,6.09,2.46,9.18,3.57c4.5,1.56,9.06,2.31,13.79,1.83
					c2.46-0.27,4.83-0.96,6.99-2.25c0.24-0.15,0.51-0.3,0.72-0.48c0.03-0.03,0.78-1.14,1.68-3.87c0.93-2.73,2.04-7.08,2.85-13.58
					c0.12-1.05,0.27-2.16,0.36-3.33C1201.36,446.03,1199.39,451.4,1196.9,453.64z M1161.18,459.82c-2.4,0-4.71-0.3-6.9-0.96
					l-1.56-0.48c-2.46-0.9-4.74-2.19-6.93-3.87c-4.53-3.57-8.07-8.49-10.65-14.75c-2.55-6.3-3.84-13.31-3.84-21.05
					c0-10.05,2.19-17.9,6.54-23.57c4.38-5.67,10.5-8.52,18.41-8.52c6.21,0,11.6,1.68,16.22,5.04c4.62,3.33,8.16,7.98,10.65,13.94
					c2.49,5.97,3.75,12.68,3.75,20.21c0,7.08-1.14,13.19-3.36,18.35c-2.25,5.13-5.31,9.03-9.21,11.67
					C1170.45,458.5,1166.07,459.82,1161.18,459.82z"/>
				<path class="st16" d="M1291.56,390.05c-6.71,0.39-9.65,2.08-10.11,6.72c-0.31,3.16-0.69,7.72-0.69,17.9v8.88
					c0,13.35-2.16,23.16-8.88,30.1c-5.4,5.48-13.28,7.95-21.23,7.95c-7.1,0-13.81-1.54-18.99-5.48c-7.1-5.25-10.5-13.82-10.5-27.4
					v-26.94c0-10.42-1-10.96-10.11-11.73v-3.39l30.95,0v3.39c-9.03,0.54-10.03,1.23-10.03,11.73v24.62c0,18.6,7.8,28.79,21.84,28.79
					c16.36,0,22-13.12,22-31.88v-8.64c0-10.19-0.31-14.66-0.93-18.22c-0.62-4.32-3.24-5.86-11.19-6.41v-3.39h27.86V390.05z"/>
				<path class="st16" d="M1367.82,461.06c-1.39,0-2.7-0.08-4.09-0.23c-9.34-0.46-14.12-2.93-19.45-10.34
					c-3.94-5.48-7.72-12.35-11.19-17.75c-2.08-3.24-4.09-4.63-10.03-4.63h-3.24l0,17.6c0,9.49,1.08,10.34,10.34,11.11v3.24h-31.26
					v-3.24c9.34-0.77,10.42-1.62,10.42-11.11v-44.76c0-9.65-1-10.26-9.96-10.88v-3.39h29.56c8.72,0,14.36,1,18.75,3.94
					c4.71,2.93,7.64,7.95,7.64,14.82c0,9.8-6.33,15.67-14.59,19.14c2.01,3.7,6.71,11.11,10.19,16.28c4.17,5.94,6.64,9.11,9.34,11.89
					c2.93,3.32,5.48,4.55,8.1,5.17L1367.82,461.06z M1324.98,424.32c5.79,0,9.65-0.93,12.58-3.24c4.4-3.39,6.17-7.79,6.17-13.89
					c0-12.12-7.95-16.59-16.52-16.59c-3.47,0-5.33,0.46-6.17,1.08c-0.77,0.62-1.23,1.93-1.23,4.86v27.78H1324.98z"/>
				<path class="st16" d="M1412.05,420.62c11.81,1.54,20.84,6.48,20.84,17.83c0,7.57-4.17,13.43-10.96,17.13
					c-5.94,3.17-13.81,4.48-23,4.48h-26.55v-3.24c9.88-0.69,10.65-1.47,10.65-10.96v-44.84c0-9.65-0.54-10.34-9.65-10.96v-3.39
					h30.56c8.8,0,13.82,1.31,17.67,3.94c4.01,2.7,6.48,7.64,6.48,12.89c0,10.73-9.34,15.13-16.05,16.75V420.62z M1398.78,419.15
					c12.5,0,17.75-4.86,17.75-14.2c0-8.1-4.55-14.51-15.05-14.51c-2.78,0-5.4,0.62-6.41,1.39c-1,0.69-1.31,2.01-1.31,5.48v21.84
					H1398.78z M1393.76,445.55c0,8.41,2.24,10.58,9.49,10.5c9.03-0.15,17.21-4.79,17.21-16.44c0-11.35-7.87-16.52-21.92-16.52h-4.79
					V445.55z"/>
				<path class="st16" d="M1485.15,460.06v-3.24c7.18-1,8.18-2.01,6.64-6.56c-1.62-4.48-3.7-10.11-6.17-16.59h-24.78
					c-1.93,5.17-3.47,9.57-4.94,14.05c-2.47,6.87-1.54,8.18,7.18,9.11v3.24h-25.47v-3.24c7.49-1.16,9.11-1.93,13.2-11.96
					l24.23-58.89l4.01-1c7.41,19.99,14.82,40.06,22.46,59.89c3.7,9.96,5.33,11.19,12.81,11.96v3.24H1485.15z M1473.8,400.47h-0.23
					c-3.7,9.34-7.33,18.99-10.8,28.09h21.15L1473.8,400.47z"/>
				<path class="st16" d="M1602.01,390.05c-6.41,0.31-9.18,1.62-9.73,6.79c-0.39,3.63-0.69,8.72-0.69,19.22v45.15h-3.7l-50.71-58.81
					h-0.15l-0.08,27.56c0,10.42,0.46,15.74,0.77,18.99c0.54,5.87,3.16,7.26,11.11,7.87l0,3.24l-27.63,0v-3.24
					c6.64-0.46,9.57-1.93,10.11-7.56c0.46-3.55,0.93-8.88,0.93-19.29v-24.24c0-8.26-0.39-8.88-2.47-11.58
					c-2.39-2.78-4.86-3.7-10.26-4.09v-3.39l17.75,0l49.17,55.72h0.31v-26.32c0-10.5-0.46-15.59-0.77-18.83
					c-0.54-5.32-3.24-6.79-11.5-7.18v-3.39h27.55V390.05z"/>
			</g>
			<circle class="st16" cx="1070.92" cy="447.38" r="9.47"/>
		</g>
	</g>
</g>
</svg>
