<?xml version="1.0" encoding="utf-8"?>
<!-- Generator: Adobe Illustrator 28.2.0, SVG Export Plug-In . SVG Version: 6.00 Build 0)  -->
<svg version="1.1" id="Professional" xmlns="http://www.w3.org/2000/svg" xmlns:xlink="http://www.w3.org/1999/xlink" x="0px"
	 y="0px" viewBox="0 0 697.9 171.1" style="enable-background:new 0 0 697.9 171.1;" xml:space="preserve">
<style type="text/css">
	.st0{fill:#C3AA8B;}
	.st1{fill:#242A48;}
</style>
<path class="st0" d="M135.6,107.9V64.4c0-1.3-0.3-2.6-0.9-3.7l-0.7-1.4l-0.4,0.2l-2.4,1.3l0.7,1.4c0.4,0.7,0.6,1.5,0.6,2.2v43.5
	h-3.1V62.8H118c-0.6-1.6-1.4-3.2-2.4-4.7c0,0-0.1-0.1-0.1-0.1l0.9-0.7l2.7,0.8l4.8,1.4l1.8-1.4l8.2-6.6l-6.1-2.8l4-2.8l-1.8-2.5
	l-3.7,2.6l-0.1-6.2L114.6,47l0,7.3l-1.1,0.8c-5.4-6.7-13.7-10.9-22.9-10.9c-10.6,0-19.9,5.6-25.1,14c-0.9,1.5-1.7,3-2.4,4.7H51.7
	v45.1h-3.1V64.4c0-2.6,2.1-4.7,4.7-4.7h8.2v-1.6v-1.6h-8.2c-4.3,0-7.8,3.5-7.8,7.8v43.5h-4.7v10.9c0,4.3,3.5,7.8,7.8,7.8h21.8
	c0,2.6,2.1,4.7,4.7,4.7h1.6h3.1h21.8h3.1h1.6c2.6,0,4.7-2.1,4.7-4.7h21.8c4.3,0,7.8-3.5,7.8-7.8v-10.9H135.6z M137.2,118.8
	c0,2.6-2.1,4.7-4.7,4.7h-21.8v-6.2v-1.6h-9.3v1.6v4.7H79.6v-4.7v-1.6h-9.3v1.6v6.2H48.5c-2.6,0-4.7-2.1-4.7-4.7V111h1.6H47h1.6h3.1
	h6.2v3.1v1.6v1.6v1.6h9.3v-1.6v-1.6v-1.6V111h46.6v3.1v1.6v1.6v1.6h9.3v-1.6v-1.6v-1.6V111h6.2h3.1h1.6h1.6h1.6V118.8z M107.6,126.6
	c0,0.9-0.7,1.6-1.6,1.6h-1.6v-1.6V125v-1.6v-1.6v-3.1h3.1v4.7v1.6V126.6z M101.4,128.1H79.6v-1.6V125h21.8v1.6V128.1z M76.5,128.1
	H75c-0.9,0-1.6-0.7-1.6-1.6V125v-1.6v-4.7h3.1v3.1v1.6v1.6v1.6V128.1z M54.8,65.9H62c-0.7,2.5-1,5.1-1,7.8
	c0,16.3,13.3,29.5,29.5,29.5s29.5-13.3,29.5-29.5c0-2.7-0.4-5.3-1-7.8h7.3v42h-3.1v-3.1h-9.3v3.1H67.2v-3.1h-9.3v3.1h-3.1L54.8,65.9
	L54.8,65.9z M66.4,62.8c0.7-1.7,1.7-3.2,2.7-4.7c4.8-6.6,12.6-10.9,21.4-10.9c8.2,0,15.5,3.7,20.4,9.6l-1.8,1.3l-0.7,0.5
	c-0.1-0.2-0.3-0.3-0.4-0.5c-4.3-4.8-10.5-7.8-17.4-7.8s-13.1,3-17.4,7.8c-1.3,1.4-2.4,3-3.3,4.7c-0.3,0.5-0.5,1-0.8,1.6
	c-0.2,0.5-0.4,1-0.6,1.6c-0.9,2.4-1.3,5-1.3,7.8C67.2,86.6,77.7,97,90.5,97s23.3-10.5,23.3-23.3c0-2.7-0.5-5.3-1.3-7.8
	c-0.2-0.5-0.4-1-0.6-1.6c-0.2-0.5-0.5-1-0.8-1.6c-0.3-0.6-0.6-1.1-1-1.6l2.5-1.8c0.7,1.1,1.3,2.2,1.9,3.4c0.2,0.5,0.5,1,0.6,1.6
	c0.2,0.5,0.4,1,0.5,1.6c0.8,2.5,1.2,5.1,1.2,7.8c0,14.6-11.9,26.4-26.4,26.4S64.1,88.3,64.1,73.7c0-2.7,0.4-5.3,1.2-7.8
	c0.2-0.5,0.3-1,0.5-1.6C66,63.8,66.2,63.3,66.4,62.8z M117.7,52.1l0-3.4l5.5-3.4l0.1,2.8l0,0.2v0l-5.6,4.2l0,0L117.7,52.1z
	 M123.2,56.1l-3.7-1.1l1.7-1.3l3.8-2.8l2.9,1.3L123.2,56.1z M109.2,65.9c1,2.4,1.6,5,1.6,7.8c0,11.1-9.1,20.2-20.2,20.2
	c-11.1,0-20.2-9.1-20.2-20.2c0-2.8,0.6-5.4,1.6-7.8c0.2-0.5,0.5-1,0.7-1.6c0.3-0.5,0.6-1.1,0.9-1.6c1.1-1.8,2.5-3.3,4.1-4.7
	c3.5-2.9,8-4.7,12.9-4.7c4.9,0,9.4,1.8,12.9,4.7c0.8,0.7,1.6,1.5,2.3,2.3l-2.6,1.8c-1.6-1.7-3.5-3.1-5.6-4.1c-2.2-1-4.6-1.6-7.1-1.6
	c-2.5,0-4.9,0.6-7.1,1.6c-2.4,1.1-4.4,2.7-6.1,4.7c-0.4,0.5-0.8,1-1.1,1.6c-0.3,0.5-0.6,1-0.9,1.6c-1.2,2.3-1.9,5-1.9,7.8
	c0,9.4,7.7,17.1,17.1,17.1s17.1-7.7,17.1-17.1c0-2.8-0.7-5.4-1.9-7.8c-0.2-0.4-0.4-0.8-0.7-1.2l0.5-0.4l2-1.4
	c0.3,0.5,0.6,0.9,0.8,1.4C108.7,64.9,109,65.4,109.2,65.9z M80.1,64.4c0.5-0.6,1-1.1,1.6-1.6c2.4-1.9,5.5-3.1,8.8-3.1
	c3.3,0,6.4,1.2,8.8,3.1c0.5,0.4,0.9,0.8,1.3,1.2l-0.5,0.3l-2.1,1.5c-0.6-0.6-1.2-1.1-2-1.5c-1.6-1-3.5-1.6-5.6-1.6s-3.9,0.6-5.6,1.6
	c-0.7,0.4-1.4,1-2,1.6c-2,2-3.3,4.7-3.3,7.8c0,6,4.9,10.9,10.9,10.9c6,0,10.9-4.9,10.9-10.9c0-2-0.5-3.8-1.4-5.4l2.5-1.8
	c1.3,2.1,2,4.5,2,7.2c0,7.7-6.3,14-14,14s-14-6.3-14-14c0-2.9,0.9-5.5,2.4-7.8C79.3,65.4,79.7,64.9,80.1,64.4z M98.3,73.7
	c0,4.3-3.5,7.8-7.8,7.8c-4.3,0-7.8-3.5-7.8-7.8c0-4.3,3.5-7.8,7.8-7.8c1.9,0,3.6,0.7,4.9,1.8l-2.7,1.9c-0.7-0.4-1.4-0.6-2.2-0.6
	c-2.6,0-4.7,2.1-4.7,4.7s2.1,4.7,4.7,4.7c2.6,0,4.7-2.1,4.7-4.7c0-0.6-0.1-1.2-0.4-1.8l2.6-1.8C98,71.2,98.3,72.4,98.3,73.7z
	 M92.1,73.7c0,0.9-0.7,1.6-1.6,1.6c-0.9,0-1.6-0.7-1.6-1.6c0-0.9,0.7-1.6,1.6-1.6C91.4,72.1,92.1,72.8,92.1,73.7z M64.1,109.5v1.6
	v3.1v1.6H61v-1.6V111v-1.6v-1.6h3.1V109.5z M120.1,109.5v1.6v3.1v1.6H117v-1.6V111v-1.6v-1.6h3.1V109.5z"/>
<g>
	<path class="st0" d="M190.7,100.7v16.8H180V63.1h22.1c4.1,0,7.3,0.6,9.7,1.8c2.4,1.2,4.1,3.2,5.2,5.9c1.1,2.7,1.6,6.4,1.6,11.1
		c0,6.6-1.2,11.4-3.6,14.4c-2.4,3-6.3,4.4-11.7,4.4H190.7z M190.7,92.4H202c2,0,3.4-0.3,4.2-0.8c0.8-0.5,1.2-1.5,1.2-2.9V75.6
		c0-1.4-0.4-2.4-1.2-2.9c-0.8-0.5-2.2-0.8-4.2-0.8h-11.3V92.4z"/>
	<path class="st0" d="M232.5,74l3.5,6.6c2.4-2.3,4.5-4,6.4-5.2c1.9-1.2,3.8-2.1,5.7-2.7l1,10.4c-1.2,0.3-2.4,0.7-3.8,1.3
		c-1.4,0.6-2.7,1.2-4,1.8c-1.2,0.7-2.3,1.3-3.2,2v29.3h-10.7V74H232.5z"/>
	<path class="st0" d="M274.6,118.5c-3.8,0-7-0.4-9.6-1.1c-2.6-0.7-4.6-1.9-6.1-3.7c-1.5-1.7-2.6-4-3.2-7c-0.6-2.9-1-6.6-1-11
		c0-4.4,0.3-8.1,1-11c0.6-2.9,1.7-5.3,3.2-7c1.5-1.7,3.5-2.9,6.1-3.7c2.6-0.7,5.7-1.1,9.6-1.1c3.9,0,7.1,0.4,9.7,1.1
		c2.6,0.7,4.6,1.9,6.1,3.7c1.5,1.7,2.5,4,3.2,6.9c0.6,2.9,1,6.6,1,11.1c0,4.4-0.3,8.1-1,11c-0.6,2.9-1.7,5.3-3.2,7
		c-1.5,1.7-3.5,2.9-6.1,3.7C281.6,118.1,278.4,118.5,274.6,118.5z M266,110h13.1c1.6,0,2.6-0.2,3.2-0.5c0.6-0.3,0.8-0.9,0.8-1.8
		V81.5h-13.1c-1.6,0-2.6,0.2-3.2,0.5c-0.6,0.3-0.8,0.9-0.8,1.8V110z"/>
	<path class="st0" d="M326,74v7.2h-23V74H326z M319.4,117.5h-10.7V74.4c0.2-4,0.7-7.2,1.5-9.4c0.8-2.3,2-3.9,3.6-4.8
		c1.7-0.9,3.9-1.4,6.7-1.4c1.3,0,2.7,0.1,4.1,0.2c1.4,0.1,2.8,0.4,4.3,0.7l-0.6,7.2l-8.8-0.8V117.5z"/>
	<path class="st0" d="M351.5,118.5c-3.4,0-6.3-0.4-8.7-1.1c-2.4-0.8-4.3-2-5.7-3.7c-1.4-1.7-2.4-4-3-7c-0.6-2.9-0.9-6.6-0.9-10.9
		c0-5.6,0.6-10.1,1.8-13.5c1.2-3.3,3.3-5.7,6.1-7.1c2.9-1.4,6.7-2.1,11.5-2.1c4.7,0,8.4,0.4,11,1.2c2.6,0.8,4.5,2.1,5.5,4.1
		c1.1,1.9,1.6,4.7,1.6,8.1c0,3-0.3,5.4-1,7.2c-0.7,1.8-2,3.2-3.8,4.2c-1.9,1-4.5,1.7-7.9,2c-3.4,0.4-7.9,0.6-13.5,0.6h-2.6v-6.4
		h12.2c2.7,0,4.6-0.3,5.6-1c1-0.7,1.5-1.9,1.5-3.8v-7.9h-9.7c-2.7,0-4.5,0.3-5.5,1c-1,0.6-1.5,1.9-1.5,3.7v23.3
		c1.2,0.3,2.4,0.5,3.7,0.7c1.3,0.1,3,0.2,4.9,0.2c2.4,0,4.7-0.2,7.1-0.5c2.3-0.3,5-0.9,8.1-1.7l1.4,7.7c-2.4,0.9-5.2,1.5-8.3,2
		C358.2,118.2,354.9,118.5,351.5,118.5z"/>
	<path class="st0" d="M380.6,86.1c0-4.6,1.4-8,4.2-10.2c2.8-2.1,7.1-3.2,13-3.2c2.8,0,5.5,0.2,8,0.5c2.6,0.3,5.1,0.8,7.5,1.4
		l-1.4,7.7c-1.5-0.4-3.1-0.7-5-1c-1.9-0.2-3.7-0.3-5.5-0.3c-1.7,0-3.4,0.1-5.1,0.2c-1.6,0.1-3,0.3-4.3,0.6v8.6
		c4.8,0.6,8.8,1.3,11.8,2c3,0.7,5.4,1.6,7.1,2.7c1.7,1.1,2.9,2.4,3.5,4c0.7,1.6,1,3.5,1,5.9c0,3.3-0.6,5.9-1.9,8
		c-1.3,2.1-3.3,3.6-6.1,4.5c-2.8,0.9-6.5,1.4-11.1,1.4c-2.7,0-5.5-0.2-8.3-0.7c-2.8-0.5-5.5-1.1-8.3-1.9l1.6-8.3
		c4.4,1.7,9.2,2.6,14.3,2.6c1.5,0,2.9-0.1,4.1-0.2c1.2-0.1,2.7-0.4,4.4-0.8v-8.7c-5.1-0.7-9.2-1.4-12.3-2c-3.1-0.7-5.5-1.5-7.1-2.6
		c-1.6-1-2.7-2.4-3.3-4C380.9,90.6,380.6,88.5,380.6,86.1z"/>
	<path class="st0" d="M423.3,86.1c0-4.6,1.4-8,4.2-10.2c2.8-2.1,7.1-3.2,13-3.2c2.8,0,5.5,0.2,8,0.5c2.6,0.3,5.1,0.8,7.5,1.4
		l-1.4,7.7c-1.5-0.4-3.1-0.7-5-1c-1.9-0.2-3.7-0.3-5.5-0.3c-1.7,0-3.4,0.1-5.1,0.2c-1.6,0.1-3,0.3-4.3,0.6v8.6
		c4.8,0.6,8.8,1.3,11.8,2c3,0.7,5.4,1.6,7.1,2.7c1.7,1.1,2.9,2.4,3.5,4c0.7,1.6,1,3.5,1,5.9c0,3.3-0.6,5.9-1.9,8
		c-1.3,2.1-3.3,3.6-6.1,4.5c-2.8,0.9-6.5,1.4-11.1,1.4c-2.7,0-5.5-0.2-8.3-0.7c-2.8-0.5-5.5-1.1-8.3-1.9l1.6-8.3
		c4.4,1.7,9.2,2.6,14.3,2.6c1.5,0,2.9-0.1,4.1-0.2c1.2-0.1,2.7-0.4,4.4-0.8v-8.7c-5.1-0.7-9.2-1.4-12.3-2c-3.1-0.7-5.5-1.5-7.1-2.6
		c-1.6-1-2.7-2.4-3.3-4C423.6,90.6,423.3,88.5,423.3,86.1z"/>
	<path class="st0" d="M474.1,67.3c-2.4,0-4.1-0.4-5-1.3c-0.9-0.8-1.3-2.5-1.3-4.8c0-2.4,0.4-4.1,1.3-5c0.9-0.9,2.5-1.3,5-1.3
		c2.4,0,4,0.4,4.9,1.3c0.9,0.9,1.3,2.5,1.3,5c0,2.4-0.4,4-1.3,4.8C478.2,66.9,476.5,67.3,474.1,67.3z M468.7,74.9l10.7-1.5v44.1
		h-10.7V74.9z"/>
	<path class="st0" d="M510.9,118.5c-3.8,0-7-0.4-9.6-1.1c-2.6-0.7-4.6-1.9-6.1-3.7c-1.5-1.7-2.6-4-3.2-7c-0.6-2.9-1-6.6-1-11
		c0-4.4,0.3-8.1,1-11c0.6-2.9,1.7-5.3,3.2-7c1.5-1.7,3.5-2.9,6.1-3.7c2.6-0.7,5.7-1.1,9.6-1.1c3.9,0,7.1,0.4,9.7,1.1
		c2.6,0.7,4.6,1.9,6.1,3.7c1.5,1.7,2.5,4,3.2,6.9c0.6,2.9,1,6.6,1,11.1c0,4.4-0.3,8.1-1,11c-0.6,2.9-1.7,5.3-3.2,7
		c-1.5,1.7-3.5,2.9-6.1,3.7C517.9,118.1,514.7,118.5,510.9,118.5z M502.4,110h13.1c1.6,0,2.6-0.2,3.2-0.5c0.6-0.3,0.8-0.9,0.8-1.8
		V81.5h-13.1c-1.6,0-2.6,0.2-3.2,0.5c-0.6,0.3-0.8,0.9-0.8,1.8V110z"/>
	<path class="st0" d="M542.4,117.5V74h5.1l2.9,4.4c2.3-1.8,4.7-3.1,7.4-4c2.7-0.9,5.7-1.3,9.1-1.3c4.1,0,7.2,0.7,9.3,2
		c2.1,1.4,3.2,3.4,3.2,6v36.5h-10.7V81.8h-9.1c-2.4,0-4.1,0.3-5.1,0.9s-1.4,1.8-1.4,3.5v31.3H542.4z"/>
	<path class="st0" d="M603.8,118.5c-4.9,0-8.4-1-10.5-3.1c-2.1-2.1-3.2-5.5-3.2-10.3c0-3,0.3-5.4,1-7.2c0.6-1.8,1.8-3.2,3.6-4.2
		c1.7-1,4.2-1.7,7.5-2c3.2-0.4,7.5-0.6,12.7-0.6h4.3v6.4h-12.4c-2.6,0-4.4,0.3-5.4,1c-1,0.7-1.5,1.9-1.5,3.8v8.4h9.8
		c2.6,0,4.4-0.3,5.4-1c1-0.6,1.4-1.9,1.4-3.7V82.1c-1.9-0.6-4.4-0.9-7.8-0.9c-2.4,0-4.9,0.2-7.4,0.5c-2.6,0.3-5.2,0.9-7.9,1.7
		l-1.4-7.7c1.6-0.6,3.4-1.1,5.4-1.5c2-0.4,4.1-0.7,6.3-0.9c2.2-0.2,4.4-0.3,6.4-0.3c4.1,0,7.4,0.4,9.9,1.3c2.5,0.8,4.3,2.2,5.4,4.1
		c1.1,1.9,1.7,4.4,1.7,7.5v31.6H622l-2.8-4.4c-2.1,1.8-4.4,3.1-6.9,4C609.8,118,607,118.5,603.8,118.5z"/>
	<path class="st0" d="M651.2,109.7c0.6,0.1,1.2,0.2,2,0.3c0.7,0.1,1.4,0.2,2.1,0.2l-0.6,7.2c-1.3,0.3-2.5,0.6-3.5,0.8
		c-1.1,0.2-2.1,0.3-3.1,0.3c-2.6,0-4.5-0.6-5.7-1.8c-1.2-1.2-1.9-3-1.9-5.4V60.9l10.7-1.3V109.7z"/>
</g>
</svg>
