<?xml version="1.0" encoding="utf-8"?>
<!-- Generator: Adobe Illustrator 28.2.0, SVG Export Plug-In . SVG Version: 6.00 Build 0)  -->
<svg version="1.1" id="focus" xmlns="http://www.w3.org/2000/svg" xmlns:xlink="http://www.w3.org/1999/xlink" x="0px" y="0px"
	 viewBox="0 0 697.9 171.1" style="enable-background:new 0 0 697.9 171.1;" xml:space="preserve">
<style type="text/css">
	.st0{fill:#C3AA8B;}
	.st1{fill:#242A48;}
</style>
<g>
	<path class="st0" d="M89.2,131.6c-2,0-3.5-1.6-3.5-3.5V121c-18.8-1.6-33.7-16.6-35.4-35.4h-7.1c-2,0-3.5-1.6-3.5-3.5
		s1.6-3.5,3.5-3.5h7.1C52,59.7,66.9,44.8,85.7,43.2v-7.1c0-2,1.6-3.5,3.5-3.5c2,0,3.5,1.6,3.5,3.5v7.1c18.8,1.6,33.7,16.6,35.4,35.4
		h7.1c2,0,3.5,1.6,3.5,3.5s-1.6,3.5-3.5,3.5h-7.1c-1.6,18.8-16.6,33.7-35.4,35.4v7.1C92.8,130,91.2,131.6,89.2,131.6z M92.8,106.6
		v7.1c14.8-1.7,26.4-13.3,28.1-28h-7.1C112.2,96.5,103.6,105,92.8,106.6z M57.6,85.6c1.7,14.8,13.3,26.4,28.1,28.1v-7.1
		c-10.9-1.6-19.4-10.1-21-21H57.6z M89.2,64.4c-9.8,0-17.7,7.9-17.7,17.7s7.9,17.7,17.7,17.7c9.8,0,17.7-7.9,17.7-17.7
		S99,64.4,89.2,64.4z M113.7,78.5h7.1c-1.7-14.8-13.3-26.4-28-28.1v7.1C103.6,59.1,112.2,67.6,113.7,78.5z M57.6,78.5h7.1
		c1.6-10.9,10.1-19.4,21-21v-7.1C70.9,52.1,59.3,63.8,57.6,78.5z M89.2,92.7c-5.9,0-10.6-4.7-10.6-10.6c0-5.9,4.7-10.6,10.6-10.6
		s10.6,4.7,10.6,10.6C99.8,87.9,95.1,92.7,89.2,92.7z M89.2,78.5c-2,0-3.5,1.6-3.5,3.5s1.6,3.5,3.5,3.5c2,0,3.5-1.6,3.5-3.5
		S91.2,78.5,89.2,78.5z"/>
</g>
<g>
	<path class="st0" d="M163.6,99.6c2.3,0.7,4.9,1.2,7.8,1.5c2.8,0.4,5.6,0.5,8.3,0.5c1.4,0,2.7,0,3.9-0.1c1.2-0.1,2.8-0.2,4.6-0.4
		V88.6l-7.6-0.7c-3.5-0.3-6.4-0.7-8.7-1.3c-2.3-0.6-4.1-1.4-5.5-2.6c-1.4-1.1-2.3-2.5-2.8-4.3c-0.5-1.8-0.8-3.9-0.8-6.5
		c0-4.1,0.5-7.3,1.6-9.7c1.1-2.4,2.8-4.1,5.3-5.2s5.7-1.6,9.7-1.6c2.9,0,5.8,0.1,8.6,0.4c2.8,0.3,5.6,0.7,8.5,1.4l-1.3,7.9
		c-2.5-0.5-4.9-0.8-7.1-1c-2.2-0.2-4.7-0.3-7.4-0.3c-1.6,0-2.8,0-3.8,0.1c-1,0.1-2,0.2-3.2,0.3v12.8l8.3,0.6c4.3,0.3,7.7,1,10.2,2.1
		c2.5,1.1,4.3,2.7,5.4,4.8c1.1,2.2,1.6,5,1.6,8.6c0,3.8-0.6,6.8-1.9,9.1c-1.3,2.3-3.3,4-6.2,5s-6.6,1.5-11.3,1.5
		c-3.1,0-6.1-0.2-8.9-0.5c-2.9-0.4-5.7-0.9-8.6-1.7L163.6,99.6z"/>
	<path class="st0" d="M208.6,122.9V68.2h4.7l5.3,8.8v45L208.6,122.9z M229.1,110c-3.4,0-6.1-0.3-8.3-1c-2.2-0.6-3.9-1.8-5.1-3.3
		s-2.1-3.7-2.6-6.5c-0.5-2.8-0.8-6.3-0.8-10.7c0-4.3,0.3-7.9,0.8-10.6c0.5-2.7,1.4-4.9,2.6-6.4s2.9-2.6,5.1-3.2
		c2.2-0.6,5-0.9,8.3-0.9c3,0,5.5,0.3,7.4,1c2,0.7,3.5,1.8,4.7,3.4c1.1,1.6,1.9,3.8,2.4,6.5c0.5,2.7,0.7,6.1,0.7,10.3
		c0,4.2-0.2,7.6-0.7,10.4c-0.5,2.8-1.3,5-2.5,6.6c-1.2,1.6-2.7,2.7-4.7,3.5C234.5,109.7,232,110,229.1,110z M218.5,102.1h11.6
		c1.4,0,2.4-0.1,2.9-0.4c0.5-0.3,0.8-0.8,0.8-1.6V75.2h-11.7c-1.4,0-2.3,0.1-2.8,0.4c-0.5,0.3-0.8,0.7-0.8,1.4V102.1z"/>
	<path class="st0" d="M270,109.7c-3.2,0-5.9-0.4-8.1-1.1c-2.2-0.7-4-1.9-5.3-3.5c-1.3-1.6-2.2-3.8-2.8-6.5
		c-0.6-2.7-0.9-6.1-0.9-10.2c0-5.3,0.6-9.4,1.7-12.5c1.1-3.1,3-5.3,5.7-6.7c2.7-1.3,6.3-2,10.8-2c4.4,0,7.8,0.4,10.2,1.1
		c2.4,0.7,4.2,2,5.2,3.8c1,1.8,1.5,4.3,1.5,7.6c0,2.8-0.3,5-1,6.7c-0.7,1.7-1.8,3-3.6,3.9c-1.7,0.9-4.2,1.6-7.4,1.9
		c-3.2,0.4-7.4,0.5-12.6,0.5h-2.4V87h11.4c2.5,0,4.3-0.3,5.2-0.9c0.9-0.6,1.4-1.8,1.4-3.5v-7.4h-9c-2.5,0-4.2,0.3-5.1,0.9
		c-0.9,0.6-1.4,1.8-1.4,3.5v21.8c1.1,0.3,2.2,0.5,3.5,0.6c1.2,0.1,2.8,0.2,4.5,0.2c2.2,0,4.4-0.2,6.6-0.5c2.2-0.3,4.7-0.8,7.6-1.5
		l1.3,7.1c-2.2,0.8-4.8,1.4-7.8,1.9C276.3,109.5,273.2,109.7,270,109.7z"/>
	<path class="st0" d="M313,109.7c-3,0-5.5-0.3-7.5-1c-2-0.7-3.6-1.8-4.8-3.4c-1.2-1.6-2-3.8-2.5-6.5c-0.5-2.7-0.8-6.2-0.8-10.3
		c0-4.1,0.3-7.5,0.8-10.3c0.5-2.7,1.4-4.9,2.5-6.5c1.2-1.6,2.7-2.7,4.8-3.4c2-0.7,4.5-1,7.5-1c1.5,0,3.1,0.1,4.8,0.2
		c1.7,0.1,3.2,0.3,4.8,0.5c1.5,0.2,2.8,0.5,3.8,0.9l-1.1,7.3c-1.8-0.4-3.5-0.7-5.2-0.9c-1.7-0.2-3.5-0.3-5.3-0.3
		c-2.5,0-4.2,0.5-5.2,1.5s-1.5,2.7-1.5,5.2v19.7c1.7,0.5,4.1,0.8,7.3,0.8c1.8,0,3.5-0.2,5.2-0.5c1.7-0.3,3.6-0.8,5.7-1.5l1,7.1
		c-1.9,0.8-4.2,1.4-6.6,1.9C318.1,109.5,315.6,109.7,313,109.7z"/>
	<path class="st0" d="M341.5,61.9c-2.3,0-3.8-0.4-4.6-1.2c-0.8-0.8-1.2-2.3-1.2-4.5c0-2.3,0.4-3.8,1.2-4.6c0.8-0.8,2.4-1.2,4.6-1.2
		c2.2,0,3.7,0.4,4.5,1.2s1.2,2.4,1.2,4.6c0,2.2-0.4,3.7-1.2,4.5C345.3,61.5,343.8,61.9,341.5,61.9z M336.5,69.1l10-1.4v41.1h-10
		V69.1z"/>
	<path class="st0" d="M369.8,109.7c-4.5,0-7.8-1-9.8-2.9c-2-1.9-3-5.1-3-9.6c0-2.8,0.3-5,0.9-6.7c0.6-1.7,1.7-3,3.3-3.9
		c1.6-0.9,4-1.6,7-1.9c3-0.4,7-0.5,11.9-0.5h4V90h-11.5c-2.4,0-4.1,0.3-5,0.9c-0.9,0.6-1.4,1.8-1.4,3.5v7.9h9.2c2.4,0,4.1-0.3,5-0.9
		c0.9-0.6,1.3-1.8,1.3-3.5V75.7c-1.7-0.5-4.1-0.8-7.2-0.8c-2.2,0-4.5,0.2-6.9,0.5c-2.4,0.3-4.9,0.8-7.4,1.5l-1.3-7.1
		c1.5-0.5,3.2-1,5.1-1.4c1.9-0.4,3.8-0.7,5.9-0.9c2.1-0.2,4.1-0.3,6-0.3c3.8,0,6.9,0.4,9.3,1.2c2.3,0.8,4,2.1,5,3.8
		c1,1.8,1.5,4.1,1.5,7v29.5h-4.8l-2.6-4.1c-1.9,1.7-4.1,2.9-6.5,3.7C375.3,109.3,372.7,109.7,369.8,109.7z"/>
	<path class="st0" d="M414,101.5c0.5,0.1,1.2,0.2,1.8,0.3c0.7,0.1,1.3,0.1,2,0.2l-0.6,6.7c-1.2,0.3-2.3,0.6-3.3,0.7
		c-1,0.2-2,0.2-2.9,0.2c-2.4,0-4.2-0.6-5.3-1.7c-1.2-1.1-1.7-2.8-1.7-5.1V56l10-1.2V101.5z"/>
	<path class="st0" d="M432.1,61.9c-2.3,0-3.8-0.4-4.6-1.2c-0.8-0.8-1.2-2.3-1.2-4.5c0-2.3,0.4-3.8,1.2-4.6c0.8-0.8,2.4-1.2,4.6-1.2
		c2.2,0,3.7,0.4,4.5,1.2s1.2,2.4,1.2,4.6c0,2.2-0.4,3.7-1.2,4.5C435.9,61.5,434.3,61.9,432.1,61.9z M427,69.1l10-1.4v41.1h-10V69.1z
		"/>
	<path class="st0" d="M467.3,75.9l-0.3-0.5H449l-0.7-7.2h31.5v5.5l-20.6,27.4l0.2,0.5h20.1v7.2h-32.8v-5.5L467.3,75.9z"/>
	<path class="st0" d="M504.4,109.7c-3.2,0-5.9-0.4-8.1-1.1c-2.2-0.7-4-1.9-5.3-3.5c-1.3-1.6-2.2-3.8-2.8-6.5
		c-0.6-2.7-0.9-6.1-0.9-10.2c0-5.3,0.6-9.4,1.7-12.5c1.1-3.1,3-5.3,5.7-6.7c2.7-1.3,6.3-2,10.8-2c4.4,0,7.8,0.4,10.2,1.1
		c2.4,0.7,4.2,2,5.2,3.8c1,1.8,1.5,4.3,1.5,7.6c0,2.8-0.3,5-1,6.7c-0.7,1.7-1.8,3-3.6,3.9c-1.7,0.9-4.2,1.6-7.4,1.9
		c-3.2,0.4-7.4,0.5-12.6,0.5h-2.4V87h11.4c2.5,0,4.3-0.3,5.2-0.9c0.9-0.6,1.4-1.8,1.4-3.5v-7.4h-9c-2.5,0-4.2,0.3-5.1,0.9
		c-0.9,0.6-1.4,1.8-1.4,3.5v21.8c1.1,0.3,2.2,0.5,3.5,0.6c1.2,0.1,2.8,0.2,4.5,0.2c2.2,0,4.4-0.2,6.6-0.5c2.2-0.3,4.7-0.8,7.6-1.5
		l1.3,7.1c-2.2,0.8-4.8,1.4-7.8,1.9C510.7,109.5,507.6,109.7,504.4,109.7z"/>
	<path class="st0" d="M547.2,67.3c3.4,0,6.2,0.3,8.4,0.9c2.2,0.6,3.9,1.7,5.1,3.3c1.2,1.6,2.1,3.7,2.6,6.5c0.5,2.7,0.8,6.2,0.8,10.5
		c0,4.3-0.3,7.9-0.8,10.7c-0.5,2.8-1.4,5-2.6,6.6c-1.2,1.6-2.9,2.7-5.1,3.3c-2.2,0.6-5,0.9-8.4,0.9c-3,0-5.5-0.4-7.4-1.1
		s-3.5-1.9-4.7-3.5c-1.1-1.6-1.9-3.8-2.4-6.6c-0.5-2.8-0.7-6.3-0.7-10.4c0-4.1,0.2-7.5,0.7-10.3c0.5-2.7,1.3-4.9,2.5-6.5
		c1.2-1.6,2.7-2.7,4.7-3.4C541.8,67.6,544.2,67.3,547.2,67.3z M557.7,75.2h-11.6c-1.4,0-2.4,0.1-2.9,0.4c-0.5,0.3-0.8,0.9-0.8,1.7
		v24.8h11.7c1.4,0,2.4-0.1,2.8-0.4c0.5-0.3,0.7-0.8,0.7-1.6V75.2z M567.7,54.1v54.7H563l-5.3-8.8V55L567.7,54.1z"/>
</g>
</svg>
