<?xml version="1.0" encoding="utf-8"?>
<!-- Generator: Adobe Illustrator 28.2.0, SVG Export Plug-In . SVG Version: 6.00 Build 0)  -->
<svg version="1.1" id="transparency" xmlns="http://www.w3.org/2000/svg" xmlns:xlink="http://www.w3.org/1999/xlink" x="0px"
	 y="0px" viewBox="0 0 697.9 171.1" style="enable-background:new 0 0 697.9 171.1;" xml:space="preserve">
<style type="text/css">
	.st0{fill:#C3AA8B;}
	.st1{fill:#242A48;}
</style>
<g>
	<path class="st0" d="M48.6,73.5c0.8,0,1.4-0.6,1.4-1.4c0,0,0,0,0,0V50.7h21.4c0.8,0,1.4-0.6,1.4-1.4c0-0.8-0.6-1.4-1.4-1.4H48.6
		c-0.8,0-1.4,0.6-1.4,1.4c0,0,0,0,0,0V72C47.1,72.8,47.8,73.5,48.6,73.5C48.6,73.5,48.6,73.5,48.6,73.5z M125.5,47.8h-22.8
		c-0.8,0-1.4,0.6-1.4,1.4c0,0.8,0.6,1.4,1.4,1.4h21.4V72c0,0.8,0.6,1.4,1.4,1.4c0.8,0,1.4-0.6,1.4-1.4V49.2
		C126.9,48.5,126.3,47.8,125.5,47.8C125.5,47.8,125.5,47.8,125.5,47.8z M71.4,124.8H50v-21.4c0-0.8-0.6-1.4-1.4-1.4
		c-0.8,0-1.4,0.6-1.4,1.4v22.8c0,0.8,0.6,1.4,1.4,1.4c0,0,0,0,0,0h22.8c0.8,0,1.4-0.6,1.4-1.4C72.8,125.4,72.1,124.8,71.4,124.8z"/>
	<path class="st0" d="M109.4,100.7c8.8-14,4.7-32.5-9.3-41.3s-32.5-4.7-41.3,9.3S54,101.2,68,110c9.8,6.2,22.2,6.2,32,0l15.6,15.6
		c2.6,2.6,6.8,2.6,9.3,0c2.6-2.6,2.6-6.7,0-9.3L109.4,100.7z M57.1,84.8c0-14.9,12.1-27,27-27s27,12.1,27,27s-12.1,27-27,27
		C69.2,111.8,57.1,99.7,57.1,84.8z M123,123.7c-1.5,1.5-3.8,1.5-5.3,0l-15.3-15.3c2-1.5,3.8-3.3,5.3-5.3l15.3,15.3
		C124.4,119.8,124.4,122.2,123,123.7z"/>
</g>
<g>
	<path class="st0" d="M174.1,66.3v42.5h-10V66.3h-12.9V58H187v8.3H174.1z"/>
	<path class="st0" d="M199.4,68.2l3.2,6.2c2.2-2.1,4.2-3.7,6-4.9c1.8-1.1,3.5-2,5.3-2.5l0.9,9.7c-1.1,0.3-2.3,0.7-3.6,1.2
		c-1.3,0.5-2.5,1.1-3.7,1.7c-1.2,0.6-2.2,1.3-3,1.9v27.3h-10V68.2H199.4z"/>
	<path class="st0" d="M232.5,109.7c-4.5,0-7.8-1-9.8-2.9c-2-1.9-3-5.1-3-9.6c0-2.8,0.3-5,0.9-6.7c0.6-1.7,1.7-3,3.3-3.9
		c1.6-0.9,4-1.6,7-1.9c3-0.4,7-0.5,11.9-0.5h4V90h-11.5c-2.4,0-4.1,0.3-5,0.9c-0.9,0.6-1.4,1.8-1.4,3.5v7.9h9.2c2.4,0,4.1-0.3,5-0.9
		c0.9-0.6,1.3-1.8,1.3-3.5V75.7c-1.7-0.5-4.1-0.8-7.2-0.8c-2.2,0-4.5,0.2-6.9,0.5c-2.4,0.3-4.9,0.8-7.4,1.5l-1.3-7.1
		c1.5-0.5,3.2-1,5.1-1.4c1.9-0.4,3.8-0.7,5.9-0.9c2.1-0.2,4.1-0.3,6-0.3c3.8,0,6.9,0.4,9.3,1.2c2.3,0.8,4,2.1,5,3.8
		c1,1.8,1.5,4.1,1.5,7v29.5h-4.8l-2.6-4.1c-1.9,1.7-4.1,2.9-6.5,3.7C238.1,109.3,235.5,109.7,232.5,109.7z"/>
	<path class="st0" d="M267,108.8V68.2h4.7l2.7,4.1c2.1-1.7,4.4-2.9,6.9-3.7c2.5-0.8,5.3-1.2,8.4-1.2c3.8,0,6.7,0.6,8.7,1.9
		c2,1.3,3,3.1,3,5.6v34h-10V75.5H283c-2.3,0-3.8,0.3-4.7,0.9c-0.9,0.6-1.3,1.7-1.3,3.3v29.2H267z"/>
	<path class="st0" d="M311.6,79.5c0-4.3,1.3-7.5,3.9-9.5c2.6-2,6.6-3,12.1-3c2.6,0,5.1,0.2,7.5,0.4c2.4,0.3,4.7,0.7,7,1.3l-1.3,7.1
		c-1.4-0.4-2.9-0.7-4.7-0.9c-1.8-0.2-3.5-0.3-5.2-0.3c-1.6,0-3.2,0.1-4.7,0.2c-1.5,0.1-2.8,0.3-4,0.5v8c4.5,0.6,8.2,1.2,11,1.9
		s5,1.5,6.6,2.5c1.6,1,2.7,2.2,3.3,3.7c0.6,1.5,0.9,3.3,0.9,5.5c0,3-0.6,5.5-1.8,7.4c-1.2,1.9-3.1,3.3-5.7,4.2
		c-2.6,0.9-6.1,1.3-10.4,1.3c-2.5,0-5.1-0.2-7.7-0.6c-2.6-0.4-5.2-1-7.7-1.8l1.5-7.7c4.1,1.6,8.6,2.4,13.3,2.4
		c1.4,0,2.7-0.1,3.9-0.2c1.2-0.1,2.5-0.4,4.1-0.8v-8.1c-4.8-0.6-8.6-1.3-11.5-1.9c-2.9-0.6-5.1-1.4-6.6-2.4c-1.5-1-2.5-2.2-3-3.7
		C311.9,83.7,311.6,81.8,311.6,79.5z"/>
	<path class="st0" d="M354,122.9V68.2h4.7l5.3,8.8v45L354,122.9z M374.5,110c-3.4,0-6.1-0.3-8.3-1c-2.2-0.6-3.9-1.8-5.1-3.3
		c-1.2-1.6-2.1-3.7-2.6-6.5c-0.5-2.8-0.8-6.3-0.8-10.7c0-4.3,0.3-7.9,0.8-10.6c0.5-2.7,1.4-4.9,2.6-6.4c1.2-1.5,2.9-2.6,5.1-3.2
		c2.2-0.6,5-0.9,8.3-0.9c3,0,5.5,0.3,7.4,1s3.5,1.8,4.7,3.4c1.1,1.6,1.9,3.8,2.4,6.5c0.5,2.7,0.7,6.1,0.7,10.3
		c0,4.2-0.2,7.6-0.7,10.4c-0.5,2.8-1.3,5-2.5,6.6c-1.2,1.6-2.7,2.7-4.7,3.5C379.9,109.7,377.4,110,374.5,110z M363.9,102.1h11.6
		c1.4,0,2.4-0.1,2.9-0.4c0.5-0.3,0.8-0.8,0.8-1.6V75.2h-11.7c-1.4,0-2.3,0.1-2.8,0.4c-0.5,0.3-0.8,0.7-0.8,1.4V102.1z"/>
	<path class="st0" d="M410.8,109.7c-4.5,0-7.8-1-9.8-2.9c-2-1.9-3-5.1-3-9.6c0-2.8,0.3-5,0.9-6.7c0.6-1.7,1.7-3,3.3-3.9
		c1.6-0.9,4-1.6,7-1.9c3-0.4,7-0.5,11.9-0.5h4V90h-11.5c-2.4,0-4.1,0.3-5,0.9c-0.9,0.6-1.4,1.8-1.4,3.5v7.9h9.2c2.4,0,4.1-0.3,5-0.9
		c0.9-0.6,1.3-1.8,1.3-3.5V75.7c-1.7-0.5-4.1-0.8-7.2-0.8c-2.2,0-4.5,0.2-6.9,0.5c-2.4,0.3-4.9,0.8-7.4,1.5l-1.3-7.1
		c1.5-0.5,3.2-1,5.1-1.4c1.9-0.4,3.8-0.7,5.9-0.9c2.1-0.2,4.1-0.3,6-0.3c3.8,0,6.9,0.4,9.3,1.2c2.3,0.8,4,2.1,5,3.8
		c1,1.8,1.5,4.1,1.5,7v29.5h-4.8l-2.6-4.1c-1.9,1.7-4.1,2.9-6.5,3.7C416.4,109.3,413.7,109.7,410.8,109.7z"/>
	<path class="st0" d="M450.1,68.2l3.2,6.2c2.2-2.1,4.2-3.7,6-4.9c1.8-1.1,3.5-2,5.3-2.5l0.9,9.7c-1.1,0.3-2.3,0.7-3.6,1.2
		c-1.3,0.5-2.5,1.1-3.7,1.7c-1.2,0.6-2.2,1.3-3,1.9v27.3h-10V68.2H450.1z"/>
	<path class="st0" d="M487.9,109.7c-3.2,0-5.9-0.4-8.1-1.1c-2.2-0.7-4-1.9-5.3-3.5c-1.3-1.6-2.2-3.8-2.8-6.5
		c-0.6-2.7-0.9-6.1-0.9-10.2c0-5.3,0.6-9.4,1.7-12.5c1.1-3.1,3-5.3,5.7-6.7c2.7-1.3,6.3-2,10.8-2c4.4,0,7.8,0.4,10.2,1.1
		c2.4,0.7,4.2,2,5.2,3.8c1,1.8,1.5,4.3,1.5,7.6c0,2.8-0.3,5-1,6.7c-0.7,1.7-1.8,3-3.6,3.9c-1.7,0.9-4.2,1.6-7.4,1.9
		c-3.2,0.4-7.4,0.5-12.6,0.5h-2.4V87h11.4c2.5,0,4.3-0.3,5.2-0.9c0.9-0.6,1.4-1.8,1.4-3.5v-7.4h-9c-2.5,0-4.2,0.3-5.1,0.9
		c-0.9,0.6-1.4,1.8-1.4,3.5v21.8c1.1,0.3,2.2,0.5,3.5,0.6c1.2,0.1,2.8,0.2,4.5,0.2c2.2,0,4.4-0.2,6.6-0.5c2.2-0.3,4.7-0.8,7.6-1.5
		l1.3,7.1c-2.2,0.8-4.8,1.4-7.8,1.9C494.1,109.5,491.1,109.7,487.9,109.7z"/>
	<path class="st0" d="M517.6,108.8V68.2h4.7l2.7,4.1c2.1-1.7,4.4-2.9,6.9-3.7c2.5-0.8,5.3-1.2,8.4-1.2c3.8,0,6.7,0.6,8.7,1.9
		c2,1.3,3,3.1,3,5.6v34h-10V75.5h-8.4c-2.3,0-3.8,0.3-4.7,0.9c-0.9,0.6-1.3,1.7-1.3,3.3v29.2H517.6z"/>
	<path class="st0" d="M577.9,109.7c-3,0-5.5-0.3-7.5-1c-2-0.7-3.6-1.8-4.8-3.4c-1.2-1.6-2-3.8-2.5-6.5c-0.5-2.7-0.8-6.2-0.8-10.3
		c0-4.1,0.3-7.5,0.8-10.3c0.5-2.7,1.4-4.9,2.5-6.5c1.2-1.6,2.7-2.7,4.8-3.4c2-0.7,4.5-1,7.5-1c1.5,0,3.1,0.1,4.8,0.2
		c1.7,0.1,3.2,0.3,4.8,0.5c1.5,0.2,2.8,0.5,3.8,0.9l-1.1,7.3c-1.8-0.4-3.5-0.7-5.2-0.9c-1.7-0.2-3.5-0.3-5.3-0.3
		c-2.5,0-4.2,0.5-5.2,1.5s-1.5,2.7-1.5,5.2v19.7c1.7,0.5,4.1,0.8,7.3,0.8c1.8,0,3.5-0.2,5.2-0.5c1.7-0.3,3.6-0.8,5.7-1.5l1,7.1
		c-1.9,0.8-4.2,1.4-6.6,1.9C583.1,109.5,580.5,109.7,577.9,109.7z"/>
	<path class="st0" d="M606.2,106l-11-37.8h9.8l8.4,29.2h0.8l8.3-29.2h9.8l-11,37.8H606.2z M603.3,123.1c-1.3,0-2.6-0.1-4-0.3
		c-1.4-0.2-2.6-0.4-3.7-0.7l0.5-5.3l6.5-0.8c1.9-0.3,3.5-0.7,4.5-1.1c1.1-0.5,1.9-1.3,2.5-2.4c0.6-1.1,1.2-2.6,1.7-4.5l0.6-2.1h9.4
		c-1.2,4.3-2.6,7.7-4.2,10.2c-1.5,2.5-3.4,4.3-5.6,5.4C609.4,122.6,606.6,123.1,603.3,123.1z"/>
</g>
</svg>
