<?xml version="1.0" encoding="utf-8"?>
<!-- Generator: Adobe Illustrator 28.2.0, SVG Export Plug-In . SVG Version: 6.00 Build 0)  -->
<svg version="1.1" id="Layer_1" xmlns="http://www.w3.org/2000/svg" xmlns:xlink="http://www.w3.org/1999/xlink" x="0px" y="0px"
	 viewBox="0 0 1478.9 171.1" style="enable-background:new 0 0 1478.9 171.1;" xml:space="preserve">
<style type="text/css">
	.st0{fill:#C3AA8B;}
	.st1{fill:#242A48;}
</style>
<g>
	<g>
		<path class="st0" d="M207.1,119.7c-2.4,0.9-5,1.6-7.7,2c-2.7,0.4-5.8,0.6-9.5,0.6c-4.7,0-8.6-0.5-11.6-1.5c-3-1-5.4-2.7-7.1-5.2
			c-1.7-2.4-3-5.7-3.7-9.9c-0.7-4.2-1.1-9.4-1.1-15.6c0-6.4,0.4-11.6,1.1-15.8c0.8-4.2,2-7.5,3.8-9.9c1.8-2.4,4.3-4.1,7.5-5.1
			c3.2-1,7.3-1.5,12.3-1.5c1.4,0,3.1,0.1,5,0.2c1.9,0.2,3.7,0.4,5.5,0.7c1.8,0.3,3.2,0.7,4.3,1.2l-1.6,9.9c-1.5-0.4-3.2-0.7-5.1-1
			c-1.9-0.3-3.7-0.5-5.4-0.6c-1.7-0.2-3.1-0.2-4.2-0.2c-3.7,0-6.4,0.5-8,1.4c-1.6,0.9-2.4,2.9-2.4,6v35.6c1.6,0.4,3.4,0.7,5.2,0.9
			c1.8,0.2,3.7,0.3,5.6,0.3c2.7,0,5.4-0.2,8.1-0.7c2.7-0.5,5.3-1.1,7.6-1.8L207.1,119.7z"/>
		<path class="st0" d="M223.6,63.9c-2.8,0-4.6-0.5-5.6-1.4c-1-1-1.5-2.8-1.5-5.5c0-2.8,0.5-4.6,1.5-5.6c1-1,2.9-1.5,5.6-1.5
			c2.7,0,4.5,0.5,5.5,1.5c1,1,1.5,2.9,1.5,5.6c0,2.7-0.5,4.5-1.4,5.5C228.2,63.5,226.4,63.9,223.6,63.9z M217.5,72.6l12.1-1.7v49.9
			h-12.1V72.6z"/>
		<path class="st0" d="M238.1,71.5H250l10.6,38.8h1l10.5-38.8h11.9l-13.8,49.3h-18.4L238.1,71.5z"/>
		<path class="st0" d="M298.7,63.9c-2.8,0-4.6-0.5-5.6-1.4c-1-1-1.5-2.8-1.5-5.5c0-2.8,0.5-4.6,1.5-5.6c1-1,2.9-1.5,5.6-1.5
			c2.7,0,4.5,0.5,5.5,1.5c1,1,1.5,2.9,1.5,5.6c0,2.7-0.5,4.5-1.4,5.5C303.3,63.5,301.4,63.9,298.7,63.9z M292.6,72.6l12.1-1.7v49.9
			h-12.1V72.6z"/>
		<path class="st0" d="M332.4,111.9c0.7,0.1,1.4,0.2,2.2,0.3c0.8,0.1,1.6,0.2,2.4,0.2l-0.7,8.2c-1.4,0.4-2.8,0.7-4,0.9
			c-1.2,0.2-2.4,0.3-3.5,0.3c-2.9,0-5-0.7-6.5-2c-1.4-1.3-2.1-3.4-2.1-6.2v-57l12.1-1.5V111.9z"/>
		<path class="st0" d="M374.3,84.2c0.2-5.1,0.7-9.4,1.6-12.8c0.9-3.4,2.1-6.1,3.8-8.1c1.7-2,4-3.4,6.8-4.3c2.9-0.9,6.4-1.3,10.6-1.3
			c1.7,0,3.5,0.1,5.4,0.3c1.9,0.2,3.7,0.5,5.4,0.8c1.7,0.3,3,0.7,4,1.1l-1.6,9.9c-1.2-0.4-2.6-0.7-4.3-1c-1.7-0.3-3.4-0.5-5.1-0.6
			c-1.7-0.2-3.3-0.2-4.7-0.2c-3.5,0-6,0.5-7.2,1.6c-1.3,1.1-1.9,3-1.9,5.8v12.5l-3.9,6.1V106c0,5.4,2.9,8.1,8.6,8.1
			c2.8,0,5.3-0.2,7.7-0.6c2.4-0.4,5.1-1.1,8-2l1.4,5.8c-3.7,1.2-6.9,2.3-9.6,3c-2.7,0.8-5,1.3-7,1.6c-2,0.3-4.1,0.4-6.2,0.4
			c-5.4,0-9.4-1.5-11.9-4.4s-3.8-7.6-3.8-14c0-10.1,3.4-15.8,10.1-17.3v-0.4L374.3,84.2z M381.9,94.8l4.1-9.3h35.5l-1.5,9.3H381.9z
			 M402.7,93.9h12v37.3l-6.8,0.8L402.7,93.9z"/>
		<path class="st0" d="M493,119.7c-2.4,0.9-5,1.6-7.7,2c-2.7,0.4-5.8,0.6-9.5,0.6c-4.7,0-8.6-0.5-11.6-1.5c-3-1-5.4-2.7-7.1-5.2
			c-1.7-2.4-3-5.7-3.7-9.9c-0.7-4.2-1.1-9.4-1.1-15.6c0-6.4,0.4-11.6,1.1-15.8c0.8-4.2,2-7.5,3.8-9.9c1.8-2.4,4.3-4.1,7.5-5.1
			c3.2-1,7.3-1.5,12.3-1.5c1.4,0,3.1,0.1,5,0.2c1.9,0.2,3.7,0.4,5.5,0.7c1.8,0.3,3.2,0.7,4.3,1.2l-1.6,9.9c-1.5-0.4-3.2-0.7-5.1-1
			c-1.9-0.3-3.7-0.5-5.4-0.6c-1.7-0.2-3.1-0.2-4.2-0.2c-3.7,0-6.4,0.5-8,1.4c-1.6,0.9-2.4,2.9-2.4,6v35.6c1.6,0.4,3.4,0.7,5.2,0.9
			c1.8,0.2,3.7,0.3,5.6,0.3c2.7,0,5.4-0.2,8.1-0.7c2.7-0.5,5.3-1.1,7.6-1.8L493,119.7z"/>
		<path class="st0" d="M523.1,121.9c-4.3,0-8-0.4-10.8-1.2c-2.9-0.8-5.2-2.2-6.9-4.1c-1.7-1.9-2.9-4.6-3.6-7.9
			c-0.7-3.3-1.1-7.5-1.1-12.5c0-5,0.4-9.1,1.1-12.5c0.7-3.3,1.9-5.9,3.6-7.9c1.7-1.9,4-3.3,6.9-4.1c2.9-0.8,6.5-1.2,10.8-1.2
			c4.4,0,8,0.4,10.9,1.2c2.9,0.8,5.2,2.2,6.8,4.1c1.7,1.9,2.9,4.6,3.6,7.8c0.7,3.3,1.1,7.5,1.1,12.5c0,5-0.4,9.1-1.1,12.5
			c-0.7,3.3-1.9,5.9-3.6,7.9c-1.7,1.9-4,3.3-6.9,4.1C531.1,121.5,527.4,121.9,523.1,121.9z M513.4,112.3h14.9c1.8,0,3-0.2,3.6-0.5
			c0.6-0.4,0.9-1,0.9-2V80H518c-1.8,0-3,0.2-3.6,0.5c-0.6,0.4-0.9,1-0.9,2V112.3z"/>
		<path class="st0" d="M558.8,120.8V71.5h5.7l3.3,4.9c2.4-2,5.1-3.5,8-4.5c2.9-1,6.1-1.5,9.7-1.5c4.6,0,8.1,0.8,10.5,2.3
			c2.4,1.5,3.6,3.8,3.6,6.8v41.3h-12.1V80.4h-9.3c-2.8,0-4.7,0.3-5.7,1c-1.1,0.7-1.6,2-1.6,4v35.4H558.8z M587.4,120.8V71.5l8.9,4.9
			c2.4-2,5.1-3.5,8-4.5c2.9-1,6.1-1.5,9.7-1.5c4.6,0,8.1,0.8,10.5,2.3c2.4,1.5,3.6,3.8,3.6,6.8v41.3H616V80.4h-9.3
			c-2.8,0-4.7,0.3-5.7,1c-1.1,0.7-1.6,2-1.6,4v35.4H587.4z"/>
		<path class="st0" d="M643.5,120.8V71.5h5.7l3.3,4.9c2.4-2,5.1-3.5,8-4.5c2.9-1,6.1-1.5,9.7-1.5c4.6,0,8.1,0.8,10.5,2.3
			c2.4,1.5,3.6,3.8,3.6,6.8v41.3h-12.1V80.4h-9.3c-2.8,0-4.7,0.3-5.7,1c-1.1,0.7-1.6,2-1.6,4v35.4H643.5z M672.2,120.8V71.5l8.9,4.9
			c2.4-2,5.1-3.5,8-4.5c2.9-1,6.1-1.5,9.7-1.5c4.6,0,8.1,0.8,10.5,2.3c2.4,1.5,3.6,3.8,3.6,6.8v41.3h-12.1V80.4h-9.3
			c-2.8,0-4.7,0.3-5.7,1c-1.1,0.7-1.6,2-1.6,4v35.4H672.2z"/>
		<path class="st0" d="M746.2,121.9c-3.9,0-7.2-0.4-9.9-1.3c-2.7-0.9-4.8-2.2-6.4-4.2c-1.6-1.9-2.7-4.6-3.4-7.9
			c-0.7-3.3-1-7.4-1-12.4c0-6.4,0.7-11.4,2.1-15.2c1.4-3.8,3.7-6.5,6.9-8.1c3.3-1.6,7.6-2.4,13.1-2.4c5.3,0,9.5,0.4,12.4,1.3
			c3,0.9,5,2.4,6.3,4.6c1.2,2.2,1.8,5.3,1.8,9.2c0,3.4-0.4,6.1-1.2,8.1c-0.8,2.1-2.2,3.7-4.3,4.8c-2.1,1.1-5.1,1.9-9,2.3
			c-3.9,0.4-9,0.6-15.3,0.6h-3v-7.2h13.8c3.1,0,5.2-0.4,6.3-1.1c1.1-0.8,1.7-2.2,1.7-4.3v-9h-10.9c-3,0-5.1,0.4-6.2,1.1
			c-1.1,0.7-1.7,2.1-1.7,4.2v26.4c1.3,0.3,2.7,0.6,4.2,0.7c1.5,0.2,3.4,0.2,5.5,0.2c2.7,0,5.4-0.2,8-0.6s5.7-1,9.2-1.9l1.6,8.7
			c-2.7,1-5.8,1.7-9.4,2.3C753.8,121.6,750.1,121.9,746.2,121.9z"/>
		<path class="st0" d="M788.1,71.5L792,79c2.7-2.6,5.1-4.5,7.3-5.9c2.2-1.4,4.3-2.4,6.4-3.1l1.1,11.8c-1.3,0.3-2.8,0.8-4.3,1.4
			c-1.6,0.6-3.1,1.3-4.5,2.1c-1.4,0.8-2.6,1.5-3.6,2.3v33.1h-12.1V71.5H788.1z"/>
		<path class="st0" d="M832,121.9c-3.6,0-6.6-0.4-9.1-1.2c-2.4-0.8-4.4-2.2-5.8-4.1c-1.4-1.9-2.4-4.6-3.1-7.9
			c-0.6-3.3-0.9-7.5-0.9-12.5c0-5,0.3-9.1,0.9-12.5c0.6-3.3,1.6-5.9,3.1-7.9c1.4-1.9,3.3-3.3,5.8-4.1c2.4-0.8,5.5-1.2,9.1-1.2
			c1.8,0,3.8,0.1,5.8,0.2c2,0.1,3.9,0.3,5.8,0.6c1.8,0.3,3.4,0.6,4.6,1l-1.3,8.9c-2.2-0.5-4.3-0.9-6.4-1.1c-2.1-0.2-4.2-0.3-6.5-0.3
			c-3,0-5.1,0.6-6.3,1.8s-1.8,3.3-1.8,6.3v23.8c2,0.7,5,1,8.9,1c2.2,0,4.3-0.2,6.3-0.6c2-0.4,4.3-1,6.9-1.9l1.2,8.7
			c-2.4,1-5,1.7-8,2.3C838.3,121.6,835.2,121.9,832,121.9z"/>
		<path class="st0" d="M866.6,63.9c-2.8,0-4.6-0.5-5.6-1.4c-1-1-1.5-2.8-1.5-5.5c0-2.8,0.5-4.6,1.5-5.6c1-1,2.9-1.5,5.6-1.5
			c2.7,0,4.5,0.5,5.5,1.5c1,1,1.5,2.9,1.5,5.6c0,2.7-0.5,4.5-1.4,5.5C871.2,63.5,869.4,63.9,866.6,63.9z M860.5,72.6l12.1-1.7v49.9
			h-12.1V72.6z"/>
		<path class="st0" d="M900.9,121.9c-5.5,0-9.5-1.2-11.9-3.5c-2.4-2.4-3.6-6.2-3.6-11.6c0-3.4,0.4-6.1,1.1-8.1
			c0.7-2.1,2.1-3.7,4-4.8c2-1.1,4.8-1.9,8.5-2.3c3.7-0.4,8.5-0.6,14.4-0.6h4.8V98h-14c-3,0-5,0.4-6.1,1.1c-1.1,0.8-1.7,2.2-1.7,4.3
			v9.6h11.1c3,0,5-0.4,6.1-1.1c1.1-0.7,1.6-2.1,1.6-4.2v-27c-2.1-0.7-5-1-8.8-1c-2.7,0-5.5,0.2-8.4,0.6c-2.9,0.4-5.9,1-8.9,1.9
			l-1.6-8.7c1.8-0.7,3.9-1.2,6.2-1.7c2.3-0.5,4.6-0.8,7.1-1c2.5-0.2,4.9-0.3,7.3-0.3c4.7,0,8.4,0.5,11.2,1.4c2.8,1,4.9,2.5,6.1,4.6
			c1.2,2.1,1.9,5,1.9,8.5v35.8h-5.8l-3.2-4.9c-2.4,2-5,3.5-7.8,4.5C907.7,121.4,904.5,121.9,900.9,121.9z"/>
		<path class="st0" d="M954.5,111.9c0.7,0.1,1.4,0.2,2.2,0.3c0.8,0.1,1.6,0.2,2.4,0.2l-0.7,8.2c-1.4,0.4-2.8,0.7-4,0.9
			c-1.2,0.2-2.4,0.3-3.5,0.3c-2.9,0-5-0.7-6.5-2c-1.4-1.3-2.1-3.4-2.1-6.2v-57l12.1-1.5V111.9z"/>
		<path class="st0" d="M994,120.8V59.2h12.1v51.5h21.8v10.1H994z"/>
		<path class="st0" d="M1042.7,63.9c-2.8,0-4.6-0.5-5.6-1.4c-1-1-1.5-2.8-1.5-5.5c0-2.8,0.5-4.6,1.5-5.6c1-1,2.9-1.5,5.6-1.5
			c2.7,0,4.5,0.5,5.5,1.5c1,1,1.5,2.9,1.5,5.6c0,2.7-0.5,4.5-1.4,5.5C1047.4,63.5,1045.5,63.9,1042.7,63.9z M1036.6,72.6l12.1-1.7
			v49.9h-12.1V72.6z"/>
		<path class="st0" d="M1061,79.7v-8.2h26.9v8.2H1061z M1076,121.9c-2.9,0-5-0.7-6.4-2c-1.4-1.3-2.1-3.4-2.1-6.2V61.6l12-3.1v53.4
			c1,0.1,2,0.2,3,0.3c1,0.1,2.3,0.2,3.8,0.2l-0.7,8.2c-2.1,0.4-3.9,0.7-5.5,0.9C1078.5,121.8,1077.1,121.9,1076,121.9z"/>
		<path class="st0" d="M1105.9,63.9c-2.8,0-4.6-0.5-5.6-1.4c-1-1-1.5-2.8-1.5-5.5c0-2.8,0.5-4.6,1.5-5.6c1-1,2.9-1.5,5.6-1.5
			c2.7,0,4.5,0.5,5.5,1.5c1,1,1.5,2.9,1.5,5.6c0,2.7-0.5,4.5-1.4,5.5C1110.5,63.5,1108.7,63.9,1105.9,63.9z M1099.8,72.6l12.1-1.7
			v49.9h-12.1V72.6z"/>
		<path class="st0" d="M1144.3,106.5c-5,0-9-0.6-12-1.8c-3-1.2-5.1-3.1-6.5-5.7c-1.3-2.6-2-6.2-2-10.7c0-4.5,0.7-8,2-10.7
			c1.3-2.7,3.5-4.6,6.5-5.8c3-1.2,7-1.8,12-1.8c5.1,0,9.1,0.6,12,1.8s5.1,3.1,6.4,5.7c1.3,2.6,2,6.2,2,10.7c0,4.5-0.6,8-1.9,10.7
			c-1.3,2.7-3.4,4.6-6.4,5.8C1153.3,105.9,1149.3,106.5,1144.3,106.5z M1165.2,124.3c0,3.1-0.7,5.6-2,7.5c-1.3,1.9-3.5,3.3-6.5,4.2
			c-3,0.9-6.9,1.3-11.8,1.3c-3.7,0-7.3-0.3-10.8-0.8c-3.5-0.5-6.7-1.3-9.4-2.3l1.5-8.9c3.3,0.9,6.2,1.5,8.7,1.9
			c2.5,0.4,5.1,0.6,7.7,0.6c2.4,0,4.5-0.1,6.4-0.2c1.8-0.2,3.6-0.4,5.4-0.7v-6.4c-6.6-0.5-11.3-1-14-1.7c-2.8-0.7-4.2-1.6-4.2-2.8
			l3.2-11.2l7.8,0.1l-0.6,7.6c3.9,0.5,7,1.1,9.5,1.6c2.5,0.5,4.4,1.2,5.7,2.1c1.3,0.9,2.2,1.9,2.8,3.3
			C1165,120.6,1165.2,122.3,1165.2,124.3z M1135.7,99.1h10.8c2.4,0,4-0.4,4.9-1.2c0.9-0.8,1.4-2.2,1.4-4.2V77.3H1142
			c-2.4,0-4,0.4-4.9,1.2c-0.9,0.8-1.4,2.2-1.4,4.2V99.1z M1160.8,81.1l-6.8-8.6l8.8-6.7l5.9,5.8L1160.8,81.1z"/>
		<path class="st0" d="M1191.1,121.9c-5.5,0-9.5-1.2-11.9-3.5c-2.4-2.4-3.6-6.2-3.6-11.6c0-3.4,0.4-6.1,1.1-8.1
			c0.7-2.1,2.1-3.7,4-4.8c2-1.1,4.8-1.9,8.5-2.3c3.7-0.4,8.5-0.6,14.4-0.6h4.8V98h-14c-3,0-5,0.4-6.1,1.1c-1.1,0.8-1.7,2.2-1.7,4.3
			v9.6h11.1c3,0,5-0.4,6.1-1.1c1.1-0.7,1.6-2.1,1.6-4.2v-27c-2.1-0.7-5-1-8.8-1c-2.7,0-5.5,0.2-8.4,0.6c-2.9,0.4-5.9,1-8.9,1.9
			l-1.6-8.7c1.8-0.7,3.9-1.2,6.2-1.7c2.3-0.5,4.6-0.8,7.1-1c2.5-0.2,4.9-0.3,7.3-0.3c4.7,0,8.4,0.5,11.2,1.4c2.8,1,4.9,2.5,6.1,4.6
			c1.2,2.1,1.9,5,1.9,8.5v35.8h-5.8l-3.2-4.9c-2.4,2-5,3.5-7.8,4.5C1197.8,121.4,1194.6,121.9,1191.1,121.9z"/>
		<path class="st0" d="M1229.2,79.7v-8.2h26.9v8.2H1229.2z M1244.2,121.9c-2.9,0-5-0.7-6.4-2c-1.4-1.3-2.1-3.4-2.1-6.2V61.6l12-3.1
			v53.4c1,0.1,2,0.2,3,0.3c1,0.1,2.3,0.2,3.8,0.2l-0.7,8.2c-2.1,0.4-3.9,0.7-5.5,0.9C1246.7,121.8,1245.4,121.9,1244.2,121.9z"/>
		<path class="st0" d="M1274.1,63.9c-2.8,0-4.6-0.5-5.6-1.4c-1-1-1.5-2.8-1.5-5.5c0-2.8,0.5-4.6,1.5-5.6c1-1,2.9-1.5,5.6-1.5
			c2.7,0,4.5,0.5,5.5,1.5c1,1,1.5,2.9,1.5,5.6c0,2.7-0.5,4.5-1.4,5.5C1278.8,63.5,1276.9,63.9,1274.1,63.9z M1268,72.6l12.1-1.7
			v49.9H1268V72.6z"/>
		<path class="st0" d="M1315.8,121.9c-4.3,0-8-0.4-10.8-1.2c-2.9-0.8-5.2-2.2-6.9-4.1c-1.7-1.9-2.9-4.6-3.6-7.9
			c-0.7-3.3-1.1-7.5-1.1-12.5c0-5,0.4-9.1,1.1-12.5c0.7-3.3,1.9-5.9,3.6-7.9c1.7-1.9,4-3.3,6.9-4.1c2.9-0.8,6.5-1.2,10.8-1.2
			c4.4,0,8,0.4,10.9,1.2c2.9,0.8,5.2,2.2,6.8,4.1c1.7,1.9,2.9,4.6,3.6,7.8c0.7,3.3,1.1,7.5,1.1,12.5c0,5-0.4,9.1-1.1,12.5
			c-0.7,3.3-1.9,5.9-3.6,7.9c-1.7,1.9-4,3.3-6.9,4.1C1323.8,121.5,1320.2,121.9,1315.8,121.9z M1306.2,112.3h14.9
			c1.8,0,3-0.2,3.6-0.5c0.6-0.4,0.9-1,0.9-2V80h-14.9c-1.8,0-3,0.2-3.6,0.5c-0.6,0.4-0.9,1-0.9,2V112.3z"/>
		<path class="st0" d="M1351.5,120.8V71.5h5.7l3.3,4.9c2.6-2,5.4-3.5,8.4-4.5c3-1,6.4-1.5,10.2-1.5c4.6,0,8.1,0.8,10.5,2.3
			c2.4,1.5,3.6,3.8,3.6,6.8v41.3h-12.1V80.4h-10.2c-2.8,0-4.7,0.3-5.7,1c-1.1,0.7-1.6,2-1.6,4v35.4H1351.5z"/>
		<path class="st0" d="M1405.6,85.2c0-5.3,1.6-9.1,4.7-11.5c3.2-2.4,8-3.6,14.7-3.6c3.2,0,6.2,0.2,9.1,0.5c2.9,0.4,5.7,0.9,8.5,1.6
			l-1.6,8.7c-1.6-0.5-3.5-0.8-5.7-1.1c-2.1-0.3-4.2-0.4-6.3-0.4c-2,0-3.9,0.1-5.7,0.2c-1.8,0.2-3.4,0.4-4.8,0.6v9.8
			c5.5,0.7,9.9,1.5,13.4,2.3c3.4,0.8,6.1,1.8,8,3.1c1.9,1.2,3.2,2.7,4,4.5c0.8,1.8,1.1,4,1.1,6.7c0,3.7-0.7,6.7-2.2,9
			c-1.4,2.3-3.7,4-6.9,5.1s-7.4,1.6-12.6,1.6c-3.1,0-6.2-0.3-9.4-0.8c-3.2-0.5-6.3-1.2-9.4-2.2l1.8-9.4c5,2,10.4,3,16.2,3
			c1.7,0,3.3-0.1,4.7-0.2c1.4-0.2,3.1-0.5,5-0.9v-9.9c-5.8-0.8-10.4-1.6-13.9-2.3c-3.5-0.8-6.2-1.7-8-2.9c-1.8-1.2-3-2.7-3.7-4.5
			C1405.9,90.3,1405.6,88,1405.6,85.2z"/>
	</g>
</g>
<g>
	<path class="st0" d="M133.8,66H39.2C38,66,37,65,37,63.8v-7.7c0-1.2,1-2.2,2.2-2.2h94.7c1.2,0,2.2,1,2.2,2.2v7.7
		C136,65,135,66,133.8,66z M41,62h91v-3H41L41,62z M132.8,133H41.2c-1.2,0-2.2-1-2.2-2.2v-7.7c0-1.2,1-2.2,2.2-2.2h91.7
		c1.2,0,2.2,1,2.2,2.2v7.7C135,132,134,133,132.8,133z M43,129h87v-3H43V129z"/>
	<path class="st0" d="M138.8,141H34.2c-1.2,0-2.2-1-2.2-2.2v-7.7c0-1.2,1-2.2,2.2-2.2h104.7c1.2,0,2.2,1,2.2,2.2v7.7
		C141,140,140,141,138.8,141z M36,136h101v-3H36V136z M136.4,59H37.3c-2.9,0-5.1-1.9-5.1-4.4c0-1.7,1-3.2,2.7-3.9l45.9-21
		c3.6-1.7,8.5-1.7,12.1,0l45.9,21c1.7,0.8,2.7,2.3,2.7,3.9C141.5,57.1,139.2,59,136.4,59z M36.7,53.9c0.2,0.1,0.4,0.1,0.6,0.1h99.1
		c0.2,0,0.4,0,0.6-0.1l-45.8-21c-2.5-1.1-6-1.1-8.5,0L36.7,53.9z M101.8,119h-6.7c-1.2,0-2.2-1-2.2-2.2V70.2c0-1.2,1-2.2,2.2-2.2
		h6.7c1.2,0,2.2,1,2.2,2.2v46.7C104,118,103,119,101.8,119z M98,115h2V72h-2V115z M125.8,119h-6.7c-1.2,0-2.2-1-2.2-2.2V70.2
		c0-1.2,1-2.2,2.2-2.2h6.7c1.2,0,2.2,1,2.2,2.2v46.7C128,118,127,119,125.8,119z M122,115h2V72h-2V115z M53.8,119h-6.7
		c-1.2,0-2.2-1-2.2-2.2V70.2c0-1.2,1-2.2,2.2-2.2h6.7c1.2,0,2.2,1,2.2,2.2v46.7C56,118,55,119,53.8,119z M50,115h2V72h-2V115z"/>
	<path class="st0" d="M56.9,72H44.2C43,72,42,71,42,69.8v-5.8c0-1,0.7-2,1.7-2.1c1.2-0.2,2.3,0.8,2.3,2V68h9v-3.9c0-1,0.7-2,1.7-2.1
		c1.2-0.2,2.3,0.8,2.3,2v6C59,71.1,58.1,72,56.9,72z M104.9,72H92.2C91,72,90,71,90,69.8v-5.8c0-1,0.7-2,1.7-2.1
		c1.2-0.2,2.3,0.8,2.3,2V68h9v-3.9c0-1,0.7-2,1.7-2.1c1.2-0.2,2.3,0.8,2.3,2v6C107,71.1,106.1,72,104.9,72z M129,72h-12.8
		c-1.2,0-2.2-1-2.2-2.2v-5.8c0-1,0.7-2,1.7-2.1c1.2-0.2,2.3,0.8,2.3,2V68h9v-3.9c0-1,0.7-2,1.7-2.1c1.2-0.2,2.3,0.8,2.3,2V70
		C131,71.1,130.1,72,129,72L129,72z M57.3,125.1c-1.2,0.2-2.3-0.8-2.3-2V119h-9v3.9c0,1-0.7,2-1.7,2.1c-1.2,0.2-2.3-0.8-2.3-2v-6
		c0-1.1,0.9-2.1,2.1-2.1h12.8c1.2,0,2.2,1,2.2,2.2v5.8C59,123.9,58.3,124.9,57.3,125.1z M105.3,125.1c-1.2,0.2-2.3-0.8-2.3-2V119h-9
		v3.9c0,1-0.7,2-1.7,2.1c-1.2,0.2-2.3-0.8-2.3-2v-6c0-1.1,0.9-2.1,2.1-2.1h12.8c1.2,0,2.2,1,2.2,2.2v5.8
		C107,123.9,106.3,124.9,105.3,125.1z M77.8,119h-6.7c-1.2,0-2.2-1-2.2-2.2V70.2c0-1.2,1-2.2,2.2-2.2h6.7c1.2,0,2.2,1,2.2,2.2v46.7
		C80,118,79,119,77.8,119L77.8,119z M74,115h2V72h-2V115z"/>
	<path class="st0" d="M81,72H68.2C67,72,66,71,66,69.8v-5.8c0-1,0.7-2,1.7-2.1c1.2-0.2,2.3,0.8,2.3,2V68h9v-3.9c0-1,0.7-2,1.7-2.1
		c1.2-0.2,2.3,0.8,2.3,2V70C83,71.1,82.1,72,81,72L81,72z M81,125.1c-1.1,0-2-0.9-2-2V119h-9v3.9c0,1-0.7,2-1.7,2.1
		c-1.2,0.2-2.3-0.8-2.3-2v-6c0-1.1,0.9-2.1,2.1-2.1H81c1.1,0,2,0.9,2,2v6.1C83,124.2,82.1,125.1,81,125.1L81,125.1z M129,125.1
		c-1.1,0-2-0.9-2-2V119h-9v3.9c0,1-0.7,2-1.7,2.1c-1.2,0.2-2.3-0.8-2.3-2v-6c0-1.1,0.9-2.1,2.1-2.1H129c1.1,0,2,0.9,2,2v6.1
		C131,124.2,130.1,125.1,129,125.1L129,125.1z"/>
</g>
</svg>
