<?xml version="1.0" encoding="utf-8"?>
<!-- Generator: Adobe Illustrator 28.2.0, SVG Export Plug-In . SVG Version: 6.00 Build 0)  -->
<svg version="1.1" id="Layer_1" xmlns="http://www.w3.org/2000/svg" xmlns:xlink="http://www.w3.org/1999/xlink" x="0px" y="0px"
	 viewBox="0 0 1441.9 171.1" style="enable-background:new 0 0 1441.9 171.1;" xml:space="preserve">
<style type="text/css">
	.st0{fill:#C3AA8B;}
	.st1{fill:#242A48;}
</style>
<g>
	<g>
		<path class="st0" d="M217.1,119.7c-2.4,0.9-5,1.6-7.7,2c-2.7,0.4-5.8,0.6-9.5,0.6c-4.7,0-8.6-0.5-11.6-1.5c-3-1-5.4-2.7-7.1-5.2
			c-1.7-2.4-3-5.7-3.7-9.9c-0.7-4.2-1.1-9.4-1.1-15.6c0-6.4,0.4-11.6,1.1-15.8c0.8-4.2,2-7.5,3.8-9.9c1.8-2.4,4.3-4.1,7.5-5.1
			c3.2-1,7.3-1.5,12.3-1.5c1.4,0,3.1,0.1,5,0.2c1.9,0.2,3.7,0.4,5.5,0.7c1.8,0.3,3.2,0.7,4.3,1.2l-1.6,9.9c-1.5-0.4-3.2-0.7-5.1-1
			c-1.9-0.3-3.7-0.5-5.4-0.6c-1.7-0.2-3.1-0.2-4.2-0.2c-3.7,0-6.4,0.5-8,1.4c-1.6,0.9-2.4,2.9-2.4,6v35.6c1.6,0.4,3.4,0.7,5.2,0.9
			c1.8,0.2,3.7,0.3,5.6,0.3c2.7,0,5.4-0.2,8.1-0.7c2.7-0.5,5.3-1.1,7.6-1.8L217.1,119.7z"/>
		<path class="st0" d="M233.6,63.9c-2.8,0-4.6-0.5-5.6-1.4c-1-1-1.5-2.8-1.5-5.5c0-2.8,0.5-4.6,1.5-5.6c1-1,2.9-1.5,5.6-1.5
			c2.7,0,4.5,0.5,5.5,1.5c1,1,1.5,2.9,1.5,5.6c0,2.7-0.5,4.5-1.4,5.5C238.2,63.5,236.4,63.9,233.6,63.9z M227.5,72.6l12.1-1.7v49.9
			h-12.1V72.6z"/>
		<path class="st0" d="M248.1,71.5H260l10.6,38.8h1l10.5-38.8h11.9l-13.8,49.3h-18.4L248.1,71.5z"/>
		<path class="st0" d="M308.7,63.9c-2.8,0-4.6-0.5-5.6-1.4c-1-1-1.5-2.8-1.5-5.5c0-2.8,0.5-4.6,1.5-5.6c1-1,2.9-1.5,5.6-1.5
			c2.7,0,4.5,0.5,5.5,1.5c1,1,1.5,2.9,1.5,5.6c0,2.7-0.5,4.5-1.4,5.5C313.3,63.5,311.4,63.9,308.7,63.9z M302.6,72.6l12.1-1.7v49.9
			h-12.1V72.6z"/>
		<path class="st0" d="M342.4,111.9c0.7,0.1,1.4,0.2,2.2,0.3c0.8,0.1,1.6,0.2,2.4,0.2l-0.7,8.2c-1.4,0.4-2.8,0.7-4,0.9
			c-1.2,0.2-2.4,0.3-3.5,0.3c-2.9,0-5-0.7-6.5-2c-1.4-1.3-2.1-3.4-2.1-6.2v-57l12.1-1.5V111.9z"/>
		<path class="st0" d="M379.6,109.7c2.8,0.8,6,1.4,9.4,1.8c3.4,0.4,6.8,0.6,10.1,0.6c1.6,0,3.2,0,4.7-0.1c1.5-0.1,3.4-0.2,5.6-0.5
			V96.3l-9.2-0.8c-4.3-0.3-7.8-0.9-10.6-1.6c-2.8-0.7-5-1.8-6.7-3.1c-1.6-1.3-2.8-3.1-3.4-5.2c-0.7-2.1-1-4.8-1-7.9
			c0-4.9,0.7-8.8,2-11.7c1.3-2.9,3.4-5,6.4-6.3c3-1.3,6.9-1.9,11.7-1.9c3.5,0,7,0.2,10.4,0.5c3.4,0.3,6.8,0.9,10.3,1.7l-1.6,9.6
			c-3-0.6-5.9-1-8.6-1.2c-2.7-0.2-5.7-0.3-8.9-0.3c-1.9,0-3.4,0-4.6,0.1c-1.2,0.1-2.5,0.2-3.8,0.4v15.5l10.1,0.7
			c5.2,0.4,9.3,1.2,12.3,2.5c3,1.3,5.2,3.2,6.5,5.9c1.3,2.6,2,6.1,2,10.4c0,4.6-0.8,8.3-2.3,11.1c-1.5,2.8-4,4.8-7.5,6
			c-3.4,1.2-8,1.8-13.7,1.8c-3.7,0-7.4-0.2-10.8-0.6c-3.5-0.4-7-1.1-10.4-2L379.6,109.7z"/>
		<path class="st0" d="M430.5,79.7v-8.2h26.9v8.2H430.5z M445.5,121.9c-2.9,0-5-0.7-6.4-2c-1.4-1.3-2.1-3.4-2.1-6.2V61.6l12-3.1
			v53.4c1,0.1,2,0.2,3,0.3c1,0.1,2.3,0.2,3.8,0.2l-0.7,8.2c-2.1,0.4-3.9,0.7-5.5,0.9C448,121.8,446.7,121.9,445.5,121.9z"/>
		<path class="st0" d="M481.6,121.9c-5.5,0-9.5-1.2-11.9-3.5c-2.4-2.4-3.6-6.2-3.6-11.6c0-3.4,0.4-6.1,1.1-8.1
			c0.7-2.1,2.1-3.7,4-4.8c2-1.1,4.8-1.9,8.5-2.3c3.7-0.4,8.5-0.6,14.4-0.6h4.8V98h-14c-3,0-5,0.4-6.1,1.1c-1.1,0.8-1.7,2.2-1.7,4.3
			v9.6h11.1c3,0,5-0.4,6.1-1.1c1.1-0.7,1.6-2.1,1.6-4.2v-27c-2.1-0.7-5-1-8.8-1c-2.7,0-5.5,0.2-8.4,0.6c-2.9,0.4-5.9,1-8.9,1.9
			l-1.6-8.7c1.8-0.7,3.9-1.2,6.2-1.7c2.3-0.5,4.6-0.8,7.1-1c2.5-0.2,4.9-0.3,7.3-0.3c4.7,0,8.4,0.5,11.2,1.4c2.8,1,4.9,2.5,6.1,4.6
			c1.2,2.1,1.9,5,1.9,8.5v35.8h-5.8l-3.2-4.9c-2.4,2-5,3.5-7.8,4.5C488.4,121.4,485.2,121.9,481.6,121.9z"/>
		<path class="st0" d="M519.8,79.7v-8.2h26.9v8.2H519.8z M534.8,121.9c-2.9,0-5-0.7-6.4-2c-1.4-1.3-2.1-3.4-2.1-6.2V61.6l12-3.1
			v53.4c1,0.1,2,0.2,3,0.3c1,0.1,2.3,0.2,3.8,0.2l-0.7,8.2c-2.1,0.4-3.9,0.7-5.5,0.9C537.3,121.8,535.9,121.9,534.8,121.9z"/>
		<path class="st0" d="M599.9,71.5v49.3h-5.8l-3.2-4.9c-2.7,2-5.6,3.5-8.8,4.5c-3.2,1-6.7,1.5-10.6,1.5c-4.6,0-8-0.9-10.2-2.7
			s-3.3-4.6-3.3-8.5V71.5h12.1V113h10.2c2.8,0,4.8-0.4,5.8-1.1c1-0.7,1.6-2,1.6-3.9V71.5H599.9z"/>
		<path class="st0" d="M612.7,85.2c0-5.3,1.6-9.1,4.7-11.5c3.2-2.4,8-3.6,14.7-3.6c3.2,0,6.2,0.2,9.1,0.5c2.9,0.4,5.7,0.9,8.5,1.6
			l-1.6,8.7c-1.6-0.5-3.5-0.8-5.7-1.1c-2.1-0.3-4.2-0.4-6.3-0.4c-2,0-3.9,0.1-5.7,0.2c-1.8,0.2-3.4,0.4-4.8,0.6v9.8
			c5.5,0.7,9.9,1.5,13.4,2.3c3.4,0.8,6.1,1.8,8,3.1c1.9,1.2,3.2,2.7,4,4.5c0.8,1.8,1.1,4,1.1,6.7c0,3.7-0.7,6.7-2.2,9
			c-1.4,2.3-3.7,4-6.9,5.1s-7.4,1.6-12.6,1.6c-3.1,0-6.2-0.3-9.4-0.8c-3.2-0.5-6.3-1.2-9.4-2.2l1.8-9.4c5,2,10.4,3,16.2,3
			c1.7,0,3.3-0.1,4.7-0.2c1.4-0.2,3.1-0.5,5-0.9v-9.9c-5.8-0.8-10.4-1.6-13.9-2.3c-3.5-0.8-6.2-1.7-8-2.9c-1.8-1.2-3-2.7-3.7-4.5
			C613,90.3,612.7,88,612.7,85.2z"/>
		<path class="st0" d="M690.1,84.2c0.2-5.1,0.7-9.4,1.6-12.8c0.9-3.4,2.1-6.1,3.8-8.1c1.7-2,4-3.4,6.8-4.3c2.9-0.9,6.4-1.3,10.6-1.3
			c1.7,0,3.5,0.1,5.4,0.3c1.9,0.2,3.7,0.5,5.4,0.8c1.7,0.3,3,0.7,4,1.1l-1.6,9.9c-1.2-0.4-2.6-0.7-4.3-1c-1.7-0.3-3.4-0.5-5.1-0.6
			c-1.7-0.2-3.3-0.2-4.7-0.2c-3.5,0-6,0.5-7.2,1.6c-1.3,1.1-1.9,3-1.9,5.8v12.5l-3.9,6.1V106c0,5.4,2.9,8.1,8.6,8.1
			c2.8,0,5.3-0.2,7.7-0.6c2.4-0.4,5.1-1.1,8-2l1.4,5.8c-3.7,1.2-6.9,2.3-9.6,3c-2.7,0.8-5,1.3-7,1.6c-2,0.3-4.1,0.4-6.2,0.4
			c-5.4,0-9.4-1.5-11.9-4.4s-3.8-7.6-3.8-14c0-10.1,3.4-15.8,10.1-17.3v-0.4L690.1,84.2z M697.7,94.8l4.1-9.3h35.5l-1.5,9.3H697.7z
			 M718.5,93.9h12v37.3l-6.8,0.8L718.5,93.9z"/>
		<path class="st0" d="M770.5,120.8V59.2h12.1v51.5h21.8v10.1H770.5z"/>
		<path class="st0" d="M825.5,121.9c-5.5,0-9.5-1.2-11.9-3.5c-2.4-2.4-3.6-6.2-3.6-11.6c0-3.4,0.4-6.1,1.1-8.1
			c0.7-2.1,2.1-3.7,4-4.8c2-1.1,4.8-1.9,8.5-2.3c3.7-0.4,8.5-0.6,14.4-0.6h4.8V98h-14c-3,0-5,0.4-6.1,1.1c-1.1,0.8-1.7,2.2-1.7,4.3
			v9.6h11.1c3,0,5-0.4,6.1-1.1c1.1-0.7,1.6-2.1,1.6-4.2v-27c-2.1-0.7-5-1-8.8-1c-2.7,0-5.5,0.2-8.4,0.6c-2.9,0.4-5.9,1-8.9,1.9
			l-1.6-8.7c1.8-0.7,3.9-1.2,6.2-1.7c2.3-0.5,4.6-0.8,7.1-1c2.5-0.2,4.9-0.3,7.3-0.3c4.7,0,8.4,0.5,11.2,1.4c2.8,1,4.9,2.5,6.1,4.6
			c1.2,2.1,1.9,5,1.9,8.5v35.8h-5.8l-3.2-4.9c-2.4,2-5,3.5-7.8,4.5C832.2,121.4,829,121.9,825.5,121.9z"/>
		<path class="st0" d="M867.4,55.6l12.1-1.2v55.8v4.5l10.3,7.2c-4.3,0-8.1-0.3-11.5-0.8c-3.4-0.5-7.1-1.3-10.9-2.5V55.6z
			 M892.3,70.1c3.5,0,6.5,0.4,8.9,1.2c2.4,0.8,4.3,2.2,5.7,4.2c1.4,2,2.4,4.6,3,8c0.6,3.4,0.9,7.6,0.9,12.7c0,5.1-0.3,9.2-1,12.5
			c-0.7,3.3-1.8,5.9-3.4,7.8c-1.6,1.9-3.7,3.3-6.5,4.1c-2.7,0.8-6.1,1.2-10.2,1.2c-3.6,0-6.6-0.4-8.9-1.1c-2.3-0.8-4.2-2.1-5.5-3.9
			c-1.3-1.9-2.2-4.5-2.8-7.8c-0.5-3.4-0.8-7.6-0.8-12.8c0-5.3,0.3-9.6,0.9-13c0.6-3.4,1.7-6,3.2-7.9c1.5-1.9,3.5-3.3,6.2-4
			C884.9,70.4,888.2,70.1,892.3,70.1z M898,79.7h-14.2c-1.7,0-2.9,0.2-3.4,0.5c-0.6,0.3-0.9,1-0.9,2v30.2h14.1
			c1.7,0,2.9-0.2,3.5-0.5c0.6-0.3,0.9-0.9,0.9-1.7V79.7z"/>
		<path class="st0" d="M943.7,121.9c-4.3,0-8-0.4-10.8-1.2c-2.9-0.8-5.2-2.2-6.9-4.1c-1.7-1.9-2.9-4.6-3.6-7.9
			c-0.7-3.3-1.1-7.5-1.1-12.5c0-5,0.4-9.1,1.1-12.5c0.7-3.3,1.9-5.9,3.6-7.9c1.7-1.9,4-3.3,6.9-4.1c2.9-0.8,6.5-1.2,10.8-1.2
			c4.4,0,8,0.4,10.9,1.2c2.9,0.8,5.2,2.2,6.8,4.1c1.7,1.9,2.9,4.6,3.6,7.8c0.7,3.3,1.1,7.5,1.1,12.5c0,5-0.4,9.1-1.1,12.5
			c-0.7,3.3-1.9,5.9-3.6,7.9c-1.7,1.9-4,3.3-6.9,4.1C951.7,121.5,948.1,121.9,943.7,121.9z M934.1,112.3H949c1.8,0,3-0.2,3.6-0.5
			c0.6-0.4,0.9-1,0.9-2V80h-14.9c-1.8,0-3,0.2-3.6,0.5c-0.6,0.4-0.9,1-0.9,2V112.3z"/>
		<path class="st0" d="M985.2,71.5l3.9,7.5c2.7-2.6,5.1-4.5,7.3-5.9c2.2-1.4,4.3-2.4,6.4-3.1l1.1,11.8c-1.3,0.3-2.8,0.8-4.3,1.4
			c-1.6,0.6-3.1,1.3-4.5,2.1c-1.4,0.8-2.6,1.5-3.6,2.3v33.1h-12.1V71.5H985.2z"/>
		<path class="st0" d="M1036.7,120.8V59.2h12.1v51.5h21.8v10.1H1036.7z"/>
		<path class="st0" d="M1091.7,121.9c-5.5,0-9.5-1.2-11.9-3.5c-2.4-2.4-3.6-6.2-3.6-11.6c0-3.4,0.4-6.1,1.1-8.1
			c0.7-2.1,2.1-3.7,4-4.8c2-1.1,4.8-1.9,8.5-2.3c3.7-0.4,8.5-0.6,14.4-0.6h4.8V98h-14c-3,0-5,0.4-6.1,1.1c-1.1,0.8-1.7,2.2-1.7,4.3
			v9.6h11.1c3,0,5-0.4,6.1-1.1c1.1-0.7,1.6-2.1,1.6-4.2v-27c-2.1-0.7-5-1-8.8-1c-2.7,0-5.5,0.2-8.4,0.6c-2.9,0.4-5.9,1-8.9,1.9
			l-1.6-8.7c1.8-0.7,3.9-1.2,6.2-1.7c2.3-0.5,4.6-0.8,7.1-1c2.5-0.2,4.9-0.3,7.3-0.3c4.7,0,8.4,0.5,11.2,1.4c2.8,1,4.9,2.5,6.1,4.6
			c1.2,2.1,1.9,5,1.9,8.5v35.8h-5.8l-3.2-4.9c-2.4,2-5,3.5-7.8,4.5C1098.4,121.4,1095.2,121.9,1091.7,121.9z"/>
		<path class="st0" d="M1137.6,120.8l-11.5-49.3h11.9l8.4,38.8h1l8.6-38.8h9.3l-11.1,49.3H1137.6z M1168.5,120.8l-11.2-49.3h9.4
			l8.6,38.8h1l8.3-38.8h11.9l-11.4,49.3H1168.5z"/>
		<path class="st0" d="M1202,85.2c0-5.3,1.6-9.1,4.7-11.5c3.2-2.4,8-3.6,14.7-3.6c3.2,0,6.2,0.2,9.1,0.5c2.9,0.4,5.7,0.9,8.5,1.6
			l-1.6,8.7c-1.6-0.5-3.5-0.8-5.7-1.1c-2.1-0.3-4.2-0.4-6.3-0.4c-2,0-3.9,0.1-5.7,0.2c-1.8,0.2-3.4,0.4-4.8,0.6v9.8
			c5.5,0.7,9.9,1.5,13.4,2.3c3.4,0.8,6.1,1.8,8,3.1c1.9,1.2,3.2,2.7,4,4.5c0.8,1.8,1.1,4,1.1,6.7c0,3.7-0.7,6.7-2.2,9
			c-1.4,2.3-3.7,4-6.9,5.1s-7.4,1.6-12.6,1.6c-3.1,0-6.2-0.3-9.4-0.8c-3.2-0.5-6.3-1.2-9.4-2.2l1.8-9.4c5,2,10.4,3,16.2,3
			c1.7,0,3.3-0.1,4.7-0.2c1.4-0.2,3.1-0.5,5-0.9v-9.9c-5.8-0.8-10.4-1.6-13.9-2.3c-3.5-0.8-6.2-1.7-8-2.9c-1.8-1.2-3-2.7-3.7-4.5
			C1202.3,90.3,1202,88,1202,85.2z"/>
		<path class="st0" d="M1294.6,71.5v49.3h-5.8l-3.2-4.9c-2.7,2-5.6,3.5-8.8,4.5c-3.2,1-6.7,1.5-10.6,1.5c-4.6,0-8-0.9-10.2-2.7
			s-3.3-4.6-3.3-8.5V71.5h12.1V113h10.2c2.8,0,4.8-0.4,5.8-1.1c1-0.7,1.6-2,1.6-3.9V71.5H1294.6z"/>
		<path class="st0" d="M1316.6,63.9c-2.8,0-4.6-0.5-5.6-1.4c-1-1-1.5-2.8-1.5-5.5c0-2.8,0.5-4.6,1.5-5.6c1-1,2.9-1.5,5.6-1.5
			c2.7,0,4.5,0.5,5.5,1.5c1,1,1.5,2.9,1.5,5.6c0,2.7-0.5,4.5-1.4,5.5C1321.2,63.5,1319.3,63.9,1316.6,63.9z M1310.5,72.6l12.1-1.7
			v49.9h-12.1V72.6z"/>
		<path class="st0" d="M1334.8,79.7v-8.2h26.9v8.2H1334.8z M1349.8,121.9c-2.9,0-5-0.7-6.4-2c-1.4-1.3-2.1-3.4-2.1-6.2V61.6l12-3.1
			v53.4c1,0.1,2,0.2,3,0.3c1,0.1,2.3,0.2,3.8,0.2l-0.7,8.2c-2.1,0.4-3.9,0.7-5.5,0.9C1352.3,121.8,1351,121.9,1349.8,121.9z"/>
		<path class="st0" d="M1370.6,85.2c0-5.3,1.6-9.1,4.7-11.5c3.2-2.4,8-3.6,14.7-3.6c3.2,0,6.2,0.2,9.1,0.5c2.9,0.4,5.7,0.9,8.5,1.6
			l-1.6,8.7c-1.6-0.5-3.5-0.8-5.7-1.1c-2.1-0.3-4.2-0.4-6.3-0.4c-2,0-3.9,0.1-5.7,0.2c-1.8,0.2-3.4,0.4-4.8,0.6v9.8
			c5.5,0.7,9.9,1.5,13.4,2.3c3.4,0.8,6.1,1.8,8,3.1c1.9,1.2,3.2,2.7,4,4.5c0.8,1.8,1.1,4,1.1,6.7c0,3.7-0.7,6.7-2.2,9
			c-1.4,2.3-3.7,4-6.9,5.1s-7.4,1.6-12.6,1.6c-3.1,0-6.2-0.3-9.4-0.8c-3.2-0.5-6.3-1.2-9.4-2.2l1.8-9.4c5,2,10.4,3,16.2,3
			c1.7,0,3.3-0.1,4.7-0.2c1.4-0.2,3.1-0.5,5-0.9v-9.9c-5.8-0.8-10.4-1.6-13.9-2.3c-3.5-0.8-6.2-1.7-8-2.9c-1.8-1.2-3-2.7-3.7-4.5
			C1370.9,90.3,1370.6,88,1370.6,85.2z"/>
	</g>
</g>
<g>
	<path class="st0" d="M68.8,135c-11.7,0-21.2-9.5-21.2-21.2s9.5-21.2,21.2-21.2s21.2,9.5,21.2,21.2S80.5,135,68.8,135z M68.8,96.8
		c-9.3,0-17,7.6-17,17s7.6,17,17,17s17-7.6,17-17S78.2,96.8,68.8,96.8z"/>
	<path class="st0" d="M39.1,135c-12.9,0-23.3-10.4-23.3-23.3c0-11.5,8.5-21.2,19.7-23.1c1.1-0.2,2.3,0.6,2.3,1.7s-0.6,2.3-1.7,2.3
		C27,94,20,102.1,20,111.4c0,10.6,8.5,19.1,19.1,19.1s19.1-8.5,19.1-19.1c0-9.3-7-17.4-16.1-18.9c-1.1-0.2-1.9-1.3-1.7-2.3
		s1.3-1.9,2.3-1.7c11.2,1.7,19.7,11.7,19.7,23.1C62.5,124.6,51.9,135,39.1,135z"/>
	<polygon class="st0" points="39.1,96.3 27.4,82.2 32.1,77.5 39.1,77.5 46.2,77.5 50.9,82.2 	"/>
	<path class="st0" d="M45.9,27c-11.7,0-21.2,7.6-21.2,17s9.5,17,21.2,17c1.5,0,3-0.2,4.2-0.4l10.6-4.5c0,0,0,0,0,0
		c4-3,6.3-7.4,6.3-12.1C67.2,34.6,57.6,27,45.9,27z M48.3,53.1c0,0.6-0.2,1.1-0.6,1.5c-0.2,0-0.2,0.2-0.4,0.2C47,54.8,47,55,46.8,55
		c-0.2,0-0.2,0-0.4,0.2c-0.2,0-0.4,0-0.4,0c-0.2,0-0.6,0-0.8-0.2c-0.2,0-0.4-0.2-0.6-0.4c-0.4-0.4-0.6-0.9-0.6-1.5
		c0-0.2,0-0.2,0-0.4c0-0.2,0-0.2,0.2-0.4c0-0.2,0-0.2,0.2-0.4c0-0.2,0.2-0.2,0.2-0.2c0.4-0.4,1.2-0.6,1.8-0.6c0.2,0,0.2,0,0.4,0.2
		c0.2,0,0.2,0.2,0.4,0.2c0,0,0.2,0.2,0.4,0.2l0.2,0.2c0,0.2,0.2,0.2,0.2,0.4c0,0.2,0,0.2,0.2,0.4C48.3,52.9,48.3,52.9,48.3,53.1z
		 M50,44.6c-0.6,0.4-1.7,1.5-1.7,2.8v0.6c0,1.3-1.1,2.1-2.1,2.1c-1.3,0-2.1-0.9-2.1-2.1v-0.6c0-2.4,1.3-4.7,3.4-6.2
		c1.1-0.8,0.9-2.2,0.6-3.1c-0.1-0.2-0.2-0.4-0.5-0.5c-2.3-0.9-4,0.4-3.5,2.6c0.1,0.4-0.1,0.8-0.4,0.9c-2.2,1.1-3.9,0.1-3.9-1.7
		c0-4.7,4.7-8,9.8-5.6c0.2,0.1,0.5,0.3,0.6,0.4C54,38,52.7,42.7,50,44.6z"/>
	<polygon class="st0" points="60.8,55.9 62.9,67.1 50.2,60.5 	"/>
	<path class="st0" d="M152.2,134.7H88.8c-1.1,0-2-0.8-2.1-1.9c-0.1-1.4,0.8-2.3,2.1-2.3h62.1V56.3L133.5,39H80.8l0,49.2
		c0,1.1-0.8,2-1.9,2.1c-1.4,0.1-2.3-0.8-2.3-2.1V36.8c0-1.2,0.9-2.1,2.1-2.1h55c0.6,0,1.1,0.2,1.5,0.6L153.7,54
		c0.4,0.4,0.6,0.8,0.6,1.5v77.2C154.3,133.9,153.3,134.7,152.2,134.7z"/>
	<polygon class="st0" points="152.5,55.2 133.8,55.2 133.8,36.5 	"/>
	<path class="st0" d="M152.7,57.6c-0.6,0-1.1-0.2-1.5-0.6l-18.7-18.7c-0.8-0.8-0.8-2.1,0-3c0.8-0.8,2.1-0.8,3,0l18.7,18.7
		c0.8,0.8,0.8,2.1,0,3C153.7,57.3,153.1,57.6,152.7,57.6z M134.1,68.9l-41.5,0c-1.1,0-2-0.8-2.1-1.9c-0.1-1.4,0.8-2.3,2.1-2.3h41.4
		c1.1,0,2.1,0.8,2.2,1.9C136.4,68,135.3,68.9,134.1,68.9z M134.1,82.6l-41.5,0c-1.1,0-2-0.8-2.1-1.9c-0.1-1.4,0.8-2.3,2.1-2.3
		l41.4,0c1.1,0,2.1,0.8,2.2,1.9C136.4,81.6,135.3,82.6,134.1,82.6z M134.1,95.4l-41.5,0c-1.1,0-2-0.8-2.1-1.9
		c-0.1-1.4,0.8-2.3,2.1-2.3h41.4c1.1,0,2.1,0.8,2.2,1.9C136.4,94.5,135.3,95.4,134.1,95.4z M134.1,108.2H92.7c-1.1,0-2-0.8-2.1-1.9
		c-0.1-1.4,0.8-2.3,2.1-2.3l41.4,0c1.1,0,2.1,0.8,2.2,1.9C136.4,107.3,135.3,108.2,134.1,108.2z M134.1,121.1l-41.5,0
		c-1.1,0-2-0.8-2.1-1.9c-0.1-1.4,0.8-2.3,2.1-2.3l41.4,0c1.1,0,2.1,0.8,2.2,1.9C136.4,120.1,135.3,121.1,134.1,121.1z"/>
</g>
</svg>
