<?xml version="1.0" encoding="utf-8"?>
<!-- Generator: Adobe Illustrator 28.2.0, SVG Export Plug-In . SVG Version: 6.00 Build 0)  -->
<svg version="1.1" id="Layer_1" xmlns="http://www.w3.org/2000/svg" xmlns:xlink="http://www.w3.org/1999/xlink" x="0px" y="0px"
	 viewBox="0 0 1310.9 171.1" style="enable-background:new 0 0 1310.9 171.1;" xml:space="preserve">
<style type="text/css">
	.st0{fill:#C3AA8B;}
	.st1{fill:#242A48;}
</style>
<g>
	<g>
		<path class="st0" d="M217.1,119.7c-2.4,0.9-5,1.6-7.7,2c-2.7,0.4-5.8,0.6-9.5,0.6c-4.7,0-8.6-0.5-11.6-1.5c-3-1-5.4-2.7-7.1-5.2
			c-1.7-2.4-3-5.7-3.7-9.9c-0.7-4.2-1.1-9.4-1.1-15.6c0-6.4,0.4-11.6,1.1-15.8c0.8-4.2,2-7.5,3.8-9.9c1.8-2.4,4.3-4.1,7.5-5.1
			c3.2-1,7.3-1.5,12.3-1.5c1.4,0,3.1,0.1,5,0.2c1.9,0.2,3.7,0.4,5.5,0.7c1.8,0.3,3.2,0.7,4.3,1.2l-1.6,9.9c-1.5-0.4-3.2-0.7-5.1-1
			c-1.9-0.3-3.7-0.5-5.4-0.6c-1.7-0.2-3.1-0.2-4.2-0.2c-3.7,0-6.4,0.5-8,1.4c-1.6,0.9-2.4,2.9-2.4,6v35.6c1.6,0.4,3.4,0.7,5.2,0.9
			c1.8,0.2,3.7,0.3,5.6,0.3c2.7,0,5.4-0.2,8.1-0.7c2.7-0.5,5.3-1.1,7.6-1.8L217.1,119.7z"/>
		<path class="st0" d="M247.2,121.9c-4.3,0-8-0.4-10.8-1.2c-2.9-0.8-5.2-2.2-6.9-4.1c-1.7-1.9-2.9-4.6-3.6-7.9
			c-0.7-3.3-1.1-7.5-1.1-12.5c0-5,0.4-9.1,1.1-12.5c0.7-3.3,1.9-5.9,3.6-7.9c1.7-1.9,4-3.3,6.9-4.1c2.9-0.8,6.5-1.2,10.8-1.2
			c4.4,0,8,0.4,10.9,1.2c2.9,0.8,5.2,2.2,6.8,4.1c1.7,1.9,2.9,4.6,3.6,7.8c0.7,3.3,1.1,7.5,1.1,12.5c0,5-0.4,9.1-1.1,12.5
			c-0.7,3.3-1.9,5.9-3.6,7.9c-1.7,1.9-4,3.3-6.9,4.1C255.2,121.5,251.5,121.9,247.2,121.9z M237.5,112.3h14.9c1.8,0,3-0.2,3.6-0.5
			c0.6-0.4,0.9-1,0.9-2V80h-14.9c-1.8,0-3,0.2-3.6,0.5c-0.6,0.4-0.9,1-0.9,2V112.3z"/>
		<path class="st0" d="M282.9,120.8V71.5h5.7l3.3,4.9c2.6-2,5.4-3.5,8.4-4.5c3-1,6.4-1.5,10.2-1.5c4.6,0,8.1,0.8,10.5,2.3
			c2.4,1.5,3.6,3.8,3.6,6.8v41.3h-12.1V80.4h-10.2c-2.8,0-4.7,0.3-5.7,1c-1.1,0.7-1.6,2-1.6,4v35.4H282.9z"/>
		<path class="st0" d="M336.3,79.7v-8.2h26.9v8.2H336.3z M351.3,121.9c-2.9,0-5-0.7-6.4-2c-1.4-1.3-2.1-3.4-2.1-6.2V61.6l12-3.1
			v53.4c1,0.1,2,0.2,3,0.3c1,0.1,2.3,0.2,3.8,0.2l-0.7,8.2c-2.1,0.4-3.9,0.7-5.5,0.9C353.8,121.8,352.4,121.9,351.3,121.9z"/>
		<path class="st0" d="M380.9,71.5l3.9,7.5c2.7-2.6,5.1-4.5,7.3-5.9c2.2-1.4,4.3-2.4,6.4-3.1l1.1,11.8c-1.3,0.3-2.8,0.8-4.3,1.4
			c-1.6,0.6-3.1,1.3-4.5,2.1c-1.4,0.8-2.6,1.5-3.6,2.3v33.1h-12.1V71.5H380.9z"/>
		<path class="st0" d="M421.1,121.9c-5.5,0-9.5-1.2-11.9-3.5c-2.4-2.4-3.6-6.2-3.6-11.6c0-3.4,0.4-6.1,1.1-8.1
			c0.7-2.1,2.1-3.7,4-4.8c2-1.1,4.8-1.9,8.5-2.3c3.7-0.4,8.5-0.6,14.4-0.6h4.8V98h-14c-3,0-5,0.4-6.1,1.1c-1.1,0.8-1.7,2.2-1.7,4.3
			v9.6h11.1c3,0,5-0.4,6.1-1.1c1.1-0.7,1.6-2.1,1.6-4.2v-27c-2.1-0.7-5-1-8.8-1c-2.7,0-5.5,0.2-8.4,0.6c-2.9,0.4-5.9,1-8.9,1.9
			l-1.6-8.7c1.8-0.7,3.9-1.2,6.2-1.7c2.3-0.5,4.6-0.8,7.1-1c2.5-0.2,4.9-0.3,7.3-0.3c4.7,0,8.4,0.5,11.2,1.4c2.8,1,4.9,2.5,6.1,4.6
			c1.2,2.1,1.9,5,1.9,8.5v35.8h-5.8l-3.2-4.9c-2.4,2-5,3.5-7.8,4.5C427.9,121.4,424.7,121.9,421.1,121.9z"/>
		<path class="st0" d="M479.1,121.9c-3.6,0-6.6-0.4-9.1-1.2c-2.4-0.8-4.4-2.2-5.8-4.1c-1.4-1.9-2.4-4.6-3.1-7.9
			c-0.6-3.3-0.9-7.5-0.9-12.5c0-5,0.3-9.1,0.9-12.5c0.6-3.3,1.6-5.9,3.1-7.9c1.4-1.9,3.3-3.3,5.8-4.1c2.4-0.8,5.5-1.2,9.1-1.2
			c1.8,0,3.8,0.1,5.8,0.2c2,0.1,3.9,0.3,5.8,0.6c1.8,0.3,3.4,0.6,4.6,1l-1.3,8.9c-2.2-0.5-4.3-0.9-6.4-1.1c-2.1-0.2-4.2-0.3-6.5-0.3
			c-3,0-5.1,0.6-6.3,1.8s-1.8,3.3-1.8,6.3v23.8c2,0.7,5,1,8.9,1c2.2,0,4.3-0.2,6.3-0.6c2-0.4,4.3-1,6.9-1.9l1.2,8.7
			c-2.4,1-5,1.7-8,2.3C485.3,121.6,482.2,121.9,479.1,121.9z"/>
		<path class="st0" d="M503.8,79.7v-8.2h26.9v8.2H503.8z M518.8,121.9c-2.9,0-5-0.7-6.4-2c-1.4-1.3-2.1-3.4-2.1-6.2V61.6l12-3.1
			v53.4c1,0.1,2,0.2,3,0.3c1,0.1,2.3,0.2,3.8,0.2l-0.7,8.2c-2.1,0.4-3.9,0.7-5.5,0.9C521.4,121.8,520,121.9,518.8,121.9z"/>
		<path class="st0" d="M539.6,85.2c0-5.3,1.6-9.1,4.7-11.5c3.2-2.4,8-3.6,14.7-3.6c3.2,0,6.2,0.2,9.1,0.5c2.9,0.4,5.7,0.9,8.5,1.6
			l-1.6,8.7c-1.6-0.5-3.5-0.8-5.7-1.1c-2.1-0.3-4.2-0.4-6.3-0.4c-2,0-3.9,0.1-5.7,0.2c-1.8,0.2-3.4,0.4-4.8,0.6v9.8
			c5.5,0.7,9.9,1.5,13.4,2.3c3.4,0.8,6.1,1.8,8,3.1c1.9,1.2,3.2,2.7,4,4.5c0.8,1.8,1.1,4,1.1,6.7c0,3.7-0.7,6.7-2.2,9
			c-1.4,2.3-3.7,4-6.9,5.1s-7.4,1.6-12.6,1.6c-3.1,0-6.2-0.3-9.4-0.8c-3.2-0.5-6.3-1.2-9.4-2.2l1.8-9.4c5,2,10.4,3,16.2,3
			c1.7,0,3.3-0.1,4.7-0.2c1.4-0.2,3.1-0.5,5-0.9v-9.9c-5.8-0.8-10.4-1.6-13.9-2.3c-3.5-0.8-6.2-1.7-8-2.9c-1.8-1.2-3-2.7-3.7-4.5
			C539.9,90.3,539.6,88,539.6,85.2z"/>
		<path class="st0" d="M617,84.2c0.2-5.1,0.7-9.4,1.6-12.8c0.9-3.4,2.1-6.1,3.8-8.1c1.7-2,4-3.4,6.8-4.3c2.9-0.9,6.4-1.3,10.6-1.3
			c1.7,0,3.5,0.1,5.4,0.3c1.9,0.2,3.7,0.5,5.4,0.8c1.7,0.3,3,0.7,4,1.1l-1.6,9.9c-1.2-0.4-2.6-0.7-4.3-1c-1.7-0.3-3.4-0.5-5.1-0.6
			c-1.7-0.2-3.3-0.2-4.7-0.2c-3.5,0-6,0.5-7.2,1.6c-1.3,1.1-1.9,3-1.9,5.8v12.5l-3.9,6.1V106c0,5.4,2.9,8.1,8.6,8.1
			c2.8,0,5.3-0.2,7.7-0.6c2.4-0.4,5.1-1.1,8-2l1.4,5.8c-3.7,1.2-6.9,2.3-9.6,3c-2.7,0.8-5,1.3-7,1.6c-2,0.3-4.1,0.4-6.2,0.4
			c-5.4,0-9.4-1.5-11.9-4.4s-3.8-7.6-3.8-14c0-10.1,3.4-15.8,10.1-17.3v-0.4L617,84.2z M624.5,94.8l4.1-9.3h35.5l-1.5,9.3H624.5z
			 M645.3,93.9h12v37.3l-6.8,0.8L645.3,93.9z"/>
		<path class="st0" d="M691.9,59.2H704l7.7,50.3h0.9l11.3-50.3h9.7l-13.2,61.6h-18.6L691.9,59.2z M768.8,59.2l-9.9,61.6h-18.5
			l-13.2-61.6h9.6l11.3,50.3h0.9l7.7-50.3H768.8z"/>
		<path class="st0" d="M785.4,63.9c-2.8,0-4.6-0.5-5.6-1.4c-1-1-1.5-2.8-1.5-5.5c0-2.8,0.5-4.6,1.5-5.6c1-1,2.9-1.5,5.6-1.5
			c2.7,0,4.5,0.5,5.5,1.5c1,1,1.5,2.9,1.5,5.6c0,2.7-0.5,4.5-1.4,5.5C790,63.5,788.1,63.9,785.4,63.9z M779.3,72.6l12.1-1.7v49.9
			h-12.1V72.6z"/>
		<path class="st0" d="M819.1,111.9c0.7,0.1,1.4,0.2,2.2,0.3c0.8,0.1,1.6,0.2,2.4,0.2l-0.7,8.2c-1.4,0.4-2.8,0.7-4,0.9
			c-1.2,0.2-2.4,0.3-3.5,0.3c-2.9,0-5-0.7-6.5-2c-1.4-1.3-2.1-3.4-2.1-6.2v-57l12.1-1.5V111.9z"/>
		<path class="st0" d="M846.7,111.9c0.7,0.1,1.4,0.2,2.2,0.3c0.8,0.1,1.6,0.2,2.4,0.2l-0.7,8.2c-1.4,0.4-2.8,0.7-4,0.9
			c-1.2,0.2-2.4,0.3-3.5,0.3c-2.9,0-5-0.7-6.5-2c-1.4-1.3-2.1-3.4-2.1-6.2v-57l12.1-1.5V111.9z"/>
		<path class="st0" d="M859.5,85.2c0-5.3,1.6-9.1,4.7-11.5c3.2-2.4,8-3.6,14.7-3.6c3.2,0,6.2,0.2,9.1,0.5c2.9,0.4,5.7,0.9,8.5,1.6
			l-1.6,8.7c-1.6-0.5-3.5-0.8-5.7-1.1c-2.1-0.3-4.2-0.4-6.3-0.4c-2,0-3.9,0.1-5.7,0.2c-1.8,0.2-3.4,0.4-4.8,0.6v9.8
			c5.5,0.7,9.9,1.5,13.4,2.3c3.4,0.8,6.1,1.8,8,3.1c1.9,1.2,3.2,2.7,4,4.5c0.8,1.8,1.1,4,1.1,6.7c0,3.7-0.7,6.7-2.2,9
			c-1.4,2.3-3.7,4-6.9,5.1s-7.4,1.6-12.6,1.6c-3.1,0-6.2-0.3-9.4-0.8c-3.2-0.5-6.3-1.2-9.4-2.2l1.8-9.4c5,2,10.4,3,16.2,3
			c1.7,0,3.3-0.1,4.7-0.2c1.4-0.2,3.1-0.5,5-0.9v-9.9c-5.8-0.8-10.4-1.6-13.9-2.3c-3.5-0.8-6.2-1.7-8-2.9c-1.8-1.2-3-2.7-3.7-4.5
			C859.8,90.3,859.5,88,859.5,85.2z"/>
		<path class="st0" d="M934.4,59.2h23.3c5.2,0,9.4,0.4,12.7,1.3c3.3,0.9,5.8,2.4,7.7,4.7c1.8,2.3,3.1,5.4,3.8,9.4
			c0.7,4,1.1,9.1,1.1,15.5c0,6.3-0.4,11.5-1.1,15.5c-0.7,4-2,7.1-3.8,9.4c-1.8,2.2-4.4,3.8-7.7,4.6c-3.3,0.9-7.5,1.3-12.7,1.3h-23.3
			V59.2z M946.5,69.1V111h15.8c2.9,0,4.9-0.5,6-1.5c1.1-1,1.7-2.8,1.7-5.4V76c0-2.6-0.6-4.4-1.7-5.4c-1.1-1-3.1-1.5-6-1.5H946.5z"/>
		<path class="st0" d="M1002.4,71.5l3.9,7.5c2.7-2.6,5.1-4.5,7.3-5.9c2.2-1.4,4.3-2.4,6.4-3.1l1.1,11.8c-1.3,0.3-2.8,0.8-4.3,1.4
			c-1.6,0.6-3.1,1.3-4.5,2.1c-1.4,0.8-2.6,1.5-3.6,2.3v33.1h-12.1V71.5H1002.4z"/>
		<path class="st0" d="M1042.6,121.9c-5.5,0-9.5-1.2-11.9-3.5c-2.4-2.4-3.6-6.2-3.6-11.6c0-3.4,0.4-6.1,1.1-8.1
			c0.7-2.1,2.1-3.7,4-4.8c2-1.1,4.8-1.9,8.5-2.3c3.7-0.4,8.5-0.6,14.4-0.6h4.8V98h-14c-3,0-5,0.4-6.1,1.1c-1.1,0.8-1.7,2.2-1.7,4.3
			v9.6h11.1c3,0,5-0.4,6.1-1.1c1.1-0.7,1.6-2.1,1.6-4.2v-27c-2.1-0.7-5-1-8.8-1c-2.7,0-5.5,0.2-8.4,0.6c-2.9,0.4-5.9,1-8.9,1.9
			l-1.6-8.7c1.8-0.7,3.9-1.2,6.2-1.7c2.3-0.5,4.6-0.8,7.1-1c2.5-0.2,4.9-0.3,7.3-0.3c4.7,0,8.4,0.5,11.2,1.4c2.8,1,4.9,2.5,6.1,4.6
			c1.2,2.1,1.9,5,1.9,8.5v35.8h-5.8l-3.2-4.9c-2.4,2-5,3.5-7.8,4.5C1049.3,121.4,1046.1,121.9,1042.6,121.9z"/>
		<path class="st0" d="M1106.9,71.5v8.2h-26v-8.2H1106.9z M1099.6,120.8h-12.1V72c0.3-4.5,0.8-8.1,1.7-10.7c0.9-2.6,2.2-4.4,4.1-5.5
			c1.9-1.1,4.4-1.6,7.5-1.6c1.5,0,3.1,0.1,4.6,0.2c1.6,0.2,3.2,0.4,4.8,0.7l-0.7,8.2l-10-0.9V120.8z"/>
		<path class="st0" d="M1114.1,79.7v-8.2h26.9v8.2H1114.1z M1129.1,121.9c-2.9,0-5-0.7-6.4-2c-1.4-1.3-2.1-3.4-2.1-6.2V61.6l12-3.1
			v53.4c1,0.1,2,0.2,3,0.3c1,0.1,2.3,0.2,3.8,0.2l-0.7,8.2c-2.1,0.4-3.9,0.7-5.5,0.9C1131.7,121.8,1130.3,121.9,1129.1,121.9z"/>
		<path class="st0" d="M1159.1,63.9c-2.8,0-4.6-0.5-5.6-1.4c-1-1-1.5-2.8-1.5-5.5c0-2.8,0.5-4.6,1.5-5.6c1-1,2.9-1.5,5.6-1.5
			c2.7,0,4.5,0.5,5.5,1.5c1,1,1.5,2.9,1.5,5.6c0,2.7-0.5,4.5-1.4,5.5C1163.7,63.5,1161.8,63.9,1159.1,63.9z M1153,72.6l12.1-1.7
			v49.9H1153V72.6z"/>
		<path class="st0" d="M1181.1,120.8V71.5h5.7l3.3,4.9c2.6-2,5.4-3.5,8.4-4.5c3-1,6.4-1.5,10.2-1.5c4.6,0,8.1,0.8,10.5,2.3
			c2.4,1.5,3.6,3.8,3.6,6.8v41.3h-12.1V80.4h-10.2c-2.8,0-4.7,0.3-5.7,1c-1.1,0.7-1.6,2-1.6,4v35.4H1181.1z"/>
		<path class="st0" d="M1254.6,106.5c-5,0-9-0.6-12-1.8c-3-1.2-5.1-3.1-6.5-5.7c-1.3-2.6-2-6.2-2-10.7c0-4.5,0.7-8,2-10.7
			c1.3-2.7,3.5-4.6,6.5-5.8c3-1.2,7-1.8,12-1.8c5.1,0,9.1,0.6,12,1.8s5.1,3.1,6.4,5.7c1.3,2.6,2,6.2,2,10.7c0,4.5-0.6,8-1.9,10.7
			c-1.3,2.7-3.4,4.6-6.4,5.8C1263.7,105.9,1259.6,106.5,1254.6,106.5z M1275.6,124.3c0,3.1-0.7,5.6-2,7.5c-1.3,1.9-3.5,3.3-6.5,4.2
			c-3,0.9-6.9,1.3-11.8,1.3c-3.7,0-7.3-0.3-10.8-0.8c-3.5-0.5-6.7-1.3-9.4-2.3l1.5-8.9c3.3,0.9,6.2,1.5,8.7,1.9
			c2.5,0.4,5.1,0.6,7.7,0.6c2.4,0,4.5-0.1,6.4-0.2c1.8-0.2,3.6-0.4,5.4-0.7v-6.4c-6.6-0.5-11.3-1-14-1.7c-2.8-0.7-4.2-1.6-4.2-2.8
			l3.2-11.2l7.8,0.1l-0.6,7.6c3.9,0.5,7,1.1,9.5,1.6c2.5,0.5,4.4,1.2,5.7,2.1c1.3,0.9,2.2,1.9,2.8,3.3
			C1275.3,120.6,1275.6,122.3,1275.6,124.3z M1246,99.1h10.8c2.4,0,4-0.4,4.9-1.2c0.9-0.8,1.4-2.2,1.4-4.2V77.3h-10.8
			c-2.4,0-4,0.4-4.9,1.2c-0.9,0.8-1.4,2.2-1.4,4.2V99.1z M1271.1,81.1l-6.8-8.6l8.8-6.7l5.9,5.8L1271.1,81.1z"/>
	</g>
</g>
<g>
	<path class="st0" d="M49.1,137.9h-1.6c-0.6,0-1,0.4-1,1c0,0.6,0.4,1,1,1h1.6c0.6,0,1-0.4,1-1C50.1,138.3,49.7,137.9,49.1,137.9z
		 M143.5,137.9h-2.6c-0.6,0-1,0.4-1,1c0,0.6,0.4,1,1,1h2.6c0.6,0,1-0.4,1-1C144.5,138.3,144,137.9,143.5,137.9z M62.1,49.8
		c0.4,0,0.8,0.1,1.2,0.2c0.4,0.1,0.8,0.4,1.1,0.7l0.5-1.1c-0.3-0.3-0.8-0.6-1.3-0.8s-1-0.3-1.6-0.3c-0.8,0-1.6,0.2-2.2,0.5
		c-0.6,0.4-1.1,0.9-1.4,1.5c-0.3,0.7-0.5,1.4-0.5,2.3c0,0.9,0.2,1.7,0.5,2.3c0.3,0.7,0.8,1.2,1.4,1.5c0.6,0.4,1.4,0.5,2.2,0.5
		c0.6,0,1.1-0.1,1.6-0.3c0.5-0.2,0.9-0.4,1.3-0.8l-0.5-0.8c-0.4,0.3-0.8,0.5-1.1,0.7c-0.4,0.1-0.8,0.2-1.2,0.2
		c-0.8,0-1.5-0.3-1.9-0.8c-0.5-0.5-0.7-1.3-0.7-2.3s0.2-1.8,0.7-2.3C60.6,50.1,61.3,49.8,62.1,49.8z M67.3,56.9
		c0.5,0.3,1,0.4,1.6,0.4c0.6,0,1.1-0.1,1.6-0.4s0.8-0.6,1.1-1.1c0.3-0.5,0.4-1,0.4-1.7s-0.1-1.2-0.4-1.7c-0.3-0.5-0.6-0.8-1.1-1.1
		s-1-0.4-1.6-0.4c-0.6,0-1.2,0.1-1.6,0.4c-0.5,0.3-0.8,0.6-1.1,1.1s-0.4,1-0.4,1.7s0.1,1.2,0.4,1.7S66.8,56.7,67.3,56.9z M67.8,52.7
		c0.3-0.3,0.7-0.5,1.2-0.5s0.9,0.2,1.1,0.5c0.3,0.3,0.4,0.8,0.4,1.5c0,0.7-0.1,1.1-0.4,1.5c-0.3,0.3-0.7,0.5-1.2,0.5
		S68,56,67.7,55.7c-0.3-0.3-0.4-0.8-0.4-1.5C67.4,53.5,67.5,53,67.8,52.7z M78.9,57.2v-3.7c0-1.7-0.7-2.5-2.2-2.5
		c-0.4,0-0.9,0.1-1.2,0.3c-0.4,0.2-0.6,0.5-0.9,0.9l-0.1-1h-1.4c0.1,0.5,0.1,1.1,0.1,1.7v4.3h1.5v-3.4c0-0.5,0.1-0.9,0.4-1.2
		c0.3-0.3,0.7-0.4,1.1-0.4s0.7,0.1,0.8,0.3c0.2,0.2,0.3,0.6,0.3,1v3.7H78.9z M80.9,49.7v1.5h-1.2v1.1h1.2v2.8c0,0.7,0.2,1.3,0.5,1.7
		c0.3,0.4,0.9,0.6,1.6,0.6c0.4,0,0.7,0,1-0.1v-1.2c-0.2,0.1-0.4,0.1-0.6,0.1c-0.7,0-1-0.4-1-1.1v-2.7H84v-1.2h-1.6v-2L80.9,49.7z
		 M86.6,57.2v-3.3c0-0.5,0.1-0.9,0.4-1.2c0.3-0.3,0.7-0.4,1.2-0.4c0.3,0,0.5,0,0.8,0.2v-1.4C88.8,51,88.6,51,88.4,51
		c-0.4,0-0.8,0.1-1.1,0.3c-0.3,0.2-0.7,0.6-0.8,0.9l-0.1-1H85c0.1,0.5,0.1,1.1,0.1,1.7v4.3H86.6z M95.4,57.2v-6h-1.5v0.9
		c-0.2-0.3-0.4-0.6-0.8-0.8c-0.3-0.2-0.7-0.3-1.2-0.3s-1,0.1-1.4,0.4s-0.7,0.6-1,1.1c-0.2,0.5-0.3,1-0.3,1.7c0,0.6,0.1,1.2,0.3,1.6
		c0.2,0.5,0.5,0.8,1,1.1c0.4,0.3,0.9,0.4,1.4,0.4c0.4,0,0.8-0.1,1.2-0.3c0.3-0.2,0.6-0.5,0.8-0.8v1H95.4z M93.6,55.6
		c-0.3,0.3-0.7,0.5-1.2,0.5s-0.9-0.2-1.2-0.5c-0.3-0.3-0.4-0.8-0.4-1.4c0-0.6,0.1-1.1,0.4-1.5c0.3-0.4,0.7-0.5,1.2-0.5
		s0.9,0.2,1.2,0.5c0.3,0.3,0.4,0.8,0.4,1.5C94,54.9,93.8,55.3,93.6,55.6z M100,52.2c0.3,0,0.6,0.1,0.9,0.2c0.3,0.1,0.6,0.3,0.8,0.5
		l0.4-1.1c-0.2-0.2-0.6-0.4-1-0.6c-0.4-0.1-0.8-0.2-1.3-0.2c-0.6,0-1.2,0.1-1.6,0.4c-0.5,0.3-0.8,0.6-1.1,1.1
		c-0.3,0.5-0.4,1-0.4,1.7s0.1,1.2,0.4,1.7c0.3,0.5,0.6,0.8,1.1,1.1s1,0.4,1.6,0.4c0.5,0,0.9-0.1,1.3-0.2c0.4-0.1,0.7-0.3,1-0.6
		l-0.4-1.1c-0.3,0.2-0.5,0.4-0.8,0.5c-0.3,0.1-0.6,0.2-0.9,0.2c-0.5,0-1-0.2-1.3-0.5c-0.3-0.3-0.5-0.8-0.5-1.5
		c0-0.6,0.2-1.1,0.5-1.5C99,52.4,99.5,52.2,100,52.2z M103.6,49.7v1.5h-1.2v1.1h1.2v2.8c0,0.7,0.2,1.3,0.5,1.7
		c0.4,0.4,0.9,0.6,1.6,0.6c0.4,0,0.7,0,1-0.1v-1.2c-0.2,0.1-0.4,0.1-0.6,0.1c-0.7,0-1-0.4-1-1.1v-2.7h1.6v-1.2h-1.6v-2L103.6,49.7z
		 M54.3,64.2c0,0.6,0.4,1,1,1h55c0.6,0,1-0.4,1-1c0-0.6-0.4-1-1-1h-55C54.7,63.2,54.3,63.7,54.3,64.2z M55.3,73.4h55
		c0.6,0,1-0.4,1-1s-0.4-1-1-1h-55c-0.6,0-1,0.4-1,1S54.7,73.4,55.3,73.4z M55.3,81.6h55c0.6,0,1-0.4,1-1s-0.4-1-1-1h-55
		c-0.6,0-1,0.4-1,1S54.7,81.6,55.3,81.6z M55.3,89.7h55c0.6,0,1-0.4,1-1s-0.4-1-1-1h-55c-0.6,0-1,0.4-1,1S54.7,89.7,55.3,89.7z
		 M55.3,97.9h55c0.6,0,1-0.4,1-1s-0.4-1-1-1h-55c-0.6,0-1,0.4-1,1S54.7,97.9,55.3,97.9z"/>
	<path class="st0" d="M137.1,137.9l2.3-0.4c1.3-0.2,2.1-1.6,1.7-2.9c-0.2-0.7-0.5-1.6-0.8-2.4c-0.4-1.3-0.7-2.4-1-3
		c-0.6-1.4-0.8-2-1.3-3.4c-0.2-0.5-0.7-0.8-1.3-0.7c-0.5,0.2-0.8,0.7-0.7,1.3c0.5,1.5,0.7,2.1,1.3,3.6c0.2,0.5,0.6,1.7,0.9,2.8
		c0.3,0.9,0.5,1.8,0.8,2.5c0,0.1,0,0.2,0,0.2c0,0.1-0.1,0.1-0.2,0.1l-10.5,2c-0.1,0-0.3-0.1-0.3-0.2l-1.8-8.2
		c-0.5-1.5-1.2-2.8-2.1-3.8c-0.7-0.7-1.5-1.3-2.3-1.8c-0.7-0.4-1.3-0.8-1.7-1.4l-2.7-3.7l0,0c-2.6-3.6-8.4-11.5-8.5-11.6
		c-0.6-0.9-1.5-2.9-1-4c0.7-0.6,1.8-0.4,2.6,0c1.7,0.8,5.7,5.2,5.6,5.1c0.5,0.3,1.8,2.4,3.9,2.6h0.1c1.6,0.1,2.9-0.5,3.7-1.8l0,0
		c0.2-0.4,0.3-0.8,0.3-1.2l5.8-4.8c1.2,0.7,2,1.8,2.3,3.1c0.6,1.9,1,4.5,1.4,8.1c0.3,2.9,0.8,5.7,1.5,8.4c0.1,0.5,0.7,0.9,1.2,0.7
		c0.5-0.1,0.9-0.7,0.7-1.2c-0.7-2.6-1.2-5.4-1.5-8.2c-0.4-3.7-0.9-6.4-1.5-8.4c-0.5-1.5-1.4-2.9-2.7-3.8l10.5-8.8
		c1.5-1.3,1.7-3.6,0.3-5.1c-1.3-1.4-3.4-1.5-4.8-0.3l-12.6,11c-2.3-0.9-4.8-1.5-7.2-1.6h-0.1l0,0V46c0-1.9-1.6-3.5-3.5-3.5H51.7
		c-1.9,0-3.5,1.6-3.5,3.5v3.8c0,0.6,0.4,1,1,1s1-0.4,1-1V46c0-0.8,0.7-1.5,1.5-1.5h62.2c0.8,0,1.5,0.7,1.5,1.5v51.1
		c-2.2,0.7-4.2,1.8-5.9,3.5c-0.2,0-0.5,0-0.7,0c-1.5,0.1-2.4,1-2.5,1.1l-0.1,0.1c-0.4,0.6-0.5,1.4-0.5,2.1H55.3c-0.5,0-1,0.5-1,1
		c0,0.6,0.5,1,1,1h50.5c-0.4,0.7-0.7,1.5-1,2.3c-0.1,0.3-0.8,1.7-0.8,3.2c0,1.1,0.5,2.1,1.5,2.7c0.1,0.1,0.3,0.1,0.4,0.2l-2.4,1.9
		l0,0l-0.1,0.1c0,0.1-0.1,0.1-0.1,0.2l0,0l-2.1,4.5h-8.4c-0.6,0-1,0.4-1,1s0.4,1,1,1h15c0.6,0,1-0.4,1-1c0-0.5-0.4-0.9-0.9-1l0,0
		l0,0l0.1-0.1h0.1c0.1,0,0.2-0.1,0.3-0.1c0,0,0.1,0,0.1-0.1l4.9-4.2l0,0l1.9,2.5c0,0.2,0,7.7,0,7.6c0,0.8-0.7,1.5-1.5,1.5H51.7
		c-0.8,0-1.5-0.7-1.5-1.5V54.1c0-0.6-0.5-1-1-1c-0.6,0-1,0.4-1,1v72.8c0,1.9,1.6,3.5,3.5,3.5h62.2c1.9,0,3.5-1.6,3.5-3.5V122l1,1.4
		c0.1,0.1,0.7,1.2,2.5,2.1c0.7,0.3,1.3,0.8,1.8,1.3c0.7,0.8,1.3,1.8,1.6,3l2.1,8v0.1h-73c-0.6,0-1,0.4-1,1c0,0.6,0.4,1,1,1H137
		c0.6,0,1-0.4,1-1C138,138.4,137.6,138,137.1,137.9L137.1,137.9L137.1,137.9z M117.3,104l0.3,0.2l-0.3,0.3V104z M138.8,88.9
		c0.6-0.5,1.5-0.5,2.1,0.1c0.6,0.6,0.5,1.6-0.1,2.2c-34.6,29.1,6.5-5.5-20.8,17.5c-0.9-0.2-1.3-0.9-2.3-1.8
		C117.7,106.8,134.6,92.5,138.8,88.9z M117.5,98.6c1.6,0.1,3.4,0.5,5.4,1.1l-3.7,3.2l-0.6-0.5c-1.2-0.9-2.9-0.8-3.9,0.4l-0.6,0.7
		c-0.3-0.3-0.9-1-2.5-2.1C113.3,100,115.2,99.1,117.5,98.6z M108.7,110.2c-0.1,0.3-0.3,0.5-0.4,0.8c-0.2,0.6-0.6,1.1-1,1.3
		c-0.6,0.4-1.5-0.1-1.5-0.9c0-1.1,0.6-2.4,0.7-2.4v-0.1c0.2-0.4,0.3-0.8,0.5-1.2c0.1,0.1,0.1,0.2,0.2,0.2L108.7,110.2z M104.5,118.6
		l1.3,1.1l-2.1,0.7L104.5,118.6z M107.9,118.8l-2.2-1.8l4.9-4.2l1.5,2.1l0.1,0.2L107.9,118.8z"/>
</g>
</svg>
