<?xml version="1.0" encoding="utf-8"?>
<!-- Generator: Adobe Illustrator 28.2.0, SVG Export Plug-In . SVG Version: 6.00 Build 0)  -->
<svg version="1.1" id="Layer_1" xmlns="http://www.w3.org/2000/svg" xmlns:xlink="http://www.w3.org/1999/xlink" x="0px" y="0px"
	 viewBox="0 0 1978.9 171.1" style="enable-background:new 0 0 1978.9 171.1;" xml:space="preserve">
<style type="text/css">
	.st0{fill:#C3AA8B;}
	.st1{fill:#242A48;}
</style>
<g>
	<g>
		<path class="st0" d="M168.8,59.2h12.1v61.6h-12.1V59.2z"/>
		<path class="st0" d="M196.9,120.8V71.5h5.7l3.3,4.9c2.6-2,5.4-3.5,8.4-4.5c3-1,6.4-1.5,10.2-1.5c4.6,0,8.1,0.8,10.5,2.3
			c2.4,1.5,3.6,3.8,3.6,6.8v41.3h-12.1V80.4h-10.2c-2.8,0-4.7,0.3-5.7,1c-1.1,0.7-1.6,2-1.6,4v35.4H196.9z"/>
		<path class="st0" d="M270.1,121.9c-3.6,0-6.6-0.4-9.1-1.2c-2.4-0.8-4.4-2.2-5.8-4.1c-1.4-1.9-2.4-4.6-3.1-7.9
			c-0.6-3.3-0.9-7.5-0.9-12.5c0-5,0.3-9.1,0.9-12.5c0.6-3.3,1.6-5.9,3.1-7.9c1.4-1.9,3.3-3.3,5.8-4.1c2.4-0.8,5.5-1.2,9.1-1.2
			c1.8,0,3.8,0.1,5.8,0.2c2,0.1,3.9,0.3,5.8,0.6c1.8,0.3,3.4,0.6,4.6,1l-1.3,8.9c-2.2-0.5-4.3-0.9-6.4-1.1c-2.1-0.2-4.2-0.3-6.5-0.3
			c-3,0-5.1,0.6-6.3,1.8s-1.8,3.3-1.8,6.3v23.8c2,0.7,5,1,8.9,1c2.2,0,4.3-0.2,6.3-0.6c2-0.4,4.3-1,6.9-1.9l1.2,8.7
			c-2.4,1-5,1.7-8,2.3C276.3,121.6,273.3,121.9,270.1,121.9z"/>
		<path class="st0" d="M318.3,121.9c-4.3,0-8-0.4-10.8-1.2c-2.9-0.8-5.2-2.2-6.9-4.1c-1.7-1.9-2.9-4.6-3.6-7.9
			c-0.7-3.3-1.1-7.5-1.1-12.5c0-5,0.4-9.1,1.1-12.5c0.7-3.3,1.9-5.9,3.6-7.9c1.7-1.9,4-3.3,6.9-4.1c2.9-0.8,6.5-1.2,10.8-1.2
			c4.4,0,8,0.4,10.9,1.2c2.9,0.8,5.2,2.2,6.8,4.1c1.7,1.9,2.9,4.6,3.6,7.8c0.7,3.3,1.1,7.5,1.1,12.5c0,5-0.4,9.1-1.1,12.5
			c-0.7,3.3-1.9,5.9-3.6,7.9c-1.7,1.9-4,3.3-6.9,4.1C326.3,121.5,322.6,121.9,318.3,121.9z M308.6,112.3h14.9c1.8,0,3-0.2,3.6-0.5
			c0.6-0.4,0.9-1,0.9-2V80h-14.9c-1.8,0-3,0.2-3.6,0.5c-0.6,0.4-0.9,1-0.9,2V112.3z"/>
		<path class="st0" d="M359.8,71.5l3.9,7.5c2.7-2.6,5.1-4.5,7.3-5.9c2.2-1.4,4.3-2.4,6.4-3.1l1.1,11.8c-1.3,0.3-2.8,0.8-4.3,1.4
			c-1.6,0.6-3.1,1.3-4.5,2.1c-1.4,0.8-2.6,1.5-3.6,2.3v33.1H354V71.5H359.8z"/>
		<path class="st0" d="M387.7,138V71.5h5.7l6.4,10.6v54.6L387.7,138z M412.6,122.3c-4.1,0-7.4-0.4-10.1-1.2c-2.7-0.8-4.7-2.1-6.2-4
			c-1.5-1.9-2.5-4.5-3.2-7.9c-0.6-3.4-0.9-7.7-0.9-13c0-5.3,0.3-9.5,0.9-12.9c0.6-3.3,1.7-5.9,3.2-7.8c1.5-1.9,3.5-3.2,6.2-3.9
			c2.7-0.8,6-1.1,10.1-1.1c3.6,0,6.6,0.4,9,1.2c2.4,0.8,4.3,2.2,5.7,4.1c1.4,1.9,2.4,4.6,3,7.8c0.6,3.3,0.9,7.5,0.9,12.5
			c0,5.1-0.3,9.3-0.9,12.7c-0.6,3.4-1.6,6-3,8c-1.4,1.9-3.3,3.3-5.7,4.2C419.1,121.9,416.2,122.3,412.6,122.3z M399.8,112.6h14.1
			c1.7,0,2.9-0.2,3.5-0.5c0.6-0.3,0.9-1,0.9-2V80h-14.2c-1.6,0-2.8,0.2-3.4,0.5c-0.6,0.3-0.9,0.9-0.9,1.7V112.6z"/>
		<path class="st0" d="M464.1,121.9c-4.3,0-8-0.4-10.8-1.2c-2.9-0.8-5.2-2.2-6.9-4.1c-1.7-1.9-2.9-4.6-3.6-7.9
			c-0.7-3.3-1.1-7.5-1.1-12.5c0-5,0.4-9.1,1.1-12.5c0.7-3.3,1.9-5.9,3.6-7.9c1.7-1.9,4-3.3,6.9-4.1c2.9-0.8,6.5-1.2,10.8-1.2
			c4.4,0,8,0.4,10.9,1.2c2.9,0.8,5.2,2.2,6.8,4.1c1.7,1.9,2.9,4.6,3.6,7.8c0.7,3.3,1.1,7.5,1.1,12.5c0,5-0.4,9.1-1.1,12.5
			c-0.7,3.3-1.9,5.9-3.6,7.9c-1.7,1.9-4,3.3-6.9,4.1C472,121.5,468.4,121.9,464.1,121.9z M454.4,112.3h14.9c1.8,0,3-0.2,3.6-0.5
			c0.6-0.4,0.9-1,0.9-2V80h-14.9c-1.8,0-3,0.2-3.6,0.5c-0.6,0.4-0.9,1-0.9,2V112.3z"/>
		<path class="st0" d="M505.5,71.5l3.9,7.5c2.7-2.6,5.1-4.5,7.3-5.9c2.2-1.4,4.3-2.4,6.4-3.1l1.1,11.8c-1.3,0.3-2.8,0.8-4.3,1.4
			c-1.6,0.6-3.1,1.3-4.5,2.1c-1.4,0.8-2.6,1.5-3.6,2.3v33.1h-12.1V71.5H505.5z"/>
		<path class="st0" d="M545.8,121.9c-5.5,0-9.5-1.2-11.9-3.5c-2.4-2.4-3.6-6.2-3.6-11.6c0-3.4,0.4-6.1,1.1-8.1
			c0.7-2.1,2.1-3.7,4-4.8c2-1.1,4.8-1.9,8.5-2.3c3.7-0.4,8.5-0.6,14.4-0.6h4.8V98h-14c-3,0-5,0.4-6.1,1.1c-1.1,0.8-1.7,2.2-1.7,4.3
			v9.6h11.1c3,0,5-0.4,6.1-1.1c1.1-0.7,1.6-2.1,1.6-4.2v-27c-2.1-0.7-5-1-8.8-1c-2.7,0-5.5,0.2-8.4,0.6c-2.9,0.4-5.9,1-8.9,1.9
			l-1.6-8.7c1.8-0.7,3.9-1.2,6.2-1.7c2.3-0.5,4.6-0.8,7.1-1c2.5-0.2,4.9-0.3,7.3-0.3c4.7,0,8.4,0.5,11.2,1.4c2.8,1,4.9,2.5,6.1,4.6
			c1.2,2.1,1.9,5,1.9,8.5v35.8h-5.8l-3.2-4.9c-2.4,2-5,3.5-7.8,4.5C552.5,121.4,549.3,121.9,545.8,121.9z"/>
		<path class="st0" d="M583.9,79.7v-8.2h26.9v8.2H583.9z M598.9,121.9c-2.9,0-5-0.7-6.4-2c-1.4-1.3-2.1-3.4-2.1-6.2V61.6l12-3.1
			v53.4c1,0.1,2,0.2,3,0.3c1,0.1,2.3,0.2,3.8,0.2l-0.7,8.2c-2.1,0.4-3.9,0.7-5.5,0.9C601.4,121.8,600.1,121.9,598.9,121.9z"/>
		<path class="st0" d="M628.8,63.9c-2.8,0-4.6-0.5-5.6-1.4c-1-1-1.5-2.8-1.5-5.5c0-2.8,0.5-4.6,1.5-5.6c1-1,2.9-1.5,5.6-1.5
			c2.7,0,4.5,0.5,5.5,1.5c1,1,1.5,2.9,1.5,5.6c0,2.7-0.5,4.5-1.4,5.5C633.4,63.5,631.6,63.9,628.8,63.9z M622.7,72.6l12.1-1.7v49.9
			h-12.1V72.6z"/>
		<path class="st0" d="M670.5,121.9c-4.3,0-8-0.4-10.8-1.2c-2.9-0.8-5.2-2.2-6.9-4.1c-1.7-1.9-2.9-4.6-3.6-7.9
			c-0.7-3.3-1.1-7.5-1.1-12.5c0-5,0.4-9.1,1.1-12.5c0.7-3.3,1.9-5.9,3.6-7.9c1.7-1.9,4-3.3,6.9-4.1c2.9-0.8,6.5-1.2,10.8-1.2
			c4.4,0,8,0.4,10.9,1.2c2.9,0.8,5.2,2.2,6.8,4.1c1.7,1.9,2.9,4.6,3.6,7.8c0.7,3.3,1.1,7.5,1.1,12.5c0,5-0.4,9.1-1.1,12.5
			c-0.7,3.3-1.9,5.9-3.6,7.9c-1.7,1.9-4,3.3-6.9,4.1C678.5,121.5,674.9,121.9,670.5,121.9z M660.9,112.3h14.9c1.8,0,3-0.2,3.6-0.5
			c0.6-0.4,0.9-1,0.9-2V80h-14.9c-1.8,0-3,0.2-3.6,0.5c-0.6,0.4-0.9,1-0.9,2V112.3z"/>
		<path class="st0" d="M706.2,120.8V71.5h5.7l3.3,4.9c2.6-2,5.4-3.5,8.4-4.5c3-1,6.4-1.5,10.2-1.5c4.6,0,8.1,0.8,10.5,2.3
			c2.4,1.5,3.6,3.8,3.6,6.8v41.3h-12.1V80.4h-10.2c-2.8,0-4.7,0.3-5.7,1c-1.1,0.7-1.6,2-1.6,4v35.4H706.2z"/>
		<path class="st0" d="M789.4,84.2c0.2-5.1,0.7-9.4,1.6-12.8c0.9-3.4,2.1-6.1,3.8-8.1c1.7-2,4-3.4,6.8-4.3c2.9-0.9,6.4-1.3,10.6-1.3
			c1.7,0,3.5,0.1,5.4,0.3c1.9,0.2,3.7,0.5,5.4,0.8c1.7,0.3,3,0.7,4,1.1l-1.6,9.9c-1.2-0.4-2.6-0.7-4.3-1c-1.7-0.3-3.4-0.5-5.1-0.6
			c-1.7-0.2-3.3-0.2-4.7-0.2c-3.5,0-6,0.5-7.2,1.6c-1.3,1.1-1.9,3-1.9,5.8v12.5l-3.9,6.1V106c0,5.4,2.9,8.1,8.6,8.1
			c2.8,0,5.3-0.2,7.7-0.6c2.4-0.4,5.1-1.1,8-2l1.4,5.8c-3.7,1.2-6.9,2.3-9.6,3c-2.7,0.8-5,1.3-7,1.6c-2,0.3-4.1,0.4-6.2,0.4
			c-5.4,0-9.4-1.5-11.9-4.4s-3.8-7.6-3.8-14c0-10.1,3.4-15.8,10.1-17.3v-0.4L789.4,84.2z M797,94.8l4.1-9.3h35.5l-1.5,9.3H797z
			 M817.8,93.9h12v37.3l-6.8,0.8L817.8,93.9z"/>
		<path class="st0" d="M890.9,69.3v51.5h-12.1V69.3h-15.7V59.2h43.5v10.1H890.9z"/>
		<path class="st0" d="M921.6,71.5l3.9,7.5c2.7-2.6,5.1-4.5,7.3-5.9c2.2-1.4,4.3-2.4,6.4-3.1l1.1,11.8c-1.3,0.3-2.8,0.8-4.3,1.4
			c-1.6,0.6-3.1,1.3-4.5,2.1c-1.4,0.8-2.6,1.5-3.6,2.3v33.1h-12.1V71.5H921.6z"/>
		<path class="st0" d="M961.8,121.9c-5.5,0-9.5-1.2-11.9-3.5c-2.4-2.4-3.6-6.2-3.6-11.6c0-3.4,0.4-6.1,1.1-8.1
			c0.7-2.1,2.1-3.7,4-4.8c2-1.1,4.8-1.9,8.5-2.3c3.7-0.4,8.5-0.6,14.4-0.6h4.8V98h-14c-3,0-5,0.4-6.1,1.1c-1.1,0.8-1.7,2.2-1.7,4.3
			v9.6h11.1c3,0,5-0.4,6.1-1.1c1.1-0.7,1.6-2.1,1.6-4.2v-27c-2.1-0.7-5-1-8.8-1c-2.7,0-5.5,0.2-8.4,0.6c-2.9,0.4-5.9,1-8.9,1.9
			l-1.6-8.7c1.8-0.7,3.9-1.2,6.2-1.7c2.3-0.5,4.6-0.8,7.1-1c2.5-0.2,4.9-0.3,7.3-0.3c4.7,0,8.4,0.5,11.2,1.4c2.8,1,4.9,2.5,6.1,4.6
			c1.2,2.1,1.9,5,1.9,8.5v35.8h-5.8l-3.2-4.9c-2.4,2-5,3.5-7.8,4.5C968.6,121.4,965.4,121.9,961.8,121.9z"/>
		<path class="st0" d="M1019.5,70.4c4.1,0,7.5,0.4,10.2,1.1c2.6,0.8,4.7,2.1,6.2,4c1.5,1.9,2.5,4.5,3.2,7.8
			c0.6,3.3,0.9,7.6,0.9,12.8c0,5.3-0.3,9.6-0.9,13c-0.6,3.4-1.7,6.1-3.2,8c-1.5,1.9-3.5,3.2-6.2,4c-2.6,0.8-6,1.1-10.2,1.1
			c-3.6,0-6.6-0.4-9-1.3c-2.4-0.9-4.3-2.2-5.7-4.2c-1.4-1.9-2.4-4.6-3-8c-0.6-3.4-0.9-7.6-0.9-12.7c0-5,0.3-9.1,0.9-12.5
			c0.6-3.3,1.6-5.9,3-7.9c1.4-1.9,3.3-3.3,5.7-4.1C1013,70.9,1015.9,70.4,1019.5,70.4z M1032.3,80h-14.1c-1.7,0-2.9,0.2-3.5,0.5
			c-0.6,0.4-0.9,1-0.9,2v30.1h14.2c1.7,0,2.9-0.2,3.4-0.5c0.6-0.3,0.9-1,0.9-2V80z M1044.4,54.4v66.4h-5.7l-6.4-10.6V55.6
			L1044.4,54.4z"/>
		<path class="st0" d="M1078.3,121.9c-3.9,0-7.2-0.4-9.9-1.3c-2.7-0.9-4.8-2.2-6.4-4.2c-1.6-1.9-2.7-4.6-3.4-7.9
			c-0.7-3.3-1-7.4-1-12.4c0-6.4,0.7-11.4,2.1-15.2c1.4-3.8,3.7-6.5,6.9-8.1c3.3-1.6,7.6-2.4,13.1-2.4c5.3,0,9.5,0.4,12.4,1.3
			c3,0.9,5,2.4,6.3,4.6c1.2,2.2,1.8,5.3,1.8,9.2c0,3.4-0.4,6.1-1.2,8.1c-0.8,2.1-2.2,3.7-4.3,4.8c-2.1,1.1-5.1,1.9-9,2.3
			c-3.9,0.4-9,0.6-15.3,0.6h-3v-7.2h13.8c3.1,0,5.2-0.4,6.3-1.1c1.1-0.8,1.7-2.2,1.7-4.3v-9h-10.9c-3,0-5.1,0.4-6.2,1.1
			c-1.1,0.7-1.7,2.1-1.7,4.2v26.4c1.3,0.3,2.7,0.6,4.2,0.7c1.5,0.2,3.4,0.2,5.5,0.2c2.7,0,5.4-0.2,8-0.6s5.7-1,9.2-1.9l1.6,8.7
			c-2.7,1-5.8,1.7-9.4,2.3C1085.9,121.6,1082.2,121.9,1078.3,121.9z"/>
		<path class="st0" d="M1114.4,120.8V71.5h5.7l3.3,4.9c2.4-2,5.1-3.5,8-4.5c2.9-1,6.1-1.5,9.7-1.5c4.6,0,8.1,0.8,10.5,2.3
			c2.4,1.5,3.6,3.8,3.6,6.8v41.3h-12.1V80.4h-9.3c-2.8,0-4.7,0.3-5.7,1c-1.1,0.7-1.6,2-1.6,4v35.4H1114.4z M1143.1,120.8V71.5
			l8.9,4.9c2.4-2,5.1-3.5,8-4.5c2.9-1,6.1-1.5,9.7-1.5c4.6,0,8.1,0.8,10.5,2.3c2.4,1.5,3.6,3.8,3.6,6.8v41.3h-12.1V80.4h-9.3
			c-2.8,0-4.7,0.3-5.7,1c-1.1,0.7-1.6,2-1.6,4v35.4H1143.1z"/>
		<path class="st0" d="M1211.5,121.9c-5.5,0-9.5-1.2-11.9-3.5c-2.4-2.4-3.6-6.2-3.6-11.6c0-3.4,0.4-6.1,1.1-8.1
			c0.7-2.1,2.1-3.7,4-4.8c2-1.1,4.8-1.9,8.5-2.3c3.7-0.4,8.5-0.6,14.4-0.6h4.8V98h-14c-3,0-5,0.4-6.1,1.1c-1.1,0.8-1.7,2.2-1.7,4.3
			v9.6h11.1c3,0,5-0.4,6.1-1.1c1.1-0.7,1.6-2.1,1.6-4.2v-27c-2.1-0.7-5-1-8.8-1c-2.7,0-5.5,0.2-8.4,0.6c-2.9,0.4-5.9,1-8.9,1.9
			l-1.6-8.7c1.8-0.7,3.9-1.2,6.2-1.7c2.3-0.5,4.6-0.8,7.1-1c2.5-0.2,4.9-0.3,7.3-0.3c4.7,0,8.4,0.5,11.2,1.4c2.8,1,4.9,2.5,6.1,4.6
			c1.2,2.1,1.9,5,1.9,8.5v35.8h-5.8l-3.2-4.9c-2.4,2-5,3.5-7.8,4.5C1218.2,121.4,1215,121.9,1211.5,121.9z"/>
		<path class="st0" d="M1259.2,71.5l3.9,7.5c2.7-2.6,5.1-4.5,7.3-5.9c2.2-1.4,4.3-2.4,6.4-3.1l1.1,11.8c-1.3,0.3-2.8,0.8-4.3,1.4
			c-1.6,0.6-3.1,1.3-4.5,2.1c-1.4,0.8-2.6,1.5-3.6,2.3v33.1h-12.1V71.5H1259.2z"/>
		<path class="st0" d="M1305.9,98.5h-6.7v22.3h-12.1V56.8l12.1-1.5v35.2h6.7l9.7-18.9h12.8l-12.4,23.1l12.9,26.2h-12.6L1305.9,98.5z
			"/>
		<path class="st0" d="M1373.3,99.9v20.9h-12.1V59.2h25.5c4.6,0,8.3,0.7,11,2.1c2.7,1.4,4.7,3.6,5.9,6.7c1.2,3.1,1.8,7.3,1.8,12.5
			c0,6.8-1.3,11.8-4,14.8c-2.7,3.1-7.1,4.6-13.2,4.6H1373.3z M1373.3,90.7h13.3c2.3,0,3.9-0.3,4.8-0.9s1.3-1.7,1.3-3.3V73.4
			c0-1.6-0.4-2.7-1.3-3.3s-2.5-0.9-4.8-0.9h-13.3V90.7z M1395,93.2l13.3,27.6h-13.2l-11.3-23.9L1395,93.2z"/>
		<path class="st0" d="M1437.2,121.9c-3.9,0-7.2-0.4-9.9-1.3c-2.7-0.9-4.8-2.2-6.4-4.2c-1.6-1.9-2.7-4.6-3.4-7.9
			c-0.7-3.3-1-7.4-1-12.4c0-6.4,0.7-11.4,2.1-15.2c1.4-3.8,3.7-6.5,6.9-8.1c3.3-1.6,7.6-2.4,13.1-2.4c5.3,0,9.5,0.4,12.4,1.3
			c3,0.9,5,2.4,6.3,4.6c1.2,2.2,1.8,5.3,1.8,9.2c0,3.4-0.4,6.1-1.2,8.1c-0.8,2.1-2.2,3.7-4.3,4.8c-2.1,1.1-5.1,1.9-9,2.3
			c-3.9,0.4-9,0.6-15.3,0.6h-3v-7.2h13.8c3.1,0,5.2-0.4,6.3-1.1c1.1-0.8,1.7-2.2,1.7-4.3v-9h-10.9c-3,0-5.1,0.4-6.2,1.1
			c-1.1,0.7-1.7,2.1-1.7,4.2v26.4c1.3,0.3,2.7,0.6,4.2,0.7c1.5,0.2,3.4,0.2,5.5,0.2c2.7,0,5.4-0.2,8-0.6s5.7-1,9.2-1.9l1.6,8.7
			c-2.7,1-5.8,1.7-9.4,2.3C1444.8,121.6,1441.1,121.9,1437.2,121.9z"/>
		<path class="st0" d="M1489.7,106.5c-5,0-9-0.6-12-1.8c-3-1.2-5.1-3.1-6.5-5.7c-1.3-2.6-2-6.2-2-10.7c0-4.5,0.7-8,2-10.7
			c1.3-2.7,3.5-4.6,6.5-5.8c3-1.2,7-1.8,12-1.8c5.1,0,9.1,0.6,12,1.8s5.1,3.1,6.4,5.7c1.3,2.6,2,6.2,2,10.7c0,4.5-0.6,8-1.9,10.7
			c-1.3,2.7-3.4,4.6-6.4,5.8C1498.8,105.9,1494.7,106.5,1489.7,106.5z M1510.7,124.3c0,3.1-0.7,5.6-2,7.5c-1.3,1.9-3.5,3.3-6.5,4.2
			c-3,0.9-6.9,1.3-11.8,1.3c-3.7,0-7.3-0.3-10.8-0.8c-3.5-0.5-6.7-1.3-9.4-2.3l1.5-8.9c3.3,0.9,6.2,1.5,8.7,1.9
			c2.5,0.4,5.1,0.6,7.7,0.6c2.4,0,4.5-0.1,6.4-0.2c1.8-0.2,3.6-0.4,5.4-0.7v-6.4c-6.6-0.5-11.3-1-14-1.7c-2.8-0.7-4.2-1.6-4.2-2.8
			l3.2-11.2l7.8,0.1l-0.6,7.6c3.9,0.5,7,1.1,9.5,1.6c2.5,0.5,4.4,1.2,5.7,2.1c1.3,0.9,2.2,1.9,2.8,3.3
			C1510.4,120.6,1510.7,122.3,1510.7,124.3z M1481.1,99.1h10.8c2.4,0,4-0.4,4.9-1.2c0.9-0.8,1.4-2.2,1.4-4.2V77.3h-10.8
			c-2.4,0-4,0.4-4.9,1.2c-0.9,0.8-1.4,2.2-1.4,4.2V99.1z M1506.2,81.1l-6.8-8.6l8.8-6.7l5.9,5.8L1506.2,81.1z"/>
		<path class="st0" d="M1530.3,63.9c-2.8,0-4.6-0.5-5.6-1.4c-1-1-1.5-2.8-1.5-5.5c0-2.8,0.5-4.6,1.5-5.6c1-1,2.9-1.5,5.6-1.5
			c2.7,0,4.5,0.5,5.5,1.5c1,1,1.5,2.9,1.5,5.6c0,2.7-0.5,4.5-1.4,5.5C1534.9,63.5,1533,63.9,1530.3,63.9z M1524.2,72.6l12.1-1.7
			v49.9h-12.1V72.6z"/>
		<path class="st0" d="M1549.2,85.2c0-5.3,1.6-9.1,4.7-11.5c3.2-2.4,8-3.6,14.7-3.6c3.2,0,6.2,0.2,9.1,0.5c2.9,0.4,5.7,0.9,8.5,1.6
			l-1.6,8.7c-1.6-0.5-3.5-0.8-5.7-1.1c-2.1-0.3-4.2-0.4-6.3-0.4c-2,0-3.9,0.1-5.7,0.2c-1.8,0.2-3.4,0.4-4.8,0.6v9.8
			c5.5,0.7,9.9,1.5,13.4,2.3c3.4,0.8,6.1,1.8,8,3.1c1.9,1.2,3.2,2.7,4,4.5c0.8,1.8,1.1,4,1.1,6.7c0,3.7-0.7,6.7-2.2,9
			c-1.4,2.3-3.7,4-6.9,5.1s-7.4,1.6-12.6,1.6c-3.1,0-6.2-0.3-9.4-0.8c-3.2-0.5-6.3-1.2-9.4-2.2l1.8-9.4c5,2,10.4,3,16.2,3
			c1.7,0,3.3-0.1,4.7-0.2c1.4-0.2,3.1-0.5,5-0.9v-9.9c-5.8-0.8-10.4-1.6-13.9-2.3c-3.5-0.8-6.2-1.7-8-2.9c-1.8-1.2-3-2.7-3.7-4.5
			C1549.5,90.3,1549.2,88,1549.2,85.2z"/>
		<path class="st0" d="M1596.8,79.7v-8.2h26.9v8.2H1596.8z M1611.8,121.9c-2.9,0-5-0.7-6.4-2c-1.4-1.3-2.1-3.4-2.1-6.2V61.6l12-3.1
			v53.4c1,0.1,2,0.2,3,0.3c1,0.1,2.3,0.2,3.8,0.2l-0.7,8.2c-2.1,0.4-3.9,0.7-5.5,0.9C1614.3,121.8,1613,121.9,1611.8,121.9z"/>
		<path class="st0" d="M1641.4,71.5l3.9,7.5c2.7-2.6,5.1-4.5,7.3-5.9c2.2-1.4,4.3-2.4,6.4-3.1l1.1,11.8c-1.3,0.3-2.8,0.8-4.3,1.4
			c-1.6,0.6-3.1,1.3-4.5,2.1c-1.4,0.8-2.6,1.5-3.6,2.3v33.1h-12.1V71.5H1641.4z"/>
		<path class="st0" d="M1681.7,121.9c-5.5,0-9.5-1.2-11.9-3.5c-2.4-2.4-3.6-6.2-3.6-11.6c0-3.4,0.4-6.1,1.1-8.1
			c0.7-2.1,2.1-3.7,4-4.8c2-1.1,4.8-1.9,8.5-2.3c3.7-0.4,8.5-0.6,14.4-0.6h4.8V98h-14c-3,0-5,0.4-6.1,1.1c-1.1,0.8-1.7,2.2-1.7,4.3
			v9.6h11.1c3,0,5-0.4,6.1-1.1c1.1-0.7,1.6-2.1,1.6-4.2v-27c-2.1-0.7-5-1-8.8-1c-2.7,0-5.5,0.2-8.4,0.6c-2.9,0.4-5.9,1-8.9,1.9
			l-1.6-8.7c1.8-0.7,3.9-1.2,6.2-1.7c2.3-0.5,4.6-0.8,7.1-1c2.5-0.2,4.9-0.3,7.3-0.3c4.7,0,8.4,0.5,11.2,1.4c2.8,1,4.9,2.5,6.1,4.6
			c1.2,2.1,1.9,5,1.9,8.5v35.8h-5.8l-3.2-4.9c-2.4,2-5,3.5-7.8,4.5C1688.4,121.4,1685.2,121.9,1681.7,121.9z"/>
		<path class="st0" d="M1719.8,79.7v-8.2h26.9v8.2H1719.8z M1734.8,121.9c-2.9,0-5-0.7-6.4-2c-1.4-1.3-2.1-3.4-2.1-6.2V61.6l12-3.1
			v53.4c1,0.1,2,0.2,3,0.3c1,0.1,2.3,0.2,3.8,0.2l-0.7,8.2c-2.1,0.4-3.9,0.7-5.5,0.9C1737.3,121.8,1736,121.9,1734.8,121.9z"/>
		<path class="st0" d="M1764.7,63.9c-2.8,0-4.6-0.5-5.6-1.4c-1-1-1.5-2.8-1.5-5.5c0-2.8,0.5-4.6,1.5-5.6c1-1,2.9-1.5,5.6-1.5
			c2.7,0,4.5,0.5,5.5,1.5c1,1,1.5,2.9,1.5,5.6c0,2.7-0.5,4.5-1.4,5.5C1769.3,63.5,1767.5,63.9,1764.7,63.9z M1758.6,72.6l12.1-1.7
			v49.9h-12.1V72.6z"/>
		<path class="st0" d="M1806.4,121.9c-4.3,0-8-0.4-10.8-1.2c-2.9-0.8-5.2-2.2-6.9-4.1c-1.7-1.9-2.9-4.6-3.6-7.9
			c-0.7-3.3-1.1-7.5-1.1-12.5c0-5,0.4-9.1,1.1-12.5c0.7-3.3,1.9-5.9,3.6-7.9c1.7-1.9,4-3.3,6.9-4.1c2.9-0.8,6.5-1.2,10.8-1.2
			c4.4,0,8,0.4,10.9,1.2c2.9,0.8,5.2,2.2,6.8,4.1c1.7,1.9,2.9,4.6,3.6,7.8c0.7,3.3,1.1,7.5,1.1,12.5c0,5-0.4,9.1-1.1,12.5
			c-0.7,3.3-1.9,5.9-3.6,7.9c-1.7,1.9-4,3.3-6.9,4.1C1814.4,121.5,1810.8,121.9,1806.4,121.9z M1796.8,112.3h14.9
			c1.8,0,3-0.2,3.6-0.5c0.6-0.4,0.9-1,0.9-2V80h-14.9c-1.8,0-3,0.2-3.6,0.5c-0.6,0.4-0.9,1-0.9,2V112.3z"/>
		<path class="st0" d="M1842.1,120.8V71.5h5.7l3.3,4.9c2.6-2,5.4-3.5,8.4-4.5c3-1,6.4-1.5,10.2-1.5c4.6,0,8.1,0.8,10.5,2.3
			c2.4,1.5,3.6,3.8,3.6,6.8v41.3h-12.1V80.4h-10.2c-2.8,0-4.7,0.3-5.7,1c-1.1,0.7-1.6,2-1.6,4v35.4H1842.1z"/>
		<path class="st0" d="M1891.8,71.5h11.9l10.6,38.8h1l10.5-38.8h11.9l-13.8,49.3h-18.4L1891.8,71.5z"/>
	</g>
</g>
<g>
	<g>
		<g>
			<g>
				<g>
					<g>
						<path class="st0" d="M124.8,146H43.1c-1,0-1.9-0.8-1.9-1.9V28.9c0-1,0.8-1.9,1.9-1.9h81.7c1,0,1.9,0.8,1.9,1.9v29.5
							c0,0.9-0.5,1.7-1.4,1.9c-1.2,0.3-2.3-0.6-2.3-1.8V30.6H44.9v111.7H123v-26.9c0-0.9,0.6-1.8,1.6-1.9c1.1-0.2,2.1,0.7,2.1,1.8
							v28.8C126.7,145.2,125.8,146,124.8,146z"/>
					</g>
				</g>
			</g>
			<g>
				<g>
					<g>
						<path class="st0" d="M110.5,138.7H57.6c-1,0-1.9-0.8-1.9-1.9c0-3-2.4-5.4-5.4-5.4c-1,0-1.9-0.8-1.9-1.9c0-12.4,0-73.9,0-86.3
							c0-1,0.8-1.9,1.9-1.9c3,0,5.4-2.4,5.4-5.4c0-1,0.8-1.9,1.9-1.9h52.9c1,0,1.9,0.8,1.9,1.9c0,2.9,2.3,5.3,5.2,5.4
							c1,0,1.9,0.8,1.9,1.9v14.8c0,1.8-0.5,2.6-1.4,2.8c-1.2,0.3-2.3-0.6-2.3-1.8V45c-3.5-0.7-6.3-3.5-7.1-7.1H59.2
							c-0.7,3.5-3.5,6.3-7.1,7.1V128c3.5,0.7,6.3,3.5,7.1,7.1h49.7c0.7-3.4,3.4-6.1,6.9-6.9v-12.8c0-0.9,0.6-1.8,1.6-1.9
							c1.1-0.2,2.1,0.7,2.1,1.8v14.5c0,1-0.8,1.9-1.9,1.9c-2.8,0-5.1,2.3-5.2,5.2C112.3,137.9,111.5,138.7,110.5,138.7z"/>
					</g>
				</g>
			</g>
			<g>
				<g>
					<g>
						<path class="st0" d="M117.8,100.7c-0.1,0-0.2,0-0.4,0c-0.1,0-0.2-0.1-0.3-0.1c-0.1,0-0.2-0.1-0.3-0.2
							c-0.1-0.1-0.2-0.1-0.3-0.2c-0.1-0.1-0.2-0.2-0.2-0.3c-0.1-0.1-0.1-0.2-0.2-0.3c0-0.1-0.1-0.2-0.1-0.3c0-0.1,0-0.2,0-0.4
							c0-0.1,0-0.2,0-0.4c0-0.1,0.1-0.2,0.1-0.3c0-0.1,0.1-0.2,0.2-0.3c0.1-0.1,0.1-0.2,0.2-0.3c0.1-0.1,0.2-0.2,0.3-0.2
							c0.1-0.1,0.2-0.1,0.3-0.2c0.1,0,0.2-0.1,0.3-0.1c0.6-0.1,1.2,0.1,1.7,0.5c0.1,0.1,0.2,0.2,0.2,0.3c0.1,0.1,0.1,0.2,0.2,0.3
							c0,0.1,0.1,0.2,0.1,0.3c0,0.1,0,0.2,0,0.4c0,0.5-0.2,1-0.5,1.3C118.7,100.5,118.2,100.7,117.8,100.7z"/>
					</g>
				</g>
			</g>
			<g>
				<g>
					<g>
						<path class="st0" d="M104.8,54.3H64c-1,0-1.9-0.8-1.9-1.9v-7.2c0-1,0.8-1.9,1.9-1.9h40.8c1,0,1.9,0.8,1.9,1.9v7.2
							C106.7,53.4,105.8,54.3,104.8,54.3z M65.8,50.6H103V47H65.8V50.6z"/>
					</g>
				</g>
			</g>
			<g>
				<g>
					<g>
						<path class="st0" d="M98.6,62.4h-38c-0.9,0-1.8-0.6-1.9-1.6c-0.2-1.1,0.7-2.1,1.8-2.1h38c0.9,0,1.8,0.6,1.9,1.6
							C100.6,61.5,99.7,62.4,98.6,62.4z"/>
					</g>
				</g>
			</g>
			<g>
				<g>
					<g>
						<path class="st0" d="M101.8,69.7H60.7c-0.9,0-1.8-0.6-1.9-1.6c-0.2-1.1,0.7-2.1,1.8-2.1h41.2c0.9,0,1.8,0.6,1.9,1.6
							C103.8,68.7,102.9,69.7,101.8,69.7z"/>
					</g>
				</g>
			</g>
			<g>
				<g>
					<g>
						<path class="st0" d="M101.4,77H60.6c-0.9,0-1.8-0.6-1.9-1.6c-0.2-1.1,0.7-2.1,1.8-2.1h40.7c0.9,0,1.8,0.6,1.9,1.6
							C103.3,76,102.5,77,101.4,77z"/>
					</g>
				</g>
			</g>
			<g>
				<g>
					<g>
						<path class="st0" d="M101.4,84.2H60.6c-0.9,0-1.8-0.6-1.9-1.6c-0.2-1.1,0.7-2.1,1.8-2.1h40.7c0.9,0,1.8,0.6,1.9,1.6
							C103.3,83.3,102.5,84.2,101.4,84.2z"/>
					</g>
				</g>
			</g>
			<g>
				<g>
					<g>
						<path class="st0" d="M101.8,92.4H60.7c-0.9,0-1.8-0.6-1.9-1.6c-0.2-1.1,0.7-2.1,1.8-2.1h41.2c0.9,0,1.8,0.6,1.9,1.6
							C103.8,91.4,102.9,92.4,101.8,92.4z"/>
					</g>
				</g>
			</g>
			<g>
				<g>
					<g>
						<path class="st0" d="M96.8,99.7H60.6c-0.9,0-1.8-0.6-1.9-1.6C58.5,97,59.4,96,60.5,96h36.2c0.9,0,1.8,0.6,1.9,1.6
							C98.7,98.7,97.9,99.7,96.8,99.7z"/>
					</g>
				</g>
			</g>
			<g>
				<g>
					<g>
						<path class="st0" d="M100.5,106.9H60.6c-0.9,0-1.8-0.6-1.9-1.6c-0.2-1.1,0.7-2.1,1.8-2.1h39.8c0.9,0,1.8,0.6,1.9,1.6
							C102.4,106,101.6,106.9,100.5,106.9z"/>
					</g>
				</g>
			</g>
			<g>
				<g>
					<g>
						<path class="st0" d="M100.5,114.2H60.6c-0.9,0-1.8-0.6-1.9-1.6c-0.2-1.1,0.7-2.1,1.8-2.1h39.8c0.9,0,1.8,0.6,1.9,1.6
							C102.4,113.2,101.6,114.2,100.5,114.2z"/>
					</g>
				</g>
			</g>
			<g>
				<g>
					<g>
						<path class="st0" d="M100.5,121.5H60.6c-0.9,0-1.8-0.6-1.9-1.6c-0.2-1.1,0.7-2.1,1.8-2.1h39.8c0.9,0,1.8,0.6,1.9,1.6
							C102.4,120.5,101.6,121.5,100.5,121.5z"/>
					</g>
				</g>
			</g>
			<g>
				<g>
					<g>
						<path class="st0" d="M107.8,129.6H60.7c-0.9,0-1.8-0.6-1.9-1.6c-0.2-1.1,0.7-2.1,1.8-2.1h47.1c0.9,0,1.8,0.6,1.9,1.6
							C109.8,128.7,108.9,129.6,107.8,129.6z"/>
					</g>
				</g>
			</g>
			<g>
				<g>
					<g>
						<path class="st0" d="M105.4,95.3c-1.7,0-3.3-0.2-4.3-1.6c-1.3-1.7-0.5-3.9,0.2-5.8c0.3-0.8,0.8-2.1,0.7-2.5
							c-0.2-0.4-1.3-1.1-1.9-1.5c-1.7-1.2-3.7-2.5-3.7-4.7c0-2.2,2-3.5,3.7-4.7c0.7-0.4,1.7-1.2,1.9-1.5c0.1-0.4-0.4-1.7-0.7-2.5
							c-0.7-1.9-1.5-4.1-0.2-5.8c1.3-1.7,3.6-1.6,5.6-1.6c0.8,0,2.2,0.1,2.6-0.1c0.3-0.3,0.7-1.6,0.9-2.4c0.6-2,1.2-4.2,3.3-4.9
							c2-0.7,3.8,0.8,5.4,2c0.6,0.5,1.8,1.4,2.2,1.4c0.4,0,1.6-0.9,2.2-1.4c1.6-1.2,3.4-2.7,5.4-2c2.1,0.7,2.7,2.9,3.3,4.9
							c0.2,0.8,0.6,2.1,0.9,2.4c0.4,0.2,1.7,0.2,2.6,0.1c2.1-0.1,4.4-0.2,5.6,1.6c1.3,1.7,0.5,3.9-0.2,5.8c-0.3,0.8-0.8,2.1-0.7,2.5
							c0.2,0.4,1.3,1.1,1.9,1.5c1.7,1.2,3.7,2.5,3.7,4.7c0,2.2-2,3.5-3.7,4.7c-0.7,0.4-1.7,1.2-1.9,1.5c-0.1,0.4,0.4,1.7,0.7,2.5
							c0.7,1.9,1.5,4.1,0.2,5.8c-1.3,1.7-3.6,1.6-5.6,1.6c-0.3,0-0.5,0-0.8,0c-0.9,0-1.7-0.6-1.9-1.4c-0.3-1.2,0.6-2.3,1.8-2.3
							c0,0,0,0,0,0c0.3,0,0.6,0,0.9,0c0.7,0,1.9,0.1,2.4-0.1c0-0.5-0.4-1.6-0.7-2.3c-0.6-1.7-1.2-3.4-0.7-4.9c0.5-1.5,2-2.5,3.4-3.5
							c0.6-0.4,1.7-1.1,2-1.6c-0.3-0.4-1.4-1.2-2-1.6c-1.4-1-2.9-1.9-3.4-3.5c-0.5-1.6,0.1-3.3,0.7-4.9c0.3-0.7,0.7-1.8,0.7-2.3
							c-0.5-0.1-1.7-0.1-2.4-0.1c-1.8,0.1-3.6,0.1-4.9-0.8c-1.3-1-1.8-2.7-2.3-4.4c-0.2-0.7-0.5-1.9-0.8-2.3
							c-0.5,0.2-1.4,0.9-1.9,1.3c-1.4,1.1-2.8,2.2-4.5,2.2s-3.1-1.1-4.5-2.2c-0.6-0.4-1.5-1.2-1.9-1.3c-0.3,0.4-0.6,1.6-0.8,2.3
							c-0.5,1.7-1,3.4-2.3,4.4c-1.3,1-3.1,0.9-4.9,0.8c-0.7,0-1.9-0.1-2.4,0.1c0,0.5,0.4,1.6,0.7,2.3c0.6,1.7,1.2,3.4,0.7,4.9
							c-0.5,1.5-2,2.5-3.4,3.5c-0.6,0.4-1.7,1.1-2,1.6c0.3,0.4,1.4,1.2,2,1.6c1.4,1,2.9,1.9,3.4,3.5c0.5,1.6-0.1,3.3-0.7,4.9
							c-0.3,0.7-0.7,1.8-0.7,2.3c0.5,0.1,1.7,0.1,2.4,0.1c0.6,0,1.3,0,1.9,0c0.8,0,1.6,0.6,1.8,1.4c0.3,1.3-0.7,2.4-1.9,2.3
							c-0.5,0-1.1,0-1.7,0C106.3,95.3,105.8,95.3,105.4,95.3z"/>
					</g>
				</g>
			</g>
			<g>
				<g>
					<g>
						<path class="st0" d="M134.8,122c-0.3,0-0.6-0.1-0.9-0.2l-12.2-7l-12.2,7c-0.6,0.3-1.3,0.3-1.9,0c-0.6-0.3-0.9-1-0.9-1.6V93.2
							c0-0.5,0.2-1,0.6-1.4c0.4-0.4,0.9-0.5,1.4-0.5c0.8,0,2,0.2,2.9,0.9c1.3,1,1.8,2.7,2.3,4.4c0.2,0.7,0.5,1.9,0.8,2.3
							c0.5-0.2,1.4-0.9,2-1.3c1.4-1.1,2.9-2.2,4.6-2.2c1.7,0,3.1,1.1,4.6,2.2c0.6,0.4,1.5,1.2,2,1.3c0.3-0.4,0.6-1.6,0.8-2.3
							c0.5-1.7,1-3.4,2.3-4.4c1.1-0.8,2.6-0.9,4-0.9c1,0,1.8,0.8,1.8,1.9v27c0,0.7-0.4,1.3-0.9,1.6C135.4,121.9,135.1,122,134.8,122
							z M121.7,110.8c0.3,0,0.6,0.1,0.9,0.2l10.4,6V95.3c-0.3,0.5-0.6,1.5-0.8,2.2c-0.6,2-1.2,4.3-3.3,5c-2,0.7-3.9-0.8-5.5-2
							c-0.6-0.5-1.8-1.4-2.3-1.5c-0.4,0-1.6,1-2.3,1.5c-1.6,1.3-3.4,2.7-5.5,2c-1.9-0.6-2.6-2.5-3.1-4.4V117l10.4-6
							C121,110.9,121.3,110.8,121.7,110.8z"/>
					</g>
				</g>
			</g>
			<g>
				<g>
					<g>
						<path class="st0" d="M121.5,92.1c-7.2,0-13-5.9-13-13c0-7.2,5.9-13,13-13c7.2,0,13,5.9,13,13
							C134.5,86.2,128.7,92.1,121.5,92.1z M121.5,69.7c-5.1,0-9.3,4.2-9.3,9.3c0,5.1,4.2,9.3,9.3,9.3c5.1,0,9.3-4.2,9.3-9.3
							C130.8,73.9,126.6,69.7,121.5,69.7z"/>
					</g>
				</g>
			</g>
		</g>
	</g>
</g>
</svg>
