<?xml version="1.0" encoding="utf-8"?>
<!-- Generator: Adobe Illustrator 28.2.0, SVG Export Plug-In . SVG Version: 6.00 Build 0)  -->
<svg version="1.1" id="Layer_1" xmlns="http://www.w3.org/2000/svg" xmlns:xlink="http://www.w3.org/1999/xlink" x="0px" y="0px"
	 viewBox="0 0 1555.9 171.1" style="enable-background:new 0 0 1555.9 171.1;" xml:space="preserve">
<style type="text/css">
	.st0{fill:#C3AA8B;}
	.st1{fill:#242A48;}
</style>
<g>
	<g>
		<g>
			<path class="st0" d="M166.8,60.2h12.1v61.6h-12.1V60.2z"/>
			<path class="st0" d="M194.9,121.8V72.5h5.7l3.3,4.9c2.6-2,5.4-3.5,8.4-4.5c3-1,6.4-1.5,10.2-1.5c4.6,0,8.1,0.8,10.5,2.3
				c2.4,1.5,3.6,3.8,3.6,6.8v41.3h-12.1V81.4h-10.2c-2.8,0-4.7,0.3-5.7,1c-1.1,0.7-1.6,2-1.6,4v35.4H194.9z"/>
			<path class="st0" d="M252,121.8V57.3l11.8-1v19.2c2.1-1.4,4.4-2.5,7-3.1c2.6-0.6,5.5-0.9,8.8-0.9c4.6,0,8.1,0.8,10.5,2.3
				c2.4,1.5,3.6,3.8,3.6,6.8v41.3h-12.1V81.4h-9.6c-3.1,0-5.2,0.4-6.3,1.1c-1.1,0.8-1.7,2.2-1.7,4.2v35.1H252z"/>
			<path class="st0" d="M327.1,122.9c-3.9,0-7.2-0.4-9.9-1.3c-2.7-0.9-4.8-2.2-6.4-4.2c-1.6-1.9-2.7-4.6-3.4-7.9
				c-0.7-3.3-1-7.4-1-12.4c0-6.4,0.7-11.4,2.1-15.2c1.4-3.8,3.7-6.5,6.9-8.1c3.3-1.6,7.6-2.4,13.1-2.4c5.3,0,9.5,0.4,12.4,1.3
				c3,0.9,5,2.4,6.3,4.6c1.2,2.2,1.8,5.3,1.8,9.2c0,3.4-0.4,6.1-1.2,8.1c-0.8,2.1-2.2,3.7-4.3,4.8c-2.1,1.1-5.1,1.9-9,2.3
				c-3.9,0.4-9,0.6-15.3,0.6h-3v-7.2h13.8c3.1,0,5.2-0.4,6.3-1.1c1.1-0.8,1.7-2.2,1.7-4.3v-9h-10.9c-3,0-5.1,0.4-6.2,1.1
				c-1.1,0.7-1.7,2.1-1.7,4.2v26.4c1.3,0.3,2.7,0.6,4.2,0.7c1.5,0.2,3.4,0.2,5.5,0.2c2.7,0,5.4-0.2,8-0.6s5.7-1,9.2-1.9l1.6,8.7
				c-2.7,1-5.8,1.7-9.4,2.3C334.7,122.6,331,122.9,327.1,122.9z"/>
			<path class="st0" d="M369,72.5L373,80c2.7-2.6,5.1-4.5,7.3-5.9c2.2-1.4,4.3-2.4,6.4-3.1l1.1,11.8c-1.3,0.3-2.8,0.8-4.3,1.4
				c-1.6,0.6-3.1,1.3-4.5,2.1c-1.4,0.8-2.6,1.5-3.6,2.3v33.1h-12.1V72.5H369z"/>
			<path class="st0" d="M403,64.9c-2.8,0-4.6-0.5-5.6-1.4c-1-1-1.5-2.8-1.5-5.5c0-2.8,0.5-4.6,1.5-5.6c1-1,2.9-1.5,5.6-1.5
				c2.7,0,4.5,0.5,5.5,1.5c1,1,1.5,2.9,1.5,5.6c0,2.7-0.5,4.5-1.4,5.5C407.6,64.5,405.8,64.9,403,64.9z M396.9,73.6l12.1-1.7v49.9
				h-12.1V73.6z"/>
			<path class="st0" d="M421.3,80.7v-8.2h26.9v8.2H421.3z M436.2,122.9c-2.9,0-5-0.7-6.4-2c-1.4-1.3-2.1-3.4-2.1-6.2V62.6l12-3.1
				v53.4c1,0.1,2,0.2,3,0.3c1,0.1,2.3,0.2,3.8,0.2l-0.7,8.2c-2.1,0.4-3.9,0.7-5.5,0.9C438.8,122.8,437.4,122.9,436.2,122.9z"/>
			<path class="st0" d="M472.4,122.9c-5.5,0-9.5-1.2-11.9-3.5c-2.4-2.4-3.6-6.2-3.6-11.6c0-3.4,0.4-6.1,1.1-8.1
				c0.7-2.1,2.1-3.7,4-4.8c2-1.1,4.8-1.9,8.5-2.3c3.7-0.4,8.5-0.6,14.4-0.6h4.8V99h-14c-3,0-5,0.4-6.1,1.1c-1.1,0.8-1.7,2.2-1.7,4.3
				v9.6H479c3,0,5-0.4,6.1-1.1c1.1-0.7,1.6-2.1,1.6-4.2v-27c-2.1-0.7-5-1-8.8-1c-2.7,0-5.5,0.2-8.4,0.6c-2.9,0.4-5.9,1-8.9,1.9
				l-1.6-8.7c1.8-0.7,3.9-1.2,6.2-1.7c2.3-0.5,4.6-0.8,7.1-1c2.5-0.2,4.9-0.3,7.3-0.3c4.7,0,8.4,0.5,11.2,1.4c2.8,1,4.9,2.5,6.1,4.6
				c1.2,2.1,1.9,5,1.9,8.5v35.8H493l-3.2-4.9c-2.4,2-5,3.5-7.8,4.5C479.2,122.4,476,122.9,472.4,122.9z"/>
			<path class="st0" d="M514.3,121.8V72.5h5.7l3.3,4.9c2.6-2,5.4-3.5,8.4-4.5c3-1,6.4-1.5,10.2-1.5c4.6,0,8.1,0.8,10.5,2.3
				c2.4,1.5,3.6,3.8,3.6,6.8v41.3H544V81.4h-10.2c-2.8,0-4.7,0.3-5.7,1c-1.1,0.7-1.6,2-1.6,4v35.4H514.3z"/>
			<path class="st0" d="M587.5,122.9c-3.6,0-6.6-0.4-9.1-1.2c-2.4-0.8-4.4-2.2-5.8-4.1c-1.4-1.9-2.4-4.6-3.1-7.9
				c-0.6-3.3-0.9-7.5-0.9-12.5c0-5,0.3-9.1,0.9-12.5c0.6-3.3,1.6-5.9,3.1-7.9c1.4-1.9,3.3-3.3,5.8-4.1c2.4-0.8,5.5-1.2,9.1-1.2
				c1.8,0,3.8,0.1,5.8,0.2c2,0.1,3.9,0.3,5.8,0.6c1.8,0.3,3.4,0.6,4.6,1l-1.3,8.9c-2.2-0.5-4.3-0.9-6.4-1.1
				c-2.1-0.2-4.2-0.3-6.5-0.3c-3,0-5.1,0.6-6.3,1.8s-1.8,3.3-1.8,6.3v23.8c2,0.7,5,1,8.9,1c2.2,0,4.3-0.2,6.3-0.6
				c2-0.4,4.3-1,6.9-1.9l1.2,8.7c-2.4,1-5,1.7-8,2.3C593.7,122.6,590.7,122.9,587.5,122.9z"/>
			<path class="st0" d="M633.9,122.9c-3.9,0-7.2-0.4-9.9-1.3c-2.7-0.9-4.8-2.2-6.4-4.2c-1.6-1.9-2.7-4.6-3.4-7.9
				c-0.7-3.3-1-7.4-1-12.4c0-6.4,0.7-11.4,2.1-15.2c1.4-3.8,3.7-6.5,6.9-8.1c3.3-1.6,7.6-2.4,13.1-2.4c5.3,0,9.5,0.4,12.4,1.3
				c3,0.9,5,2.4,6.3,4.6c1.2,2.2,1.8,5.3,1.8,9.2c0,3.4-0.4,6.1-1.2,8.1c-0.8,2.1-2.2,3.7-4.3,4.8c-2.1,1.1-5.1,1.9-9,2.3
				c-3.9,0.4-9,0.6-15.3,0.6h-3v-7.2h13.8c3.1,0,5.2-0.4,6.3-1.1c1.1-0.8,1.7-2.2,1.7-4.3v-9h-10.9c-3,0-5.1,0.4-6.2,1.1
				c-1.1,0.7-1.7,2.1-1.7,4.2v26.4c1.3,0.3,2.7,0.6,4.2,0.7c1.5,0.2,3.4,0.2,5.5,0.2c2.7,0,5.4-0.2,8-0.6s5.7-1,9.2-1.9l1.6,8.7
				c-2.7,1-5.8,1.7-9.4,2.3C641.5,122.6,637.8,122.9,633.9,122.9z"/>
			<path class="st0" d="M696,85.2c0.2-5.1,0.7-9.4,1.6-12.8c0.9-3.4,2.1-6.1,3.8-8.1c1.7-2,4-3.4,6.8-4.3c2.9-0.9,6.4-1.3,10.6-1.3
				c1.7,0,3.5,0.1,5.4,0.3c1.9,0.2,3.7,0.5,5.4,0.8c1.7,0.3,3,0.7,4,1.1l-1.6,9.9c-1.2-0.4-2.6-0.7-4.3-1c-1.7-0.3-3.4-0.5-5.1-0.6
				c-1.7-0.2-3.3-0.2-4.7-0.2c-3.5,0-6,0.5-7.2,1.6c-1.3,1.1-1.9,3-1.9,5.8v12.5l-3.9,6.1V107c0,5.4,2.9,8.1,8.6,8.1
				c2.8,0,5.3-0.2,7.7-0.6c2.4-0.4,5.1-1.1,8-2l1.4,5.8c-3.7,1.2-6.9,2.3-9.6,3c-2.7,0.8-5,1.3-7,1.6c-2,0.3-4.1,0.4-6.2,0.4
				c-5.4,0-9.4-1.5-11.9-4.4s-3.8-7.6-3.8-14c0-10.1,3.4-15.8,10.1-17.3v-0.4L696,85.2z M703.6,95.8l4.1-9.3h35.5l-1.5,9.3H703.6z
				 M724.4,94.9h12v37.3l-6.8,0.8L724.4,94.9z"/>
			<path class="st0" d="M788.6,97.1v24.7h-12.1V60.2h35.1l-1.4,10.1h-21.6v17.5h19v9.3H788.6z"/>
			<path class="st0" d="M833.6,122.9c-5.5,0-9.5-1.2-11.9-3.5c-2.4-2.4-3.6-6.2-3.6-11.6c0-3.4,0.4-6.1,1.1-8.1
				c0.7-2.1,2.1-3.7,4-4.8c2-1.1,4.8-1.9,8.5-2.3c3.7-0.4,8.5-0.6,14.4-0.6h4.8V99h-14c-3,0-5,0.4-6.1,1.1c-1.1,0.8-1.7,2.2-1.7,4.3
				v9.6h11.1c3,0,5-0.4,6.1-1.1c1.1-0.7,1.6-2.1,1.6-4.2v-27c-2.1-0.7-5-1-8.8-1c-2.7,0-5.5,0.2-8.4,0.6c-2.9,0.4-5.9,1-8.9,1.9
				l-1.6-8.7c1.8-0.7,3.9-1.2,6.2-1.7c2.3-0.5,4.6-0.8,7.1-1c2.5-0.2,4.9-0.3,7.3-0.3c4.7,0,8.4,0.5,11.2,1.4c2.8,1,4.9,2.5,6.1,4.6
				c1.2,2.1,1.9,5,1.9,8.5v35.8h-5.8l-3.2-4.9c-2.4,2-5,3.5-7.8,4.5C840.3,122.4,837.1,122.9,833.6,122.9z"/>
			<path class="st0" d="M875.5,121.8V72.5h5.7l3.3,4.9c2.4-2,5.1-3.5,8-4.5c2.9-1,6.1-1.5,9.7-1.5c4.6,0,8.1,0.8,10.5,2.3
				c2.4,1.5,3.6,3.8,3.6,6.8v41.3h-12.1V81.4h-9.3c-2.8,0-4.7,0.3-5.7,1c-1.1,0.7-1.6,2-1.6,4v35.4H875.5z M904.2,121.8V72.5
				l8.9,4.9c2.4-2,5.1-3.5,8-4.5c2.9-1,6.1-1.5,9.7-1.5c4.6,0,8.1,0.8,10.5,2.3c2.4,1.5,3.6,3.8,3.6,6.8v41.3h-12.1V81.4h-9.3
				c-2.8,0-4.7,0.3-5.7,1c-1.1,0.7-1.6,2-1.6,4v35.4H904.2z"/>
			<path class="st0" d="M966.3,64.9c-2.8,0-4.6-0.5-5.6-1.4c-1-1-1.5-2.8-1.5-5.5c0-2.8,0.5-4.6,1.5-5.6c1-1,2.9-1.5,5.6-1.5
				c2.7,0,4.5,0.5,5.5,1.5c1,1,1.5,2.9,1.5,5.6c0,2.7-0.5,4.5-1.4,5.5C971,64.5,969.1,64.9,966.3,64.9z M960.2,73.6l12.1-1.7v49.9
				h-12.1V73.6z"/>
			<path class="st0" d="M1000,112.9c0.7,0.1,1.4,0.2,2.2,0.3c0.8,0.1,1.6,0.2,2.4,0.2l-0.7,8.2c-1.4,0.4-2.8,0.7-4,0.9
				c-1.2,0.2-2.4,0.3-3.5,0.3c-2.9,0-5-0.7-6.5-2c-1.4-1.3-2.1-3.4-2.1-6.2v-57l12.1-1.5V112.9z"/>
			<path class="st0" d="M1022,64.9c-2.8,0-4.6-0.5-5.6-1.4c-1-1-1.5-2.8-1.5-5.5c0-2.8,0.5-4.6,1.5-5.6c1-1,2.9-1.5,5.6-1.5
				c2.7,0,4.5,0.5,5.5,1.5c1,1,1.5,2.9,1.5,5.6c0,2.7-0.5,4.5-1.4,5.5C1026.6,64.5,1024.8,64.9,1022,64.9z M1015.9,73.6l12.1-1.7
				v49.9h-12.1V73.6z"/>
			<path class="st0" d="M1056.3,122.9c-5.5,0-9.5-1.2-11.9-3.5c-2.4-2.4-3.6-6.2-3.6-11.6c0-3.4,0.4-6.1,1.1-8.1
				c0.7-2.1,2.1-3.7,4-4.8c2-1.1,4.8-1.9,8.5-2.3c3.7-0.4,8.5-0.6,14.4-0.6h4.8V99h-14c-3,0-5,0.4-6.1,1.1c-1.1,0.8-1.7,2.2-1.7,4.3
				v9.6h11.1c3,0,5-0.4,6.1-1.1c1.1-0.7,1.6-2.1,1.6-4.2v-27c-2.1-0.7-5-1-8.8-1c-2.7,0-5.5,0.2-8.4,0.6c-2.9,0.4-5.9,1-8.9,1.9
				l-1.6-8.7c1.8-0.7,3.9-1.2,6.2-1.7c2.3-0.5,4.6-0.8,7.1-1c2.5-0.2,4.9-0.3,7.3-0.3c4.7,0,8.4,0.5,11.2,1.4c2.8,1,4.9,2.5,6.1,4.6
				c1.2,2.1,1.9,5,1.9,8.5v35.8h-5.8l-3.2-4.9c-2.4,2-5,3.5-7.8,4.5C1063.1,122.4,1059.9,122.9,1056.3,122.9z"/>
			<path class="st0" d="M1109.9,112.9c0.7,0.1,1.4,0.2,2.2,0.3c0.8,0.1,1.6,0.2,2.4,0.2l-0.7,8.2c-1.4,0.4-2.8,0.7-4,0.9
				c-1.2,0.2-2.4,0.3-3.5,0.3c-2.9,0-5-0.7-6.5-2c-1.4-1.3-2.1-3.4-2.1-6.2v-57l12.1-1.5V112.9z"/>
			<path class="st0" d="M1149.3,60.2h23.3c5.2,0,9.4,0.4,12.7,1.3c3.3,0.9,5.8,2.4,7.7,4.7c1.8,2.3,3.1,5.4,3.8,9.4
				c0.7,4,1.1,9.1,1.1,15.5c0,6.3-0.4,11.5-1.1,15.5c-0.7,4-2,7.1-3.8,9.4c-1.8,2.2-4.4,3.8-7.7,4.6c-3.3,0.9-7.5,1.3-12.7,1.3
				h-23.3V60.2z M1161.5,70.1V112h15.8c2.9,0,4.9-0.5,6-1.5c1.1-1,1.7-2.8,1.7-5.4V77c0-2.6-0.6-4.4-1.7-5.4c-1.1-1-3.1-1.5-6-1.5
				H1161.5z"/>
			<path class="st0" d="M1217.6,64.9c-2.8,0-4.6-0.5-5.6-1.4c-1-1-1.5-2.8-1.5-5.5c0-2.8,0.5-4.6,1.5-5.6c1-1,2.9-1.5,5.6-1.5
				c2.7,0,4.5,0.5,5.5,1.5c1,1,1.5,2.9,1.5,5.6c0,2.7-0.5,4.5-1.4,5.5C1222.3,64.5,1220.4,64.9,1217.6,64.9z M1211.5,73.6l12.1-1.7
				v49.9h-12.1V73.6z"/>
			<path class="st0" d="M1236.6,86.2c0-5.3,1.6-9.1,4.7-11.5c3.2-2.4,8-3.6,14.7-3.6c3.2,0,6.2,0.2,9.1,0.5c2.9,0.4,5.7,0.9,8.5,1.6
				l-1.6,8.7c-1.6-0.5-3.5-0.8-5.7-1.1c-2.1-0.3-4.2-0.4-6.3-0.4c-2,0-3.9,0.1-5.7,0.2c-1.8,0.2-3.4,0.4-4.8,0.6v9.8
				c5.5,0.7,9.9,1.5,13.4,2.3c3.4,0.8,6.1,1.8,8,3.1c1.9,1.2,3.2,2.7,4,4.5c0.8,1.8,1.1,4,1.1,6.7c0,3.7-0.7,6.7-2.2,9
				c-1.4,2.3-3.7,4-6.9,5.1c-3.2,1.1-7.4,1.6-12.6,1.6c-3.1,0-6.2-0.3-9.4-0.8c-3.2-0.5-6.3-1.2-9.4-2.2l1.8-9.4c5,2,10.4,3,16.2,3
				c1.7,0,3.3-0.1,4.7-0.2c1.4-0.2,3.1-0.5,5-0.9v-9.9c-5.8-0.8-10.4-1.6-13.9-2.3c-3.5-0.8-6.2-1.7-8-2.9c-1.8-1.2-3-2.7-3.7-4.5
				C1236.9,91.3,1236.6,89,1236.6,86.2z"/>
			<path class="st0" d="M1287.9,139V72.5h5.7l6.4,10.6v54.6L1287.9,139z M1312.8,123.3c-4.1,0-7.4-0.4-10.1-1.2
				c-2.7-0.8-4.7-2.1-6.2-4c-1.5-1.9-2.5-4.5-3.2-7.9c-0.6-3.4-0.9-7.7-0.9-13c0-5.3,0.3-9.5,0.9-12.9c0.6-3.3,1.7-5.9,3.2-7.8
				c1.5-1.9,3.5-3.2,6.2-3.9c2.7-0.8,6-1.1,10.1-1.1c3.6,0,6.6,0.4,9,1.2c2.4,0.8,4.3,2.2,5.7,4.1c1.4,1.9,2.4,4.6,3,7.8
				c0.6,3.3,0.9,7.5,0.9,12.5c0,5.1-0.3,9.3-0.9,12.7c-0.6,3.4-1.6,6-3,8c-1.4,1.9-3.3,3.3-5.7,4.2
				C1319.4,122.9,1316.4,123.3,1312.8,123.3z M1300,113.6h14.1c1.7,0,2.9-0.2,3.5-0.5c0.6-0.3,0.9-1,0.9-2V81h-14.2
				c-1.6,0-2.8,0.2-3.4,0.5c-0.6,0.3-0.9,0.9-0.9,1.7V113.6z"/>
			<path class="st0" d="M1385.9,72.5v49.3h-5.8l-3.2-4.9c-2.7,2-5.6,3.5-8.8,4.5c-3.2,1-6.7,1.5-10.6,1.5c-4.6,0-8-0.9-10.2-2.7
				c-2.2-1.8-3.3-4.6-3.3-8.5V72.5h12.1V114h10.2c2.8,0,4.8-0.4,5.8-1.1c1-0.7,1.6-2,1.6-3.9V72.5H1385.9z"/>
			<path class="st0" d="M1398,80.7v-8.2h26.9v8.2H1398z M1413,122.9c-2.9,0-5-0.7-6.4-2c-1.4-1.3-2.1-3.4-2.1-6.2V62.6l12-3.1v53.4
				c1,0.1,2,0.2,3,0.3c1,0.1,2.3,0.2,3.8,0.2l-0.7,8.2c-2.1,0.4-3.9,0.7-5.5,0.9C1415.5,122.8,1414.2,122.9,1413,122.9z"/>
			<path class="st0" d="M1454.8,122.9c-3.9,0-7.2-0.4-9.9-1.3c-2.7-0.9-4.8-2.2-6.4-4.2c-1.6-1.9-2.7-4.6-3.4-7.9
				c-0.7-3.3-1-7.4-1-12.4c0-6.4,0.7-11.4,2.1-15.2c1.4-3.8,3.7-6.5,6.9-8.1c3.3-1.6,7.6-2.4,13.1-2.4c5.3,0,9.5,0.4,12.4,1.3
				c3,0.9,5,2.4,6.3,4.6c1.2,2.2,1.8,5.3,1.8,9.2c0,3.4-0.4,6.1-1.2,8.1c-0.8,2.1-2.2,3.7-4.3,4.8c-2.1,1.1-5.1,1.9-9,2.3
				c-3.9,0.4-9,0.6-15.3,0.6h-3v-7.2h13.8c3.1,0,5.2-0.4,6.3-1.1c1.1-0.8,1.7-2.2,1.7-4.3v-9h-10.9c-3,0-5.1,0.4-6.2,1.1
				c-1.1,0.7-1.7,2.1-1.7,4.2v26.4c1.3,0.3,2.7,0.6,4.2,0.7c1.5,0.2,3.4,0.2,5.5,0.2c2.7,0,5.4-0.2,8-0.6s5.7-1,9.2-1.9l1.6,8.7
				c-2.7,1-5.8,1.7-9.4,2.3C1462.4,122.6,1458.6,122.9,1454.8,122.9z"/>
			<path class="st0" d="M1487.8,86.2c0-5.3,1.6-9.1,4.7-11.5c3.2-2.4,8-3.6,14.7-3.6c3.2,0,6.2,0.2,9.1,0.5c2.9,0.4,5.7,0.9,8.5,1.6
				l-1.6,8.7c-1.6-0.5-3.5-0.8-5.7-1.1c-2.1-0.3-4.2-0.4-6.3-0.4c-2,0-3.9,0.1-5.7,0.2c-1.8,0.2-3.4,0.4-4.8,0.6v9.8
				c5.5,0.7,9.9,1.5,13.4,2.3c3.4,0.8,6.1,1.8,8,3.1c1.9,1.2,3.2,2.7,4,4.5c0.8,1.8,1.1,4,1.1,6.7c0,3.7-0.7,6.7-2.2,9
				c-1.4,2.3-3.7,4-6.9,5.1c-3.2,1.1-7.4,1.6-12.6,1.6c-3.1,0-6.2-0.3-9.4-0.8c-3.2-0.5-6.3-1.2-9.4-2.2l1.8-9.4c5,2,10.4,3,16.2,3
				c1.7,0,3.3-0.1,4.7-0.2c1.4-0.2,3.1-0.5,5-0.9v-9.9c-5.8-0.8-10.4-1.6-13.9-2.3c-3.5-0.8-6.2-1.7-8-2.9c-1.8-1.2-3-2.7-3.7-4.5
				C1488.1,91.3,1487.8,89,1487.8,86.2z"/>
		</g>
	</g>
</g>
<g>
	<g>
		
			<ellipse transform="matrix(0.9961 -8.825102e-02 8.825102e-02 0.9961 -5.2046 5.7642)" class="st0" cx="62.6" cy="61.7" rx="5.9" ry="5.9"/>
		<circle class="st0" cx="37" cy="80.7" r="5.1"/>
		<path class="st0" d="M77.2,82.2c0,0-1.8-4.5-2.9-6.3c-1.3-2.2-2.8-3.9-4.6-5.1c-1.8-1.2-3.9-1.9-6-1.9h-2.5
			c-2.1,0-4.2,0.7-5.9,1.9c-2.7,1.8-4.7,4.7-6.3,8.5c-1.3,3.1-2.4,6.9-3.2,11.2l-4-2.8c-0.1,0-0.1-0.1-0.2-0.1
			c-0.3-0.2-0.6-0.4-1-0.4h-7.3c-0.1,0-0.1,0-0.2,0c-0.2,0-0.3,0-0.5,0c-0.2,0-0.7,0.1-1.4,0.5c-0.7,0.4-1.5,1-2.3,2.1
			c-1.6,2.1-3,5.6-3.4,11.9c-0.1,1,0.7,1.8,1.7,1.8c0,0,0.1,0,0.1,0c1,0,1.8-0.7,1.8-1.7c0.3-5.6,1.6-8.5,2.5-9.9v24.3
			c0,1.2,0.8,2.2,2,2.4c1.4,0.2,2.7-0.9,2.7-2.3v-12h0.9v11.9c0,1.2,0.8,2.2,2,2.4c1.4,0.2,2.7-0.9,2.7-2.3V92.1l3.2,2.2
			c0.2,0.7,0.8,1.2,1.6,1.3c0.1,0,0.2,0,0.3,0c1,0,1.9-0.7,2-1.7c1.1-7.3,2.9-12.9,5.1-16.3c0,0,0,0,0,0c-2.6,9-1.5,22-1.5,22
			c0,0.7,1.3,1.2,3.2,1.5V116c0,1.4,1.1,2.6,2.5,2.7c1.5,0.1,2.8-1.1,2.8-2.6v-14.5h2.6V116c0,1.4,1.1,2.6,2.5,2.7
			c1.5,0.1,2.8-1.1,2.8-2.6v-15c1.9-0.3,3.2-0.8,3.2-1.5c0,0,1.1-12.8-1.5-21.8c0.6,0.9,1.1,2,1.6,3.2c1.4,3.3,2.6,7.7,3.4,13
			c0.2,1,1,1.7,2,1.7c0,0,0.1,0,0.1,0c0,0,0,0,0,0c0,0,0.1,0,0.1,0C80.8,94.3,77.2,82.2,77.2,82.2z"/>
	</g>
</g>
<g>
	<g>
		<circle class="st0" cx="107.2" cy="56.6" r="6.8"/>
		<circle class="st0" cx="133.5" cy="81.1" r="5.1"/>
		<path class="st0" d="M140.9,90.1c-0.8-1-1.8-1.6-2.6-1.9c-0.4-0.2-0.8-0.3-1.2-0.3c-0.6-0.3-1.7-0.6-3.7-0.6
			c-2.7,0-3.8,0.5-4.2,0.8l-4.7,2.5c-0.9-10.4-3-16.5-5.3-20c-1.9-3.1-4-4.3-5-4.7c-0.4-0.2-0.8-0.4-1.3-0.4h-11.3
			c-0.4,0-0.9,0.1-1.2,0.3c-1.2,0.4-3.5,1.5-5.7,4.6c-1.8,2.5-3.6,6.3-4.8,12.1c0-0.1,0-0.1-0.1-0.2c0,0.1,0,0.2,0,0.3
			c-0.2,1.4-2,12.8,0.9,13c0,0,0,0,0,0h0c0.8,0,1.3-0.2,1.5-0.6c0.4-0.4,0.7-1,0.8-1.6c0.6-11.7,3.1-17.5,5.2-20.3
			c0.2-0.3,0.4-0.5,0.6-0.8v42.8c0,1.8,1.3,3.5,3.1,3.8c2.4,0.4,4.5-1.4,4.5-3.7V91.1h1.5v23.8c0,1.8,1.3,3.5,3.1,3.8
			c2.4,0.4,4.5-1.4,4.5-3.7V73.3c0.2,0.3,0.3,0.5,0.5,0.8c1.7,3.2,3.7,9.1,4.3,19.7c0.1,1.2,1.1,2.2,2.3,2.2c0,0,0.1,0,0.1,0
			c1-0.1,1.7-0.7,2.1-1.5l3.8-2l-2.4,14.3h2.1v9.8c0,1.2,0.8,2.2,2,2.4c1.4,0.2,2.7-0.9,2.7-2.3v-9.8h0.9v9.8c0,1.2,0.8,2.2,2,2.4
			c1.4,0.2,2.7-0.9,2.7-2.3v-9.8h2.4l-2.4-14.1c0.1,0.2,0.3,0.5,0.4,0.8c0.7,1.5,1.4,4.1,1.4,8.4c0,1,0.8,1.7,1.7,1.7
			c1,0,1.7-0.8,1.7-1.7C143.9,95.6,142.6,92.1,140.9,90.1z"/>
	</g>
</g>
<g>
	<g>
		<rect x="83.4" y="37" class="st0" width="1" height="82"/>
	</g>
</g>
</svg>
