<?xml version="1.0" encoding="utf-8"?>
<!-- Generator: Adobe Illustrator 28.2.0, SVG Export Plug-In . SVG Version: 6.00 Build 0)  -->
<svg version="1.1" id="Layer_1" xmlns="http://www.w3.org/2000/svg" xmlns:xlink="http://www.w3.org/1999/xlink" x="0px" y="0px"
	 viewBox="0 0 1051.5 171.1" style="enable-background:new 0 0 1051.5 171.1;" xml:space="preserve">
<style type="text/css">
	.st0{fill:#242A48;}
	.st1{fill:#C3AA8B;}
</style>
<g>
	<g>
		<path class="st1" d="M166.9,118.8V57.2H179v51.5h21.8v10.1H166.9z"/>
		<path class="st1" d="M227.5,119.9c-3.9,0-7.2-0.4-9.9-1.3c-2.7-0.9-4.8-2.2-6.4-4.2c-1.6-1.9-2.7-4.6-3.4-7.9
			c-0.7-3.3-1-7.4-1-12.4c0-6.4,0.7-11.4,2.1-15.2c1.4-3.8,3.7-6.5,6.9-8.1c3.3-1.6,7.6-2.4,13.1-2.4c5.3,0,9.5,0.4,12.4,1.3
			c3,0.9,5,2.4,6.3,4.6c1.2,2.2,1.8,5.3,1.8,9.2c0,3.4-0.4,6.1-1.2,8.1c-0.8,2.1-2.2,3.7-4.3,4.8c-2.1,1.1-5.1,1.9-9,2.3
			c-3.9,0.4-9,0.6-15.3,0.6h-3v-7.2h13.8c3.1,0,5.2-0.4,6.3-1.1c1.1-0.8,1.7-2.2,1.7-4.3v-9h-10.9c-3,0-5.1,0.4-6.2,1.1
			c-1.1,0.7-1.7,2.1-1.7,4.2v26.4c1.3,0.3,2.7,0.6,4.2,0.7c1.5,0.2,3.4,0.2,5.5,0.2c2.7,0,5.4-0.2,8-0.6s5.7-1,9.2-1.9l1.6,8.7
			c-2.7,1-5.8,1.7-9.4,2.3C235.1,119.6,231.4,119.9,227.5,119.9z"/>
		<path class="st1" d="M279.9,104.5c-5,0-9-0.6-12-1.8c-3-1.2-5.1-3.1-6.5-5.7c-1.3-2.6-2-6.2-2-10.7c0-4.5,0.7-8,2-10.7
			c1.3-2.7,3.5-4.6,6.5-5.8c3-1.2,7-1.8,12-1.8c5.1,0,9.1,0.6,12,1.8s5.1,3.1,6.4,5.7c1.3,2.6,2,6.2,2,10.7c0,4.5-0.6,8-1.9,10.7
			c-1.3,2.7-3.4,4.6-6.4,5.8C289,103.9,285,104.5,279.9,104.5z M300.9,122.3c0,3.1-0.7,5.6-2,7.5c-1.3,1.9-3.5,3.3-6.5,4.2
			c-3,0.9-6.9,1.3-11.8,1.3c-3.7,0-7.3-0.3-10.8-0.8c-3.5-0.5-6.7-1.3-9.4-2.3l1.5-8.9c3.3,0.9,6.2,1.5,8.7,1.9
			c2.5,0.4,5.1,0.6,7.7,0.6c2.4,0,4.5-0.1,6.4-0.2c1.8-0.2,3.6-0.4,5.4-0.7v-6.4c-6.6-0.5-11.3-1-14-1.7c-2.8-0.7-4.2-1.6-4.2-2.8
			l3.2-11.2l7.8,0.1l-0.6,7.6c3.9,0.5,7,1.1,9.5,1.6c2.5,0.5,4.4,1.2,5.7,2.1c1.3,0.9,2.2,1.9,2.8,3.3
			C300.7,118.6,300.9,120.3,300.9,122.3z M271.4,97.1h10.8c2.4,0,4-0.4,4.9-1.2c0.9-0.8,1.4-2.2,1.4-4.2V75.3h-10.8
			c-2.4,0-4,0.4-4.9,1.2c-0.9,0.8-1.4,2.2-1.4,4.2V97.1z M296.5,79.1l-6.8-8.6l8.8-6.7l5.9,5.8L296.5,79.1z"/>
		<path class="st1" d="M326.7,119.9c-5.5,0-9.5-1.2-11.9-3.5c-2.4-2.4-3.6-6.2-3.6-11.6c0-3.4,0.4-6.1,1.1-8.1
			c0.7-2.1,2.1-3.7,4-4.8c2-1.1,4.8-1.9,8.5-2.3c3.7-0.4,8.5-0.6,14.4-0.6h4.8V96h-14c-3,0-5,0.4-6.1,1.1c-1.1,0.8-1.7,2.2-1.7,4.3
			v9.6h11.1c3,0,5-0.4,6.1-1.1c1.1-0.7,1.6-2.1,1.6-4.2v-27c-2.1-0.7-5-1-8.8-1c-2.7,0-5.5,0.2-8.4,0.6c-2.9,0.4-5.9,1-8.9,1.9
			l-1.6-8.7c1.8-0.7,3.9-1.2,6.2-1.7c2.3-0.5,4.6-0.8,7.1-1c2.5-0.2,4.9-0.3,7.3-0.3c4.7,0,8.4,0.5,11.2,1.4c2.8,1,4.9,2.5,6.1,4.6
			c1.2,2.1,1.9,5,1.9,8.5v35.8h-5.8l-3.2-4.9c-2.4,2-5,3.5-7.8,4.5C333.5,119.4,330.3,119.9,326.7,119.9z"/>
		<path class="st1" d="M380.4,109.9c0.7,0.1,1.4,0.2,2.2,0.3c0.8,0.1,1.6,0.2,2.4,0.2l-0.7,8.2c-1.4,0.4-2.8,0.7-4,0.9
			c-1.2,0.2-2.4,0.3-3.5,0.3c-2.9,0-5-0.7-6.5-2c-1.4-1.3-2.1-3.4-2.1-6.2v-57l12.1-1.5V109.9z"/>
		<path class="st1" d="M458.1,117.7c-2.4,0.9-5,1.6-7.7,2c-2.7,0.4-5.8,0.6-9.5,0.6c-4.7,0-8.6-0.5-11.6-1.5c-3-1-5.4-2.7-7.1-5.2
			c-1.7-2.4-3-5.7-3.7-9.9c-0.7-4.2-1.1-9.4-1.1-15.6c0-6.4,0.4-11.6,1.1-15.8c0.8-4.2,2-7.5,3.8-9.9c1.8-2.4,4.3-4.1,7.5-5.1
			c3.2-1,7.3-1.5,12.3-1.5c1.4,0,3.1,0.1,5,0.2c1.9,0.2,3.7,0.4,5.5,0.7c1.8,0.3,3.2,0.7,4.3,1.2l-1.6,9.9c-1.5-0.4-3.2-0.7-5.1-1
			c-1.9-0.3-3.7-0.5-5.4-0.6c-1.7-0.2-3.1-0.2-4.2-0.2c-3.7,0-6.4,0.5-8,1.4c-1.6,0.9-2.4,2.9-2.4,6v35.6c1.6,0.4,3.4,0.7,5.2,0.9
			c1.8,0.2,3.7,0.3,5.6,0.3c2.7,0,5.4-0.2,8.1-0.7c2.7-0.5,5.3-1.1,7.6-1.8L458.1,117.7z"/>
		<path class="st1" d="M488.2,119.9c-4.3,0-8-0.4-10.8-1.2c-2.9-0.8-5.2-2.2-6.9-4.1c-1.7-1.9-2.9-4.6-3.6-7.9
			c-0.7-3.3-1.1-7.5-1.1-12.5c0-5,0.4-9.1,1.1-12.5c0.7-3.3,1.9-5.9,3.6-7.9c1.7-1.9,4-3.3,6.9-4.1c2.9-0.8,6.5-1.2,10.8-1.2
			c4.4,0,8,0.4,10.9,1.2c2.9,0.8,5.2,2.2,6.8,4.1c1.7,1.9,2.9,4.6,3.6,7.8c0.7,3.3,1.1,7.5,1.1,12.5c0,5-0.4,9.1-1.1,12.5
			c-0.7,3.3-1.9,5.9-3.6,7.9c-1.7,1.9-4,3.3-6.9,4.1C496.1,119.5,492.5,119.9,488.2,119.9z M478.5,110.3h14.9c1.8,0,3-0.2,3.6-0.5
			c0.6-0.4,0.9-1,0.9-2V78H483c-1.8,0-3,0.2-3.6,0.5c-0.6,0.4-0.9,1-0.9,2V110.3z"/>
		<path class="st1" d="M523.8,118.8V69.5h5.7l3.3,4.9c2.6-2,5.4-3.5,8.4-4.5c3-1,6.4-1.5,10.2-1.5c4.6,0,8.1,0.8,10.5,2.3
			c2.4,1.5,3.6,3.8,3.6,6.8v41.3h-12.1V78.4h-10.2c-2.8,0-4.7,0.3-5.7,1c-1.1,0.7-1.6,2-1.6,4v35.4H523.8z"/>
		<path class="st1" d="M578,83.2c0-5.3,1.6-9.1,4.7-11.5c3.2-2.4,8-3.6,14.7-3.6c3.2,0,6.2,0.2,9.1,0.5c2.9,0.4,5.7,0.9,8.5,1.6
			l-1.6,8.7c-1.6-0.5-3.5-0.8-5.7-1.1c-2.1-0.3-4.2-0.4-6.3-0.4c-2,0-3.9,0.1-5.7,0.2c-1.8,0.2-3.4,0.4-4.8,0.6v9.8
			c5.5,0.7,9.9,1.5,13.4,2.3c3.4,0.8,6.1,1.8,8,3.1c1.9,1.2,3.2,2.7,4,4.5c0.8,1.8,1.1,4,1.1,6.7c0,3.7-0.7,6.7-2.2,9
			c-1.4,2.3-3.7,4-6.9,5.1s-7.4,1.6-12.6,1.6c-3.1,0-6.2-0.3-9.4-0.8c-3.2-0.5-6.3-1.2-9.4-2.2l1.8-9.4c5,2,10.4,3,16.2,3
			c1.7,0,3.3-0.1,4.7-0.2c1.4-0.2,3.1-0.5,5-0.9v-9.9c-5.8-0.8-10.4-1.6-13.9-2.3c-3.5-0.8-6.2-1.7-8-2.9c-1.8-1.2-3-2.7-3.7-4.5
			C578.3,88.3,578,86,578,83.2z"/>
		<path class="st1" d="M670.6,69.5v49.3h-5.8l-3.2-4.9c-2.7,2-5.6,3.5-8.8,4.5c-3.2,1-6.7,1.5-10.6,1.5c-4.6,0-8-0.9-10.2-2.7
			s-3.3-4.6-3.3-8.5V69.5h12.1V111h10.2c2.8,0,4.8-0.4,5.8-1.1c1-0.7,1.6-2,1.6-3.9V69.5H670.6z"/>
		<path class="st1" d="M698.2,109.9c0.7,0.1,1.4,0.2,2.2,0.3c0.8,0.1,1.6,0.2,2.4,0.2l-0.7,8.2c-1.4,0.4-2.8,0.7-4,0.9
			c-1.2,0.2-2.4,0.3-3.5,0.3c-2.9,0-5-0.7-6.5-2c-1.4-1.3-2.1-3.4-2.1-6.2v-57l12.1-1.5V109.9z"/>
		<path class="st1" d="M710.3,77.7v-8.2h26.9v8.2H710.3z M725.3,119.9c-2.9,0-5-0.7-6.4-2c-1.4-1.3-2.1-3.4-2.1-6.2V59.6l12-3.1
			v53.4c1,0.1,2,0.2,3,0.3c1,0.1,2.3,0.2,3.8,0.2l-0.7,8.2c-2.1,0.4-3.9,0.7-5.5,0.9C727.8,119.8,726.5,119.9,725.3,119.9z"/>
		<path class="st1" d="M761.5,119.9c-5.5,0-9.5-1.2-11.9-3.5c-2.4-2.4-3.6-6.2-3.6-11.6c0-3.4,0.4-6.1,1.1-8.1
			c0.7-2.1,2.1-3.7,4-4.8c2-1.1,4.8-1.9,8.5-2.3c3.7-0.4,8.5-0.6,14.4-0.6h4.8V96h-14c-3,0-5,0.4-6.1,1.1c-1.1,0.8-1.7,2.2-1.7,4.3
			v9.6h11.1c3,0,5-0.4,6.1-1.1c1.1-0.7,1.6-2.1,1.6-4.2v-27c-2.1-0.7-5-1-8.8-1c-2.7,0-5.5,0.2-8.4,0.6c-2.9,0.4-5.9,1-8.9,1.9
			l-1.6-8.7c1.8-0.7,3.9-1.2,6.2-1.7c2.3-0.5,4.6-0.8,7.1-1c2.5-0.2,4.9-0.3,7.3-0.3c4.7,0,8.4,0.5,11.2,1.4c2.8,1,4.9,2.5,6.1,4.6
			c1.2,2.1,1.9,5,1.9,8.5v35.8h-5.8l-3.2-4.9c-2.4,2-5,3.5-7.8,4.5C768.2,119.4,765,119.9,761.5,119.9z"/>
		<path class="st1" d="M799.6,77.7v-8.2h26.9v8.2H799.6z M814.6,119.9c-2.9,0-5-0.7-6.4-2c-1.4-1.3-2.1-3.4-2.1-6.2V59.6l12-3.1
			v53.4c1,0.1,2,0.2,3,0.3c1,0.1,2.3,0.2,3.8,0.2l-0.7,8.2c-2.1,0.4-3.9,0.7-5.5,0.9C817.1,119.8,815.8,119.9,814.6,119.9z"/>
		<path class="st1" d="M844.5,61.9c-2.8,0-4.6-0.5-5.6-1.4c-1-1-1.5-2.8-1.5-5.5c0-2.8,0.5-4.6,1.5-5.6c1-1,2.9-1.5,5.6-1.5
			c2.7,0,4.5,0.5,5.5,1.5c1,1,1.5,2.9,1.5,5.6c0,2.7-0.5,4.5-1.4,5.5C849.1,61.5,847.3,61.9,844.5,61.9z M838.4,70.6l12.1-1.7v49.9
			h-12.1V70.6z"/>
		<path class="st1" d="M886.2,119.9c-4.3,0-8-0.4-10.8-1.2c-2.9-0.8-5.2-2.2-6.9-4.1c-1.7-1.9-2.9-4.6-3.6-7.9
			c-0.7-3.3-1.1-7.5-1.1-12.5c0-5,0.4-9.1,1.1-12.5c0.7-3.3,1.9-5.9,3.6-7.9c1.7-1.9,4-3.3,6.9-4.1c2.9-0.8,6.5-1.2,10.8-1.2
			c4.4,0,8,0.4,10.9,1.2c2.9,0.8,5.2,2.2,6.8,4.1c1.7,1.9,2.9,4.6,3.6,7.8c0.7,3.3,1.1,7.5,1.1,12.5c0,5-0.4,9.1-1.1,12.5
			c-0.7,3.3-1.9,5.9-3.6,7.9c-1.7,1.9-4,3.3-6.9,4.1C894.2,119.5,890.6,119.9,886.2,119.9z M876.6,110.3h14.9c1.8,0,3-0.2,3.6-0.5
			c0.6-0.4,0.9-1,0.9-2V78h-14.9c-1.8,0-3,0.2-3.6,0.5c-0.6,0.4-0.9,1-0.9,2V110.3z"/>
		<path class="st1" d="M921.9,118.8V69.5h5.7l3.3,4.9c2.6-2,5.4-3.5,8.4-4.5c3-1,6.4-1.5,10.2-1.5c4.6,0,8.1,0.8,10.5,2.3
			c2.4,1.5,3.6,3.8,3.6,6.8v41.3h-12.1V78.4h-10.2c-2.8,0-4.7,0.3-5.7,1c-1.1,0.7-1.6,2-1.6,4v35.4H921.9z"/>
		<path class="st1" d="M976,83.2c0-5.3,1.6-9.1,4.7-11.5c3.2-2.4,8-3.6,14.7-3.6c3.2,0,6.2,0.2,9.1,0.5c2.9,0.4,5.7,0.9,8.5,1.6
			l-1.6,8.7c-1.6-0.5-3.5-0.8-5.7-1.1c-2.1-0.3-4.2-0.4-6.3-0.4c-2,0-3.9,0.1-5.7,0.2c-1.8,0.2-3.4,0.4-4.8,0.6v9.8
			c5.5,0.7,9.9,1.5,13.4,2.3c3.4,0.8,6.1,1.8,8,3.1c1.9,1.2,3.2,2.7,4,4.5c0.8,1.8,1.1,4,1.1,6.7c0,3.7-0.7,6.7-2.2,9
			c-1.4,2.3-3.7,4-6.9,5.1s-7.4,1.6-12.6,1.6c-3.1,0-6.2-0.3-9.4-0.8c-3.2-0.5-6.3-1.2-9.4-2.2l1.8-9.4c5,2,10.4,3,16.2,3
			c1.7,0,3.3-0.1,4.7-0.2c1.4-0.2,3.1-0.5,5-0.9v-9.9c-5.8-0.8-10.4-1.6-13.9-2.3c-3.5-0.8-6.2-1.7-8-2.9c-1.8-1.2-3-2.7-3.7-4.5
			C976.3,88.3,976,86,976,83.2z"/>
	</g>
</g>
<g>
	<path class="st1" d="M44.1,86.1h6.5c0.8,0,1.5-0.7,1.5-1.5s-0.7-1.5-1.5-1.5h-6.5c-0.8,0-1.5,0.7-1.5,1.5S43.3,86.1,44.1,86.1z"/>
	<path class="st1" d="M57,89.8H44.1c-0.8,0-1.5,0.7-1.5,1.5s0.7,1.5,1.5,1.5H57c0.8,0,1.5-0.7,1.5-1.5S57.8,89.8,57,89.8z"/>
	<path class="st1" d="M57,96.4H44.1c-0.8,0-1.5,0.7-1.5,1.5s0.7,1.5,1.5,1.5H57c0.8,0,1.5-0.7,1.5-1.5S57.8,96.4,57,96.4z"/>
	<path class="st1" d="M98.6,107c0.3,0.3,0.7,0.4,1.1,0.4c0.1,0,0.2,0,0.3,0l7-1.3c2,0.8,4.1,1.3,6.3,1.3c8.9,0,16.2-7.3,16.2-16.2
		c0-4.8-2.1-9.1-5.5-12.1l-6.7-14.9c2.1-1.2,3.5-3.4,3.5-5.8c0-3.6-3.1-6.7-6.7-6.7c-1.5,0-2.9,0.5-4.1,1.4
		c-0.2-0.1-0.5-0.2-0.7-0.3c-0.6-0.2-1.2-0.5-1.8-0.8c-7.1-3.6-15.1-3.3-19.7-1.2c-0.3-0.2-0.6-0.4-0.9-0.6
		c0.6-5.2-3.3-11.1-3.5-11.4c-0.3-0.4-0.7-0.7-1.2-0.7c0,0,0,0,0,0c-0.5,0-1,0.2-1.2,0.6c-0.2,0.3-4.2,6.1-3.5,11.5
		c-0.2,0.1-0.3,0.2-0.4,0.3c-4.6-2-12.3-2.5-19.5,1.3c0,0-0.1,0.1-0.1,0.1c-0.7,0.5-1.4,0.8-2.1,1.1c-1.1-0.9-2.6-1.5-4.2-1.5
		c-3.7,0-6.7,3-6.7,6.7c0,2.5,1.4,4.8,3.5,5.9l-5.7,13.3c-4.6,2.9-7.6,7.9-7.6,13.7c0,2.9,0.8,5.7,2.3,8.2l-1.1,6.2
		c-0.1,0.5,0.1,1,0.4,1.3c0.3,0.3,0.7,0.4,1.1,0.4c0.1,0,0.2,0,0.3,0l7-1.3c2,0.8,4.1,1.3,6.3,1.3c8.9,0,16.2-7.3,16.2-16.2
		c-0.1-5.3-2.8-10.1-6.7-13c0-0.1,0-0.1,0-0.2l-5.9-13.9c0.9-0.5,1.7-1.2,2.3-2.1H75c0.8,1.2,1.8,2.2,3,2.9l-2,40.4
		c0,0.2,0,0.4,0.1,0.6c-2,1.6-3.3,4-3.5,6.7h-8.8c-3.4,0-6.1,2.7-6.1,6.1v2.4h-2.1c-3.4,0-6.1,2.7-6.1,6.1v4c0,0.8,0.7,1.5,1.5,1.5
		h62.3c0.8,0,1.5-0.7,1.5-1.5v-4c0-3.4-2.7-6.1-6.1-6.1h-1.9v-2.4c0-3.4-2.7-6.1-6.1-6.1h-8.9c-0.2-2.7-1.5-5.1-3.5-6.7l-1.9-41
		c1.2-0.7,2.3-1.7,3-2.9h18.9c0.6,0.9,1.4,1.6,2.4,2.2l-4.9,12.6C100.7,79.5,97,85,97,91.3c0,2.9,0.8,5.7,2.3,8.2l-1.1,6.2
		C98.1,106.2,98.3,106.7,98.6,107z M117.6,58.4c0,2-1.7,3.7-3.7,3.7s-3.7-1.7-3.7-3.7s1.7-3.7,3.7-3.7S117.6,56.4,117.6,58.4z
		 M84.7,62.5c-0.3,0-0.5,0.1-0.7,0.3c-0.6,0.2-1.1,0.3-1.8,0.3c-0.6,0-1.2-0.1-1.8-0.3c-0.2-0.1-0.4-0.2-0.7-0.3
		c-1.1-0.5-2-1.4-2.5-2.4c0-0.1-0.1-0.2-0.1-0.3c-0.3-0.7-0.5-1.5-0.5-2.3c0-3.1,2.5-5.6,5.6-5.6s5.6,2.5,5.6,5.6
		C87.8,59.7,86.5,61.6,84.7,62.5z M82.1,42.7c0.9,1.8,1.8,4.2,1.8,6.3c-0.5-0.1-1.1-0.2-1.7-0.2c-0.7,0-1.3,0.1-2,0.2
		C80.3,46.8,81.2,44.4,82.1,42.7z M50.9,54.7c2,0,3.7,1.7,3.7,3.7c0,2-1.7,3.7-3.7,3.7c-2,0-3.7-1.7-3.7-3.7
		C47.3,56.3,48.9,54.7,50.9,54.7z M63.8,91.3c0,7.3-5.9,13.2-13.2,13.2c-1.9,0-3.7-0.4-5.4-1.2c-0.2-0.1-0.4-0.1-0.6-0.1
		c-0.1,0-0.2,0-0.3,0l-5.3,1l0.8-4.7c0.1-0.4,0-0.8-0.2-1.1c-1.4-2.1-2.1-4.5-2.1-7c0-4.7,2.5-8.9,6.3-11.2c0.2-0.1,0.3-0.2,0.5-0.3
		c1.9-1.1,4.1-1.7,6.4-1.7C57.8,78.1,63.7,84,63.8,91.3z M55.9,76c-1.7-0.6-3.4-0.9-5.3-0.9c-1.6,0-3.1,0.2-4.5,0.7L50.7,65
		c0.1,0,0.2,0,0.3,0c0.1,0,0.2,0,0.3,0L55.9,76z M57.6,59.1c0-0.2,0-0.5,0-0.7c0-1-0.2-1.9-0.6-2.8c0.6-0.3,1.2-0.6,1.8-1
		c5.9-3,12-2.9,16-1.5c-0.8,1.3-1.2,2.8-1.2,4.4c0,0.6,0.1,1.1,0.2,1.6H57.6z M111.8,127.3v2.5H52.6v-2.5c0-1.7,1.4-3.1,3.1-3.1h2.9
		c0.2,0.1,0.4,0.1,0.6,0.1h46.1c0.2,0,0.4-0.1,0.6-0.1h2.8C110.4,124.2,111.8,125.6,111.8,127.3z M103.8,118.8v2.4H60.7v-2.4
		c0-1.7,1.4-3.1,3.1-3.1h36.9C102.4,115.8,103.8,117.2,103.8,118.8z M75.6,112.8c0.4-3.3,3.2-5.9,6.6-5.9s6.2,2.6,6.6,5.9H75.6z
		 M85.2,104.3c-0.9-0.3-2-0.5-3-0.5c-1.1,0-2.2,0.2-3.2,0.6L80.9,66c0.4,0.1,0.8,0.1,1.3,0.1c0.4,0,0.8,0,1.3-0.1L85.2,104.3z
		 M90.7,59.1c0.1-0.5,0.2-1.1,0.2-1.6c0-1.5-0.4-3-1.1-4.2c3.9-1.5,10.5-1.6,16.3,1.4c0.7,0.3,1.3,0.6,1.9,0.9
		c-0.4,0.9-0.7,1.8-0.7,2.8c0,0.2,0,0.5,0,0.7H90.7z M113.7,65c0.1,0,0.1,0,0.2,0c0.1,0,0.2,0,0.3,0l5.1,11.3
		c-1.9-0.8-3.9-1.2-6.1-1.2c-1.2,0-2.4,0.1-3.5,0.4L113.7,65z M113.2,78.1c3.1,0,6,1.1,8.3,3c0.1,0.2,0.3,0.3,0.5,0.4
		c2.7,2.4,4.4,5.9,4.4,9.8c0,7.3-5.9,13.2-13.2,13.2c-1.9,0-3.7-0.4-5.4-1.2c-0.2-0.1-0.4-0.1-0.6-0.1c-0.1,0-0.2,0-0.3,0l-5.3,1
		l0.8-4.7c0.1-0.4,0-0.8-0.2-1.1c-1.4-2.1-2.1-4.5-2.1-7C100,84,105.9,78.1,113.2,78.1z"/>
	<path class="st1" d="M108.9,88.6c0.8,0,1.5-0.7,1.5-1.5c0-1.6,1.3-2.9,2.9-2.9c1.5,0,2.9,1.4,2.9,2.9c0,1.2-0.7,2.2-1.8,2.6
		c-1.6,0.7-2.7,2.3-2.7,4v0.7c0,0.8,0.7,1.5,1.5,1.5s1.5-0.7,1.5-1.5v-0.7c0-0.5,0.3-1.1,0.8-1.3c2.2-0.8,3.7-3,3.7-5.4
		c0-3.2-2.7-5.9-5.9-5.9c-3.3,0-5.9,2.7-5.9,5.9C107.4,88,108.1,88.6,108.9,88.6z"/>
	<path class="st1" d="M113.2,96.9c-0.8,0-1.5,0.7-1.5,1.5v1.3c0,0.8,0.7,1.5,1.5,1.5s1.5-0.7,1.5-1.5v-1.3
		C114.7,97.6,114,96.9,113.2,96.9z"/>
</g>
</svg>
