<?xml version="1.0" encoding="utf-8"?>
<!-- Generator: Adobe Illustrator 28.2.0, SVG Export Plug-In . SVG Version: 6.00 Build 0)  -->
<svg version="1.1" id="Layer_1" xmlns="http://www.w3.org/2000/svg" xmlns:xlink="http://www.w3.org/1999/xlink" x="0px" y="0px"
	 viewBox="0 0 606.9 171.1" style="enable-background:new 0 0 606.9 171.1;" xml:space="preserve">
<style type="text/css">
	.st0{fill:#C3AA8B;}
	.st1{fill:#242A48;}
</style>
<g>
	<g>
		<g>
			<path class="st0" d="M168.8,120.8V59.2h12.1v51.5h21.8v10.1H168.8z"/>
			<path class="st0" d="M217.6,63.9c-2.8,0-4.6-0.5-5.6-1.4c-1-1-1.5-2.8-1.5-5.5c0-2.8,0.5-4.6,1.5-5.6c1-1,2.9-1.5,5.6-1.5
				c2.7,0,4.5,0.5,5.5,1.5c1,1,1.5,2.9,1.5,5.6c0,2.7-0.5,4.5-1.4,5.5C222.2,63.5,220.3,63.9,217.6,63.9z M211.5,72.6l12.1-1.7v49.9
				h-12.1V72.6z"/>
			<path class="st0" d="M235.8,79.7v-8.2h26.9v8.2H235.8z M250.8,121.9c-2.9,0-5-0.7-6.4-2c-1.4-1.3-2.1-3.4-2.1-6.2V61.6l12-3.1
				v53.4c1,0.1,2,0.2,3,0.3c1,0.1,2.3,0.2,3.8,0.2l-0.7,8.2c-2.1,0.4-3.9,0.7-5.5,0.9C253.4,121.8,252,121.9,250.8,121.9z"/>
			<path class="st0" d="M280.8,63.9c-2.8,0-4.6-0.5-5.6-1.4c-1-1-1.5-2.8-1.5-5.5c0-2.8,0.5-4.6,1.5-5.6c1-1,2.9-1.5,5.6-1.5
				c2.7,0,4.5,0.5,5.5,1.5c1,1,1.5,2.9,1.5,5.6c0,2.7-0.5,4.5-1.4,5.5C285.4,63.5,283.5,63.9,280.8,63.9z M274.6,72.6l12.1-1.7v49.9
				h-12.1V72.6z"/>
			<path class="st0" d="M319.1,106.5c-5,0-9-0.6-12-1.8c-3-1.2-5.1-3.1-6.5-5.7c-1.3-2.6-2-6.2-2-10.7c0-4.5,0.7-8,2-10.7
				c1.3-2.7,3.5-4.6,6.5-5.8c3-1.2,7-1.8,12-1.8c5.1,0,9.1,0.6,12,1.8s5.1,3.1,6.4,5.7c1.3,2.6,2,6.2,2,10.7c0,4.5-0.6,8-1.9,10.7
				c-1.3,2.7-3.4,4.6-6.4,5.8C328.2,105.9,324.1,106.5,319.1,106.5z M340.1,124.3c0,3.1-0.7,5.6-2,7.5c-1.3,1.9-3.5,3.3-6.5,4.2
				c-3,0.9-6.9,1.3-11.8,1.3c-3.7,0-7.3-0.3-10.8-0.8c-3.5-0.5-6.7-1.3-9.4-2.3l1.5-8.9c3.3,0.9,6.2,1.5,8.7,1.9
				c2.5,0.4,5.1,0.6,7.7,0.6c2.4,0,4.5-0.1,6.4-0.2c1.8-0.2,3.6-0.4,5.4-0.7v-6.4c-6.6-0.5-11.3-1-14-1.7c-2.8-0.7-4.2-1.6-4.2-2.8
				l3.2-11.2l7.8,0.1l-0.6,7.6c3.9,0.5,7,1.1,9.5,1.6c2.5,0.5,4.4,1.2,5.7,2.1c1.3,0.9,2.2,1.9,2.8,3.3
				C339.8,120.6,340.1,122.3,340.1,124.3z M310.5,99.1h10.8c2.4,0,4-0.4,4.9-1.2c0.9-0.8,1.4-2.2,1.4-4.2V77.3h-10.8
				c-2.4,0-4,0.4-4.9,1.2c-0.9,0.8-1.4,2.2-1.4,4.2V99.1z M335.6,81.1l-6.8-8.6l8.8-6.7l5.9,5.8L335.6,81.1z"/>
			<path class="st0" d="M365.9,121.9c-5.5,0-9.5-1.2-11.9-3.5c-2.4-2.4-3.6-6.2-3.6-11.6c0-3.3,0.4-6.1,1.1-8.1
				c0.7-2.1,2.1-3.7,4-4.8c2-1.1,4.8-1.9,8.5-2.3c3.7-0.4,8.5-0.6,14.4-0.6h4.8V98h-14c-3,0-5,0.4-6.1,1.1c-1.1,0.8-1.7,2.2-1.7,4.3
				v9.6h11.1c3,0,5-0.4,6.1-1.1c1.1-0.7,1.6-2.1,1.6-4.2v-27c-2.1-0.7-5-1-8.8-1c-2.7,0-5.5,0.2-8.4,0.6c-2.9,0.4-5.9,1-8.9,1.9
				l-1.6-8.7c1.8-0.7,3.9-1.2,6.2-1.7c2.3-0.5,4.6-0.8,7.1-1c2.5-0.2,4.9-0.3,7.3-0.3c4.7,0,8.4,0.5,11.2,1.4c2.8,1,4.9,2.5,6.1,4.6
				c1.2,2.1,1.9,5,1.9,8.5v35.8h-5.8l-3.2-4.9c-2.4,2-5,3.5-7.8,4.5C372.6,121.4,369.4,121.9,365.9,121.9z"/>
			<path class="st0" d="M404,79.7v-8.2h26.9v8.2H404z M419,121.9c-2.9,0-5-0.7-6.4-2c-1.4-1.3-2.1-3.4-2.1-6.2V61.6l12-3.1v53.4
				c1,0.1,2,0.2,3,0.3c1,0.1,2.3,0.2,3.8,0.2l-0.7,8.2c-2.1,0.4-3.9,0.7-5.5,0.9C421.6,121.8,420.2,121.9,419,121.9z"/>
			<path class="st0" d="M449,63.9c-2.8,0-4.6-0.5-5.6-1.4c-1-1-1.5-2.8-1.5-5.5c0-2.8,0.5-4.6,1.5-5.6c1-1,2.9-1.5,5.6-1.5
				c2.7,0,4.5,0.5,5.5,1.5c1,1,1.5,2.9,1.5,5.6c0,2.7-0.5,4.5-1.4,5.5C453.6,63.5,451.7,63.9,449,63.9z M442.9,72.6l12.1-1.7v49.9
				h-12.1V72.6z"/>
			<path class="st0" d="M490.7,121.9c-4.3,0-8-0.4-10.8-1.2c-2.9-0.8-5.2-2.2-6.9-4.1c-1.7-1.9-2.9-4.6-3.6-7.9
				c-0.7-3.3-1.1-7.5-1.1-12.5c0-5,0.4-9.1,1.1-12.5c0.7-3.3,1.9-5.9,3.6-7.9c1.7-1.9,4-3.3,6.9-4.1c2.9-0.8,6.5-1.2,10.8-1.2
				c4.4,0,8,0.4,10.9,1.2c2.9,0.8,5.2,2.2,6.8,4.1c1.7,1.9,2.9,4.6,3.6,7.8c0.7,3.3,1.1,7.5,1.1,12.5c0,5-0.4,9.2-1.1,12.5
				c-0.7,3.3-1.9,5.9-3.6,7.9c-1.7,1.9-4,3.3-6.9,4.1C498.6,121.5,495,121.9,490.7,121.9z M481,112.3h14.9c1.8,0,3-0.2,3.6-0.5
				c0.6-0.4,0.9-1,0.9-2V80h-14.9c-1.8,0-3,0.2-3.6,0.5c-0.6,0.4-0.9,1-0.9,2V112.3z"/>
			<path class="st0" d="M526.3,120.8V71.5h5.7l3.3,4.9c2.6-2,5.4-3.5,8.4-4.5c3-1,6.4-1.5,10.2-1.5c4.6,0,8.1,0.8,10.5,2.3
				c2.4,1.5,3.6,3.8,3.6,6.8v41.3H556V80.4h-10.2c-2.8,0-4.7,0.3-5.7,1c-1.1,0.7-1.6,2-1.6,4v35.4H526.3z"/>
		</g>
	</g>
</g>
<g>
	<g>
		<path class="st0" d="M139.5,76.5c0-0.5,0-0.9,0-1l0-0.1l0-0.1c-0.3-5.6-4.8-7.5-9.2-9.3l-1.8-0.7c1-1.4,1.5-3.2,1.5-5.1
			c0-4.7-3.5-8.6-7.8-8.6s-7.8,3.8-7.8,8.6c0,1.9,0.6,3.6,1.5,5l-1.9,0.8c-2.2,0.9-4.1,1.8-5.6,3v-3.4h1.8V55.3h-5.3
			c0,0,0-3.9,0-4.2l0-0.1l0-0.1c-0.3-5.7-4.8-7.5-9.2-9.3l-1.4-0.6c0.7-1.3,1.1-2.8,1.1-4.4c0-4.7-3.5-8.6-7.7-8.6
			c-4.3,0-7.7,3.9-7.7,8.6c0,1.6,0.4,3.1,1.1,4.4l-1.5,0.6c-4.9,2.1-8.7,4.1-9,9.5c0,0.2,0,2.7,0,4.2h-5v10.3h1.8V69
			c-1.7-1.2-3.7-2.1-5.8-2.9l-1.8-0.7c1-1.4,1.5-3.2,1.5-5.1c0-4.7-3.5-8.6-7.8-8.6s-7.8,3.8-7.8,8.6c0,1.9,0.6,3.6,1.5,5l-1.9,0.8
			c-4.9,2.1-8.8,4.1-9.1,9.3l0,0.1l0,0.1c0,0.1,0,0.5,0,1h-3.5v10.3h1.2v18.7h3.6v-2.1V86.8h29.1h1.7l0,0v6.6h0h-1.7h-8.7
			c-0.9,0-1.7,0.7-1.7,1.7v8.8v15.7c0,0.9,0.7,1.7,1.7,1.7h8l6.1,6.1l4.8-6.1h3c-0.1,0.6-0.2,1.1-0.2,1.7c0,1.4,0.3,2.7,0.8,3.8
			l-1.2,0.5c-5,2.1-8.8,4.2-9.1,9.4l-0.1,1.7l3.5,0.2l0.1-1.7c0,0,0-0.1,0-0.1c0.2-2.9,2-4.2,7-6.3l1.9-0.8c1.3,1.2,3,1.9,4.9,1.9
			c1.8,0,3.5-0.7,4.8-1.9l1.9,0.8c5.1,2.1,6.9,3.4,7.1,6.3c0,0,0,0.1,0,0.1l0.1,1.7l3.5-0.2l-0.1-1.7c-0.3-5.7-4.9-7.6-9.2-9.4
			l-1.1-0.5c0.5-1.2,0.8-2.5,0.8-3.9c0-0.6-0.1-1.2-0.2-1.7h21.8c0.9,0,1.7-0.7,1.7-1.7v-16.2v-3.1c0-3.8-3.1-6.9-6.9-6.9h-3.5h-1.7
			v-6.6h0h30.8v17v1.7h3.6V86.8h1.8V76.5H139.5z M139.3,83.2h-31h-1.7h-1.7v-3.6h1.7h1.7h31C139.3,79.5,139.3,83.2,139.3,83.2z
			 M111.7,97.1c1.9,0,3.4,1.5,3.4,3.4v3.4v10.3c0,1.9-1.5,3.4-3.4,3.4H93.8c-1.4-2.1-3.7-3.4-6.2-3.4s-4.8,1.3-6.2,3.4h-6l-3.4,4.3
			l-4.3-4.3h-4.1c-1.9,0-3.4-1.5-3.4-3.4v-10.3v-3.4c0-1.9,1.5-3.4,3.4-3.4H67h1.7l0,0h1.7h0h1.7h30.9h1.7l0,0h1.7l0,0h1.7H111.7z
			 M92,122.7c0,0.9-0.2,1.8-0.6,2.5c-0.3,0.6-0.6,1-1,1.4c-0.5,0.5-1.2,0.9-1.9,1.1c-0.3,0.1-0.6,0.1-0.8,0.1c-0.3,0-0.7-0.1-1-0.1
			c-0.7-0.2-1.3-0.6-1.8-1.1c-0.4-0.4-0.7-0.9-1-1.5c-0.3-0.7-0.5-1.6-0.5-2.5c0-0.6,0.1-1.2,0.3-1.7c0.2-0.6,0.5-1.2,0.9-1.7
			c0.8-1.1,1.9-1.7,3.2-1.7c1.3,0,2.4,0.7,3.2,1.7c0.4,0.5,0.7,1.1,0.9,1.7C91.9,121.5,92,122.1,92,122.7z M35.9,79.5h31h1.7h1.7
			v3.6h-1.7h-1.7h-31V79.5z M39.6,75.5c0.2-2.9,2-4.2,7-6.3l3.3-1.4c1.1,0.6,2.3,1,3.6,1c1.2,0,2.4-0.3,3.5-0.9l3.2,1.3
			c5.1,2.1,6.8,3.3,7.1,6.2c0,0.1,0,0.1,0,0.2c0,0.2,0,0.6,0,1h0H39.6C39.6,76.1,39.6,75.7,39.6,75.5z M49,59.9
			c0-2.8,1.9-5.2,4.3-5.2c2.4,0,4.3,2.3,4.3,5.2c0,1.5-0.5,2.8-1.3,3.7c-0.5,0.5-1,0.9-1.6,1.2c-0.4,0.2-0.9,0.3-1.3,0.3
			c-0.5,0-1-0.1-1.4-0.3c-0.6-0.3-1.1-0.7-1.6-1.2C49.5,62.6,49,61.3,49,59.9z M68.6,59h1.8h34.6h1.7v3.6v0H68.6v0V59z M74,50.9
			c0.2-2.9,2-4.2,7-6.3l2.5-1c1.2,0.9,2.7,1.5,4.4,1.5c1.6,0,3.1-0.5,4.3-1.4l2.4,1c5.1,2.1,6.9,3.3,7.1,6.3c0,0.3,0,1.2,0,4.5H74
			C74,52.1,74,51.2,74,50.9z M83.4,36.7c0-2.8,1.9-5.2,4.3-5.2c2.4,0,4.3,2.3,4.3,5.2c0,1.2-0.3,2.2-0.9,3.1c-0.3,0.5-0.8,1-1.2,1.3
			c-0.6,0.5-1.4,0.7-2.2,0.7c-0.8,0-1.6-0.3-2.3-0.8c-0.5-0.4-0.9-0.8-1.2-1.4C83.7,38.8,83.4,37.8,83.4,36.7z M108.4,75.5
			c0.2-2.9,2-4.2,7-6.3l3.3-1.4c1.1,0.6,2.3,1,3.6,1c1.2,0,2.4-0.3,3.5-0.9l3.2,1.3c5.1,2.1,6.9,3.3,7.1,6.3c0,0.2,0,0.6,0,1h-27.5
			C108.4,76.1,108.4,75.7,108.4,75.5z M117.9,59.9c0-2.8,1.9-5.2,4.3-5.2s4.3,2.3,4.3,5.2c0,1.5-0.5,2.8-1.3,3.7
			c-0.5,0.5-1,0.9-1.6,1.2c-0.4,0.2-0.9,0.3-1.3,0.3c-0.5,0-1-0.1-1.4-0.3c-0.6-0.3-1.1-0.7-1.6-1.2
			C118.4,62.6,117.9,61.3,117.9,59.9z M70.4,66.2h34.4v10.3h-3.6v10.3h1.8v6.6H72.2v-6.6H74V76.5h-3.6c0-0.5,0-0.9,0-1l0-0.1l0-0.1
			c0,0,0-0.1,0-0.1L70.4,66.2L70.4,66.2z M94.5,74.7H80.6v-3.6h13.9V74.7z M46.8,91.6h6.6v3.6h-6.6V91.6z M122.4,91.6h6.6v3.6h-6.6
			V91.6z M94.5,103.7H84.3v-1.8v-1.8h10.3v1.8V103.7z M72.1,103.7h-1.7v-1.8v-1.8h1.7h8.6v1.8v1.8H72.1z M104.8,100.1L104.8,100.1
			v1.8v1.8v0h-1.7h-5v-1.8v-1.8h5H104.8z M70.4,107.3h26v3.6h-26V107.3z"/>
	</g>
</g>
</svg>
